%TF.GenerationSoftware,KiCad,Pcbnew,(7.0.0)*%
%TF.CreationDate,2023-09-11T13:22:16+02:00*%
%TF.ProjectId,kira plate,6b697261-2070-46c6-9174-652e6b696361,rev?*%
%TF.SameCoordinates,Original*%
%TF.FileFunction,Legend,Top*%
%TF.FilePolarity,Positive*%
%FSLAX46Y46*%
G04 Gerber Fmt 4.6, Leading zero omitted, Abs format (unit mm)*
G04 Created by KiCad (PCBNEW (7.0.0)) date 2023-09-11 13:22:16*
%MOMM*%
%LPD*%
G01*
G04 APERTURE LIST*
%ADD10C,0.150000*%
%ADD11C,0.800000*%
G04 APERTURE END LIST*
D10*
X16980742Y-34167135D02*
X16909313Y-34024277D01*
X16909313Y-34024277D02*
X16909313Y-33738563D01*
X16909313Y-33738563D02*
X16980742Y-33595706D01*
X16980742Y-33595706D02*
X17052170Y-33524277D01*
X17052170Y-33524277D02*
X17195027Y-33452849D01*
X17195027Y-33452849D02*
X17623599Y-33452849D01*
X17623599Y-33452849D02*
X17766456Y-33524277D01*
X17766456Y-33524277D02*
X17837885Y-33595706D01*
X17837885Y-33595706D02*
X17909313Y-33738563D01*
X17909313Y-33738563D02*
X17909313Y-34024277D01*
X17909313Y-34024277D02*
X17837885Y-34167135D01*
X16909313Y-35024277D02*
X16980742Y-34881420D01*
X16980742Y-34881420D02*
X17052170Y-34809991D01*
X17052170Y-34809991D02*
X17195027Y-34738563D01*
X17195027Y-34738563D02*
X17623599Y-34738563D01*
X17623599Y-34738563D02*
X17766456Y-34809991D01*
X17766456Y-34809991D02*
X17837885Y-34881420D01*
X17837885Y-34881420D02*
X17909313Y-35024277D01*
X17909313Y-35024277D02*
X17909313Y-35238563D01*
X17909313Y-35238563D02*
X17837885Y-35381420D01*
X17837885Y-35381420D02*
X17766456Y-35452849D01*
X17766456Y-35452849D02*
X17623599Y-35524277D01*
X17623599Y-35524277D02*
X17195027Y-35524277D01*
X17195027Y-35524277D02*
X17052170Y-35452849D01*
X17052170Y-35452849D02*
X16980742Y-35381420D01*
X16980742Y-35381420D02*
X16909313Y-35238563D01*
X16909313Y-35238563D02*
X16909313Y-35024277D01*
X17909313Y-36167134D02*
X16909313Y-36167134D01*
X17766456Y-36167134D02*
X17837885Y-36238563D01*
X17837885Y-36238563D02*
X17909313Y-36381420D01*
X17909313Y-36381420D02*
X17909313Y-36595706D01*
X17909313Y-36595706D02*
X17837885Y-36738563D01*
X17837885Y-36738563D02*
X17695027Y-36809992D01*
X17695027Y-36809992D02*
X16909313Y-36809992D01*
X16980742Y-38167135D02*
X16909313Y-38024277D01*
X16909313Y-38024277D02*
X16909313Y-37738563D01*
X16909313Y-37738563D02*
X16980742Y-37595706D01*
X16980742Y-37595706D02*
X17052170Y-37524277D01*
X17052170Y-37524277D02*
X17195027Y-37452849D01*
X17195027Y-37452849D02*
X17623599Y-37452849D01*
X17623599Y-37452849D02*
X17766456Y-37524277D01*
X17766456Y-37524277D02*
X17837885Y-37595706D01*
X17837885Y-37595706D02*
X17909313Y-37738563D01*
X17909313Y-37738563D02*
X17909313Y-38024277D01*
X17909313Y-38024277D02*
X17837885Y-38167135D01*
X16980742Y-39381420D02*
X16909313Y-39238563D01*
X16909313Y-39238563D02*
X16909313Y-38952849D01*
X16909313Y-38952849D02*
X16980742Y-38809991D01*
X16980742Y-38809991D02*
X17123599Y-38738563D01*
X17123599Y-38738563D02*
X17695027Y-38738563D01*
X17695027Y-38738563D02*
X17837885Y-38809991D01*
X17837885Y-38809991D02*
X17909313Y-38952849D01*
X17909313Y-38952849D02*
X17909313Y-39238563D01*
X17909313Y-39238563D02*
X17837885Y-39381420D01*
X17837885Y-39381420D02*
X17695027Y-39452849D01*
X17695027Y-39452849D02*
X17552170Y-39452849D01*
X17552170Y-39452849D02*
X17409313Y-38738563D01*
X17909313Y-40095705D02*
X16409313Y-40095705D01*
X17837885Y-40095705D02*
X17909313Y-40238563D01*
X17909313Y-40238563D02*
X17909313Y-40524277D01*
X17909313Y-40524277D02*
X17837885Y-40667134D01*
X17837885Y-40667134D02*
X17766456Y-40738563D01*
X17766456Y-40738563D02*
X17623599Y-40809991D01*
X17623599Y-40809991D02*
X17195027Y-40809991D01*
X17195027Y-40809991D02*
X17052170Y-40738563D01*
X17052170Y-40738563D02*
X16980742Y-40667134D01*
X16980742Y-40667134D02*
X16909313Y-40524277D01*
X16909313Y-40524277D02*
X16909313Y-40238563D01*
X16909313Y-40238563D02*
X16980742Y-40095705D01*
X17909313Y-41238563D02*
X17909313Y-41809991D01*
X18409313Y-41452848D02*
X17123599Y-41452848D01*
X17123599Y-41452848D02*
X16980742Y-41524277D01*
X16980742Y-41524277D02*
X16909313Y-41667134D01*
X16909313Y-41667134D02*
X16909313Y-41809991D01*
X16909313Y-43209991D02*
X18409313Y-43209991D01*
X17837885Y-43209991D02*
X17909313Y-43352849D01*
X17909313Y-43352849D02*
X17909313Y-43638563D01*
X17909313Y-43638563D02*
X17837885Y-43781420D01*
X17837885Y-43781420D02*
X17766456Y-43852849D01*
X17766456Y-43852849D02*
X17623599Y-43924277D01*
X17623599Y-43924277D02*
X17195027Y-43924277D01*
X17195027Y-43924277D02*
X17052170Y-43852849D01*
X17052170Y-43852849D02*
X16980742Y-43781420D01*
X16980742Y-43781420D02*
X16909313Y-43638563D01*
X16909313Y-43638563D02*
X16909313Y-43352849D01*
X16909313Y-43352849D02*
X16980742Y-43209991D01*
X17909313Y-44424277D02*
X16909313Y-44781420D01*
X17909313Y-45138563D02*
X16909313Y-44781420D01*
X16909313Y-44781420D02*
X16552170Y-44638563D01*
X16552170Y-44638563D02*
X16480742Y-44567134D01*
X16480742Y-44567134D02*
X16409313Y-44424277D01*
X16980742Y-46538563D02*
X16909313Y-46681420D01*
X16909313Y-46681420D02*
X16909313Y-46967134D01*
X16909313Y-46967134D02*
X16980742Y-47109991D01*
X16980742Y-47109991D02*
X17123599Y-47181420D01*
X17123599Y-47181420D02*
X17195027Y-47181420D01*
X17195027Y-47181420D02*
X17337885Y-47109991D01*
X17337885Y-47109991D02*
X17409313Y-46967134D01*
X17409313Y-46967134D02*
X17409313Y-46752849D01*
X17409313Y-46752849D02*
X17480742Y-46609991D01*
X17480742Y-46609991D02*
X17623599Y-46538563D01*
X17623599Y-46538563D02*
X17695027Y-46538563D01*
X17695027Y-46538563D02*
X17837885Y-46609991D01*
X17837885Y-46609991D02*
X17909313Y-46752849D01*
X17909313Y-46752849D02*
X17909313Y-46967134D01*
X17909313Y-46967134D02*
X17837885Y-47109991D01*
X16909313Y-47824277D02*
X18409313Y-47824277D01*
X16909313Y-48467135D02*
X17695027Y-48467135D01*
X17695027Y-48467135D02*
X17837885Y-48395706D01*
X17837885Y-48395706D02*
X17909313Y-48252849D01*
X17909313Y-48252849D02*
X17909313Y-48038563D01*
X17909313Y-48038563D02*
X17837885Y-47895706D01*
X17837885Y-47895706D02*
X17766456Y-47824277D01*
X17909313Y-49038563D02*
X16909313Y-49324278D01*
X16909313Y-49324278D02*
X17623599Y-49609992D01*
X17623599Y-49609992D02*
X16909313Y-49895706D01*
X16909313Y-49895706D02*
X17909313Y-50181420D01*
X16909313Y-50752849D02*
X17909313Y-50752849D01*
X18409313Y-50752849D02*
X18337885Y-50681421D01*
X18337885Y-50681421D02*
X18266456Y-50752849D01*
X18266456Y-50752849D02*
X18337885Y-50824278D01*
X18337885Y-50824278D02*
X18409313Y-50752849D01*
X18409313Y-50752849D02*
X18266456Y-50752849D01*
X16909313Y-51681421D02*
X16980742Y-51538564D01*
X16980742Y-51538564D02*
X17123599Y-51467135D01*
X17123599Y-51467135D02*
X18409313Y-51467135D01*
X16909313Y-52467135D02*
X16980742Y-52324278D01*
X16980742Y-52324278D02*
X17123599Y-52252849D01*
X17123599Y-52252849D02*
X18409313Y-52252849D01*
X16909313Y-53038563D02*
X17909313Y-53038563D01*
X18409313Y-53038563D02*
X18337885Y-52967135D01*
X18337885Y-52967135D02*
X18266456Y-53038563D01*
X18266456Y-53038563D02*
X18337885Y-53109992D01*
X18337885Y-53109992D02*
X18409313Y-53038563D01*
X18409313Y-53038563D02*
X18266456Y-53038563D01*
X16909313Y-54395707D02*
X17695027Y-54395707D01*
X17695027Y-54395707D02*
X17837885Y-54324278D01*
X17837885Y-54324278D02*
X17909313Y-54181421D01*
X17909313Y-54181421D02*
X17909313Y-53895707D01*
X17909313Y-53895707D02*
X17837885Y-53752849D01*
X16980742Y-54395707D02*
X16909313Y-54252849D01*
X16909313Y-54252849D02*
X16909313Y-53895707D01*
X16909313Y-53895707D02*
X16980742Y-53752849D01*
X16980742Y-53752849D02*
X17123599Y-53681421D01*
X17123599Y-53681421D02*
X17266456Y-53681421D01*
X17266456Y-53681421D02*
X17409313Y-53752849D01*
X17409313Y-53752849D02*
X17480742Y-53895707D01*
X17480742Y-53895707D02*
X17480742Y-54252849D01*
X17480742Y-54252849D02*
X17552170Y-54395707D01*
X16909313Y-55109992D02*
X17909313Y-55109992D01*
X17766456Y-55109992D02*
X17837885Y-55181421D01*
X17837885Y-55181421D02*
X17909313Y-55324278D01*
X17909313Y-55324278D02*
X17909313Y-55538564D01*
X17909313Y-55538564D02*
X17837885Y-55681421D01*
X17837885Y-55681421D02*
X17695027Y-55752850D01*
X17695027Y-55752850D02*
X16909313Y-55752850D01*
X17695027Y-55752850D02*
X17837885Y-55824278D01*
X17837885Y-55824278D02*
X17909313Y-55967135D01*
X17909313Y-55967135D02*
X17909313Y-56181421D01*
X17909313Y-56181421D02*
X17837885Y-56324278D01*
X17837885Y-56324278D02*
X17695027Y-56395707D01*
X17695027Y-56395707D02*
X16909313Y-56395707D01*
X17909313Y-57038564D02*
X17909313Y-58109992D01*
X18552170Y-57467135D02*
X16623599Y-57038564D01*
X17266456Y-57967135D02*
X17266456Y-56895707D01*
X16623599Y-57538564D02*
X18552170Y-57967135D01*
X18409313Y-58895707D02*
X18409313Y-59038564D01*
X18409313Y-59038564D02*
X18337885Y-59181421D01*
X18337885Y-59181421D02*
X18266456Y-59252850D01*
X18266456Y-59252850D02*
X18123599Y-59324278D01*
X18123599Y-59324278D02*
X17837885Y-59395707D01*
X17837885Y-59395707D02*
X17480742Y-59395707D01*
X17480742Y-59395707D02*
X17195027Y-59324278D01*
X17195027Y-59324278D02*
X17052170Y-59252850D01*
X17052170Y-59252850D02*
X16980742Y-59181421D01*
X16980742Y-59181421D02*
X16909313Y-59038564D01*
X16909313Y-59038564D02*
X16909313Y-58895707D01*
X16909313Y-58895707D02*
X16980742Y-58752850D01*
X16980742Y-58752850D02*
X17052170Y-58681421D01*
X17052170Y-58681421D02*
X17195027Y-58609992D01*
X17195027Y-58609992D02*
X17480742Y-58538564D01*
X17480742Y-58538564D02*
X17837885Y-58538564D01*
X17837885Y-58538564D02*
X18123599Y-58609992D01*
X18123599Y-58609992D02*
X18266456Y-58681421D01*
X18266456Y-58681421D02*
X18337885Y-58752850D01*
X18337885Y-58752850D02*
X18409313Y-58895707D01*
X17909313Y-60681421D02*
X16909313Y-60681421D01*
X18480742Y-60324278D02*
X17409313Y-59967135D01*
X17409313Y-59967135D02*
X17409313Y-60895706D01*
X18266456Y-61395706D02*
X18337885Y-61467134D01*
X18337885Y-61467134D02*
X18409313Y-61609992D01*
X18409313Y-61609992D02*
X18409313Y-61967134D01*
X18409313Y-61967134D02*
X18337885Y-62109992D01*
X18337885Y-62109992D02*
X18266456Y-62181420D01*
X18266456Y-62181420D02*
X18123599Y-62252849D01*
X18123599Y-62252849D02*
X17980742Y-62252849D01*
X17980742Y-62252849D02*
X17766456Y-62181420D01*
X17766456Y-62181420D02*
X16909313Y-61324277D01*
X16909313Y-61324277D02*
X16909313Y-62252849D01*
X18409313Y-63181420D02*
X18409313Y-63324277D01*
X18409313Y-63324277D02*
X18337885Y-63467134D01*
X18337885Y-63467134D02*
X18266456Y-63538563D01*
X18266456Y-63538563D02*
X18123599Y-63609991D01*
X18123599Y-63609991D02*
X17837885Y-63681420D01*
X17837885Y-63681420D02*
X17480742Y-63681420D01*
X17480742Y-63681420D02*
X17195027Y-63609991D01*
X17195027Y-63609991D02*
X17052170Y-63538563D01*
X17052170Y-63538563D02*
X16980742Y-63467134D01*
X16980742Y-63467134D02*
X16909313Y-63324277D01*
X16909313Y-63324277D02*
X16909313Y-63181420D01*
X16909313Y-63181420D02*
X16980742Y-63038563D01*
X16980742Y-63038563D02*
X17052170Y-62967134D01*
X17052170Y-62967134D02*
X17195027Y-62895705D01*
X17195027Y-62895705D02*
X17480742Y-62824277D01*
X17480742Y-62824277D02*
X17837885Y-62824277D01*
X17837885Y-62824277D02*
X18123599Y-62895705D01*
X18123599Y-62895705D02*
X18266456Y-62967134D01*
X18266456Y-62967134D02*
X18337885Y-63038563D01*
X18337885Y-63038563D02*
X18409313Y-63181420D01*
X16909313Y-76426063D02*
X18409313Y-76426063D01*
X16980742Y-76426063D02*
X16909313Y-76283205D01*
X16909313Y-76283205D02*
X16909313Y-75997491D01*
X16909313Y-75997491D02*
X16980742Y-75854634D01*
X16980742Y-75854634D02*
X17052170Y-75783205D01*
X17052170Y-75783205D02*
X17195027Y-75711777D01*
X17195027Y-75711777D02*
X17623599Y-75711777D01*
X17623599Y-75711777D02*
X17766456Y-75783205D01*
X17766456Y-75783205D02*
X17837885Y-75854634D01*
X17837885Y-75854634D02*
X17909313Y-75997491D01*
X17909313Y-75997491D02*
X17909313Y-76283205D01*
X17909313Y-76283205D02*
X17837885Y-76426063D01*
X16980742Y-77711777D02*
X16909313Y-77568920D01*
X16909313Y-77568920D02*
X16909313Y-77283206D01*
X16909313Y-77283206D02*
X16980742Y-77140348D01*
X16980742Y-77140348D02*
X17123599Y-77068920D01*
X17123599Y-77068920D02*
X17695027Y-77068920D01*
X17695027Y-77068920D02*
X17837885Y-77140348D01*
X17837885Y-77140348D02*
X17909313Y-77283206D01*
X17909313Y-77283206D02*
X17909313Y-77568920D01*
X17909313Y-77568920D02*
X17837885Y-77711777D01*
X17837885Y-77711777D02*
X17695027Y-77783206D01*
X17695027Y-77783206D02*
X17552170Y-77783206D01*
X17552170Y-77783206D02*
X17409313Y-77068920D01*
X16980742Y-78354634D02*
X16909313Y-78497491D01*
X16909313Y-78497491D02*
X16909313Y-78783205D01*
X16909313Y-78783205D02*
X16980742Y-78926062D01*
X16980742Y-78926062D02*
X17123599Y-78997491D01*
X17123599Y-78997491D02*
X17195027Y-78997491D01*
X17195027Y-78997491D02*
X17337885Y-78926062D01*
X17337885Y-78926062D02*
X17409313Y-78783205D01*
X17409313Y-78783205D02*
X17409313Y-78568920D01*
X17409313Y-78568920D02*
X17480742Y-78426062D01*
X17480742Y-78426062D02*
X17623599Y-78354634D01*
X17623599Y-78354634D02*
X17695027Y-78354634D01*
X17695027Y-78354634D02*
X17837885Y-78426062D01*
X17837885Y-78426062D02*
X17909313Y-78568920D01*
X17909313Y-78568920D02*
X17909313Y-78783205D01*
X17909313Y-78783205D02*
X17837885Y-78926062D01*
X16909313Y-79640348D02*
X17909313Y-79640348D01*
X18409313Y-79640348D02*
X18337885Y-79568920D01*
X18337885Y-79568920D02*
X18266456Y-79640348D01*
X18266456Y-79640348D02*
X18337885Y-79711777D01*
X18337885Y-79711777D02*
X18409313Y-79640348D01*
X18409313Y-79640348D02*
X18266456Y-79640348D01*
X17909313Y-80997492D02*
X16695027Y-80997492D01*
X16695027Y-80997492D02*
X16552170Y-80926063D01*
X16552170Y-80926063D02*
X16480742Y-80854634D01*
X16480742Y-80854634D02*
X16409313Y-80711777D01*
X16409313Y-80711777D02*
X16409313Y-80497492D01*
X16409313Y-80497492D02*
X16480742Y-80354634D01*
X16980742Y-80997492D02*
X16909313Y-80854634D01*
X16909313Y-80854634D02*
X16909313Y-80568920D01*
X16909313Y-80568920D02*
X16980742Y-80426063D01*
X16980742Y-80426063D02*
X17052170Y-80354634D01*
X17052170Y-80354634D02*
X17195027Y-80283206D01*
X17195027Y-80283206D02*
X17623599Y-80283206D01*
X17623599Y-80283206D02*
X17766456Y-80354634D01*
X17766456Y-80354634D02*
X17837885Y-80426063D01*
X17837885Y-80426063D02*
X17909313Y-80568920D01*
X17909313Y-80568920D02*
X17909313Y-80854634D01*
X17909313Y-80854634D02*
X17837885Y-80997492D01*
X17909313Y-81711777D02*
X16909313Y-81711777D01*
X17766456Y-81711777D02*
X17837885Y-81783206D01*
X17837885Y-81783206D02*
X17909313Y-81926063D01*
X17909313Y-81926063D02*
X17909313Y-82140349D01*
X17909313Y-82140349D02*
X17837885Y-82283206D01*
X17837885Y-82283206D02*
X17695027Y-82354635D01*
X17695027Y-82354635D02*
X16909313Y-82354635D01*
X16909313Y-83968920D02*
X18409313Y-83968920D01*
X17837885Y-83968920D02*
X17909313Y-84111778D01*
X17909313Y-84111778D02*
X17909313Y-84397492D01*
X17909313Y-84397492D02*
X17837885Y-84540349D01*
X17837885Y-84540349D02*
X17766456Y-84611778D01*
X17766456Y-84611778D02*
X17623599Y-84683206D01*
X17623599Y-84683206D02*
X17195027Y-84683206D01*
X17195027Y-84683206D02*
X17052170Y-84611778D01*
X17052170Y-84611778D02*
X16980742Y-84540349D01*
X16980742Y-84540349D02*
X16909313Y-84397492D01*
X16909313Y-84397492D02*
X16909313Y-84111778D01*
X16909313Y-84111778D02*
X16980742Y-83968920D01*
X17909313Y-85183206D02*
X16909313Y-85540349D01*
X17909313Y-85897492D02*
X16909313Y-85540349D01*
X16909313Y-85540349D02*
X16552170Y-85397492D01*
X16552170Y-85397492D02*
X16480742Y-85326063D01*
X16480742Y-85326063D02*
X16409313Y-85183206D01*
X17052170Y-88226063D02*
X16980742Y-88154635D01*
X16980742Y-88154635D02*
X16909313Y-87940349D01*
X16909313Y-87940349D02*
X16909313Y-87797492D01*
X16909313Y-87797492D02*
X16980742Y-87583206D01*
X16980742Y-87583206D02*
X17123599Y-87440349D01*
X17123599Y-87440349D02*
X17266456Y-87368920D01*
X17266456Y-87368920D02*
X17552170Y-87297492D01*
X17552170Y-87297492D02*
X17766456Y-87297492D01*
X17766456Y-87297492D02*
X18052170Y-87368920D01*
X18052170Y-87368920D02*
X18195027Y-87440349D01*
X18195027Y-87440349D02*
X18337885Y-87583206D01*
X18337885Y-87583206D02*
X18409313Y-87797492D01*
X18409313Y-87797492D02*
X18409313Y-87940349D01*
X18409313Y-87940349D02*
X18337885Y-88154635D01*
X18337885Y-88154635D02*
X18266456Y-88226063D01*
X16909313Y-89511778D02*
X17695027Y-89511778D01*
X17695027Y-89511778D02*
X17837885Y-89440349D01*
X17837885Y-89440349D02*
X17909313Y-89297492D01*
X17909313Y-89297492D02*
X17909313Y-89011778D01*
X17909313Y-89011778D02*
X17837885Y-88868920D01*
X16980742Y-89511778D02*
X16909313Y-89368920D01*
X16909313Y-89368920D02*
X16909313Y-89011778D01*
X16909313Y-89011778D02*
X16980742Y-88868920D01*
X16980742Y-88868920D02*
X17123599Y-88797492D01*
X17123599Y-88797492D02*
X17266456Y-88797492D01*
X17266456Y-88797492D02*
X17409313Y-88868920D01*
X17409313Y-88868920D02*
X17480742Y-89011778D01*
X17480742Y-89011778D02*
X17480742Y-89368920D01*
X17480742Y-89368920D02*
X17552170Y-89511778D01*
X16909313Y-90440349D02*
X16980742Y-90297492D01*
X16980742Y-90297492D02*
X17123599Y-90226063D01*
X17123599Y-90226063D02*
X18409313Y-90226063D01*
X17909313Y-90868920D02*
X16909313Y-91226063D01*
X16909313Y-91226063D02*
X17909313Y-91583206D01*
X16909313Y-92154634D02*
X17909313Y-92154634D01*
X18409313Y-92154634D02*
X18337885Y-92083206D01*
X18337885Y-92083206D02*
X18266456Y-92154634D01*
X18266456Y-92154634D02*
X18337885Y-92226063D01*
X18337885Y-92226063D02*
X18409313Y-92154634D01*
X18409313Y-92154634D02*
X18266456Y-92154634D01*
X17909313Y-92868920D02*
X16909313Y-92868920D01*
X17766456Y-92868920D02*
X17837885Y-92940349D01*
X17837885Y-92940349D02*
X17909313Y-93083206D01*
X17909313Y-93083206D02*
X17909313Y-93297492D01*
X17909313Y-93297492D02*
X17837885Y-93440349D01*
X17837885Y-93440349D02*
X17695027Y-93511778D01*
X17695027Y-93511778D02*
X16909313Y-93511778D01*
X17909313Y-94154635D02*
X17909313Y-95226063D01*
X18552170Y-94583206D02*
X16623599Y-94154635D01*
X17266456Y-95083206D02*
X17266456Y-94011778D01*
X16623599Y-94654635D02*
X18552170Y-95083206D01*
X18409313Y-96011778D02*
X18409313Y-96154635D01*
X18409313Y-96154635D02*
X18337885Y-96297492D01*
X18337885Y-96297492D02*
X18266456Y-96368921D01*
X18266456Y-96368921D02*
X18123599Y-96440349D01*
X18123599Y-96440349D02*
X17837885Y-96511778D01*
X17837885Y-96511778D02*
X17480742Y-96511778D01*
X17480742Y-96511778D02*
X17195027Y-96440349D01*
X17195027Y-96440349D02*
X17052170Y-96368921D01*
X17052170Y-96368921D02*
X16980742Y-96297492D01*
X16980742Y-96297492D02*
X16909313Y-96154635D01*
X16909313Y-96154635D02*
X16909313Y-96011778D01*
X16909313Y-96011778D02*
X16980742Y-95868921D01*
X16980742Y-95868921D02*
X17052170Y-95797492D01*
X17052170Y-95797492D02*
X17195027Y-95726063D01*
X17195027Y-95726063D02*
X17480742Y-95654635D01*
X17480742Y-95654635D02*
X17837885Y-95654635D01*
X17837885Y-95654635D02*
X18123599Y-95726063D01*
X18123599Y-95726063D02*
X18266456Y-95797492D01*
X18266456Y-95797492D02*
X18337885Y-95868921D01*
X18337885Y-95868921D02*
X18409313Y-96011778D01*
X18409313Y-97868920D02*
X18409313Y-97154634D01*
X18409313Y-97154634D02*
X17695027Y-97083206D01*
X17695027Y-97083206D02*
X17766456Y-97154634D01*
X17766456Y-97154634D02*
X17837885Y-97297492D01*
X17837885Y-97297492D02*
X17837885Y-97654634D01*
X17837885Y-97654634D02*
X17766456Y-97797492D01*
X17766456Y-97797492D02*
X17695027Y-97868920D01*
X17695027Y-97868920D02*
X17552170Y-97940349D01*
X17552170Y-97940349D02*
X17195027Y-97940349D01*
X17195027Y-97940349D02*
X17052170Y-97868920D01*
X17052170Y-97868920D02*
X16980742Y-97797492D01*
X16980742Y-97797492D02*
X16909313Y-97654634D01*
X16909313Y-97654634D02*
X16909313Y-97297492D01*
X16909313Y-97297492D02*
X16980742Y-97154634D01*
X16980742Y-97154634D02*
X17052170Y-97083206D01*
X18409313Y-99226063D02*
X18409313Y-98940348D01*
X18409313Y-98940348D02*
X18337885Y-98797491D01*
X18337885Y-98797491D02*
X18266456Y-98726063D01*
X18266456Y-98726063D02*
X18052170Y-98583205D01*
X18052170Y-98583205D02*
X17766456Y-98511777D01*
X17766456Y-98511777D02*
X17195027Y-98511777D01*
X17195027Y-98511777D02*
X17052170Y-98583205D01*
X17052170Y-98583205D02*
X16980742Y-98654634D01*
X16980742Y-98654634D02*
X16909313Y-98797491D01*
X16909313Y-98797491D02*
X16909313Y-99083205D01*
X16909313Y-99083205D02*
X16980742Y-99226063D01*
X16980742Y-99226063D02*
X17052170Y-99297491D01*
X17052170Y-99297491D02*
X17195027Y-99368920D01*
X17195027Y-99368920D02*
X17552170Y-99368920D01*
X17552170Y-99368920D02*
X17695027Y-99297491D01*
X17695027Y-99297491D02*
X17766456Y-99226063D01*
X17766456Y-99226063D02*
X17837885Y-99083205D01*
X17837885Y-99083205D02*
X17837885Y-98797491D01*
X17837885Y-98797491D02*
X17766456Y-98654634D01*
X17766456Y-98654634D02*
X17695027Y-98583205D01*
X17695027Y-98583205D02*
X17552170Y-98511777D01*
X18409313Y-99868919D02*
X18409313Y-100797491D01*
X18409313Y-100797491D02*
X17837885Y-100297491D01*
X17837885Y-100297491D02*
X17837885Y-100511776D01*
X17837885Y-100511776D02*
X17766456Y-100654634D01*
X17766456Y-100654634D02*
X17695027Y-100726062D01*
X17695027Y-100726062D02*
X17552170Y-100797491D01*
X17552170Y-100797491D02*
X17195027Y-100797491D01*
X17195027Y-100797491D02*
X17052170Y-100726062D01*
X17052170Y-100726062D02*
X16980742Y-100654634D01*
X16980742Y-100654634D02*
X16909313Y-100511776D01*
X16909313Y-100511776D02*
X16909313Y-100083205D01*
X16909313Y-100083205D02*
X16980742Y-99940348D01*
X16980742Y-99940348D02*
X17052170Y-99868919D01*
D11*
X40128242Y-97359991D02*
X41065742Y-89859991D01*
X44413956Y-97359991D02*
X41735385Y-93074276D01*
X45351456Y-89859991D02*
X40530027Y-94145705D01*
X47628242Y-97359991D02*
X48565742Y-89859991D01*
X55485385Y-97359991D02*
X53431814Y-93788562D01*
X51199671Y-97359991D02*
X52137171Y-89859991D01*
X52137171Y-89859991D02*
X54994314Y-89859991D01*
X54994314Y-89859991D02*
X55663956Y-90217134D01*
X55663956Y-90217134D02*
X55976456Y-90574276D01*
X55976456Y-90574276D02*
X56244314Y-91288562D01*
X56244314Y-91288562D02*
X56110385Y-92359991D01*
X56110385Y-92359991D02*
X55663956Y-93074276D01*
X55663956Y-93074276D02*
X55262171Y-93431419D01*
X55262171Y-93431419D02*
X54503242Y-93788562D01*
X54503242Y-93788562D02*
X51646099Y-93788562D01*
X58610385Y-95217134D02*
X62181814Y-95217134D01*
X57628242Y-97359991D02*
X61065742Y-89859991D01*
X61065742Y-89859991D02*
X62628242Y-97359991D01*
%TO.C,G\u002A\u002A\u002A*%
G36*
X256403568Y-88035491D02*
G01*
X256463241Y-88130357D01*
X256518005Y-88247597D01*
X256542890Y-88376745D01*
X256537719Y-88516110D01*
X256514570Y-88624372D01*
X256493795Y-88699053D01*
X256474127Y-88772541D01*
X256459174Y-88831290D01*
X256456807Y-88841187D01*
X256441648Y-88897326D01*
X256425055Y-88946736D01*
X256419067Y-88961065D01*
X256405330Y-89005828D01*
X256397467Y-89060064D01*
X256397151Y-89066041D01*
X256394640Y-89085656D01*
X256387723Y-89112264D01*
X256375249Y-89148549D01*
X256356065Y-89197195D01*
X256329023Y-89260884D01*
X256292971Y-89342299D01*
X256246758Y-89444125D01*
X256189235Y-89569045D01*
X256119249Y-89719742D01*
X256088805Y-89785058D01*
X256013262Y-89946690D01*
X255949561Y-90082084D01*
X255895935Y-90194705D01*
X255850618Y-90288016D01*
X255811845Y-90365480D01*
X255777848Y-90430559D01*
X255746862Y-90486716D01*
X255717120Y-90537417D01*
X255686858Y-90586122D01*
X255656033Y-90633673D01*
X255583913Y-90741542D01*
X255522414Y-90828060D01*
X255465496Y-90899982D01*
X255407120Y-90964059D01*
X255341245Y-91027043D01*
X255261830Y-91095684D01*
X255189559Y-91155096D01*
X255109598Y-91230136D01*
X255037656Y-91315682D01*
X255021798Y-91338202D01*
X254982359Y-91393463D01*
X254943894Y-91441519D01*
X254914381Y-91472435D01*
X254913108Y-91473498D01*
X254888004Y-91499581D01*
X254849916Y-91545854D01*
X254804255Y-91605504D01*
X254761697Y-91664227D01*
X254710788Y-91734002D01*
X254659542Y-91800222D01*
X254614615Y-91854497D01*
X254587656Y-91883714D01*
X254544347Y-91928077D01*
X254491560Y-91984753D01*
X254442708Y-92039232D01*
X254387940Y-92097460D01*
X254326715Y-92156122D01*
X254277140Y-92198554D01*
X254233531Y-92233765D01*
X254201555Y-92261582D01*
X254188870Y-92275022D01*
X254172221Y-92289169D01*
X254137001Y-92310701D01*
X254122062Y-92318790D01*
X254060652Y-92350985D01*
X254061780Y-92428740D01*
X254060451Y-92479554D01*
X254055785Y-92518205D01*
X254052884Y-92527991D01*
X254048989Y-92556824D01*
X254051567Y-92602358D01*
X254053628Y-92617269D01*
X254056480Y-92674248D01*
X254051473Y-92741752D01*
X254046334Y-92772890D01*
X254037575Y-92837039D01*
X254033066Y-92914982D01*
X254033431Y-92977508D01*
X254032764Y-93049752D01*
X254025878Y-93121381D01*
X254015895Y-93170447D01*
X254004385Y-93226798D01*
X254002127Y-93278985D01*
X254004264Y-93294751D01*
X254008853Y-93337299D01*
X254004366Y-93366891D01*
X253995454Y-93399455D01*
X253985914Y-93454409D01*
X253976934Y-93521521D01*
X253969701Y-93590561D01*
X253965405Y-93651300D01*
X253965233Y-93693508D01*
X253965812Y-93698919D01*
X253965212Y-93735845D01*
X253957779Y-93792651D01*
X253945083Y-93857647D01*
X253943680Y-93863738D01*
X253929846Y-93934065D01*
X253920719Y-94002327D01*
X253918242Y-94053916D01*
X253918267Y-94054518D01*
X253915113Y-94095874D01*
X253904379Y-94160464D01*
X253887648Y-94240166D01*
X253866507Y-94326855D01*
X253861254Y-94346682D01*
X253839554Y-94430761D01*
X253821692Y-94506594D01*
X253809210Y-94567120D01*
X253803648Y-94605282D01*
X253803544Y-94611067D01*
X253799515Y-94646605D01*
X253786764Y-94701481D01*
X253767953Y-94764410D01*
X253765941Y-94770417D01*
X253724865Y-94907883D01*
X253689405Y-95056898D01*
X253664983Y-95193241D01*
X253651004Y-95261606D01*
X253626168Y-95352590D01*
X253592737Y-95458894D01*
X253552971Y-95573218D01*
X253521126Y-95657839D01*
X253479099Y-95767202D01*
X253447913Y-95852505D01*
X253425777Y-95919815D01*
X253410902Y-95975200D01*
X253401502Y-96024729D01*
X253395785Y-96074469D01*
X253394821Y-96086350D01*
X253390765Y-96128183D01*
X253384251Y-96167190D01*
X253373415Y-96208872D01*
X253356394Y-96258731D01*
X253331325Y-96322269D01*
X253296342Y-96404989D01*
X253253744Y-96502899D01*
X253203959Y-96617232D01*
X253165954Y-96706561D01*
X253138066Y-96775652D01*
X253118633Y-96829276D01*
X253105990Y-96872202D01*
X253098476Y-96909198D01*
X253094425Y-96945033D01*
X253093224Y-96963227D01*
X253085567Y-97007219D01*
X253065908Y-97078110D01*
X253034035Y-97176529D01*
X252989739Y-97303104D01*
X252932806Y-97458464D01*
X252872865Y-97617439D01*
X252818856Y-97753819D01*
X252759838Y-97893362D01*
X252697738Y-98032266D01*
X252634478Y-98166729D01*
X252571987Y-98292945D01*
X252512188Y-98407114D01*
X252457006Y-98505430D01*
X252408368Y-98584093D01*
X252368198Y-98639298D01*
X252342831Y-98664462D01*
X252304754Y-98696899D01*
X252278348Y-98729010D01*
X252276409Y-98732615D01*
X252251181Y-98766450D01*
X252222333Y-98791978D01*
X252192694Y-98822748D01*
X252161076Y-98870032D01*
X252147558Y-98895726D01*
X252123429Y-98939650D01*
X252101363Y-98968451D01*
X252091702Y-98974625D01*
X252076038Y-98980872D01*
X252047346Y-98998656D01*
X252002560Y-99030137D01*
X251938622Y-99077476D01*
X251852467Y-99142829D01*
X251843753Y-99149490D01*
X251800362Y-99175981D01*
X251759468Y-99190906D01*
X251755517Y-99191496D01*
X251722140Y-99203390D01*
X251674749Y-99229870D01*
X251631908Y-99259196D01*
X251576812Y-99295978D01*
X251513846Y-99328524D01*
X251439006Y-99358033D01*
X251348289Y-99385702D01*
X251237689Y-99412732D01*
X251103203Y-99440319D01*
X250940827Y-99469664D01*
X250912819Y-99474461D01*
X250686831Y-99498122D01*
X250470320Y-99490533D01*
X250263216Y-99451690D01*
X250124779Y-99406278D01*
X250056167Y-99381243D01*
X249996860Y-99362622D01*
X249954629Y-99352690D01*
X249939570Y-99352075D01*
X249915928Y-99371682D01*
X249885242Y-99420649D01*
X249857889Y-99475713D01*
X249806330Y-99570936D01*
X249746916Y-99646866D01*
X249673218Y-99709102D01*
X249578808Y-99763250D01*
X249477773Y-99806981D01*
X249393308Y-99836407D01*
X249301512Y-99862305D01*
X249211054Y-99882798D01*
X249130605Y-99896014D01*
X249068840Y-99900074D01*
X249052744Y-99898920D01*
X249016720Y-99898860D01*
X248961937Y-99903910D01*
X248913468Y-99910875D01*
X248838574Y-99920453D01*
X248758086Y-99926320D01*
X248716459Y-99927247D01*
X248662564Y-99928354D01*
X248622122Y-99931909D01*
X248607060Y-99935745D01*
X248581217Y-99938766D01*
X248530484Y-99933805D01*
X248461359Y-99921953D01*
X248380333Y-99904296D01*
X248306149Y-99885317D01*
X248237744Y-99868285D01*
X248170891Y-99854415D01*
X248125567Y-99847420D01*
X248075030Y-99838607D01*
X248008928Y-99820835D01*
X247925345Y-99793364D01*
X247822365Y-99755457D01*
X247698072Y-99706376D01*
X247550549Y-99645382D01*
X247377881Y-99571735D01*
X247178151Y-99484698D01*
X247132564Y-99464638D01*
X246975185Y-99395433D01*
X246844542Y-99338410D01*
X246737572Y-99292373D01*
X246651211Y-99256121D01*
X246582391Y-99228459D01*
X246528050Y-99208187D01*
X246485122Y-99194109D01*
X246450541Y-99185024D01*
X246421244Y-99179736D01*
X246397429Y-99177274D01*
X246352720Y-99168039D01*
X246303800Y-99150104D01*
X246303482Y-99149956D01*
X246247481Y-99128434D01*
X246167707Y-99103769D01*
X246072631Y-99078053D01*
X245970727Y-99053376D01*
X245870469Y-99031828D01*
X245780328Y-99015502D01*
X245730843Y-99008642D01*
X245656197Y-98999075D01*
X245586126Y-98988275D01*
X245532676Y-98978150D01*
X245521069Y-98975371D01*
X245459810Y-98964493D01*
X245397042Y-98960622D01*
X245393592Y-98960698D01*
X245342537Y-98957578D01*
X245276521Y-98947574D01*
X245224698Y-98936386D01*
X245165390Y-98924362D01*
X245097419Y-98916636D01*
X245015226Y-98913006D01*
X244913255Y-98913273D01*
X244785945Y-98917234D01*
X244744044Y-98919021D01*
X244681928Y-98920437D01*
X244631444Y-98919116D01*
X244602475Y-98915352D01*
X244600901Y-98914743D01*
X244576032Y-98910634D01*
X244527178Y-98907883D01*
X244463011Y-98906881D01*
X244431529Y-98907103D01*
X244355875Y-98906763D01*
X244284386Y-98904027D01*
X244229306Y-98899436D01*
X244216931Y-98897626D01*
X244166334Y-98893002D01*
X244124500Y-98896159D01*
X244117930Y-98898029D01*
X244084468Y-98904043D01*
X244031181Y-98907443D01*
X243981964Y-98907652D01*
X243891150Y-98912020D01*
X243806234Y-98931617D01*
X243717509Y-98969538D01*
X243629007Y-99020255D01*
X243553892Y-99066763D01*
X243496705Y-99101257D01*
X243447732Y-99129136D01*
X243397257Y-99155797D01*
X243335568Y-99186639D01*
X243285129Y-99211351D01*
X243201062Y-99252929D01*
X243108926Y-99299310D01*
X243024776Y-99342388D01*
X243001052Y-99354730D01*
X242936614Y-99385555D01*
X242877866Y-99408569D01*
X242834168Y-99420298D01*
X242822518Y-99421022D01*
X242782048Y-99423906D01*
X242725193Y-99434832D01*
X242681437Y-99446455D01*
X242567876Y-99480161D01*
X242477755Y-99505758D01*
X242403471Y-99525308D01*
X242337421Y-99540879D01*
X242319067Y-99544871D01*
X242255852Y-99559518D01*
X242196026Y-99575209D01*
X242169323Y-99583182D01*
X242117699Y-99596687D01*
X242054311Y-99609080D01*
X242029084Y-99612908D01*
X241986145Y-99622599D01*
X241918302Y-99642613D01*
X241830913Y-99670977D01*
X241729336Y-99705723D01*
X241618934Y-99744880D01*
X241505064Y-99786479D01*
X241393086Y-99828550D01*
X241288359Y-99869121D01*
X241196243Y-99906226D01*
X241122098Y-99937893D01*
X241071282Y-99962151D01*
X241057801Y-99969902D01*
X241002196Y-99998031D01*
X240931391Y-100023881D01*
X240874010Y-100038859D01*
X240805382Y-100054912D01*
X240721181Y-100077678D01*
X240636632Y-100102975D01*
X240613486Y-100110429D01*
X240536743Y-100133551D01*
X240460426Y-100153031D01*
X240397260Y-100165733D01*
X240379312Y-100168134D01*
X240311138Y-100176417D01*
X240225356Y-100188636D01*
X240134600Y-100202821D01*
X240051501Y-100216999D01*
X239990566Y-100228794D01*
X239947645Y-100237098D01*
X239886965Y-100247726D01*
X239833469Y-100256486D01*
X239786727Y-100263351D01*
X239750330Y-100265490D01*
X239716029Y-100261130D01*
X239675577Y-100248496D01*
X239620725Y-100225814D01*
X239555008Y-100196589D01*
X239480311Y-100161670D01*
X239411457Y-100126885D01*
X239357143Y-100096771D01*
X239330325Y-100079338D01*
X239277825Y-100043893D01*
X239221941Y-100012240D01*
X239217868Y-100010237D01*
X239173252Y-99981648D01*
X239139796Y-99948223D01*
X239136135Y-99942582D01*
X239114880Y-99913333D01*
X239077423Y-99868660D01*
X239030466Y-99816432D01*
X239010432Y-99795088D01*
X238927099Y-99696378D01*
X238860063Y-99594429D01*
X238813362Y-99496220D01*
X238792220Y-99417925D01*
X238778856Y-99354175D01*
X238759252Y-99288065D01*
X238754935Y-99276228D01*
X238728172Y-99206233D01*
X238605997Y-99178359D01*
X238543923Y-99166179D01*
X238486925Y-99160662D01*
X238427857Y-99162484D01*
X238359570Y-99172322D01*
X238274918Y-99190854D01*
X238166754Y-99218758D01*
X238159643Y-99220669D01*
X238079632Y-99239627D01*
X238001434Y-99253742D01*
X237936354Y-99261171D01*
X237908246Y-99261650D01*
X237844577Y-99261126D01*
X237768820Y-99264386D01*
X237719965Y-99268474D01*
X237629638Y-99269066D01*
X237558078Y-99251491D01*
X237508217Y-99218144D01*
X237482990Y-99171417D01*
X237485331Y-99113705D01*
X237495796Y-99085563D01*
X237534478Y-99039735D01*
X237602450Y-99005840D01*
X237700119Y-98983753D01*
X237827890Y-98973338D01*
X237849057Y-98972787D01*
X237981249Y-98961563D01*
X238092949Y-98934335D01*
X238105045Y-98929885D01*
X238159842Y-98910851D01*
X238203422Y-98899416D01*
X238226181Y-98898035D01*
X238252151Y-98899281D01*
X238294340Y-98892207D01*
X238304669Y-98889598D01*
X238385563Y-98876675D01*
X238480728Y-98874505D01*
X238573685Y-98882811D01*
X238629833Y-98895073D01*
X238675408Y-98907790D01*
X238707417Y-98914877D01*
X238713999Y-98915451D01*
X238725163Y-98899561D01*
X238732235Y-98859794D01*
X238734478Y-98804771D01*
X238731149Y-98743113D01*
X238729812Y-98731252D01*
X238727160Y-98672797D01*
X238731696Y-98617947D01*
X238733968Y-98607029D01*
X238741243Y-98558705D01*
X238744322Y-98497603D01*
X238743998Y-98472548D01*
X238748649Y-98406589D01*
X238764909Y-98324228D01*
X238783521Y-98258775D01*
X238807900Y-98171892D01*
X238818668Y-98097373D01*
X238818041Y-98019001D01*
X238817455Y-98010577D01*
X238818016Y-97917398D01*
X238830304Y-97812594D01*
X238851932Y-97710109D01*
X238880517Y-97623890D01*
X238885473Y-97612759D01*
X238899288Y-97573454D01*
X238901589Y-97545177D01*
X238901477Y-97544803D01*
X238900672Y-97518609D01*
X238904763Y-97470511D01*
X238912302Y-97410650D01*
X238921837Y-97349168D01*
X238931916Y-97296204D01*
X238941090Y-97261903D01*
X238942388Y-97258801D01*
X238947709Y-97228679D01*
X238948127Y-97180315D01*
X238946335Y-97153749D01*
X238946473Y-97067817D01*
X238959682Y-96968690D01*
X238983532Y-96864386D01*
X239015588Y-96762922D01*
X239053419Y-96672316D01*
X239094591Y-96600586D01*
X239124894Y-96565171D01*
X239139247Y-96550344D01*
X239156199Y-96528655D01*
X239177597Y-96497035D01*
X239205289Y-96452414D01*
X239241121Y-96391722D01*
X239286943Y-96311888D01*
X239344600Y-96209843D01*
X239415940Y-96082518D01*
X239423538Y-96068920D01*
X239489373Y-95955221D01*
X239545149Y-95868842D01*
X239593330Y-95806926D01*
X239636381Y-95766618D01*
X239676763Y-95745062D01*
X239707826Y-95739437D01*
X239772041Y-95750205D01*
X239818372Y-95784340D01*
X239843072Y-95835753D01*
X239842391Y-95898355D01*
X239829263Y-95936597D01*
X239809233Y-95972701D01*
X239776219Y-96025361D01*
X239736460Y-96084723D01*
X239725412Y-96100575D01*
X239682643Y-96164637D01*
X239643179Y-96229387D01*
X239614423Y-96282565D01*
X239610751Y-96290418D01*
X239579379Y-96355918D01*
X239540305Y-96431214D01*
X239497053Y-96510211D01*
X239453146Y-96586819D01*
X239412106Y-96654945D01*
X239377459Y-96708498D01*
X239352724Y-96741385D01*
X239346550Y-96747277D01*
X239309449Y-96790346D01*
X239276607Y-96856989D01*
X239250776Y-96938145D01*
X239234708Y-97024753D01*
X239231156Y-97107754D01*
X239232233Y-97123603D01*
X239232256Y-97180081D01*
X239225450Y-97251397D01*
X239215117Y-97312662D01*
X239201589Y-97389941D01*
X239191289Y-97473125D01*
X239187247Y-97528515D01*
X239181376Y-97592293D01*
X239170257Y-97650328D01*
X239160138Y-97680794D01*
X239136303Y-97743115D01*
X239116038Y-97816059D01*
X239101836Y-97888086D01*
X239096186Y-97947655D01*
X239097570Y-97970569D01*
X239106271Y-98099784D01*
X239086505Y-98222875D01*
X239070874Y-98271687D01*
X239050413Y-98340839D01*
X239037851Y-98408539D01*
X239035555Y-98449681D01*
X239033725Y-98513435D01*
X239025216Y-98581512D01*
X239022360Y-98595900D01*
X239014821Y-98657380D01*
X239016202Y-98718572D01*
X239018401Y-98733015D01*
X239023517Y-98790002D01*
X239020911Y-98854474D01*
X239018751Y-98870800D01*
X239014648Y-98931221D01*
X239019184Y-98989636D01*
X239022213Y-99003640D01*
X239030335Y-99061295D01*
X239028057Y-99118577D01*
X239028387Y-99171762D01*
X239041099Y-99244169D01*
X239063381Y-99326104D01*
X239092420Y-99407864D01*
X239125405Y-99479757D01*
X239140231Y-99505428D01*
X239183003Y-99563594D01*
X239234760Y-99621306D01*
X239254850Y-99640378D01*
X239302567Y-99686026D01*
X239346982Y-99733924D01*
X239362919Y-99753348D01*
X239394747Y-99786417D01*
X239443598Y-99822697D01*
X239514548Y-99865693D01*
X239570314Y-99896427D01*
X239736562Y-99985827D01*
X239834669Y-99966359D01*
X239913269Y-99951379D01*
X240005183Y-99934803D01*
X240099602Y-99918488D01*
X240185717Y-99904297D01*
X240252718Y-99894087D01*
X240262816Y-99892694D01*
X240373731Y-99875631D01*
X240469032Y-99855385D01*
X240565770Y-99828267D01*
X240577537Y-99824611D01*
X240651400Y-99803186D01*
X240728928Y-99783360D01*
X240783874Y-99771342D01*
X240849965Y-99752647D01*
X240914714Y-99724763D01*
X240942210Y-99708567D01*
X240975851Y-99690535D01*
X241034841Y-99664184D01*
X241114265Y-99631319D01*
X241209215Y-99593749D01*
X241314776Y-99553276D01*
X241426038Y-99511708D01*
X241538087Y-99470850D01*
X241646014Y-99432507D01*
X241744904Y-99398487D01*
X241829846Y-99370592D01*
X241895928Y-99350632D01*
X241938238Y-99340409D01*
X241946229Y-99339477D01*
X241984536Y-99334120D01*
X242045011Y-99321436D01*
X242118531Y-99303473D01*
X242177736Y-99287489D01*
X242257641Y-99265099D01*
X242333763Y-99243978D01*
X242395907Y-99226946D01*
X242426014Y-99218863D01*
X242484010Y-99203027D01*
X242553378Y-99183326D01*
X242592038Y-99172026D01*
X242654523Y-99156088D01*
X242714114Y-99145057D01*
X242743773Y-99142079D01*
X242780294Y-99133883D01*
X242837699Y-99113042D01*
X242908255Y-99082663D01*
X242984229Y-99045853D01*
X242987739Y-99044051D01*
X243070099Y-99001746D01*
X243152913Y-98959406D01*
X243226031Y-98922208D01*
X243275342Y-98897314D01*
X243338623Y-98863722D01*
X243414834Y-98820564D01*
X243489512Y-98776073D01*
X243503874Y-98767189D01*
X243608504Y-98705949D01*
X243697495Y-98664041D01*
X243779194Y-98638612D01*
X243861941Y-98626808D01*
X243919449Y-98625088D01*
X243984494Y-98623413D01*
X244039874Y-98618516D01*
X244074821Y-98611404D01*
X244077377Y-98610334D01*
X244110611Y-98604405D01*
X244162548Y-98605212D01*
X244203725Y-98609933D01*
X244272048Y-98617456D01*
X244341382Y-98620112D01*
X244372843Y-98619044D01*
X244436226Y-98617374D01*
X244507735Y-98619946D01*
X244533624Y-98622103D01*
X244594798Y-98626514D01*
X244671740Y-98629534D01*
X244745985Y-98630499D01*
X244874439Y-98630280D01*
X244974764Y-98630703D01*
X245051497Y-98631966D01*
X245109177Y-98634258D01*
X245152338Y-98637773D01*
X245185520Y-98642703D01*
X245213258Y-98649240D01*
X245217771Y-98650529D01*
X245278661Y-98663245D01*
X245340481Y-98668845D01*
X245349916Y-98668807D01*
X245402096Y-98671881D01*
X245467949Y-98681548D01*
X245510997Y-98690548D01*
X245577736Y-98703544D01*
X245659499Y-98715188D01*
X245738666Y-98722972D01*
X245739171Y-98723007D01*
X245809706Y-98731639D01*
X245899512Y-98748029D01*
X245999357Y-98769926D01*
X246100005Y-98795081D01*
X246192224Y-98821244D01*
X246266778Y-98846166D01*
X246298573Y-98859299D01*
X246350415Y-98876599D01*
X246397386Y-98883953D01*
X246428661Y-98887912D01*
X246471453Y-98898439D01*
X246527989Y-98916410D01*
X246600502Y-98942701D01*
X246691219Y-98978186D01*
X246802371Y-99023742D01*
X246936187Y-99080245D01*
X247094897Y-99148569D01*
X247280731Y-99229591D01*
X247308572Y-99241792D01*
X247489349Y-99320472D01*
X247643196Y-99386040D01*
X247772682Y-99439428D01*
X247880372Y-99481570D01*
X247968833Y-99513399D01*
X248040631Y-99535849D01*
X248098334Y-99549851D01*
X248144508Y-99556341D01*
X248174880Y-99556748D01*
X248217653Y-99562159D01*
X248265530Y-99578257D01*
X248266525Y-99578716D01*
X248325714Y-99601073D01*
X248399001Y-99621386D01*
X248475756Y-99637494D01*
X248545342Y-99647239D01*
X248597127Y-99648463D01*
X248604873Y-99647411D01*
X248657520Y-99642959D01*
X248702546Y-99646133D01*
X248744024Y-99647251D01*
X248800613Y-99640617D01*
X248833275Y-99633978D01*
X248883048Y-99623256D01*
X248918936Y-99617776D01*
X248930006Y-99617933D01*
X248950261Y-99618828D01*
X248994000Y-99616849D01*
X249052204Y-99612422D01*
X249059021Y-99611812D01*
X249188167Y-99592576D01*
X249308734Y-99560392D01*
X249416874Y-99517505D01*
X249508740Y-99466163D01*
X249580487Y-99408611D01*
X249628264Y-99347097D01*
X249648226Y-99283868D01*
X249648398Y-99267639D01*
X249643289Y-99241519D01*
X249625822Y-99224653D01*
X249587303Y-99209863D01*
X249573270Y-99205621D01*
X249510899Y-99191393D01*
X249439908Y-99181006D01*
X249414280Y-99178821D01*
X249312204Y-99163456D01*
X249186843Y-99128852D01*
X249040671Y-99075862D01*
X248876166Y-99005336D01*
X248783608Y-98961730D01*
X248679994Y-98910508D01*
X248602426Y-98869636D01*
X248546848Y-98836766D01*
X248509206Y-98809554D01*
X248491414Y-98792679D01*
X248446907Y-98753867D01*
X248392012Y-98718580D01*
X248378060Y-98711552D01*
X248324236Y-98682178D01*
X248275178Y-98648665D01*
X248264874Y-98640133D01*
X248229254Y-98613728D01*
X248174884Y-98579157D01*
X248112186Y-98542967D01*
X248097691Y-98535107D01*
X247984916Y-98471009D01*
X247897077Y-98412997D01*
X247836379Y-98362632D01*
X247810162Y-98331098D01*
X247767387Y-98281266D01*
X247696724Y-98223046D01*
X247601211Y-98158570D01*
X247483888Y-98089972D01*
X247412970Y-98052190D01*
X247337922Y-98012455D01*
X247272833Y-97976190D01*
X247223548Y-97946785D01*
X247195913Y-97927632D01*
X247192765Y-97924456D01*
X247171723Y-97905437D01*
X247130647Y-97874741D01*
X247077201Y-97838004D01*
X247058359Y-97825647D01*
X246955525Y-97757917D01*
X246874375Y-97701049D01*
X246808420Y-97649366D01*
X246751169Y-97597188D01*
X246696137Y-97538836D01*
X246636832Y-97468632D01*
X246604275Y-97428218D01*
X246544700Y-97356045D01*
X246485191Y-97288288D01*
X246431842Y-97231608D01*
X246390745Y-97192670D01*
X246383446Y-97186754D01*
X246331107Y-97144604D01*
X246280519Y-97100908D01*
X246260368Y-97082226D01*
X246218095Y-97050511D01*
X246151859Y-97011521D01*
X246068629Y-96968483D01*
X245975373Y-96924624D01*
X245879065Y-96883173D01*
X245786670Y-96847358D01*
X245705161Y-96820407D01*
X245680395Y-96813639D01*
X245591534Y-96792796D01*
X245522527Y-96782016D01*
X245462255Y-96780970D01*
X245399601Y-96789330D01*
X245336685Y-96803456D01*
X245276923Y-96817094D01*
X245227376Y-96826366D01*
X245198663Y-96829286D01*
X245198484Y-96829274D01*
X245166010Y-96830587D01*
X245118430Y-96836173D01*
X245106201Y-96838043D01*
X245039210Y-96838146D01*
X244985967Y-96823402D01*
X244942885Y-96808977D01*
X244908562Y-96806847D01*
X244905380Y-96807741D01*
X244865580Y-96815395D01*
X244794011Y-96821114D01*
X244691518Y-96824843D01*
X244641333Y-96825775D01*
X244573582Y-96831938D01*
X244503818Y-96845891D01*
X244485228Y-96851339D01*
X244433583Y-96863490D01*
X244362471Y-96874129D01*
X244285090Y-96881388D01*
X244264478Y-96882543D01*
X244186627Y-96888623D01*
X244110395Y-96898678D01*
X244049529Y-96910797D01*
X244037971Y-96914034D01*
X243988139Y-96926479D01*
X243949634Y-96930966D01*
X243937414Y-96929213D01*
X243906662Y-96927587D01*
X243888162Y-96933390D01*
X243854913Y-96943892D01*
X243797631Y-96956978D01*
X243724707Y-96971182D01*
X243644523Y-96985041D01*
X243565467Y-96997086D01*
X243495924Y-97005852D01*
X243452594Y-97009529D01*
X243377130Y-97021868D01*
X243284837Y-97049503D01*
X243185222Y-97088398D01*
X243087787Y-97134514D01*
X243002040Y-97183815D01*
X242946008Y-97224725D01*
X242909275Y-97255001D01*
X242877009Y-97276989D01*
X242842079Y-97293205D01*
X242797358Y-97306162D01*
X242735717Y-97318373D01*
X242650027Y-97332353D01*
X242633429Y-97334949D01*
X242529087Y-97349706D01*
X242451277Y-97356397D01*
X242394760Y-97354553D01*
X242354293Y-97343702D01*
X242324637Y-97323378D01*
X242309458Y-97305915D01*
X242291902Y-97257288D01*
X242300293Y-97200512D01*
X242332627Y-97144355D01*
X242350896Y-97124884D01*
X242403983Y-97089342D01*
X242477465Y-97065210D01*
X242575716Y-97051328D01*
X242642147Y-97047633D01*
X242690710Y-97042428D01*
X242731835Y-97026947D01*
X242777109Y-96995770D01*
X242807796Y-96970123D01*
X242859786Y-96930502D01*
X242924397Y-96891769D01*
X243006274Y-96851666D01*
X243110063Y-96807932D01*
X243240405Y-96758312D01*
X243252668Y-96753820D01*
X243314966Y-96737009D01*
X243388733Y-96725276D01*
X243429598Y-96722247D01*
X243532598Y-96714705D01*
X243639569Y-96699607D01*
X243735850Y-96679255D01*
X243775070Y-96667937D01*
X243831998Y-96654346D01*
X243887535Y-96647866D01*
X243935683Y-96642513D01*
X243973694Y-96631977D01*
X243974225Y-96631729D01*
X244002196Y-96624816D01*
X244054902Y-96617026D01*
X244124460Y-96609372D01*
X244193314Y-96603557D01*
X244275566Y-96596258D01*
X244352169Y-96587143D01*
X244413492Y-96577486D01*
X244445097Y-96570221D01*
X244505701Y-96556310D01*
X244567849Y-96548903D01*
X244572266Y-96548733D01*
X244633563Y-96543827D01*
X244693994Y-96534565D01*
X244696242Y-96534095D01*
X244765066Y-96528593D01*
X244838097Y-96536926D01*
X244901643Y-96556762D01*
X244930506Y-96574000D01*
X244965401Y-96591312D01*
X244999858Y-96581296D01*
X245038471Y-96566559D01*
X245091121Y-96554968D01*
X245106502Y-96552886D01*
X245159231Y-96545043D01*
X245228588Y-96532246D01*
X245298769Y-96517438D01*
X245372183Y-96501655D01*
X245430356Y-96492664D01*
X245482654Y-96490786D01*
X245538437Y-96496340D01*
X245607072Y-96509640D01*
X245697871Y-96530995D01*
X245776623Y-96551372D01*
X245848651Y-96573345D01*
X245922036Y-96599939D01*
X246004855Y-96634179D01*
X246105185Y-96679088D01*
X246155213Y-96702196D01*
X246261640Y-96752451D01*
X246341417Y-96792099D01*
X246398065Y-96823069D01*
X246435104Y-96847293D01*
X246456051Y-96866698D01*
X246456639Y-96867447D01*
X246484829Y-96897651D01*
X246529218Y-96938685D01*
X246578759Y-96980483D01*
X246623596Y-97021391D01*
X246681187Y-97080989D01*
X246744672Y-97151840D01*
X246807197Y-97226505D01*
X246818128Y-97240163D01*
X246879761Y-97316683D01*
X246928918Y-97373829D01*
X246972707Y-97418368D01*
X247018239Y-97457073D01*
X247072620Y-97496716D01*
X247123887Y-97531399D01*
X247202839Y-97581987D01*
X247262587Y-97616122D01*
X247301564Y-97633244D01*
X247318197Y-97632789D01*
X247310916Y-97614196D01*
X247292171Y-97591632D01*
X247258386Y-97546591D01*
X247228339Y-97493871D01*
X247225913Y-97488626D01*
X247203810Y-97443306D01*
X247183646Y-97408094D01*
X247180453Y-97403490D01*
X247161035Y-97364632D01*
X247139611Y-97301833D01*
X247118085Y-97223584D01*
X247098361Y-97138375D01*
X247082341Y-97054699D01*
X247071930Y-96981048D01*
X247069031Y-96925913D01*
X247070256Y-96911826D01*
X247092561Y-96852407D01*
X247133490Y-96808268D01*
X247185300Y-96783265D01*
X247240252Y-96781246D01*
X247287670Y-96803601D01*
X247300721Y-96817938D01*
X247313615Y-96841699D01*
X247327708Y-96879113D01*
X247344358Y-96934414D01*
X247364922Y-97011829D01*
X247390756Y-97115590D01*
X247400124Y-97154084D01*
X247421101Y-97222500D01*
X247449231Y-97292739D01*
X247462209Y-97319337D01*
X247505170Y-97390793D01*
X247563030Y-97473941D01*
X247630527Y-97562422D01*
X247702403Y-97649873D01*
X247773397Y-97729935D01*
X247838249Y-97796247D01*
X247891699Y-97842449D01*
X247899263Y-97847839D01*
X247940670Y-97892442D01*
X247963092Y-97950180D01*
X247962565Y-98008554D01*
X247956132Y-98027024D01*
X247953363Y-98060948D01*
X247963461Y-98078943D01*
X247987095Y-98102500D01*
X248022585Y-98139569D01*
X248043063Y-98161455D01*
X248098152Y-98209639D01*
X248176088Y-98262120D01*
X248233211Y-98294789D01*
X248307315Y-98336908D01*
X248383913Y-98384136D01*
X248448672Y-98427565D01*
X248459557Y-98435466D01*
X248517075Y-98475605D01*
X248574201Y-98511534D01*
X248614449Y-98533399D01*
X248666659Y-98564766D01*
X248713488Y-98603749D01*
X248717935Y-98608446D01*
X248742056Y-98630473D01*
X248777088Y-98653692D01*
X248828015Y-98680766D01*
X248899816Y-98714358D01*
X248990195Y-98754000D01*
X249115327Y-98806639D01*
X249215256Y-98845599D01*
X249293853Y-98872097D01*
X249354993Y-98887348D01*
X249402548Y-98892566D01*
X249427547Y-98891215D01*
X249452575Y-98891252D01*
X249489260Y-98897261D01*
X249540746Y-98910181D01*
X249610184Y-98930952D01*
X249700718Y-98960519D01*
X249815497Y-98999821D01*
X249957410Y-99049709D01*
X250081276Y-99093411D01*
X250179329Y-99127371D01*
X250256435Y-99153070D01*
X250317463Y-99171983D01*
X250367281Y-99185590D01*
X250410758Y-99195367D01*
X250452760Y-99202793D01*
X250470524Y-99205477D01*
X250550954Y-99215563D01*
X250624713Y-99220388D01*
X250697955Y-99219316D01*
X250776830Y-99211712D01*
X250867491Y-99196943D01*
X250976093Y-99174371D01*
X251108787Y-99143365D01*
X251135669Y-99136847D01*
X251184753Y-99126466D01*
X251220305Y-99121822D01*
X251230594Y-99122536D01*
X251254730Y-99120545D01*
X251298403Y-99106607D01*
X251352609Y-99084678D01*
X251408348Y-99058715D01*
X251456617Y-99032672D01*
X251488416Y-99010507D01*
X251490826Y-99008163D01*
X251529238Y-98978359D01*
X251579833Y-98950686D01*
X251591147Y-98945881D01*
X251675372Y-98905268D01*
X251768765Y-98848618D01*
X251862565Y-98782332D01*
X251948015Y-98712812D01*
X252016355Y-98646457D01*
X252040699Y-98617360D01*
X252085279Y-98565941D01*
X252135675Y-98518385D01*
X252157982Y-98501047D01*
X252220185Y-98457552D01*
X252443340Y-97955257D01*
X252498318Y-97832424D01*
X252550969Y-97716511D01*
X252599380Y-97611601D01*
X252641638Y-97521776D01*
X252675828Y-97451121D01*
X252700040Y-97403719D01*
X252709349Y-97387567D01*
X252742269Y-97322686D01*
X252767743Y-97237220D01*
X252776373Y-97196115D01*
X252791444Y-97127305D01*
X252808533Y-97063985D01*
X252824152Y-97018948D01*
X252825380Y-97016200D01*
X252839755Y-96971243D01*
X252852178Y-96908446D01*
X252858982Y-96851638D01*
X252872860Y-96761874D01*
X252902156Y-96654040D01*
X252947749Y-96525505D01*
X253010511Y-96373628D01*
X253039823Y-96307521D01*
X253074277Y-96227614D01*
X253095720Y-96167683D01*
X253106726Y-96118991D01*
X253109869Y-96072804D01*
X253109863Y-96069835D01*
X253112417Y-96030468D01*
X253121147Y-95981251D01*
X253137092Y-95918783D01*
X253161293Y-95839659D01*
X253194788Y-95740478D01*
X253238618Y-95617837D01*
X253293056Y-95470384D01*
X253321969Y-95388657D01*
X253346937Y-95310192D01*
X253365196Y-95244195D01*
X253373785Y-95201637D01*
X253383305Y-95143609D01*
X253399940Y-95063599D01*
X253421445Y-94970927D01*
X253445573Y-94874911D01*
X253470077Y-94784869D01*
X253490940Y-94715577D01*
X253506386Y-94661679D01*
X253515936Y-94616702D01*
X253517547Y-94598813D01*
X253521010Y-94570652D01*
X253531094Y-94519471D01*
X253545751Y-94453746D01*
X253562932Y-94381952D01*
X253580590Y-94312568D01*
X253596676Y-94254068D01*
X253609142Y-94214931D01*
X253612003Y-94207940D01*
X253619640Y-94175211D01*
X253623361Y-94126681D01*
X253623423Y-94112215D01*
X253626390Y-94060839D01*
X253635082Y-93992463D01*
X253647618Y-93921861D01*
X253647666Y-93921631D01*
X253659981Y-93852089D01*
X253668219Y-93785715D01*
X253670632Y-93736674D01*
X253670611Y-93736000D01*
X253672207Y-93690961D01*
X253678386Y-93625137D01*
X253687990Y-93549902D01*
X253692876Y-93517540D01*
X253703170Y-93441861D01*
X253709845Y-93370757D01*
X253711950Y-93315558D01*
X253711207Y-93299463D01*
X253712628Y-93243756D01*
X253723566Y-93179923D01*
X253729545Y-93158374D01*
X253741647Y-93099581D01*
X253747893Y-93026446D01*
X253747520Y-92969839D01*
X253746607Y-92897204D01*
X253750983Y-92823633D01*
X253757474Y-92777504D01*
X253765608Y-92718575D01*
X253767002Y-92663915D01*
X253765166Y-92645918D01*
X253762358Y-92592095D01*
X253767494Y-92522269D01*
X253778767Y-92447078D01*
X253794369Y-92377160D01*
X253812494Y-92323151D01*
X253823362Y-92303424D01*
X253851370Y-92262480D01*
X253869953Y-92223904D01*
X253886470Y-92171827D01*
X253889541Y-92160715D01*
X253907925Y-92116589D01*
X253940456Y-92088163D01*
X253961716Y-92077221D01*
X254018032Y-92042456D01*
X254089027Y-91985203D01*
X254170233Y-91909440D01*
X254257180Y-91819145D01*
X254279780Y-91794218D01*
X254329641Y-91739262D01*
X254377998Y-91687143D01*
X254415553Y-91647867D01*
X254420037Y-91643344D01*
X254449148Y-91610110D01*
X254490675Y-91557408D01*
X254538777Y-91492856D01*
X254581458Y-91432937D01*
X254629198Y-91366570D01*
X254674307Y-91307756D01*
X254711457Y-91263210D01*
X254733990Y-91240629D01*
X254764752Y-91210341D01*
X254803265Y-91163640D01*
X254833302Y-91122044D01*
X254880999Y-91062152D01*
X254941981Y-90999971D01*
X254986972Y-90961502D01*
X255064839Y-90894353D01*
X255153058Y-90806623D01*
X255245047Y-90705666D01*
X255334222Y-90598838D01*
X255414002Y-90493495D01*
X255442191Y-90452853D01*
X255475434Y-90398751D01*
X255517986Y-90322253D01*
X255568082Y-90227133D01*
X255623957Y-90117167D01*
X255683845Y-89996129D01*
X255745980Y-89867794D01*
X255808599Y-89735938D01*
X255869936Y-89604334D01*
X255928225Y-89476759D01*
X255981701Y-89356986D01*
X256028599Y-89248792D01*
X256067153Y-89155950D01*
X256095600Y-89082237D01*
X256112172Y-89031426D01*
X256115740Y-89012470D01*
X256124615Y-88952806D01*
X256142587Y-88895154D01*
X256143697Y-88892638D01*
X256168089Y-88829200D01*
X256193156Y-88748495D01*
X256216729Y-88659574D01*
X256236640Y-88571492D01*
X256250717Y-88493303D01*
X256256794Y-88434058D01*
X256256712Y-88420912D01*
X256248587Y-88363605D01*
X256232911Y-88313066D01*
X256225410Y-88298594D01*
X256205187Y-88264533D01*
X256195139Y-88243115D01*
X256172502Y-88201465D01*
X256126848Y-88153762D01*
X256065270Y-88104464D01*
X255994863Y-88058030D01*
X255922719Y-88018921D01*
X255855933Y-87991595D01*
X255801595Y-87980514D01*
X255780777Y-87982605D01*
X255745759Y-87988060D01*
X255684872Y-87993046D01*
X255604914Y-87997253D01*
X255512687Y-88000367D01*
X255414988Y-88002079D01*
X255351465Y-88002291D01*
X255257935Y-88010326D01*
X255148961Y-88032761D01*
X255036606Y-88066375D01*
X254932931Y-88107944D01*
X254905328Y-88121483D01*
X254856491Y-88144463D01*
X254785550Y-88174945D01*
X254701130Y-88209352D01*
X254611856Y-88244102D01*
X254589658Y-88252473D01*
X254504870Y-88285584D01*
X254427090Y-88318448D01*
X254363453Y-88347876D01*
X254321092Y-88370675D01*
X254312899Y-88376276D01*
X254262908Y-88408068D01*
X254210326Y-88432284D01*
X254206678Y-88433518D01*
X254167541Y-88450106D01*
X254144490Y-88467033D01*
X254143349Y-88468942D01*
X254123880Y-88486322D01*
X254086837Y-88506032D01*
X254080661Y-88508638D01*
X254034118Y-88530274D01*
X253976958Y-88560353D01*
X253948040Y-88576809D01*
X253900376Y-88602137D01*
X253861431Y-88618070D01*
X253845844Y-88621058D01*
X253816611Y-88628539D01*
X253769000Y-88650374D01*
X253711281Y-88682014D01*
X253651722Y-88718914D01*
X253598594Y-88756525D01*
X253596446Y-88758194D01*
X253553299Y-88787934D01*
X253514776Y-88808186D01*
X253506174Y-88811129D01*
X253471869Y-88826704D01*
X253428753Y-88854354D01*
X253417748Y-88862624D01*
X253373063Y-88893484D01*
X253331319Y-88916126D01*
X253323770Y-88919133D01*
X253283444Y-88935435D01*
X253221743Y-88962800D01*
X253146440Y-88997530D01*
X253065304Y-89035931D01*
X252986107Y-89074305D01*
X252916621Y-89108957D01*
X252864615Y-89136188D01*
X252849498Y-89144734D01*
X252790017Y-89179134D01*
X252726062Y-89215115D01*
X252710085Y-89223909D01*
X252659582Y-89257525D01*
X252616579Y-89296166D01*
X252605048Y-89310102D01*
X252566254Y-89353636D01*
X252521864Y-89390590D01*
X252485736Y-89419150D01*
X252462807Y-89444968D01*
X252461536Y-89447366D01*
X252439122Y-89469071D01*
X252402557Y-89486884D01*
X252379015Y-89493003D01*
X252355844Y-89492545D01*
X252326168Y-89483208D01*
X252283116Y-89462688D01*
X252219810Y-89428682D01*
X252205694Y-89420928D01*
X252138186Y-89381647D01*
X252077595Y-89342540D01*
X252032416Y-89309278D01*
X252016142Y-89294377D01*
X251995393Y-89275737D01*
X251963289Y-89254402D01*
X251915975Y-89228366D01*
X251849597Y-89195625D01*
X251760299Y-89154172D01*
X251659032Y-89108599D01*
X251553430Y-89061665D01*
X251471890Y-89026218D01*
X251408675Y-89000354D01*
X251358048Y-88982170D01*
X251314272Y-88969766D01*
X251271611Y-88961236D01*
X251224327Y-88954679D01*
X251179706Y-88949617D01*
X251091305Y-88936914D01*
X250997594Y-88918628D01*
X250914742Y-88898045D01*
X250891630Y-88891014D01*
X250770527Y-88851891D01*
X250675959Y-88822110D01*
X250603546Y-88800453D01*
X250548908Y-88785702D01*
X250507663Y-88776644D01*
X250475432Y-88772058D01*
X250459535Y-88770985D01*
X250418009Y-88764320D01*
X250355494Y-88748326D01*
X250281409Y-88725611D01*
X250224559Y-88705965D01*
X250132824Y-88674602D01*
X250059775Y-88655045D01*
X249994670Y-88644911D01*
X249935927Y-88641902D01*
X249865705Y-88639277D01*
X249798258Y-88634019D01*
X249752673Y-88627982D01*
X249696767Y-88624780D01*
X249630426Y-88630663D01*
X249599885Y-88636621D01*
X249545996Y-88645799D01*
X249471199Y-88653475D01*
X249387254Y-88658605D01*
X249336644Y-88660038D01*
X249258648Y-88661269D01*
X249188255Y-88662639D01*
X249134727Y-88663954D01*
X249112115Y-88664744D01*
X249072638Y-88661944D01*
X249011400Y-88652531D01*
X248938139Y-88638560D01*
X248862592Y-88622083D01*
X248794497Y-88605153D01*
X248743591Y-88589827D01*
X248728585Y-88583859D01*
X248689705Y-88573091D01*
X248635868Y-88566471D01*
X248615237Y-88565635D01*
X248558520Y-88562750D01*
X248486064Y-88556288D01*
X248420001Y-88548468D01*
X248349792Y-88541550D01*
X248282078Y-88539173D01*
X248233950Y-88541627D01*
X248149809Y-88551718D01*
X248062480Y-88559789D01*
X247983774Y-88564903D01*
X247925503Y-88566122D01*
X247925279Y-88566117D01*
X247872422Y-88569710D01*
X247828922Y-88578977D01*
X247794415Y-88583164D01*
X247737102Y-88582772D01*
X247666487Y-88578052D01*
X247624627Y-88573605D01*
X247552272Y-88566194D01*
X247489478Y-88562220D01*
X247445054Y-88562116D01*
X247431082Y-88564030D01*
X247396533Y-88569257D01*
X247344105Y-88571574D01*
X247311751Y-88571248D01*
X247195261Y-88580807D01*
X247080741Y-88613855D01*
X247021325Y-88642400D01*
X246977707Y-88661912D01*
X246915841Y-88683072D01*
X246852707Y-88700389D01*
X246786642Y-88716545D01*
X246725782Y-88732163D01*
X246684787Y-88743440D01*
X246651121Y-88748998D01*
X246591459Y-88754443D01*
X246512470Y-88759341D01*
X246420825Y-88763257D01*
X246350720Y-88765225D01*
X246250801Y-88768798D01*
X246155582Y-88774725D01*
X246072716Y-88782347D01*
X246009857Y-88791002D01*
X245983208Y-88796913D01*
X245845178Y-88839412D01*
X245736902Y-88876408D01*
X245656090Y-88908777D01*
X245600457Y-88937392D01*
X245581497Y-88950463D01*
X245534368Y-88984526D01*
X245476760Y-89022302D01*
X245450982Y-89038020D01*
X245394416Y-89074368D01*
X245339697Y-89114123D01*
X245320026Y-89130149D01*
X245275885Y-89164041D01*
X245233693Y-89189992D01*
X245224868Y-89194139D01*
X245188929Y-89214847D01*
X245142671Y-89248610D01*
X245116949Y-89269977D01*
X245067128Y-89310112D01*
X245016709Y-89345393D01*
X244996186Y-89357624D01*
X244947463Y-89388345D01*
X244914527Y-89417770D01*
X244901903Y-89440906D01*
X244910681Y-89451943D01*
X244987145Y-89487575D01*
X245034545Y-89537993D01*
X245045785Y-89563615D01*
X245052316Y-89628640D01*
X245028438Y-89683047D01*
X244981563Y-89720277D01*
X244971417Y-89725632D01*
X244961448Y-89729644D01*
X244949330Y-89731442D01*
X244932734Y-89730152D01*
X244909333Y-89724901D01*
X244876798Y-89714815D01*
X244832803Y-89699023D01*
X244775019Y-89676651D01*
X244701119Y-89646825D01*
X244608775Y-89608673D01*
X244495660Y-89561321D01*
X244359444Y-89503896D01*
X244197802Y-89435527D01*
X244008404Y-89355338D01*
X244006893Y-89354698D01*
X243888137Y-89304430D01*
X243772899Y-89255669D01*
X243666425Y-89210634D01*
X243573960Y-89171543D01*
X243500751Y-89140614D01*
X243452041Y-89120064D01*
X243449877Y-89119153D01*
X243387947Y-89095235D01*
X243333459Y-89078001D01*
X243296567Y-89070585D01*
X243292312Y-89070548D01*
X243261996Y-89066491D01*
X243207564Y-89053805D01*
X243135790Y-89034492D01*
X243053450Y-89010556D01*
X242967319Y-88983999D01*
X242884169Y-88956825D01*
X242810777Y-88931034D01*
X242777529Y-88918364D01*
X242685740Y-88884116D01*
X242593100Y-88853190D01*
X242509123Y-88828531D01*
X242443323Y-88813090D01*
X242431064Y-88811049D01*
X242388280Y-88800406D01*
X242317598Y-88777205D01*
X242220953Y-88742201D01*
X242100279Y-88696142D01*
X241957514Y-88639783D01*
X241794593Y-88573872D01*
X241613452Y-88499165D01*
X241431528Y-88422952D01*
X241321950Y-88377622D01*
X241238033Y-88345094D01*
X241175975Y-88324065D01*
X241131972Y-88313231D01*
X241105207Y-88311091D01*
X241060775Y-88309351D01*
X240998222Y-88302386D01*
X240933800Y-88292170D01*
X240854737Y-88280518D01*
X240768934Y-88272257D01*
X240710048Y-88269550D01*
X240643584Y-88266890D01*
X240581440Y-88261242D01*
X240545395Y-88255472D01*
X240504139Y-88251436D01*
X240443411Y-88251497D01*
X240373561Y-88254937D01*
X240304936Y-88261031D01*
X240247883Y-88269062D01*
X240212751Y-88278310D01*
X240211981Y-88278679D01*
X240183574Y-88303166D01*
X240146180Y-88349696D01*
X240104893Y-88410837D01*
X240064812Y-88479156D01*
X240037304Y-88533413D01*
X240013843Y-88588026D01*
X239999528Y-88636302D01*
X239992278Y-88689724D01*
X239990009Y-88759775D01*
X239990026Y-88794184D01*
X239991657Y-88884787D01*
X239996624Y-88956156D01*
X240006718Y-89021691D01*
X240023736Y-89094792D01*
X240036763Y-89143320D01*
X240048129Y-89191523D01*
X240052920Y-89226620D01*
X240052016Y-89236224D01*
X240053745Y-89262141D01*
X240069271Y-89309880D01*
X240096148Y-89372918D01*
X240125648Y-89432797D01*
X240152584Y-89484482D01*
X240186162Y-89548923D01*
X240211251Y-89597074D01*
X240254606Y-89666912D01*
X240300773Y-89718814D01*
X240316782Y-89731320D01*
X240348773Y-89758235D01*
X240373461Y-89794537D01*
X240396050Y-89849142D01*
X240409439Y-89890128D01*
X240443513Y-90001628D01*
X240470151Y-90093224D01*
X240492453Y-90175939D01*
X240512432Y-90256273D01*
X240529315Y-90316566D01*
X240548206Y-90369513D01*
X240560784Y-90395970D01*
X240579287Y-90430750D01*
X240605340Y-90484671D01*
X240633692Y-90546821D01*
X240637153Y-90554665D01*
X240691339Y-90670159D01*
X240745921Y-90772176D01*
X240797164Y-90854064D01*
X240827694Y-90894264D01*
X240863796Y-90942784D01*
X240896273Y-90995752D01*
X240897464Y-90997999D01*
X240926614Y-91044677D01*
X240966359Y-91097880D01*
X240985575Y-91120703D01*
X241022625Y-91166281D01*
X241051996Y-91208916D01*
X241061459Y-91226394D01*
X241068855Y-91241239D01*
X241079669Y-91257532D01*
X241096899Y-91278397D01*
X241123539Y-91306956D01*
X241162589Y-91346333D01*
X241217042Y-91399649D01*
X241289898Y-91470030D01*
X241358614Y-91536080D01*
X241415729Y-91591607D01*
X241467328Y-91643001D01*
X241506766Y-91683574D01*
X241524223Y-91702714D01*
X241556611Y-91737389D01*
X241601262Y-91781075D01*
X241628953Y-91806648D01*
X241682459Y-91857242D01*
X241739467Y-91914786D01*
X241764388Y-91941363D01*
X241807718Y-91986722D01*
X241848932Y-92026419D01*
X241869617Y-92044226D01*
X241901134Y-92073284D01*
X241942923Y-92117454D01*
X241978558Y-92158456D01*
X242030727Y-92214809D01*
X242091006Y-92270972D01*
X242128308Y-92301124D01*
X242183303Y-92346650D01*
X242236054Y-92398177D01*
X242260359Y-92426118D01*
X242297488Y-92468181D01*
X242349903Y-92521197D01*
X242407726Y-92575281D01*
X242421925Y-92587857D01*
X242474206Y-92634699D01*
X242518783Y-92676681D01*
X242548437Y-92706929D01*
X242554255Y-92713868D01*
X242585865Y-92747168D01*
X242635700Y-92790226D01*
X242695675Y-92837047D01*
X242757703Y-92881638D01*
X242813698Y-92918006D01*
X242855571Y-92940157D01*
X242863243Y-92942875D01*
X242931617Y-92978131D01*
X242977745Y-93035502D01*
X242997990Y-93110252D01*
X242998469Y-93118989D01*
X242993694Y-93194707D01*
X242971105Y-93247679D01*
X242927779Y-93284240D01*
X242920437Y-93288134D01*
X242856240Y-93304734D01*
X242794280Y-93288930D01*
X242735334Y-93240958D01*
X242725706Y-93229665D01*
X242692655Y-93191917D01*
X242665624Y-93165874D01*
X242657657Y-93160401D01*
X242634981Y-93145539D01*
X242594324Y-93115077D01*
X242541558Y-93073793D01*
X242482546Y-93026462D01*
X242423158Y-92977860D01*
X242369260Y-92932762D01*
X242326719Y-92895945D01*
X242301403Y-92872185D01*
X242297151Y-92866943D01*
X242281123Y-92847623D01*
X242247230Y-92813491D01*
X242202187Y-92771254D01*
X242192519Y-92762503D01*
X242139233Y-92712461D01*
X242089430Y-92662144D01*
X242053519Y-92622084D01*
X242052345Y-92620627D01*
X242017014Y-92582530D01*
X241965963Y-92534701D01*
X241909676Y-92486915D01*
X241904505Y-92482787D01*
X241848464Y-92435559D01*
X241796899Y-92387380D01*
X241760186Y-92347990D01*
X241757810Y-92345012D01*
X241730728Y-92313405D01*
X241686157Y-92265802D01*
X241622830Y-92200923D01*
X241539480Y-92117487D01*
X241434843Y-92014214D01*
X241309824Y-91891940D01*
X241181509Y-91766401D01*
X241075370Y-91661495D01*
X240989747Y-91575510D01*
X240922986Y-91506736D01*
X240873430Y-91453460D01*
X240839419Y-91413970D01*
X240819298Y-91386555D01*
X240817188Y-91383056D01*
X240793216Y-91346401D01*
X240757631Y-91297196D01*
X240729882Y-91261079D01*
X240691043Y-91208203D01*
X240657333Y-91155908D01*
X240642014Y-91127680D01*
X240620252Y-91089234D01*
X240600007Y-91065780D01*
X240597453Y-91064261D01*
X240579085Y-91044667D01*
X240549284Y-90999782D01*
X240510480Y-90933898D01*
X240465109Y-90851302D01*
X240415603Y-90756285D01*
X240365538Y-90655493D01*
X240316713Y-90553207D01*
X240280656Y-90473190D01*
X240254789Y-90408873D01*
X240236531Y-90353687D01*
X240223305Y-90301061D01*
X240219858Y-90284415D01*
X240206978Y-90230538D01*
X240192606Y-90185922D01*
X240186766Y-90172815D01*
X240173958Y-90136786D01*
X240162783Y-90085391D01*
X240160091Y-90067184D01*
X240143558Y-89999634D01*
X240115083Y-89962397D01*
X240074739Y-89955538D01*
X240046565Y-89965195D01*
X239991003Y-89985834D01*
X239916312Y-90005534D01*
X239835968Y-90021305D01*
X239763448Y-90030159D01*
X239750454Y-90030861D01*
X239704463Y-90037068D01*
X239640885Y-90051220D01*
X239572923Y-90070349D01*
X239568238Y-90071831D01*
X239494041Y-90092564D01*
X239417022Y-90109439D01*
X239355250Y-90118639D01*
X239248239Y-90129231D01*
X239160493Y-90141240D01*
X239081165Y-90157045D01*
X238999405Y-90179026D01*
X238904366Y-90209564D01*
X238840539Y-90231556D01*
X238663674Y-90293213D01*
X238515619Y-90344462D01*
X238394438Y-90385945D01*
X238298195Y-90418299D01*
X238224956Y-90442165D01*
X238172786Y-90458183D01*
X238139749Y-90466991D01*
X238123911Y-90469230D01*
X238122537Y-90468903D01*
X238099875Y-90470686D01*
X238053232Y-90482556D01*
X237988888Y-90502296D01*
X237913126Y-90527689D01*
X237832226Y-90556518D01*
X237752472Y-90586568D01*
X237680144Y-90615620D01*
X237621523Y-90641457D01*
X237593522Y-90655602D01*
X237540872Y-90683212D01*
X237498511Y-90702720D01*
X237475199Y-90710114D01*
X237474643Y-90710089D01*
X237450762Y-90716160D01*
X237410464Y-90733416D01*
X237390311Y-90743492D01*
X237343726Y-90767081D01*
X237279459Y-90798651D01*
X237209428Y-90832362D01*
X237190635Y-90841282D01*
X237124518Y-90874809D01*
X237064645Y-90909124D01*
X237021211Y-90938259D01*
X237012373Y-90945585D01*
X236974933Y-90975116D01*
X236942734Y-90993241D01*
X236939190Y-90994374D01*
X236913371Y-91006353D01*
X236868815Y-91031902D01*
X236813786Y-91066199D01*
X236795453Y-91078145D01*
X236690908Y-91141560D01*
X236606105Y-91180400D01*
X236539383Y-91194771D01*
X236489083Y-91184783D01*
X236453550Y-91150545D01*
X236433552Y-91101855D01*
X236426675Y-91065391D01*
X236428848Y-91032100D01*
X236442794Y-90999279D01*
X236471236Y-90964220D01*
X236516897Y-90924221D01*
X236582499Y-90876575D01*
X236670766Y-90818578D01*
X236784422Y-90747527D01*
X236799814Y-90738046D01*
X236877150Y-90691358D01*
X236948009Y-90650231D01*
X237006224Y-90618123D01*
X237045633Y-90598492D01*
X237055285Y-90594742D01*
X237090042Y-90580168D01*
X237106717Y-90566525D01*
X237124718Y-90552865D01*
X237166789Y-90530382D01*
X237226552Y-90502097D01*
X237297632Y-90471034D01*
X237370543Y-90441427D01*
X237414455Y-90422606D01*
X237473035Y-90395376D01*
X237521050Y-90371876D01*
X237592092Y-90339470D01*
X237670827Y-90308354D01*
X237716191Y-90292882D01*
X237788033Y-90270031D01*
X237864137Y-90244886D01*
X237903288Y-90231493D01*
X237971788Y-90209749D01*
X238049716Y-90188083D01*
X238091196Y-90177893D01*
X238143585Y-90163876D01*
X238217896Y-90141374D01*
X238305431Y-90113296D01*
X238397493Y-90082548D01*
X238485386Y-90052039D01*
X238560411Y-90024674D01*
X238613872Y-90003361D01*
X238615709Y-90002556D01*
X238672724Y-89979368D01*
X238742292Y-89953922D01*
X238817510Y-89928387D01*
X238891473Y-89904933D01*
X238957277Y-89885727D01*
X239008017Y-89872941D01*
X239036789Y-89868743D01*
X239039796Y-89869316D01*
X239067915Y-89871817D01*
X239114132Y-89866413D01*
X239140713Y-89860892D01*
X239193688Y-89849747D01*
X239266000Y-89836543D01*
X239344613Y-89823619D01*
X239369603Y-89819830D01*
X239435686Y-89808937D01*
X239488247Y-89798163D01*
X239519813Y-89789144D01*
X239525462Y-89785665D01*
X239543095Y-89777793D01*
X239585048Y-89767408D01*
X239643275Y-89756413D01*
X239662181Y-89753362D01*
X239759142Y-89738131D01*
X239828535Y-89726649D01*
X239875112Y-89717898D01*
X239903624Y-89710858D01*
X239918823Y-89704509D01*
X239925460Y-89697836D01*
X239925982Y-89696803D01*
X239922540Y-89675486D01*
X239906500Y-89635574D01*
X239887697Y-89597847D01*
X239816395Y-89441598D01*
X239763532Y-89270982D01*
X239728055Y-89081466D01*
X239708917Y-88868513D01*
X239706745Y-88816630D01*
X239700433Y-88630505D01*
X239804644Y-88411705D01*
X239856805Y-88305206D01*
X239900777Y-88223476D01*
X239940344Y-88160884D01*
X239979285Y-88111805D01*
X240021385Y-88070608D01*
X240049219Y-88047733D01*
X240094077Y-88020729D01*
X240149057Y-87998281D01*
X240202740Y-87983965D01*
X240243705Y-87981360D01*
X240252988Y-87983906D01*
X240276501Y-87984085D01*
X240320047Y-87976689D01*
X240354399Y-87968461D01*
X240418507Y-87957733D01*
X240483254Y-87956510D01*
X240508860Y-87959742D01*
X240570633Y-87970257D01*
X240638944Y-87978978D01*
X240655554Y-87980582D01*
X240712262Y-87985622D01*
X240788205Y-87992506D01*
X240874949Y-88000454D01*
X240964059Y-88008686D01*
X241047101Y-88016423D01*
X241115640Y-88022885D01*
X241161242Y-88027293D01*
X241165263Y-88027697D01*
X241195111Y-88035397D01*
X241249857Y-88054042D01*
X241324373Y-88081702D01*
X241413532Y-88116451D01*
X241512204Y-88156363D01*
X241556326Y-88174650D01*
X241759562Y-88259159D01*
X241934383Y-88331059D01*
X242082267Y-88390922D01*
X242204690Y-88439315D01*
X242303132Y-88476807D01*
X242379070Y-88503965D01*
X242433981Y-88521359D01*
X242469346Y-88529560D01*
X242480846Y-88530364D01*
X242509444Y-88535093D01*
X242561679Y-88549279D01*
X242630626Y-88570849D01*
X242709355Y-88597733D01*
X242726010Y-88603689D01*
X242879787Y-88658662D01*
X243006023Y-88702702D01*
X243107626Y-88736722D01*
X243187498Y-88761630D01*
X243248548Y-88778341D01*
X243293679Y-88787766D01*
X243322042Y-88790741D01*
X243340354Y-88791919D01*
X243360411Y-88794954D01*
X243384940Y-88800919D01*
X243416665Y-88810891D01*
X243458312Y-88825946D01*
X243512608Y-88847156D01*
X243582276Y-88875599D01*
X243670043Y-88912350D01*
X243778633Y-88958483D01*
X243910773Y-89015074D01*
X244069186Y-89083198D01*
X244132717Y-89110556D01*
X244247834Y-89159795D01*
X244353716Y-89204423D01*
X244446537Y-89242879D01*
X244522468Y-89273602D01*
X244577681Y-89295031D01*
X244608348Y-89305604D01*
X244612940Y-89306438D01*
X244636275Y-89293295D01*
X244666739Y-89264318D01*
X244670280Y-89260255D01*
X244696735Y-89235189D01*
X244744088Y-89196062D01*
X244806453Y-89147522D01*
X244877948Y-89094220D01*
X244906813Y-89073304D01*
X244986636Y-89015825D01*
X245066133Y-88958365D01*
X245137238Y-88906767D01*
X245191886Y-88866876D01*
X245202102Y-88859365D01*
X245254895Y-88821833D01*
X245301902Y-88790795D01*
X245333163Y-88772817D01*
X245333713Y-88772566D01*
X245374324Y-88748748D01*
X245402572Y-88727077D01*
X245431685Y-88707740D01*
X245482377Y-88680127D01*
X245546154Y-88648721D01*
X245583877Y-88631391D01*
X245752740Y-88564218D01*
X245915811Y-88515576D01*
X246067515Y-88486783D01*
X246202283Y-88479154D01*
X246223659Y-88480091D01*
X246361532Y-88483361D01*
X246498318Y-88477197D01*
X246627002Y-88462513D01*
X246740572Y-88440223D01*
X246832014Y-88411245D01*
X246863412Y-88396621D01*
X247020842Y-88328705D01*
X247178153Y-88293273D01*
X247271054Y-88287532D01*
X247333923Y-88286132D01*
X247390920Y-88282691D01*
X247418978Y-88279511D01*
X247458143Y-88277542D01*
X247518192Y-88279390D01*
X247587620Y-88284633D01*
X247603755Y-88286280D01*
X247674001Y-88292167D01*
X247737813Y-88294607D01*
X247783535Y-88293219D01*
X247790173Y-88292335D01*
X247829356Y-88287499D01*
X247890240Y-88282033D01*
X247961900Y-88276875D01*
X247988691Y-88275249D01*
X248064299Y-88270543D01*
X248135801Y-88265466D01*
X248190918Y-88260908D01*
X248203181Y-88259694D01*
X248299036Y-88255910D01*
X248417510Y-88261272D01*
X248550167Y-88274791D01*
X248688566Y-88295477D01*
X248824272Y-88322343D01*
X248903866Y-88341804D01*
X249001500Y-88361509D01*
X249114092Y-88374255D01*
X249232363Y-88379890D01*
X249347038Y-88378266D01*
X249448837Y-88369233D01*
X249528486Y-88352639D01*
X249530698Y-88351939D01*
X249575147Y-88344599D01*
X249644179Y-88341378D01*
X249730002Y-88341997D01*
X249824829Y-88346175D01*
X249920869Y-88353629D01*
X250010334Y-88364079D01*
X250052826Y-88370807D01*
X250129658Y-88388118D01*
X250216789Y-88413203D01*
X250291311Y-88439131D01*
X250365068Y-88464240D01*
X250442334Y-88484693D01*
X250506669Y-88496152D01*
X250507970Y-88496285D01*
X250558762Y-88505108D01*
X250631462Y-88522607D01*
X250717222Y-88546441D01*
X250807196Y-88574260D01*
X250828039Y-88581138D01*
X250928300Y-88612804D01*
X251017957Y-88637576D01*
X251090150Y-88653699D01*
X251134005Y-88659348D01*
X251200136Y-88664012D01*
X251266509Y-88674210D01*
X251337529Y-88691435D01*
X251417603Y-88717180D01*
X251511137Y-88752935D01*
X251622537Y-88800194D01*
X251756206Y-88860448D01*
X251833387Y-88896202D01*
X251955873Y-88953690D01*
X252052306Y-88999944D01*
X252126491Y-89036990D01*
X252182231Y-89066855D01*
X252223329Y-89091569D01*
X252253589Y-89113156D01*
X252274305Y-89131208D01*
X252317559Y-89167509D01*
X252348938Y-89176752D01*
X252375180Y-89157508D01*
X252403029Y-89108349D01*
X252405351Y-89103457D01*
X252431468Y-89063808D01*
X252474262Y-89026422D01*
X252535014Y-88988195D01*
X252586767Y-88960063D01*
X252627349Y-88940813D01*
X252648788Y-88934185D01*
X252649662Y-88934399D01*
X252668421Y-88929190D01*
X252705906Y-88910308D01*
X252747876Y-88885576D01*
X252797269Y-88857150D01*
X252867037Y-88820127D01*
X252947786Y-88779370D01*
X253027674Y-88740882D01*
X253198784Y-88656680D01*
X253342012Y-88577790D01*
X253455584Y-88505201D01*
X253475182Y-88491085D01*
X253539722Y-88446958D01*
X253606306Y-88407190D01*
X253666769Y-88376168D01*
X253712942Y-88358286D01*
X253727046Y-88355687D01*
X253752684Y-88350297D01*
X253789890Y-88335082D01*
X253842760Y-88307962D01*
X253915389Y-88266858D01*
X253996464Y-88218927D01*
X254048308Y-88189768D01*
X254093618Y-88167466D01*
X254116226Y-88158829D01*
X254151633Y-88143148D01*
X254194929Y-88116015D01*
X254203101Y-88110006D01*
X254261006Y-88074686D01*
X254346409Y-88036104D01*
X254461082Y-87993517D01*
X254556264Y-87962025D01*
X254618387Y-87939593D01*
X254673190Y-87915241D01*
X254706877Y-87895531D01*
X254762569Y-87862313D01*
X254842369Y-87827348D01*
X254937981Y-87793048D01*
X255041109Y-87761826D01*
X255143458Y-87736096D01*
X255236734Y-87718269D01*
X255312640Y-87710759D01*
X255339742Y-87711459D01*
X255385872Y-87713595D01*
X255452568Y-87714228D01*
X255527762Y-87713293D01*
X255552643Y-87712621D01*
X255701255Y-87707997D01*
X256403568Y-88035491D01*
G37*
G36*
X249532746Y-96542022D02*
G01*
X249541268Y-96523477D01*
X249572667Y-96458972D01*
X249602452Y-96405965D01*
X249634774Y-96360842D01*
X249673784Y-96319987D01*
X249723635Y-96279782D01*
X249788478Y-96236614D01*
X249872465Y-96186866D01*
X249979747Y-96126922D01*
X250025328Y-96101900D01*
X250118736Y-96051273D01*
X250190659Y-96014531D01*
X250248037Y-95989454D01*
X250297812Y-95973829D01*
X250346923Y-95965437D01*
X250402312Y-95962062D01*
X250464999Y-95961484D01*
X250647747Y-95973937D01*
X250826800Y-96006913D01*
X250907824Y-96024560D01*
X250982254Y-96038602D01*
X251041574Y-96047564D01*
X251076106Y-96050036D01*
X251143633Y-96051937D01*
X251218153Y-96063904D01*
X251304008Y-96087294D01*
X251405542Y-96123460D01*
X251527101Y-96173758D01*
X251651035Y-96229381D01*
X251759255Y-96279579D01*
X251842223Y-96319723D01*
X251904483Y-96353159D01*
X251950576Y-96383233D01*
X251985044Y-96413294D01*
X252012430Y-96446684D01*
X252037278Y-96486752D01*
X252061457Y-96531737D01*
X252087188Y-96580572D01*
X252120789Y-96643906D01*
X252152576Y-96703513D01*
X252179725Y-96754935D01*
X252198093Y-96795045D01*
X252208967Y-96831934D01*
X252213638Y-96873690D01*
X252213397Y-96928405D01*
X252209533Y-97004166D01*
X252207076Y-97045276D01*
X252200915Y-97129759D01*
X252192537Y-97193017D01*
X252179318Y-97246492D01*
X252158632Y-97301626D01*
X252137260Y-97349601D01*
X252107086Y-97413037D01*
X252084248Y-97453432D01*
X252063381Y-97477846D01*
X252039120Y-97493336D01*
X252022506Y-97500561D01*
X251967588Y-97516983D01*
X251913188Y-97525213D01*
X251912985Y-97525222D01*
X251858932Y-97527560D01*
X251888870Y-97566790D01*
X251911529Y-97605117D01*
X251920788Y-97647449D01*
X251915842Y-97699173D01*
X251895883Y-97765676D01*
X251860104Y-97852349D01*
X251839305Y-97897913D01*
X251787767Y-98002733D01*
X251744054Y-98078488D01*
X251706833Y-98127470D01*
X251704104Y-98130292D01*
X251658492Y-98169935D01*
X251595831Y-98216198D01*
X251526318Y-98262354D01*
X251460147Y-98301675D01*
X251407512Y-98327430D01*
X251402629Y-98329275D01*
X251366121Y-98349163D01*
X251346736Y-98369997D01*
X251326901Y-98386893D01*
X251284218Y-98410196D01*
X251226730Y-98435682D01*
X251206462Y-98443631D01*
X251140084Y-98467441D01*
X251094499Y-98479016D01*
X251060694Y-98479493D01*
X251029654Y-98470006D01*
X251022534Y-98466802D01*
X250952922Y-98450999D01*
X250906107Y-98457569D01*
X250839603Y-98464256D01*
X250788811Y-98443046D01*
X250756919Y-98404206D01*
X250740460Y-98359758D01*
X250736998Y-98325577D01*
X250736229Y-98307515D01*
X250727729Y-98291282D01*
X250706649Y-98273043D01*
X250668143Y-98248958D01*
X250607363Y-98215188D01*
X250576579Y-98198567D01*
X250501290Y-98157660D01*
X250427844Y-98117071D01*
X250366254Y-98082369D01*
X250335662Y-98064621D01*
X250272141Y-98016732D01*
X250204118Y-97949151D01*
X250140305Y-97872058D01*
X250089415Y-97795638D01*
X250067348Y-97751035D01*
X250052235Y-97704618D01*
X250054285Y-97669227D01*
X250074745Y-97627356D01*
X250076346Y-97624655D01*
X250103798Y-97582540D01*
X250128241Y-97551385D01*
X250133488Y-97546222D01*
X250142017Y-97534318D01*
X250132122Y-97523580D01*
X250098519Y-97510175D01*
X250071811Y-97501475D01*
X250009587Y-97476441D01*
X249966689Y-97454376D01*
X250481507Y-97454376D01*
X250492584Y-97459421D01*
X250495997Y-97459887D01*
X250516505Y-97447225D01*
X250543663Y-97408981D01*
X250557613Y-97383485D01*
X250597880Y-97304552D01*
X250542303Y-97368751D01*
X250503662Y-97414363D01*
X250484299Y-97441132D01*
X250481507Y-97454376D01*
X249966689Y-97454376D01*
X249937992Y-97439615D01*
X249866277Y-97396647D01*
X249803685Y-97353187D01*
X249759464Y-97314887D01*
X249751587Y-97305798D01*
X249729876Y-97269299D01*
X249705706Y-97216228D01*
X249692881Y-97182391D01*
X249659244Y-97110542D01*
X249614796Y-97062791D01*
X249609403Y-97058931D01*
X249563932Y-97011958D01*
X249558934Y-97006795D01*
X249518009Y-96930008D01*
X249489906Y-96835977D01*
X249479796Y-96766011D01*
X249477761Y-96729907D01*
X249767263Y-96729907D01*
X249779810Y-96800045D01*
X249815328Y-96858508D01*
X249840626Y-96880142D01*
X249898200Y-96924705D01*
X249930813Y-96966014D01*
X249944180Y-97012050D01*
X249945225Y-97026162D01*
X249963938Y-97096250D01*
X250013291Y-97157183D01*
X250092221Y-97207697D01*
X250101279Y-97211936D01*
X250153404Y-97233009D01*
X250190280Y-97238754D01*
X250224791Y-97230451D01*
X250236623Y-97225407D01*
X250276085Y-97199809D01*
X250291624Y-97173014D01*
X250305181Y-97100051D01*
X250333141Y-97020412D01*
X250366303Y-96956836D01*
X250419991Y-96898952D01*
X250484024Y-96870240D01*
X250554570Y-96870440D01*
X250627796Y-96899294D01*
X250699868Y-96956541D01*
X250722156Y-96980927D01*
X250769552Y-97045495D01*
X250812912Y-97120380D01*
X250848248Y-97196842D01*
X250871572Y-97266145D01*
X250878897Y-97319546D01*
X250878590Y-97323729D01*
X250869560Y-97360014D01*
X250849373Y-97416742D01*
X250821357Y-97485071D01*
X250799483Y-97533758D01*
X250753477Y-97625134D01*
X250711551Y-97688937D01*
X250668923Y-97729034D01*
X250620809Y-97749297D01*
X250562426Y-97753594D01*
X250530646Y-97751258D01*
X250478428Y-97747824D01*
X250437805Y-97748713D01*
X250425480Y-97750991D01*
X250417171Y-97765349D01*
X250436908Y-97790567D01*
X250482543Y-97825017D01*
X250551934Y-97867074D01*
X250640293Y-97913793D01*
X250793706Y-97990626D01*
X250885598Y-97804371D01*
X250923729Y-97726217D01*
X250949386Y-97669786D01*
X250964875Y-97627668D01*
X250972499Y-97592448D01*
X250974563Y-97556717D01*
X250973692Y-97521036D01*
X250969486Y-97455797D01*
X250962820Y-97393791D01*
X250958145Y-97364407D01*
X250954050Y-97313530D01*
X250956533Y-97249155D01*
X250960917Y-97212505D01*
X250967119Y-97145284D01*
X250966654Y-97077503D01*
X250963495Y-97047950D01*
X250957582Y-97001198D01*
X250956731Y-96968318D01*
X250958043Y-96961821D01*
X250958911Y-96939473D01*
X250954681Y-96895205D01*
X250947522Y-96846455D01*
X250941130Y-96766719D01*
X250945804Y-96686172D01*
X250951061Y-96657052D01*
X250964890Y-96604709D01*
X250979591Y-96573821D01*
X251001708Y-96553673D01*
X251021080Y-96542378D01*
X251078982Y-96527120D01*
X251135003Y-96538867D01*
X251182135Y-96572360D01*
X251213369Y-96622340D01*
X251221697Y-96683547D01*
X251220715Y-96692178D01*
X251221576Y-96735599D01*
X251228447Y-96769530D01*
X251237012Y-96810993D01*
X251243985Y-96867715D01*
X251246027Y-96894879D01*
X251250419Y-96965500D01*
X251255612Y-97040953D01*
X251257195Y-97062292D01*
X251257921Y-97124896D01*
X251252302Y-97184916D01*
X251248208Y-97204964D01*
X251240455Y-97258581D01*
X251242680Y-97308497D01*
X251243140Y-97310739D01*
X251249388Y-97350531D01*
X251256015Y-97410308D01*
X251261627Y-97477434D01*
X251261825Y-97480295D01*
X251270192Y-97602660D01*
X251162317Y-97839412D01*
X251124101Y-97925600D01*
X251090204Y-98006382D01*
X251063369Y-98074885D01*
X251046342Y-98124236D01*
X251042316Y-98139836D01*
X251035728Y-98180282D01*
X251039991Y-98196008D01*
X251059587Y-98194329D01*
X251073190Y-98190279D01*
X251111848Y-98172217D01*
X251159971Y-98141814D01*
X251181064Y-98126197D01*
X251229077Y-98092904D01*
X251275279Y-98067660D01*
X251291315Y-98061382D01*
X251328816Y-98044945D01*
X251380651Y-98016260D01*
X251426952Y-97987170D01*
X251481775Y-97947117D01*
X251520009Y-97907681D01*
X251553054Y-97855944D01*
X251568397Y-97826914D01*
X251619578Y-97726909D01*
X251499359Y-97661046D01*
X251439260Y-97627015D01*
X251401689Y-97601524D01*
X251379946Y-97578524D01*
X251367333Y-97551961D01*
X251363037Y-97537898D01*
X251356962Y-97488161D01*
X251363901Y-97444431D01*
X251365087Y-97441680D01*
X251373404Y-97397598D01*
X251373395Y-97397535D01*
X251592408Y-97397535D01*
X251599747Y-97402257D01*
X251614458Y-97402523D01*
X251614218Y-97396991D01*
X251597476Y-97387026D01*
X251594479Y-97387786D01*
X251592408Y-97397535D01*
X251373395Y-97397535D01*
X251367706Y-97355534D01*
X251360829Y-97287053D01*
X251362504Y-97279614D01*
X251378000Y-97210778D01*
X251414991Y-97135286D01*
X251467581Y-97069152D01*
X251531542Y-97020951D01*
X251532894Y-97020237D01*
X251610253Y-96992909D01*
X251677796Y-96995381D01*
X251732555Y-97026506D01*
X251771568Y-97085135D01*
X251782289Y-97116737D01*
X251801865Y-97164642D01*
X251829667Y-97204890D01*
X251859074Y-97230001D01*
X251883465Y-97232491D01*
X251884285Y-97231987D01*
X251891602Y-97220111D01*
X251898978Y-97191603D01*
X251907108Y-97142339D01*
X251916694Y-97068190D01*
X251926616Y-96981506D01*
X251923097Y-96908285D01*
X251894934Y-96845808D01*
X251870199Y-96804127D01*
X251854924Y-96772300D01*
X251852882Y-96765019D01*
X251838785Y-96726448D01*
X251807831Y-96674735D01*
X251766819Y-96619266D01*
X251722553Y-96569422D01*
X251690153Y-96540498D01*
X251632614Y-96503989D01*
X251565005Y-96470600D01*
X251536023Y-96459264D01*
X251405839Y-96414984D01*
X251302059Y-96381849D01*
X251220788Y-96358794D01*
X251158128Y-96344758D01*
X251110184Y-96338677D01*
X251092496Y-96338251D01*
X251045308Y-96334919D01*
X250976585Y-96325097D01*
X250896440Y-96310404D01*
X250832554Y-96296616D01*
X250717000Y-96273297D01*
X250605155Y-96257058D01*
X250503332Y-96248359D01*
X250417843Y-96247657D01*
X250355006Y-96255412D01*
X250338289Y-96260708D01*
X250253927Y-96299148D01*
X250161883Y-96347308D01*
X250068559Y-96401182D01*
X249980354Y-96456767D01*
X249903671Y-96510059D01*
X249844910Y-96557051D01*
X249814163Y-96588623D01*
X249778456Y-96656598D01*
X249767263Y-96729907D01*
X249477761Y-96729907D01*
X249477185Y-96719682D01*
X249479955Y-96680996D01*
X249490485Y-96640567D01*
X249511154Y-96589012D01*
X249532746Y-96542022D01*
G37*
G36*
X252515132Y-93438828D02*
G01*
X252568958Y-93458109D01*
X252623043Y-93484742D01*
X252665940Y-93513251D01*
X252684406Y-93533527D01*
X252700310Y-93589658D01*
X252695607Y-93646381D01*
X252678833Y-93680226D01*
X252641652Y-93710126D01*
X252593942Y-93729664D01*
X252550067Y-93733775D01*
X252537234Y-93730166D01*
X252507460Y-93727229D01*
X252456166Y-93732063D01*
X252393136Y-93743100D01*
X252328152Y-93758771D01*
X252294154Y-93769122D01*
X252258773Y-93779257D01*
X252200806Y-93794075D01*
X252129574Y-93811243D01*
X252082252Y-93822175D01*
X251972910Y-93851645D01*
X251893556Y-93883444D01*
X251845100Y-93917114D01*
X251828539Y-93949973D01*
X251839227Y-93971718D01*
X251868932Y-94007004D01*
X251911472Y-94048581D01*
X251916155Y-94052772D01*
X251979471Y-94117316D01*
X252014065Y-94175408D01*
X252021778Y-94232145D01*
X252004448Y-94292621D01*
X252003473Y-94294736D01*
X251973542Y-94337342D01*
X251933712Y-94368132D01*
X251894127Y-94380522D01*
X251876369Y-94377220D01*
X251848621Y-94369748D01*
X251839860Y-94368550D01*
X251814848Y-94355476D01*
X251782400Y-94326193D01*
X251775890Y-94318983D01*
X251743118Y-94284529D01*
X251695518Y-94238320D01*
X251642991Y-94189947D01*
X251639331Y-94186678D01*
X251566897Y-94115923D01*
X251498978Y-94038225D01*
X251440349Y-93960099D01*
X251395781Y-93888063D01*
X251370049Y-93828632D01*
X251366774Y-93814580D01*
X251366928Y-93743860D01*
X251390009Y-93684524D01*
X251432548Y-93644503D01*
X251443341Y-93639412D01*
X251504970Y-93626031D01*
X251555360Y-93642333D01*
X251589041Y-93675320D01*
X251623544Y-93709286D01*
X251651847Y-93716527D01*
X251667049Y-93702083D01*
X251683261Y-93686230D01*
X251718480Y-93659563D01*
X251752060Y-93636543D01*
X251821395Y-93599393D01*
X251912832Y-93565676D01*
X252030431Y-93534038D01*
X252115430Y-93515453D01*
X252164861Y-93504314D01*
X252231922Y-93487884D01*
X252302757Y-93469566D01*
X252308124Y-93468133D01*
X252373242Y-93451742D01*
X252430550Y-93439140D01*
X252469149Y-93432689D01*
X252473009Y-93432377D01*
X252515132Y-93438828D01*
G37*
G36*
X248634102Y-93370194D02*
G01*
X248678475Y-93408978D01*
X248699674Y-93470533D01*
X248701235Y-93487767D01*
X248689136Y-93536972D01*
X248653355Y-93583394D01*
X248602248Y-93617880D01*
X248573375Y-93627828D01*
X248529969Y-93643403D01*
X248519031Y-93662320D01*
X248540549Y-93684800D01*
X248568873Y-93700014D01*
X248623090Y-93739761D01*
X248653038Y-93793094D01*
X248655475Y-93852457D01*
X248646210Y-93880261D01*
X248608654Y-93925706D01*
X248554273Y-93950472D01*
X248494312Y-93950600D01*
X248470051Y-93942301D01*
X248332496Y-93880935D01*
X248207070Y-93830466D01*
X248098243Y-93792510D01*
X248010484Y-93768682D01*
X247971414Y-93762021D01*
X247862104Y-93751309D01*
X247755323Y-93744171D01*
X247659612Y-93740974D01*
X247583512Y-93742079D01*
X247556142Y-93744283D01*
X247495920Y-93746103D01*
X247429740Y-93740890D01*
X247414658Y-93738499D01*
X247353385Y-93731969D01*
X247281490Y-93730609D01*
X247246342Y-93732273D01*
X247177284Y-93732937D01*
X247097529Y-93726919D01*
X247045173Y-93719200D01*
X246975493Y-93706854D01*
X246906274Y-93695985D01*
X246864235Y-93690377D01*
X246819970Y-93684660D01*
X246792635Y-93679890D01*
X246788681Y-93678479D01*
X246775406Y-93667386D01*
X246756397Y-93653206D01*
X246724007Y-93611734D01*
X246711019Y-93556806D01*
X246719652Y-93502755D01*
X246730162Y-93483894D01*
X246776769Y-93439109D01*
X246837481Y-93415591D01*
X246916336Y-93412628D01*
X247017369Y-93429506D01*
X247026094Y-93431586D01*
X247093887Y-93443811D01*
X247162686Y-93449677D01*
X247198125Y-93449170D01*
X247253423Y-93447187D01*
X247325361Y-93447814D01*
X247395630Y-93450772D01*
X247457725Y-93453824D01*
X247508119Y-93454857D01*
X247537002Y-93453692D01*
X247538646Y-93453374D01*
X247565186Y-93451629D01*
X247612618Y-93452295D01*
X247655342Y-93454348D01*
X247718826Y-93457862D01*
X247777723Y-93460447D01*
X247805272Y-93461253D01*
X247849945Y-93464480D01*
X247915841Y-93472077D01*
X247992049Y-93482538D01*
X248067659Y-93494352D01*
X248131757Y-93506010D01*
X248137816Y-93507255D01*
X248177667Y-93505265D01*
X248210613Y-93476257D01*
X248212041Y-93474337D01*
X248251509Y-93441179D01*
X248319881Y-93407781D01*
X248364777Y-93391274D01*
X248476970Y-93361260D01*
X248566839Y-93354260D01*
X248634102Y-93370194D01*
G37*
G36*
X253241268Y-93753764D02*
G01*
X253280317Y-93799467D01*
X253288922Y-93820228D01*
X253296516Y-93858401D01*
X253291934Y-93900307D01*
X253273571Y-93956882D01*
X253265981Y-93976243D01*
X253224460Y-94065488D01*
X253171314Y-94158712D01*
X253111707Y-94248476D01*
X253050801Y-94327340D01*
X252993764Y-94387864D01*
X252963093Y-94412589D01*
X252913886Y-94447236D01*
X252870656Y-94479877D01*
X252854586Y-94493126D01*
X252795803Y-94527734D01*
X252736029Y-94534057D01*
X252682403Y-94513065D01*
X252642057Y-94465729D01*
X252641211Y-94464076D01*
X252628048Y-94404113D01*
X252641623Y-94338043D01*
X252678548Y-94272391D01*
X252735435Y-94213683D01*
X252789908Y-94177739D01*
X252819869Y-94160354D01*
X252845407Y-94140245D01*
X252870388Y-94112341D01*
X252898676Y-94071572D01*
X252934139Y-94012869D01*
X252980642Y-93931159D01*
X252988251Y-93917601D01*
X253028797Y-93847017D01*
X253059105Y-93799755D01*
X253083752Y-93770022D01*
X253107315Y-93752024D01*
X253126140Y-93743095D01*
X253187446Y-93733822D01*
X253241268Y-93753764D01*
G37*
G36*
X243878012Y-92904436D02*
G01*
X243914125Y-92951512D01*
X243933915Y-93024662D01*
X243935624Y-93040767D01*
X243945917Y-93177727D01*
X243950430Y-93291835D01*
X243948022Y-93391059D01*
X243937550Y-93483365D01*
X243917869Y-93576724D01*
X243887838Y-93679100D01*
X243846314Y-93798461D01*
X243814786Y-93883195D01*
X243771134Y-94008512D01*
X243744678Y-94107524D01*
X243736040Y-94167052D01*
X243730676Y-94222633D01*
X243722864Y-94267674D01*
X243717650Y-94284512D01*
X243718878Y-94312144D01*
X243734581Y-94362553D01*
X243762534Y-94430441D01*
X243800513Y-94510505D01*
X243846295Y-94597445D01*
X243857027Y-94616674D01*
X243882411Y-94667251D01*
X243902139Y-94715787D01*
X243903309Y-94719359D01*
X243934624Y-94796981D01*
X243979351Y-94882309D01*
X244028748Y-94959040D01*
X244039353Y-94973119D01*
X244071220Y-95018463D01*
X244095087Y-95060345D01*
X244099789Y-95071368D01*
X244124738Y-95126031D01*
X244164517Y-95196757D01*
X244213484Y-95274150D01*
X244265995Y-95348818D01*
X244268480Y-95352136D01*
X244318131Y-95432863D01*
X244345445Y-95510066D01*
X244350557Y-95579242D01*
X244333598Y-95635889D01*
X244294704Y-95675508D01*
X244258440Y-95689829D01*
X244200533Y-95693839D01*
X244152633Y-95672868D01*
X244107113Y-95623431D01*
X244104206Y-95619364D01*
X244073188Y-95575873D01*
X244033390Y-95520598D01*
X244005974Y-95482770D01*
X243933787Y-95378082D01*
X243882986Y-95291443D01*
X243854429Y-95228003D01*
X243831730Y-95181951D01*
X243798098Y-95129080D01*
X243783543Y-95109464D01*
X243758142Y-95075330D01*
X243735173Y-95039377D01*
X243711083Y-94994938D01*
X243682324Y-94935348D01*
X243645344Y-94853940D01*
X243634587Y-94829821D01*
X243581342Y-94712285D01*
X243537124Y-94619130D01*
X243502809Y-94552110D01*
X243479269Y-94512978D01*
X243472804Y-94505279D01*
X243452723Y-94467841D01*
X243440525Y-94402667D01*
X243436689Y-94313839D01*
X243440121Y-94226149D01*
X243451581Y-94115960D01*
X243471520Y-94019178D01*
X243503723Y-93920106D01*
X243529542Y-93855335D01*
X243594492Y-93685712D01*
X243638255Y-93537649D01*
X243661566Y-93408481D01*
X243665303Y-93361988D01*
X243667204Y-93295807D01*
X243666460Y-93239031D01*
X243663260Y-93202253D01*
X243662397Y-93198425D01*
X243646533Y-93126505D01*
X243646004Y-93069996D01*
X243661421Y-93015143D01*
X243671604Y-92991842D01*
X243698727Y-92941897D01*
X243727305Y-92912756D01*
X243764321Y-92894903D01*
X243827451Y-92885034D01*
X243878012Y-92904436D01*
G37*
G36*
X246232655Y-93570017D02*
G01*
X246264723Y-93586593D01*
X246292699Y-93622274D01*
X246321906Y-93682392D01*
X246333076Y-93709380D01*
X246358057Y-93766296D01*
X246385119Y-93814065D01*
X246420218Y-93860865D01*
X246469306Y-93914877D01*
X246519818Y-93965969D01*
X246609262Y-94049791D01*
X246685521Y-94108887D01*
X246753589Y-94145675D01*
X246818456Y-94162577D01*
X246885112Y-94162009D01*
X246914409Y-94157230D01*
X246994232Y-94150535D01*
X247051270Y-94167172D01*
X247085802Y-94207342D01*
X247098106Y-94271243D01*
X247097898Y-94287549D01*
X247093305Y-94330478D01*
X247078475Y-94359364D01*
X247045105Y-94390036D01*
X247043451Y-94391375D01*
X246973605Y-94428689D01*
X246887242Y-94445879D01*
X246794051Y-94442326D01*
X246703724Y-94417409D01*
X246695101Y-94413665D01*
X246642868Y-94390565D01*
X246600558Y-94372664D01*
X246581650Y-94365373D01*
X246554097Y-94353388D01*
X246510634Y-94331659D01*
X246486252Y-94318728D01*
X246436723Y-94284742D01*
X246377528Y-94233347D01*
X246318657Y-94173225D01*
X246318132Y-94172642D01*
X246272528Y-94123267D01*
X246233397Y-94083505D01*
X246207008Y-94059621D01*
X246201485Y-94055948D01*
X246182440Y-94037611D01*
X246154160Y-93999931D01*
X246129866Y-93962470D01*
X246096581Y-93908464D01*
X246065541Y-93859123D01*
X246050192Y-93835373D01*
X246031004Y-93779089D01*
X246036015Y-93713976D01*
X246063698Y-93651338D01*
X246077516Y-93633174D01*
X246115701Y-93593556D01*
X246148499Y-93574035D01*
X246188398Y-93567363D01*
X246191178Y-93567218D01*
X246232655Y-93570017D01*
G37*
G36*
X251850508Y-95244684D02*
G01*
X251920937Y-95288054D01*
X252000616Y-95354468D01*
X252083994Y-95437847D01*
X252165520Y-95532112D01*
X252239640Y-95631186D01*
X252300804Y-95728989D01*
X252312213Y-95750200D01*
X252349606Y-95821022D01*
X252387628Y-95891248D01*
X252419494Y-95948387D01*
X252426425Y-95960402D01*
X252453324Y-96011994D01*
X252485466Y-96081727D01*
X252517116Y-96156973D01*
X252526139Y-96179985D01*
X252552894Y-96245585D01*
X252578436Y-96301205D01*
X252598780Y-96338437D01*
X252605410Y-96347190D01*
X252616616Y-96362567D01*
X252628889Y-96389109D01*
X252643559Y-96430946D01*
X252661946Y-96492210D01*
X252685381Y-96577030D01*
X252714675Y-96687581D01*
X252730542Y-96764886D01*
X252743065Y-96857627D01*
X252751327Y-96954477D01*
X252754408Y-97044107D01*
X252751389Y-97115190D01*
X252750156Y-97124942D01*
X252729443Y-97209387D01*
X252694478Y-97293566D01*
X252650987Y-97365378D01*
X252619641Y-97400811D01*
X252589305Y-97426951D01*
X252571206Y-97439753D01*
X252569697Y-97440023D01*
X252552151Y-97436274D01*
X252515919Y-97430107D01*
X252513858Y-97429780D01*
X252458673Y-97408584D01*
X252433691Y-97383811D01*
X252412696Y-97330416D01*
X252415721Y-97260546D01*
X252442495Y-97179576D01*
X252444130Y-97176022D01*
X252460677Y-97114148D01*
X252466376Y-97029389D01*
X252462204Y-96929313D01*
X252449137Y-96821491D01*
X252428151Y-96713490D01*
X252400224Y-96612881D01*
X252366329Y-96527232D01*
X252358422Y-96511624D01*
X252339470Y-96471881D01*
X252312919Y-96410853D01*
X252282721Y-96337814D01*
X252260587Y-96282088D01*
X252233054Y-96213352D01*
X252209043Y-96156909D01*
X252191356Y-96119118D01*
X252183282Y-96106362D01*
X252171411Y-96089889D01*
X252151423Y-96052148D01*
X252131713Y-96010223D01*
X252108358Y-95961244D01*
X252088901Y-95926042D01*
X252079088Y-95913591D01*
X252065833Y-95897010D01*
X252044103Y-95860062D01*
X252026361Y-95826098D01*
X252002060Y-95780212D01*
X251982432Y-95748136D01*
X251974258Y-95738722D01*
X251957672Y-95724071D01*
X251928636Y-95693240D01*
X251913397Y-95675985D01*
X251877082Y-95636174D01*
X251827214Y-95584181D01*
X251773821Y-95530438D01*
X251767239Y-95523961D01*
X251707123Y-95457815D01*
X251673907Y-95401553D01*
X251665563Y-95349878D01*
X251680064Y-95297495D01*
X251680302Y-95296981D01*
X251714088Y-95259274D01*
X251765600Y-95237650D01*
X251822268Y-95235974D01*
X251850508Y-95244684D01*
G37*
%TD*%
M02*
