%TF.GenerationSoftware,KiCad,Pcbnew,(7.0.0)*%
%TF.CreationDate,2023-09-11T13:22:16+02:00*%
%TF.ProjectId,kira plate,6b697261-2070-46c6-9174-652e6b696361,rev?*%
%TF.SameCoordinates,Original*%
%TF.FileFunction,Copper,L1,Top*%
%TF.FilePolarity,Positive*%
%FSLAX46Y46*%
G04 Gerber Fmt 4.6, Leading zero omitted, Abs format (unit mm)*
G04 Created by KiCad (PCBNEW (7.0.0)) date 2023-09-11 13:22:16*
%MOMM*%
%LPD*%
G01*
G04 APERTURE LIST*
G04 APERTURE END LIST*
%TA.AperFunction,Conductor*%
%TO.N,GND*%
G36*
X21511500Y-32010515D02*
G01*
X21557619Y-32056634D01*
X21574500Y-32119634D01*
X21574500Y-46037401D01*
X21574459Y-46037500D01*
X21574500Y-46037599D01*
X21574617Y-46037883D01*
X21575000Y-46038041D01*
X21575099Y-46038000D01*
X35574901Y-46038000D01*
X35575000Y-46038041D01*
X35575383Y-46037883D01*
X35575500Y-46037599D01*
X35575541Y-46037500D01*
X35575500Y-46037401D01*
X35575500Y-32119634D01*
X35592381Y-32056634D01*
X35638500Y-32010515D01*
X35701500Y-31993634D01*
X45261000Y-31993634D01*
X45324000Y-32010515D01*
X45370119Y-32056634D01*
X45387000Y-32119634D01*
X45387000Y-46037401D01*
X45386959Y-46037500D01*
X45387000Y-46037599D01*
X45387117Y-46037883D01*
X45387500Y-46038041D01*
X45387599Y-46038000D01*
X59387401Y-46038000D01*
X59387500Y-46038041D01*
X59387883Y-46037883D01*
X59388000Y-46037599D01*
X59388041Y-46037500D01*
X59388000Y-46037401D01*
X59388000Y-32119634D01*
X59404881Y-32056634D01*
X59451000Y-32010515D01*
X59514000Y-31993634D01*
X64311000Y-31993634D01*
X64374000Y-32010515D01*
X64420119Y-32056634D01*
X64437000Y-32119634D01*
X64437000Y-46037401D01*
X64436959Y-46037500D01*
X64437000Y-46037599D01*
X64437117Y-46037883D01*
X64437500Y-46038041D01*
X64437599Y-46038000D01*
X78437401Y-46038000D01*
X78437500Y-46038041D01*
X78437883Y-46037883D01*
X78438000Y-46037599D01*
X78438041Y-46037500D01*
X78438000Y-46037401D01*
X78438000Y-32119634D01*
X78454881Y-32056634D01*
X78501000Y-32010515D01*
X78564000Y-31993634D01*
X83361000Y-31993634D01*
X83424000Y-32010515D01*
X83470119Y-32056634D01*
X83487000Y-32119634D01*
X83487000Y-46037401D01*
X83486959Y-46037500D01*
X83487000Y-46037599D01*
X83487117Y-46037883D01*
X83487500Y-46038041D01*
X83487599Y-46038000D01*
X97487401Y-46038000D01*
X97487500Y-46038041D01*
X97487883Y-46037883D01*
X97488000Y-46037599D01*
X97488041Y-46037500D01*
X97488000Y-46037401D01*
X97488000Y-32119634D01*
X97504881Y-32056634D01*
X97551000Y-32010515D01*
X97614000Y-31993634D01*
X102411000Y-31993634D01*
X102474000Y-32010515D01*
X102520119Y-32056634D01*
X102537000Y-32119634D01*
X102537000Y-46037401D01*
X102536959Y-46037500D01*
X102537000Y-46037599D01*
X102537117Y-46037883D01*
X102537500Y-46038041D01*
X102537599Y-46038000D01*
X116537401Y-46038000D01*
X116537500Y-46038041D01*
X116537883Y-46037883D01*
X116538000Y-46037599D01*
X116538041Y-46037500D01*
X116538000Y-46037401D01*
X116538000Y-32119634D01*
X116554881Y-32056634D01*
X116601000Y-32010515D01*
X116664000Y-31993634D01*
X121461000Y-31993634D01*
X121524000Y-32010515D01*
X121570119Y-32056634D01*
X121587000Y-32119634D01*
X121587000Y-46037401D01*
X121586959Y-46037500D01*
X121587000Y-46037599D01*
X121587117Y-46037883D01*
X121587500Y-46038041D01*
X121587599Y-46038000D01*
X135587401Y-46038000D01*
X135587500Y-46038041D01*
X135587883Y-46037883D01*
X135588000Y-46037599D01*
X135588041Y-46037500D01*
X135588000Y-46037401D01*
X135588000Y-32119634D01*
X135604881Y-32056634D01*
X135651000Y-32010515D01*
X135714000Y-31993634D01*
X140511000Y-31993634D01*
X140574000Y-32010515D01*
X140620119Y-32056634D01*
X140637000Y-32119634D01*
X140637000Y-46037401D01*
X140636959Y-46037500D01*
X140637000Y-46037599D01*
X140637117Y-46037883D01*
X140637500Y-46038041D01*
X140637599Y-46038000D01*
X154637401Y-46038000D01*
X154637500Y-46038041D01*
X154637883Y-46037883D01*
X154638000Y-46037599D01*
X154638041Y-46037500D01*
X154638000Y-46037401D01*
X154638000Y-32119634D01*
X154654881Y-32056634D01*
X154701000Y-32010515D01*
X154764000Y-31993634D01*
X159561000Y-31993634D01*
X159624000Y-32010515D01*
X159670119Y-32056634D01*
X159687000Y-32119634D01*
X159687000Y-46037401D01*
X159686959Y-46037500D01*
X159687000Y-46037599D01*
X159687117Y-46037883D01*
X159687500Y-46038041D01*
X159687599Y-46038000D01*
X173687401Y-46038000D01*
X173687500Y-46038041D01*
X173687883Y-46037883D01*
X173688000Y-46037599D01*
X173688041Y-46037500D01*
X173688000Y-46037401D01*
X173688000Y-32119634D01*
X173704881Y-32056634D01*
X173751000Y-32010515D01*
X173814000Y-31993634D01*
X178611000Y-31993634D01*
X178674000Y-32010515D01*
X178720119Y-32056634D01*
X178737000Y-32119634D01*
X178737000Y-46037401D01*
X178736959Y-46037500D01*
X178737000Y-46037599D01*
X178737117Y-46037883D01*
X178737500Y-46038041D01*
X178737599Y-46038000D01*
X192737401Y-46038000D01*
X192737500Y-46038041D01*
X192737883Y-46037883D01*
X192738000Y-46037599D01*
X192738041Y-46037500D01*
X192738000Y-46037401D01*
X192738000Y-32119634D01*
X192754881Y-32056634D01*
X192801000Y-32010515D01*
X192864000Y-31993634D01*
X197661000Y-31993634D01*
X197724000Y-32010515D01*
X197770119Y-32056634D01*
X197787000Y-32119634D01*
X197787000Y-46037401D01*
X197786959Y-46037500D01*
X197787000Y-46037599D01*
X197787117Y-46037883D01*
X197787500Y-46038041D01*
X197787599Y-46038000D01*
X211787401Y-46038000D01*
X211787500Y-46038041D01*
X211787883Y-46037883D01*
X211788000Y-46037599D01*
X211788041Y-46037500D01*
X211788000Y-46037401D01*
X211788000Y-32119634D01*
X211804881Y-32056634D01*
X211851000Y-32010515D01*
X211914000Y-31993634D01*
X216711000Y-31993634D01*
X216774000Y-32010515D01*
X216820119Y-32056634D01*
X216837000Y-32119634D01*
X216837000Y-46037401D01*
X216836959Y-46037500D01*
X216837000Y-46037599D01*
X216837117Y-46037883D01*
X216837500Y-46038041D01*
X216837599Y-46038000D01*
X230837401Y-46038000D01*
X230837500Y-46038041D01*
X230837883Y-46037883D01*
X230838000Y-46037599D01*
X230838041Y-46037500D01*
X230838000Y-46037401D01*
X230838000Y-32119634D01*
X230854881Y-32056634D01*
X230901000Y-32010515D01*
X230964000Y-31993634D01*
X235761000Y-31993634D01*
X235824000Y-32010515D01*
X235870119Y-32056634D01*
X235887000Y-32119634D01*
X235887000Y-46037401D01*
X235886959Y-46037500D01*
X235887000Y-46037599D01*
X235887117Y-46037883D01*
X235887500Y-46038041D01*
X235887599Y-46038000D01*
X240649901Y-46038000D01*
X240650099Y-46038000D01*
X249887401Y-46038000D01*
X249887599Y-46038000D01*
X254649901Y-46038000D01*
X254650000Y-46038041D01*
X254650383Y-46037883D01*
X254650500Y-46037599D01*
X254650541Y-46037500D01*
X254650500Y-46037401D01*
X254650500Y-32119634D01*
X254667381Y-32056634D01*
X254713500Y-32010515D01*
X254776500Y-31993634D01*
X259573500Y-31993634D01*
X259636500Y-32010515D01*
X259682619Y-32056634D01*
X259699500Y-32119634D01*
X259699500Y-46037401D01*
X259699459Y-46037500D01*
X259699500Y-46037599D01*
X259699617Y-46037883D01*
X259700000Y-46038041D01*
X259700099Y-46038000D01*
X264462401Y-46038000D01*
X264462599Y-46038000D01*
X273699901Y-46038000D01*
X273700099Y-46038000D01*
X278462401Y-46038000D01*
X278462500Y-46038041D01*
X278462883Y-46037883D01*
X278463000Y-46037599D01*
X278463041Y-46037500D01*
X278463000Y-46037401D01*
X278463000Y-32119634D01*
X278479881Y-32056634D01*
X278526000Y-32010515D01*
X278589000Y-31993634D01*
X279271997Y-31993634D01*
X279334965Y-32010496D01*
X279381079Y-32056569D01*
X279397997Y-32119522D01*
X279461272Y-103114134D01*
X279461273Y-103114522D01*
X279444430Y-103177569D01*
X279398305Y-103223734D01*
X279335273Y-103240634D01*
X273826500Y-103240634D01*
X273763500Y-103223753D01*
X273717381Y-103177634D01*
X273700500Y-103114634D01*
X273700500Y-89199722D01*
X273700500Y-89187599D01*
X273700541Y-89187500D01*
X273700383Y-89187117D01*
X273700099Y-89187000D01*
X273700000Y-89186959D01*
X273699901Y-89187000D01*
X259700099Y-89187000D01*
X259700000Y-89186959D01*
X259699901Y-89187000D01*
X259699617Y-89187117D01*
X259699459Y-89187500D01*
X259699500Y-89187599D01*
X259699500Y-89199722D01*
X259699500Y-99241135D01*
X259682619Y-99304135D01*
X259636501Y-99350254D01*
X259573502Y-99367134D01*
X257395132Y-99367152D01*
X230963999Y-99367169D01*
X230901000Y-99350289D01*
X230854881Y-99304170D01*
X230838000Y-99241170D01*
X230838000Y-89199722D01*
X230838000Y-89187599D01*
X230838041Y-89187500D01*
X230837883Y-89187117D01*
X230837599Y-89187000D01*
X230837500Y-89186959D01*
X230837401Y-89187000D01*
X216837599Y-89187000D01*
X216837500Y-89186959D01*
X216837401Y-89187000D01*
X216837117Y-89187117D01*
X216836959Y-89187500D01*
X216837000Y-89187599D01*
X216837000Y-89199722D01*
X216837000Y-103114685D01*
X216820119Y-103177685D01*
X216774000Y-103223804D01*
X216711001Y-103240684D01*
X208413998Y-103240691D01*
X208351000Y-103223811D01*
X208304881Y-103177692D01*
X208288000Y-103114692D01*
X208288000Y-88199722D01*
X208288000Y-88187599D01*
X208288041Y-88187500D01*
X208287883Y-88187117D01*
X208287599Y-88187000D01*
X208287500Y-88186959D01*
X208287401Y-88187000D01*
X201287599Y-88187000D01*
X201287500Y-88186959D01*
X201287401Y-88187000D01*
X201287117Y-88187117D01*
X201286959Y-88187500D01*
X201287000Y-88187599D01*
X201287000Y-88199722D01*
X201287000Y-103114698D01*
X201270119Y-103177698D01*
X201224000Y-103223817D01*
X201161001Y-103240697D01*
X192863998Y-103240704D01*
X192801000Y-103223824D01*
X192754881Y-103177705D01*
X192738000Y-103114705D01*
X192738000Y-89199722D01*
X192738000Y-89187599D01*
X192738041Y-89187500D01*
X192737883Y-89187117D01*
X192737599Y-89187000D01*
X192737500Y-89186959D01*
X192737401Y-89187000D01*
X178737599Y-89187000D01*
X178737500Y-89186959D01*
X178737401Y-89187000D01*
X178737117Y-89187117D01*
X178736959Y-89187500D01*
X178737000Y-89187599D01*
X178737000Y-89199722D01*
X178737000Y-103114716D01*
X178720119Y-103177716D01*
X178674000Y-103223835D01*
X178611000Y-103240716D01*
X170314000Y-103240723D01*
X170251000Y-103223842D01*
X170204881Y-103177723D01*
X170188000Y-103114723D01*
X170188000Y-88199722D01*
X170188000Y-88187599D01*
X170188041Y-88187500D01*
X170187883Y-88187117D01*
X170187599Y-88187000D01*
X170187500Y-88186959D01*
X170187401Y-88187000D01*
X163187599Y-88187000D01*
X163187500Y-88186959D01*
X163187401Y-88187000D01*
X163187117Y-88187117D01*
X163186959Y-88187500D01*
X163187000Y-88187599D01*
X163187000Y-88199722D01*
X163187000Y-103114729D01*
X163170119Y-103177729D01*
X163124000Y-103223848D01*
X163061000Y-103240729D01*
X154764000Y-103240736D01*
X154701000Y-103223855D01*
X154654881Y-103177736D01*
X154638000Y-103114736D01*
X154638000Y-89199722D01*
X154638000Y-89187599D01*
X154638041Y-89187500D01*
X154637883Y-89187117D01*
X154637599Y-89187000D01*
X154637500Y-89186959D01*
X154637401Y-89187000D01*
X140637599Y-89187000D01*
X140637500Y-89186959D01*
X140637401Y-89187000D01*
X140637117Y-89187117D01*
X140636959Y-89187500D01*
X140637000Y-89187599D01*
X140637000Y-89199722D01*
X140637000Y-103114748D01*
X140620119Y-103177748D01*
X140574000Y-103223867D01*
X140511000Y-103240747D01*
X132213999Y-103240754D01*
X132151000Y-103223874D01*
X132104881Y-103177755D01*
X132088000Y-103114755D01*
X132088000Y-88199722D01*
X132088000Y-88187599D01*
X132088041Y-88187500D01*
X132087883Y-88187117D01*
X132087599Y-88187000D01*
X132087500Y-88186959D01*
X132087401Y-88187000D01*
X125087599Y-88187000D01*
X125087500Y-88186959D01*
X125087401Y-88187000D01*
X125087117Y-88187117D01*
X125086959Y-88187500D01*
X125087000Y-88187599D01*
X125087000Y-88199722D01*
X125087000Y-103114761D01*
X125070119Y-103177761D01*
X125024000Y-103223880D01*
X124961000Y-103240760D01*
X116663999Y-103240767D01*
X116601000Y-103223887D01*
X116554881Y-103177768D01*
X116538000Y-103114768D01*
X116538000Y-89199722D01*
X116538000Y-89187599D01*
X116538041Y-89187500D01*
X116537883Y-89187117D01*
X116537599Y-89187000D01*
X116537500Y-89186959D01*
X116537401Y-89187000D01*
X102537599Y-89187000D01*
X102537500Y-89186959D01*
X102537401Y-89187000D01*
X102537117Y-89187117D01*
X102536959Y-89187500D01*
X102537000Y-89187599D01*
X102537000Y-89199722D01*
X102537000Y-103114780D01*
X102520119Y-103177780D01*
X102474000Y-103223899D01*
X102411001Y-103240779D01*
X94113998Y-103240786D01*
X94051000Y-103223906D01*
X94004881Y-103177787D01*
X93988000Y-103114787D01*
X93988000Y-88199722D01*
X93988000Y-88187599D01*
X93988041Y-88187500D01*
X93987883Y-88187117D01*
X93987599Y-88187000D01*
X93987500Y-88186959D01*
X93987401Y-88187000D01*
X86987599Y-88187000D01*
X86987500Y-88186959D01*
X86987401Y-88187000D01*
X86987117Y-88187117D01*
X86986959Y-88187500D01*
X86987000Y-88187599D01*
X86987000Y-88199722D01*
X86987000Y-103114793D01*
X86970119Y-103177793D01*
X86924000Y-103223912D01*
X86861001Y-103240792D01*
X82688277Y-103240796D01*
X78564000Y-103240799D01*
X78501000Y-103223918D01*
X78454881Y-103177799D01*
X78438000Y-103114799D01*
X78438000Y-89199722D01*
X78438000Y-89187599D01*
X78438041Y-89187500D01*
X78437883Y-89187117D01*
X78437599Y-89187000D01*
X78437500Y-89186959D01*
X78437401Y-89187000D01*
X64437599Y-89187000D01*
X64437500Y-89186959D01*
X64437401Y-89187000D01*
X64437117Y-89187117D01*
X64436959Y-89187500D01*
X64437000Y-89187599D01*
X64437000Y-89199722D01*
X64437000Y-99428052D01*
X64419591Y-99491958D01*
X64372175Y-99538205D01*
X64307854Y-99554012D01*
X64201638Y-99551360D01*
X61911129Y-99494152D01*
X61911084Y-99494151D01*
X61910385Y-99494134D01*
X61909630Y-99494134D01*
X35701500Y-99494134D01*
X35638500Y-99477253D01*
X35592381Y-99431134D01*
X35575500Y-99368134D01*
X35575500Y-89199722D01*
X35575500Y-89187599D01*
X35575541Y-89187500D01*
X35575383Y-89187117D01*
X35575099Y-89187000D01*
X35575000Y-89186959D01*
X35574901Y-89187000D01*
X21575099Y-89187000D01*
X21575000Y-89186959D01*
X21574901Y-89187000D01*
X21574617Y-89187117D01*
X21574459Y-89187500D01*
X21574500Y-89187599D01*
X21574500Y-89199722D01*
X21574500Y-103051134D01*
X21557619Y-103114134D01*
X21511500Y-103160253D01*
X21448500Y-103177134D01*
X15998885Y-103177134D01*
X15935885Y-103160253D01*
X15889766Y-103114134D01*
X15872885Y-103051134D01*
X15872885Y-85137500D01*
X20280209Y-85137500D01*
X20280250Y-85137599D01*
X20280367Y-85137883D01*
X20280750Y-85138041D01*
X20280849Y-85138000D01*
X27280651Y-85138000D01*
X27280750Y-85138041D01*
X27281133Y-85137883D01*
X27281250Y-85137599D01*
X27281291Y-85137500D01*
X44156209Y-85137500D01*
X44156250Y-85137599D01*
X44156367Y-85137883D01*
X44156750Y-85138041D01*
X44156849Y-85138000D01*
X51156651Y-85138000D01*
X51156750Y-85138041D01*
X51157133Y-85137883D01*
X51157250Y-85137599D01*
X51157291Y-85137500D01*
X51157250Y-85137401D01*
X51157250Y-84137500D01*
X59674459Y-84137500D01*
X59674500Y-84137599D01*
X59674617Y-84137883D01*
X59675000Y-84138041D01*
X59675099Y-84138000D01*
X73674901Y-84138000D01*
X73675000Y-84138041D01*
X73675383Y-84137883D01*
X73675500Y-84137599D01*
X73675541Y-84137500D01*
X78724459Y-84137500D01*
X78724500Y-84137599D01*
X78724617Y-84137883D01*
X78725000Y-84138041D01*
X78725099Y-84138000D01*
X92724901Y-84138000D01*
X92725000Y-84138041D01*
X92725383Y-84137883D01*
X92725500Y-84137599D01*
X92725541Y-84137500D01*
X97774459Y-84137500D01*
X97774500Y-84137599D01*
X97774617Y-84137883D01*
X97775000Y-84138041D01*
X97775099Y-84138000D01*
X111774901Y-84138000D01*
X111775000Y-84138041D01*
X111775383Y-84137883D01*
X111775500Y-84137599D01*
X111775541Y-84137500D01*
X116824459Y-84137500D01*
X116824500Y-84137599D01*
X116824617Y-84137883D01*
X116825000Y-84138041D01*
X116825099Y-84138000D01*
X130824901Y-84138000D01*
X130825000Y-84138041D01*
X130825383Y-84137883D01*
X130825500Y-84137599D01*
X130825541Y-84137500D01*
X135874459Y-84137500D01*
X135874500Y-84137599D01*
X135874617Y-84137883D01*
X135875000Y-84138041D01*
X135875099Y-84138000D01*
X149874901Y-84138000D01*
X149875000Y-84138041D01*
X149875383Y-84137883D01*
X149875500Y-84137599D01*
X149875541Y-84137500D01*
X154924459Y-84137500D01*
X154924500Y-84137599D01*
X154924617Y-84137883D01*
X154925000Y-84138041D01*
X154925099Y-84138000D01*
X168924901Y-84138000D01*
X168925000Y-84138041D01*
X168925383Y-84137883D01*
X168925500Y-84137599D01*
X168925541Y-84137500D01*
X173974459Y-84137500D01*
X173974500Y-84137599D01*
X173974617Y-84137883D01*
X173975000Y-84138041D01*
X173975099Y-84138000D01*
X187974901Y-84138000D01*
X187975000Y-84138041D01*
X187975383Y-84137883D01*
X187975500Y-84137599D01*
X187975541Y-84137500D01*
X193024459Y-84137500D01*
X193024500Y-84137599D01*
X193024617Y-84137883D01*
X193025000Y-84138041D01*
X193025099Y-84138000D01*
X207024901Y-84138000D01*
X207025000Y-84138041D01*
X207025383Y-84137883D01*
X207025500Y-84137599D01*
X207025541Y-84137500D01*
X212074459Y-84137500D01*
X212074500Y-84137599D01*
X212074617Y-84137883D01*
X212075000Y-84138041D01*
X212075099Y-84138000D01*
X226074901Y-84138000D01*
X226075000Y-84138041D01*
X226075383Y-84137883D01*
X226075500Y-84137599D01*
X226075541Y-84137500D01*
X231124459Y-84137500D01*
X231124500Y-84137599D01*
X231124617Y-84137883D01*
X231125000Y-84138041D01*
X231125099Y-84138000D01*
X239229250Y-84138000D01*
X239292250Y-84154881D01*
X239338369Y-84201000D01*
X239355250Y-84264000D01*
X239355250Y-85137401D01*
X239355209Y-85137500D01*
X239355250Y-85137599D01*
X239355367Y-85137883D01*
X239355750Y-85138041D01*
X239355849Y-85138000D01*
X246355651Y-85138000D01*
X246355750Y-85138041D01*
X246356133Y-85137883D01*
X246356250Y-85137599D01*
X246356291Y-85137500D01*
X246356250Y-85137401D01*
X246356250Y-84137500D01*
X247793209Y-84137500D01*
X247793250Y-84137599D01*
X247793367Y-84137883D01*
X247793750Y-84138041D01*
X247793849Y-84138000D01*
X257318651Y-84138000D01*
X257318849Y-84138000D01*
X261793651Y-84138000D01*
X261793849Y-84138000D01*
X263105250Y-84138000D01*
X263168250Y-84154881D01*
X263214369Y-84201000D01*
X263231250Y-84264000D01*
X263231250Y-85137401D01*
X263231209Y-85137500D01*
X263231250Y-85137599D01*
X263231367Y-85137883D01*
X263231750Y-85138041D01*
X263231849Y-85138000D01*
X270231651Y-85138000D01*
X270231750Y-85138041D01*
X270232133Y-85137883D01*
X270232250Y-85137599D01*
X270232291Y-85137500D01*
X270232250Y-85137401D01*
X270232250Y-84264000D01*
X270249131Y-84201000D01*
X270295250Y-84154881D01*
X270358250Y-84138000D01*
X271318651Y-84138000D01*
X271318750Y-84138041D01*
X271319133Y-84137883D01*
X271319250Y-84137599D01*
X271319291Y-84137500D01*
X271319250Y-84137401D01*
X271319250Y-70137599D01*
X271319291Y-70137500D01*
X271319133Y-70137117D01*
X271318849Y-70137000D01*
X271318750Y-70136959D01*
X271318651Y-70137000D01*
X270231849Y-70137000D01*
X263231849Y-70137000D01*
X261793849Y-70137000D01*
X257318849Y-70137000D01*
X247793849Y-70137000D01*
X247793750Y-70136959D01*
X247793651Y-70137000D01*
X247793367Y-70137117D01*
X247793209Y-70137500D01*
X247793250Y-70137599D01*
X247793250Y-84137401D01*
X247793209Y-84137500D01*
X246356250Y-84137500D01*
X246356250Y-70137599D01*
X246356291Y-70137500D01*
X246356133Y-70137117D01*
X246355849Y-70137000D01*
X246355750Y-70136959D01*
X246355651Y-70137000D01*
X245125099Y-70137000D01*
X239355849Y-70137000D01*
X231125099Y-70137000D01*
X231125000Y-70136959D01*
X231124901Y-70137000D01*
X231124617Y-70137117D01*
X231124459Y-70137500D01*
X231124500Y-70137599D01*
X231124500Y-84137401D01*
X231124459Y-84137500D01*
X226075541Y-84137500D01*
X226075500Y-84137401D01*
X226075500Y-70137599D01*
X226075541Y-70137500D01*
X226075383Y-70137117D01*
X226075099Y-70137000D01*
X226075000Y-70136959D01*
X226074901Y-70137000D01*
X212075099Y-70137000D01*
X212075000Y-70136959D01*
X212074901Y-70137000D01*
X212074617Y-70137117D01*
X212074459Y-70137500D01*
X212074500Y-70137599D01*
X212074500Y-84137401D01*
X212074459Y-84137500D01*
X207025541Y-84137500D01*
X207025500Y-84137401D01*
X207025500Y-70137599D01*
X207025541Y-70137500D01*
X207025383Y-70137117D01*
X207025099Y-70137000D01*
X207025000Y-70136959D01*
X207024901Y-70137000D01*
X193025099Y-70137000D01*
X193025000Y-70136959D01*
X193024901Y-70137000D01*
X193024617Y-70137117D01*
X193024459Y-70137500D01*
X193024500Y-70137599D01*
X193024500Y-84137401D01*
X193024459Y-84137500D01*
X187975541Y-84137500D01*
X187975500Y-84137401D01*
X187975500Y-70137599D01*
X187975541Y-70137500D01*
X187975383Y-70137117D01*
X187975099Y-70137000D01*
X187975000Y-70136959D01*
X187974901Y-70137000D01*
X173975099Y-70137000D01*
X173975000Y-70136959D01*
X173974901Y-70137000D01*
X173974617Y-70137117D01*
X173974459Y-70137500D01*
X173974500Y-70137599D01*
X173974500Y-84137401D01*
X173974459Y-84137500D01*
X168925541Y-84137500D01*
X168925500Y-84137401D01*
X168925500Y-70137599D01*
X168925541Y-70137500D01*
X168925383Y-70137117D01*
X168925099Y-70137000D01*
X168925000Y-70136959D01*
X168924901Y-70137000D01*
X154925099Y-70137000D01*
X154925000Y-70136959D01*
X154924901Y-70137000D01*
X154924617Y-70137117D01*
X154924459Y-70137500D01*
X154924500Y-70137599D01*
X154924500Y-84137401D01*
X154924459Y-84137500D01*
X149875541Y-84137500D01*
X149875500Y-84137401D01*
X149875500Y-70137599D01*
X149875541Y-70137500D01*
X149875383Y-70137117D01*
X149875099Y-70137000D01*
X149875000Y-70136959D01*
X149874901Y-70137000D01*
X135875099Y-70137000D01*
X135875000Y-70136959D01*
X135874901Y-70137000D01*
X135874617Y-70137117D01*
X135874459Y-70137500D01*
X135874500Y-70137599D01*
X135874500Y-84137401D01*
X135874459Y-84137500D01*
X130825541Y-84137500D01*
X130825500Y-84137401D01*
X130825500Y-70137599D01*
X130825541Y-70137500D01*
X130825383Y-70137117D01*
X130825099Y-70137000D01*
X130825000Y-70136959D01*
X130824901Y-70137000D01*
X116825099Y-70137000D01*
X116825000Y-70136959D01*
X116824901Y-70137000D01*
X116824617Y-70137117D01*
X116824459Y-70137500D01*
X116824500Y-70137599D01*
X116824500Y-84137401D01*
X116824459Y-84137500D01*
X111775541Y-84137500D01*
X111775500Y-84137401D01*
X111775500Y-70137599D01*
X111775541Y-70137500D01*
X111775383Y-70137117D01*
X111775099Y-70137000D01*
X111775000Y-70136959D01*
X111774901Y-70137000D01*
X97775099Y-70137000D01*
X97775000Y-70136959D01*
X97774901Y-70137000D01*
X97774617Y-70137117D01*
X97774459Y-70137500D01*
X97774500Y-70137599D01*
X97774500Y-84137401D01*
X97774459Y-84137500D01*
X92725541Y-84137500D01*
X92725500Y-84137401D01*
X92725500Y-70137599D01*
X92725541Y-70137500D01*
X92725383Y-70137117D01*
X92725099Y-70137000D01*
X92725000Y-70136959D01*
X92724901Y-70137000D01*
X78725099Y-70137000D01*
X78725000Y-70136959D01*
X78724901Y-70137000D01*
X78724617Y-70137117D01*
X78724459Y-70137500D01*
X78724500Y-70137599D01*
X78724500Y-84137401D01*
X78724459Y-84137500D01*
X73675541Y-84137500D01*
X73675500Y-84137401D01*
X73675500Y-70137599D01*
X73675541Y-70137500D01*
X73675383Y-70137117D01*
X73675099Y-70137000D01*
X73675000Y-70136959D01*
X73674901Y-70137000D01*
X59675099Y-70137000D01*
X59675000Y-70136959D01*
X59674901Y-70137000D01*
X59674617Y-70137117D01*
X59674459Y-70137500D01*
X59674500Y-70137599D01*
X59674500Y-84137401D01*
X59674459Y-84137500D01*
X51157250Y-84137500D01*
X51157250Y-70137599D01*
X51157291Y-70137500D01*
X51157133Y-70137117D01*
X51156849Y-70137000D01*
X51156750Y-70136959D01*
X51156651Y-70137000D01*
X44156849Y-70137000D01*
X44156750Y-70136959D01*
X44156651Y-70137000D01*
X44156367Y-70137117D01*
X44156209Y-70137500D01*
X44156250Y-70137599D01*
X44156250Y-85137401D01*
X44156209Y-85137500D01*
X27281291Y-85137500D01*
X27281250Y-85137401D01*
X27281250Y-84137500D01*
X28718209Y-84137500D01*
X28718250Y-84137599D01*
X28718367Y-84137883D01*
X28718750Y-84138041D01*
X28718849Y-84138000D01*
X42718651Y-84138000D01*
X42718750Y-84138041D01*
X42719133Y-84137883D01*
X42719250Y-84137599D01*
X42719291Y-84137500D01*
X42719250Y-84137401D01*
X42719250Y-70137599D01*
X42719291Y-70137500D01*
X42719133Y-70137117D01*
X42718849Y-70137000D01*
X42718750Y-70136959D01*
X42718651Y-70137000D01*
X28718849Y-70137000D01*
X28718750Y-70136959D01*
X28718651Y-70137000D01*
X28718367Y-70137117D01*
X28718209Y-70137500D01*
X28718250Y-70137599D01*
X28718250Y-84137401D01*
X28718209Y-84137500D01*
X27281250Y-84137500D01*
X27281250Y-70137599D01*
X27281291Y-70137500D01*
X27281133Y-70137117D01*
X27280849Y-70137000D01*
X27280750Y-70136959D01*
X27280651Y-70137000D01*
X20280849Y-70137000D01*
X20280750Y-70136959D01*
X20280651Y-70137000D01*
X20280367Y-70137117D01*
X20280209Y-70137500D01*
X20280250Y-70137599D01*
X20280250Y-85137401D01*
X20280209Y-85137500D01*
X15872885Y-85137500D01*
X15872885Y-66087500D01*
X244117709Y-66087500D01*
X244117750Y-66087599D01*
X244117867Y-66087883D01*
X244118250Y-66088041D01*
X244118349Y-66088000D01*
X251118151Y-66088000D01*
X251118250Y-66088041D01*
X251118633Y-66087883D01*
X251118750Y-66087599D01*
X251118791Y-66087500D01*
X267993709Y-66087500D01*
X267993750Y-66087599D01*
X267993867Y-66087883D01*
X267994250Y-66088041D01*
X267994349Y-66088000D01*
X274994151Y-66088000D01*
X274994250Y-66088041D01*
X274994633Y-66087883D01*
X274994750Y-66087599D01*
X274994791Y-66087500D01*
X274994750Y-66087401D01*
X274994750Y-51087599D01*
X274994791Y-51087500D01*
X274994633Y-51087117D01*
X274994349Y-51087000D01*
X274994250Y-51086959D01*
X274994151Y-51087000D01*
X267994349Y-51087000D01*
X267994250Y-51086959D01*
X267994151Y-51087000D01*
X267993867Y-51087117D01*
X267993709Y-51087500D01*
X267993750Y-51087599D01*
X267993750Y-66087401D01*
X267993709Y-66087500D01*
X251118791Y-66087500D01*
X251118750Y-66087401D01*
X251118750Y-65087500D01*
X252555709Y-65087500D01*
X252555750Y-65087599D01*
X252555867Y-65087883D01*
X252556250Y-65088041D01*
X252556349Y-65088000D01*
X266556151Y-65088000D01*
X266556250Y-65088041D01*
X266556633Y-65087883D01*
X266556750Y-65087599D01*
X266556791Y-65087500D01*
X266556750Y-65087401D01*
X266556750Y-51087599D01*
X266556791Y-51087500D01*
X266556633Y-51087117D01*
X266556349Y-51087000D01*
X266556250Y-51086959D01*
X266556151Y-51087000D01*
X252556349Y-51087000D01*
X252556250Y-51086959D01*
X252556151Y-51087000D01*
X252555867Y-51087117D01*
X252555709Y-51087500D01*
X252555750Y-51087599D01*
X252555750Y-65087401D01*
X252555709Y-65087500D01*
X251118750Y-65087500D01*
X251118750Y-51087599D01*
X251118791Y-51087500D01*
X251118633Y-51087117D01*
X251118349Y-51087000D01*
X251118250Y-51086959D01*
X251118151Y-51087000D01*
X244118349Y-51087000D01*
X244118250Y-51086959D01*
X244118151Y-51087000D01*
X244117867Y-51087117D01*
X244117709Y-51087500D01*
X244117750Y-51087599D01*
X244117750Y-66087401D01*
X244117709Y-66087500D01*
X15872885Y-66087500D01*
X15872885Y-65087500D01*
X19193209Y-65087500D01*
X19193250Y-65087599D01*
X19193367Y-65087883D01*
X19193750Y-65088041D01*
X19193849Y-65088000D01*
X23956151Y-65088000D01*
X23956349Y-65088000D01*
X33193651Y-65088000D01*
X33193849Y-65088000D01*
X37956151Y-65088000D01*
X37956250Y-65088041D01*
X37956633Y-65087883D01*
X37956750Y-65087599D01*
X37956791Y-65087500D01*
X50149459Y-65087500D01*
X50149500Y-65087599D01*
X50149617Y-65087883D01*
X50150000Y-65088041D01*
X50150099Y-65088000D01*
X64149901Y-65088000D01*
X64150000Y-65088041D01*
X64150383Y-65087883D01*
X64150500Y-65087599D01*
X64150541Y-65087500D01*
X69199459Y-65087500D01*
X69199500Y-65087599D01*
X69199617Y-65087883D01*
X69200000Y-65088041D01*
X69200099Y-65088000D01*
X83199901Y-65088000D01*
X83200000Y-65088041D01*
X83200383Y-65087883D01*
X83200500Y-65087599D01*
X83200541Y-65087500D01*
X88249459Y-65087500D01*
X88249500Y-65087599D01*
X88249617Y-65087883D01*
X88250000Y-65088041D01*
X88250099Y-65088000D01*
X102249901Y-65088000D01*
X102250000Y-65088041D01*
X102250383Y-65087883D01*
X102250500Y-65087599D01*
X102250541Y-65087500D01*
X107299459Y-65087500D01*
X107299500Y-65087599D01*
X107299617Y-65087883D01*
X107300000Y-65088041D01*
X107300099Y-65088000D01*
X121299901Y-65088000D01*
X121300000Y-65088041D01*
X121300383Y-65087883D01*
X121300500Y-65087599D01*
X121300541Y-65087500D01*
X126349459Y-65087500D01*
X126349500Y-65087599D01*
X126349617Y-65087883D01*
X126350000Y-65088041D01*
X126350099Y-65088000D01*
X140349901Y-65088000D01*
X140350000Y-65088041D01*
X140350383Y-65087883D01*
X140350500Y-65087599D01*
X140350541Y-65087500D01*
X145399459Y-65087500D01*
X145399500Y-65087599D01*
X145399617Y-65087883D01*
X145400000Y-65088041D01*
X145400099Y-65088000D01*
X159399901Y-65088000D01*
X159400000Y-65088041D01*
X159400383Y-65087883D01*
X159400500Y-65087599D01*
X159400541Y-65087500D01*
X164449459Y-65087500D01*
X164449500Y-65087599D01*
X164449617Y-65087883D01*
X164450000Y-65088041D01*
X164450099Y-65088000D01*
X178449901Y-65088000D01*
X178450000Y-65088041D01*
X178450383Y-65087883D01*
X178450500Y-65087599D01*
X178450541Y-65087500D01*
X183499459Y-65087500D01*
X183499500Y-65087599D01*
X183499617Y-65087883D01*
X183500000Y-65088041D01*
X183500099Y-65088000D01*
X197499901Y-65088000D01*
X197500000Y-65088041D01*
X197500383Y-65087883D01*
X197500500Y-65087599D01*
X197500541Y-65087500D01*
X202549459Y-65087500D01*
X202549500Y-65087599D01*
X202549617Y-65087883D01*
X202550000Y-65088041D01*
X202550099Y-65088000D01*
X216549901Y-65088000D01*
X216550000Y-65088041D01*
X216550383Y-65087883D01*
X216550500Y-65087599D01*
X216550541Y-65087500D01*
X221599459Y-65087500D01*
X221599500Y-65087599D01*
X221599617Y-65087883D01*
X221600000Y-65088041D01*
X221600099Y-65088000D01*
X235599901Y-65088000D01*
X235600000Y-65088041D01*
X235600383Y-65087883D01*
X235600500Y-65087599D01*
X235600541Y-65087500D01*
X235600500Y-65087401D01*
X235600500Y-51087599D01*
X235600541Y-51087500D01*
X235600383Y-51087117D01*
X235600099Y-51087000D01*
X235600000Y-51086959D01*
X235599901Y-51087000D01*
X221600099Y-51087000D01*
X221600000Y-51086959D01*
X221599901Y-51087000D01*
X221599617Y-51087117D01*
X221599459Y-51087500D01*
X221599500Y-51087599D01*
X221599500Y-65087401D01*
X221599459Y-65087500D01*
X216550541Y-65087500D01*
X216550500Y-65087401D01*
X216550500Y-51087599D01*
X216550541Y-51087500D01*
X216550383Y-51087117D01*
X216550099Y-51087000D01*
X216550000Y-51086959D01*
X216549901Y-51087000D01*
X202550099Y-51087000D01*
X202550000Y-51086959D01*
X202549901Y-51087000D01*
X202549617Y-51087117D01*
X202549459Y-51087500D01*
X202549500Y-51087599D01*
X202549500Y-65087401D01*
X202549459Y-65087500D01*
X197500541Y-65087500D01*
X197500500Y-65087401D01*
X197500500Y-51087599D01*
X197500541Y-51087500D01*
X197500383Y-51087117D01*
X197500099Y-51087000D01*
X197500000Y-51086959D01*
X197499901Y-51087000D01*
X183500099Y-51087000D01*
X183500000Y-51086959D01*
X183499901Y-51087000D01*
X183499617Y-51087117D01*
X183499459Y-51087500D01*
X183499500Y-51087599D01*
X183499500Y-65087401D01*
X183499459Y-65087500D01*
X178450541Y-65087500D01*
X178450500Y-65087401D01*
X178450500Y-51087599D01*
X178450541Y-51087500D01*
X178450383Y-51087117D01*
X178450099Y-51087000D01*
X178450000Y-51086959D01*
X178449901Y-51087000D01*
X164450099Y-51087000D01*
X164450000Y-51086959D01*
X164449901Y-51087000D01*
X164449617Y-51087117D01*
X164449459Y-51087500D01*
X164449500Y-51087599D01*
X164449500Y-65087401D01*
X164449459Y-65087500D01*
X159400541Y-65087500D01*
X159400500Y-65087401D01*
X159400500Y-51087599D01*
X159400541Y-51087500D01*
X159400383Y-51087117D01*
X159400099Y-51087000D01*
X159400000Y-51086959D01*
X159399901Y-51087000D01*
X145400099Y-51087000D01*
X145400000Y-51086959D01*
X145399901Y-51087000D01*
X145399617Y-51087117D01*
X145399459Y-51087500D01*
X145399500Y-51087599D01*
X145399500Y-65087401D01*
X145399459Y-65087500D01*
X140350541Y-65087500D01*
X140350500Y-65087401D01*
X140350500Y-51087599D01*
X140350541Y-51087500D01*
X140350383Y-51087117D01*
X140350099Y-51087000D01*
X140350000Y-51086959D01*
X140349901Y-51087000D01*
X126350099Y-51087000D01*
X126350000Y-51086959D01*
X126349901Y-51087000D01*
X126349617Y-51087117D01*
X126349459Y-51087500D01*
X126349500Y-51087599D01*
X126349500Y-65087401D01*
X126349459Y-65087500D01*
X121300541Y-65087500D01*
X121300500Y-65087401D01*
X121300500Y-51087599D01*
X121300541Y-51087500D01*
X121300383Y-51087117D01*
X121300099Y-51087000D01*
X121300000Y-51086959D01*
X121299901Y-51087000D01*
X107300099Y-51087000D01*
X107300000Y-51086959D01*
X107299901Y-51087000D01*
X107299617Y-51087117D01*
X107299459Y-51087500D01*
X107299500Y-51087599D01*
X107299500Y-65087401D01*
X107299459Y-65087500D01*
X102250541Y-65087500D01*
X102250500Y-65087401D01*
X102250500Y-51087599D01*
X102250541Y-51087500D01*
X102250383Y-51087117D01*
X102250099Y-51087000D01*
X102250000Y-51086959D01*
X102249901Y-51087000D01*
X88250099Y-51087000D01*
X88250000Y-51086959D01*
X88249901Y-51087000D01*
X88249617Y-51087117D01*
X88249459Y-51087500D01*
X88249500Y-51087599D01*
X88249500Y-65087401D01*
X88249459Y-65087500D01*
X83200541Y-65087500D01*
X83200500Y-65087401D01*
X83200500Y-51087599D01*
X83200541Y-51087500D01*
X83200383Y-51087117D01*
X83200099Y-51087000D01*
X83200000Y-51086959D01*
X83199901Y-51087000D01*
X69200099Y-51087000D01*
X69200000Y-51086959D01*
X69199901Y-51087000D01*
X69199617Y-51087117D01*
X69199459Y-51087500D01*
X69199500Y-51087599D01*
X69199500Y-65087401D01*
X69199459Y-65087500D01*
X64150541Y-65087500D01*
X64150500Y-65087401D01*
X64150500Y-51087599D01*
X64150541Y-51087500D01*
X64150383Y-51087117D01*
X64150099Y-51087000D01*
X64150000Y-51086959D01*
X64149901Y-51087000D01*
X50150099Y-51087000D01*
X50150000Y-51086959D01*
X50149901Y-51087000D01*
X50149617Y-51087117D01*
X50149459Y-51087500D01*
X50149500Y-51087599D01*
X50149500Y-65087401D01*
X50149459Y-65087500D01*
X37956791Y-65087500D01*
X37956750Y-65087401D01*
X37956750Y-51087599D01*
X37956791Y-51087500D01*
X37956633Y-51087117D01*
X37956349Y-51087000D01*
X37956250Y-51086959D01*
X37956151Y-51087000D01*
X33193849Y-51087000D01*
X23956349Y-51087000D01*
X19193849Y-51087000D01*
X19193750Y-51086959D01*
X19193651Y-51087000D01*
X19193367Y-51087117D01*
X19193209Y-51087500D01*
X19193250Y-51087599D01*
X19193250Y-65087401D01*
X19193209Y-65087500D01*
X15872885Y-65087500D01*
X15872885Y-32119634D01*
X15889766Y-32056634D01*
X15935885Y-32010515D01*
X15998885Y-31993634D01*
X21448500Y-31993634D01*
X21511500Y-32010515D01*
G37*
%TD.AperFunction*%
%TD*%
M02*
