%TF.GenerationSoftware,KiCad,Pcbnew,(6.0.11)*%
%TF.CreationDate,2023-03-24T14:39:48+01:00*%
%TF.ProjectId,kira,6b697261-2e6b-4696-9361-645f70636258,rev?*%
%TF.SameCoordinates,Original*%
%TF.FileFunction,Soldermask,Top*%
%TF.FilePolarity,Negative*%
%FSLAX46Y46*%
G04 Gerber Fmt 4.6, Leading zero omitted, Abs format (unit mm)*
G04 Created by KiCad (PCBNEW (6.0.11)) date 2023-03-24 14:39:48*
%MOMM*%
%LPD*%
G01*
G04 APERTURE LIST*
%ADD10C,3.987800*%
%ADD11C,3.000000*%
%ADD12C,1.750000*%
%ADD13C,3.048000*%
%ADD14C,0.650000*%
%ADD15O,1.000000X2.100000*%
%ADD16O,1.000000X1.600000*%
%ADD17R,1.700000X1.700000*%
%ADD18O,1.700000X1.700000*%
G04 APERTURE END LIST*
D10*
%TO.C,SW23*%
X211137500Y-65087500D03*
D11*
X213677500Y-60007500D03*
D12*
X206057500Y-65087500D03*
X216217500Y-65087500D03*
D11*
X207327500Y-62547500D03*
%TD*%
%TO.C,SW42*%
X221615000Y-100647500D03*
D12*
X220345000Y-103187500D03*
X230505000Y-103187500D03*
D11*
X227965000Y-98107500D03*
D10*
X225425000Y-103187500D03*
%TD*%
D12*
%TO.C,SW43*%
X273367500Y-103187500D03*
D11*
X270827500Y-98107500D03*
D10*
X268287500Y-103187500D03*
D12*
X263207500Y-103187500D03*
D11*
X264477500Y-100647500D03*
%TD*%
D10*
%TO.C,SW13(1.5)1*%
X268287500Y-46037500D03*
D12*
X263207500Y-46037500D03*
X273367500Y-46037500D03*
D11*
X264477500Y-43497500D03*
X270827500Y-40957500D03*
%TD*%
%TO.C,SW37(1.75)1*%
X263413152Y-89169151D03*
D10*
X265953152Y-84089151D03*
D12*
X260873152Y-84089151D03*
D11*
X269763152Y-86629151D03*
D12*
X271033152Y-84089151D03*
%TD*%
D10*
%TO.C,SW25*%
X249237500Y-73335550D03*
D12*
X256095500Y-65080550D03*
D10*
X273113500Y-73335550D03*
X261175500Y-65080550D03*
D11*
X257365500Y-62540550D03*
D13*
X273113500Y-58095550D03*
D11*
X263715500Y-60000550D03*
D13*
X249237500Y-58095550D03*
D12*
X266255500Y-65080550D03*
%TD*%
D11*
%TO.C,SW21*%
X175577500Y-60007500D03*
X169227500Y-62547500D03*
D12*
X178117500Y-65087500D03*
D10*
X173037500Y-65087500D03*
D12*
X167957500Y-65087500D03*
%TD*%
D11*
%TO.C,SW15*%
X54927500Y-62547500D03*
D10*
X58737500Y-65087500D03*
D11*
X61277500Y-60007500D03*
D12*
X53657500Y-65087500D03*
X63817500Y-65087500D03*
%TD*%
%TO.C,SW7*%
X154305000Y-46037500D03*
D10*
X149225000Y-46037500D03*
D11*
X145415000Y-43497500D03*
X151765000Y-40957500D03*
D12*
X144145000Y-46037500D03*
%TD*%
%TO.C,SW34*%
X206692500Y-84137500D03*
D10*
X201612500Y-84137500D03*
D12*
X196532500Y-84137500D03*
D11*
X204152500Y-79057500D03*
X197802500Y-81597500D03*
%TD*%
%TO.C,SW9*%
X183515000Y-43497500D03*
D12*
X182245000Y-46037500D03*
D10*
X187325000Y-46037500D03*
D12*
X192405000Y-46037500D03*
D11*
X189865000Y-40957500D03*
%TD*%
%TO.C,SW30*%
X121602500Y-81597500D03*
D10*
X125412500Y-84137500D03*
D12*
X120332500Y-84137500D03*
D11*
X127952500Y-79057500D03*
D12*
X130492500Y-84137500D03*
%TD*%
D11*
%TO.C,SW19*%
X137477500Y-60007500D03*
X131127500Y-62547500D03*
D10*
X134937500Y-65087500D03*
D12*
X140017500Y-65087500D03*
X129857500Y-65087500D03*
%TD*%
%TO.C,SW14(1.25)1*%
X32873860Y-65088197D03*
D11*
X23983860Y-62548197D03*
D10*
X27793860Y-65088197D03*
D11*
X30333860Y-60008197D03*
D12*
X22713860Y-65088197D03*
%TD*%
D11*
%TO.C,SW44*%
X113665000Y-98107500D03*
D10*
X111125000Y-103187500D03*
D13*
X130175000Y-110172500D03*
D10*
X130175000Y-94932500D03*
D12*
X106045000Y-103187500D03*
D10*
X92075000Y-94932500D03*
D13*
X92075000Y-110172500D03*
D11*
X107315000Y-100647500D03*
D12*
X116205000Y-103187500D03*
%TD*%
%TO.C,SW45*%
X182245000Y-103187500D03*
D13*
X168275000Y-110172500D03*
X206375000Y-110172500D03*
D11*
X189865000Y-98107500D03*
D10*
X168275000Y-94932500D03*
X187325000Y-103187500D03*
X206375000Y-94932500D03*
D12*
X192405000Y-103187500D03*
D11*
X183515000Y-100647500D03*
%TD*%
D10*
%TO.C,SW33*%
X182562500Y-84137500D03*
D11*
X178752500Y-81597500D03*
D12*
X187642500Y-84137500D03*
D11*
X185102500Y-79057500D03*
D12*
X177482500Y-84137500D03*
%TD*%
D11*
%TO.C,SW32*%
X159702500Y-81597500D03*
X166052500Y-79057500D03*
D12*
X168592500Y-84137500D03*
X158432500Y-84137500D03*
D10*
X163512500Y-84137500D03*
%TD*%
D11*
%TO.C,SW36*%
X243522500Y-86677500D03*
D12*
X244792500Y-84137500D03*
D10*
X239712500Y-84137500D03*
D11*
X237172500Y-89217500D03*
D12*
X234632500Y-84137500D03*
%TD*%
D11*
%TO.C,SW4*%
X88265000Y-43497500D03*
D12*
X97155000Y-46037500D03*
D11*
X94615000Y-40957500D03*
D10*
X92075000Y-46037500D03*
D12*
X86995000Y-46037500D03*
%TD*%
D11*
%TO.C,SW5*%
X113665000Y-40957500D03*
D12*
X106045000Y-46037500D03*
D11*
X107315000Y-43497500D03*
D10*
X111125000Y-46037500D03*
D12*
X116205000Y-46037500D03*
%TD*%
D11*
%TO.C,SW16*%
X80327500Y-60007500D03*
X73977500Y-62547500D03*
D10*
X77787500Y-65087500D03*
D12*
X82867500Y-65087500D03*
X72707500Y-65087500D03*
%TD*%
D13*
%TO.C,SW37(2.75)1*%
X244443100Y-77144624D03*
D10*
X244443100Y-92384624D03*
D12*
X251301100Y-84129624D03*
D10*
X268319100Y-92384624D03*
D12*
X261461100Y-84129624D03*
D11*
X258921100Y-79049624D03*
D10*
X256381100Y-84129624D03*
D11*
X252571100Y-81589624D03*
D13*
X268319100Y-77144624D03*
%TD*%
D12*
%TO.C,SW17*%
X91757500Y-65087500D03*
X101917500Y-65087500D03*
D11*
X93027500Y-62547500D03*
D10*
X96837500Y-65087500D03*
D11*
X99377500Y-60007500D03*
%TD*%
D12*
%TO.C,SW18*%
X110807500Y-65087500D03*
D11*
X118427500Y-60007500D03*
D12*
X120967500Y-65087500D03*
D10*
X115887500Y-65087500D03*
D11*
X112077500Y-62547500D03*
%TD*%
%TO.C,SW35*%
X216852500Y-81597500D03*
D12*
X225742500Y-84137500D03*
X215582500Y-84137500D03*
D11*
X223202500Y-79057500D03*
D10*
X220662500Y-84137500D03*
%TD*%
%TO.C,SW39*%
X30168281Y-103182316D03*
D12*
X25088281Y-103182316D03*
X35248281Y-103182316D03*
D11*
X26358281Y-100642316D03*
X32708281Y-98102316D03*
%TD*%
D12*
%TO.C,SW40*%
X78105000Y-103187500D03*
X67945000Y-103187500D03*
D10*
X73025000Y-103187500D03*
D11*
X75565000Y-98107500D03*
X69215000Y-100647500D03*
%TD*%
%TO.C,SW31*%
X140652500Y-81597500D03*
D10*
X144462500Y-84137500D03*
D12*
X139382500Y-84137500D03*
X149542500Y-84137500D03*
D11*
X147002500Y-79057500D03*
%TD*%
D10*
%TO.C,SW8*%
X168275000Y-46037500D03*
D11*
X164465000Y-43497500D03*
D12*
X173355000Y-46037500D03*
D11*
X170815000Y-40957500D03*
D12*
X163195000Y-46037500D03*
%TD*%
%TO.C,SW12*%
X278130000Y-46037500D03*
D11*
X276860000Y-48577500D03*
D12*
X267970000Y-46037500D03*
D10*
X273050000Y-46037500D03*
D11*
X270510000Y-51117500D03*
%TD*%
D10*
%TO.C,SW41*%
X149225000Y-103187500D03*
D13*
X206375000Y-110172500D03*
D10*
X92075000Y-94932500D03*
D12*
X144145000Y-103187500D03*
D11*
X145415000Y-100647500D03*
X151765000Y-98107500D03*
D13*
X92075000Y-110172500D03*
D12*
X154305000Y-103187500D03*
D10*
X206375000Y-94932500D03*
%TD*%
D12*
%TO.C,SW11*%
X220345000Y-46037500D03*
D10*
X225425000Y-46037500D03*
D11*
X221615000Y-43497500D03*
D12*
X230505000Y-46037500D03*
D11*
X227965000Y-40957500D03*
%TD*%
D12*
%TO.C,SW28*%
X92392500Y-84137500D03*
D11*
X89852500Y-79057500D03*
X83502500Y-81597500D03*
D10*
X87312500Y-84137500D03*
D12*
X82232500Y-84137500D03*
%TD*%
%TO.C,SW3*%
X67945000Y-46037500D03*
X78105000Y-46037500D03*
D11*
X75565000Y-40957500D03*
D10*
X73025000Y-46037500D03*
D11*
X69215000Y-43497500D03*
%TD*%
D12*
%TO.C,SW1*%
X25082500Y-46037500D03*
D11*
X33972500Y-48577500D03*
D10*
X30162500Y-46037500D03*
D12*
X35242500Y-46037500D03*
D11*
X27622500Y-51117500D03*
%TD*%
D12*
%TO.C,SW10*%
X201295000Y-46037500D03*
D11*
X208915000Y-40957500D03*
D12*
X211455000Y-46037500D03*
D11*
X202565000Y-43497500D03*
D10*
X206375000Y-46037500D03*
%TD*%
D11*
%TO.C,SW13*%
X247015000Y-40957500D03*
X240665000Y-43497500D03*
D12*
X249555000Y-46037500D03*
X239395000Y-46037500D03*
D10*
X244475000Y-46037500D03*
%TD*%
D12*
%TO.C,SW27*%
X73342500Y-84137500D03*
D10*
X68262500Y-84137500D03*
D12*
X63182500Y-84137500D03*
D11*
X70802500Y-79057500D03*
X64452500Y-81597500D03*
%TD*%
%TO.C,SW22*%
X188277500Y-62547500D03*
D12*
X187007500Y-65087500D03*
D10*
X192087500Y-65087500D03*
D12*
X197167500Y-65087500D03*
D11*
X194627500Y-60007500D03*
%TD*%
D12*
%TO.C,SW6*%
X135255000Y-46037500D03*
D11*
X132715000Y-40957500D03*
D12*
X125095000Y-46037500D03*
D11*
X126365000Y-43497500D03*
D10*
X130175000Y-46037500D03*
%TD*%
D12*
%TO.C,SW24*%
X225107500Y-65087500D03*
D11*
X226377500Y-62547500D03*
D12*
X235267500Y-65087500D03*
D11*
X232727500Y-60007500D03*
D10*
X230187500Y-65087500D03*
%TD*%
%TO.C,SW29*%
X106362500Y-84137500D03*
D11*
X108902500Y-79057500D03*
D12*
X111442500Y-84137500D03*
X101282500Y-84137500D03*
D11*
X102552500Y-81597500D03*
%TD*%
D12*
%TO.C,SW20*%
X148907500Y-65087500D03*
D11*
X150177500Y-62547500D03*
D12*
X159067500Y-65087500D03*
D11*
X156527500Y-60007500D03*
D10*
X153987500Y-65087500D03*
%TD*%
D11*
%TO.C,SW14*%
X29998117Y-70146067D03*
D12*
X37618117Y-65066067D03*
D10*
X32538117Y-65066067D03*
D11*
X36348117Y-67606067D03*
D12*
X27458117Y-65066067D03*
%TD*%
D11*
%TO.C,SW2*%
X57785000Y-48577500D03*
D12*
X48895000Y-46037500D03*
X59055000Y-46037500D03*
D10*
X53975000Y-46037500D03*
D11*
X51435000Y-51117500D03*
%TD*%
%TO.C,SW12(1.5)1*%
X246697500Y-51117500D03*
D12*
X244157500Y-46037500D03*
X254317500Y-46037500D03*
D11*
X253047500Y-48577500D03*
D10*
X249237500Y-46037500D03*
%TD*%
D11*
%TO.C,SW26*%
X39860255Y-79025102D03*
D13*
X25382255Y-77120102D03*
D10*
X25382255Y-92360102D03*
X37320255Y-84105102D03*
D13*
X49258255Y-77120102D03*
D11*
X33510255Y-81565102D03*
D12*
X42400255Y-84105102D03*
D10*
X49258255Y-92360102D03*
D12*
X32240255Y-84105102D03*
%TD*%
D14*
%TO.C,J1*%
X45752499Y-41319539D03*
X39972499Y-41319539D03*
D15*
X47182499Y-41849539D03*
D16*
X47182499Y-37669539D03*
X38542499Y-37669539D03*
D15*
X38542499Y-41849539D03*
%TD*%
D17*
%TO.C,J2*%
X50482500Y-103212500D03*
D18*
X53022500Y-103212500D03*
X55562500Y-103212500D03*
X58102500Y-103212500D03*
X60642500Y-103212500D03*
%TD*%
M02*
