%TF.GenerationSoftware,KiCad,Pcbnew,(6.0.11)*%
%TF.CreationDate,2023-03-24T14:39:48+01:00*%
%TF.ProjectId,kira,6b697261-2e6b-4696-9361-645f70636258,rev?*%
%TF.SameCoordinates,Original*%
%TF.FileFunction,Paste,Bot*%
%TF.FilePolarity,Positive*%
%FSLAX46Y46*%
G04 Gerber Fmt 4.6, Leading zero omitted, Abs format (unit mm)*
G04 Created by KiCad (PCBNEW (6.0.11)) date 2023-03-24 14:39:48*
%MOMM*%
%LPD*%
G01*
G04 APERTURE LIST*
G04 Aperture macros list*
%AMRoundRect*
0 Rectangle with rounded corners*
0 $1 Rounding radius*
0 $2 $3 $4 $5 $6 $7 $8 $9 X,Y pos of 4 corners*
0 Add a 4 corners polygon primitive as box body*
4,1,4,$2,$3,$4,$5,$6,$7,$8,$9,$2,$3,0*
0 Add four circle primitives for the rounded corners*
1,1,$1+$1,$2,$3*
1,1,$1+$1,$4,$5*
1,1,$1+$1,$6,$7*
1,1,$1+$1,$8,$9*
0 Add four rect primitives between the rounded corners*
20,1,$1+$1,$2,$3,$4,$5,0*
20,1,$1+$1,$4,$5,$6,$7,0*
20,1,$1+$1,$6,$7,$8,$9,0*
20,1,$1+$1,$8,$9,$2,$3,0*%
%AMRotRect*
0 Rectangle, with rotation*
0 The origin of the aperture is its center*
0 $1 length*
0 $2 width*
0 $3 Rotation angle, in degrees counterclockwise*
0 Add horizontal line*
21,1,$1,$2,0,0,$3*%
G04 Aperture macros list end*
%ADD10R,2.550000X2.500000*%
%ADD11R,1.700000X1.000000*%
%ADD12R,1.100000X1.100000*%
%ADD13RoundRect,0.140000X-0.140000X-0.170000X0.140000X-0.170000X0.140000X0.170000X-0.140000X0.170000X0*%
%ADD14RoundRect,0.140000X0.021213X-0.219203X0.219203X-0.021213X-0.021213X0.219203X-0.219203X0.021213X0*%
%ADD15R,1.200000X1.800000*%
%ADD16R,0.600000X1.550000*%
%ADD17RoundRect,0.200000X-0.335876X-0.053033X-0.053033X-0.335876X0.335876X0.053033X0.053033X0.335876X0*%
%ADD18RoundRect,0.135000X0.135000X0.185000X-0.135000X0.185000X-0.135000X-0.185000X0.135000X-0.185000X0*%
%ADD19RoundRect,0.150000X0.587500X0.150000X-0.587500X0.150000X-0.587500X-0.150000X0.587500X-0.150000X0*%
%ADD20RoundRect,0.150000X0.650000X0.150000X-0.650000X0.150000X-0.650000X-0.150000X0.650000X-0.150000X0*%
%ADD21RoundRect,0.140000X0.140000X0.170000X-0.140000X0.170000X-0.140000X-0.170000X0.140000X-0.170000X0*%
%ADD22RoundRect,0.140000X0.219203X0.021213X0.021213X0.219203X-0.219203X-0.021213X-0.021213X-0.219203X0*%
%ADD23RoundRect,0.140000X-0.021213X0.219203X-0.219203X0.021213X0.021213X-0.219203X0.219203X-0.021213X0*%
%ADD24R,0.600000X1.450000*%
%ADD25R,0.300000X1.450000*%
%ADD26RoundRect,0.135000X-0.185000X0.135000X-0.185000X-0.135000X0.185000X-0.135000X0.185000X0.135000X0*%
%ADD27RoundRect,0.250000X0.000000X0.413257X-0.413257X0.000000X0.000000X-0.413257X0.413257X0.000000X0*%
%ADD28RoundRect,0.050000X0.238649X0.309359X-0.309359X-0.238649X-0.238649X-0.309359X0.309359X0.238649X0*%
%ADD29RoundRect,0.050000X-0.238649X0.309359X-0.309359X0.238649X0.238649X-0.309359X0.309359X-0.238649X0*%
%ADD30RoundRect,0.140000X0.170000X-0.140000X0.170000X0.140000X-0.170000X0.140000X-0.170000X-0.140000X0*%
%ADD31RoundRect,0.135000X0.226274X0.035355X0.035355X0.226274X-0.226274X-0.035355X-0.035355X-0.226274X0*%
%ADD32RoundRect,0.250000X-0.625000X0.375000X-0.625000X-0.375000X0.625000X-0.375000X0.625000X0.375000X0*%
%ADD33RotRect,1.400000X1.200000X315.000000*%
%ADD34RoundRect,0.150000X0.150000X-0.512500X0.150000X0.512500X-0.150000X0.512500X-0.150000X-0.512500X0*%
G04 APERTURE END LIST*
D10*
%TO.C,SW23*%
X204052500Y-62547500D03*
X216979500Y-60007500D03*
%TD*%
%TO.C,SW42*%
X218340000Y-100647500D03*
X231267000Y-98107500D03*
%TD*%
%TO.C,SW43*%
X261202500Y-100647500D03*
X274129500Y-98107500D03*
%TD*%
%TO.C,SW13(1.5)1*%
X261202500Y-43497500D03*
X274129500Y-40957500D03*
%TD*%
%TO.C,SW37(1.75)1*%
X273038152Y-86629151D03*
X260111152Y-89169151D03*
%TD*%
%TO.C,SW25*%
X254090500Y-62540550D03*
X267017500Y-60000550D03*
%TD*%
%TO.C,SW21*%
X165952500Y-62547500D03*
X178879500Y-60007500D03*
%TD*%
%TO.C,SW15*%
X51652500Y-62547500D03*
X64579500Y-60007500D03*
%TD*%
%TO.C,SW7*%
X142140000Y-43497500D03*
X155067000Y-40957500D03*
%TD*%
%TO.C,SW34*%
X194527500Y-81597500D03*
X207454500Y-79057500D03*
%TD*%
%TO.C,SW9*%
X180240000Y-43497500D03*
X193167000Y-40957500D03*
%TD*%
%TO.C,SW30*%
X118327500Y-81597500D03*
X131254500Y-79057500D03*
%TD*%
%TO.C,SW19*%
X127852500Y-62547500D03*
X140779500Y-60007500D03*
%TD*%
%TO.C,SW14(1.25)1*%
X20708860Y-62548197D03*
X33635860Y-60008197D03*
%TD*%
%TO.C,SW44*%
X104040000Y-100647500D03*
X116967000Y-98107500D03*
%TD*%
%TO.C,SW45*%
X180240000Y-100647500D03*
X193167000Y-98107500D03*
%TD*%
%TO.C,SW33*%
X175477500Y-81597500D03*
X188404500Y-79057500D03*
%TD*%
%TO.C,SW32*%
X156427500Y-81597500D03*
X169354500Y-79057500D03*
%TD*%
%TO.C,SW36*%
X246797500Y-86677500D03*
X233870500Y-89217500D03*
%TD*%
%TO.C,SW4*%
X84990000Y-43497500D03*
X97917000Y-40957500D03*
%TD*%
%TO.C,SW5*%
X104040000Y-43497500D03*
X116967000Y-40957500D03*
%TD*%
%TO.C,SW16*%
X70702500Y-62547500D03*
X83629500Y-60007500D03*
%TD*%
%TO.C,SW37(2.75)1*%
X249296100Y-81589624D03*
X262223100Y-79049624D03*
%TD*%
%TO.C,SW17*%
X89752500Y-62547500D03*
X102679500Y-60007500D03*
%TD*%
%TO.C,SW18*%
X108802500Y-62547500D03*
X121729500Y-60007500D03*
%TD*%
%TO.C,SW35*%
X213577500Y-81597500D03*
X226504500Y-79057500D03*
%TD*%
%TO.C,SW39*%
X23083281Y-100642316D03*
X36010281Y-98102316D03*
%TD*%
%TO.C,SW40*%
X65940000Y-100647500D03*
X78867000Y-98107500D03*
%TD*%
%TO.C,SW31*%
X137377500Y-81597500D03*
X150304500Y-79057500D03*
%TD*%
%TO.C,SW8*%
X161190000Y-43497500D03*
X174117000Y-40957500D03*
%TD*%
%TO.C,SW12*%
X280135000Y-48577500D03*
X267208000Y-51117500D03*
%TD*%
%TO.C,SW41*%
X142140000Y-100647500D03*
X155067000Y-98107500D03*
%TD*%
%TO.C,SW11*%
X218340000Y-43497500D03*
X231267000Y-40957500D03*
%TD*%
%TO.C,SW28*%
X80227500Y-81597500D03*
X93154500Y-79057500D03*
%TD*%
%TO.C,SW3*%
X65940000Y-43497500D03*
X78867000Y-40957500D03*
%TD*%
%TO.C,SW1*%
X37247500Y-48577500D03*
X24320500Y-51117500D03*
%TD*%
%TO.C,SW10*%
X199290000Y-43497500D03*
X212217000Y-40957500D03*
%TD*%
%TO.C,SW13*%
X237390000Y-43497500D03*
X250317000Y-40957500D03*
%TD*%
%TO.C,SW27*%
X61177500Y-81597500D03*
X74104500Y-79057500D03*
%TD*%
%TO.C,SW22*%
X185002500Y-62547500D03*
X197929500Y-60007500D03*
%TD*%
%TO.C,SW6*%
X123090000Y-43497500D03*
X136017000Y-40957500D03*
%TD*%
%TO.C,SW24*%
X223102500Y-62547500D03*
X236029500Y-60007500D03*
%TD*%
%TO.C,SW29*%
X99277500Y-81597500D03*
X112204500Y-79057500D03*
%TD*%
%TO.C,SW20*%
X146902500Y-62547500D03*
X159829500Y-60007500D03*
%TD*%
%TO.C,SW14*%
X39623117Y-67606067D03*
X26696117Y-70146067D03*
%TD*%
%TO.C,SW2*%
X61060000Y-48577500D03*
X48133000Y-51117500D03*
%TD*%
%TO.C,SW12(1.5)1*%
X256322500Y-48577500D03*
X243395500Y-51117500D03*
%TD*%
%TO.C,SW26*%
X30235255Y-81565102D03*
X43162255Y-79025102D03*
%TD*%
D11*
%TO.C,SW47*%
X47600000Y-103881000D03*
X41300000Y-103881000D03*
X47600000Y-100081000D03*
X41300000Y-100081000D03*
%TD*%
D12*
%TO.C,D12*%
X76200000Y-104587500D03*
X76200000Y-101787500D03*
%TD*%
%TO.C,D43*%
X255587500Y-91887500D03*
X255587500Y-89087500D03*
%TD*%
%TO.C,D29*%
X185737500Y-85537500D03*
X185737500Y-82737500D03*
%TD*%
%TO.C,D34*%
X209550000Y-47437500D03*
X209550000Y-44637500D03*
%TD*%
%TO.C,D28*%
X176212500Y-66487500D03*
X176212500Y-63687500D03*
%TD*%
%TO.C,D44*%
X257175000Y-42675000D03*
X257175000Y-39875000D03*
%TD*%
%TO.C,D21*%
X138112500Y-66487500D03*
X138112500Y-63687500D03*
%TD*%
D13*
%TO.C,C7*%
X44478000Y-72136000D03*
X45438000Y-72136000D03*
%TD*%
D12*
%TO.C,D5*%
X33337500Y-104587500D03*
X33337500Y-101787500D03*
%TD*%
%TO.C,D30*%
X190500000Y-47437500D03*
X190500000Y-44637500D03*
%TD*%
D14*
%TO.C,C5*%
X55032589Y-84413411D03*
X55711411Y-83734589D03*
%TD*%
D12*
%TO.C,D42*%
X264287000Y-66487500D03*
X264287000Y-63687500D03*
%TD*%
%TO.C,D14*%
X100012500Y-66487500D03*
X100012500Y-63687500D03*
%TD*%
D15*
%TO.C,J3*%
X45662500Y-56987500D03*
X40062500Y-56987500D03*
D16*
X41362500Y-60862500D03*
X42362500Y-60862500D03*
X43362500Y-60862500D03*
X44362500Y-60862500D03*
%TD*%
D17*
%TO.C,R2*%
X45390637Y-66218637D03*
X46557363Y-67385363D03*
%TD*%
D12*
%TO.C,D11*%
X90487500Y-85537500D03*
X90487500Y-82737500D03*
%TD*%
D18*
%TO.C,R3*%
X53215000Y-99949000D03*
X52195000Y-99949000D03*
%TD*%
D12*
%TO.C,D39*%
X230187500Y-91887500D03*
X230187500Y-89087500D03*
%TD*%
%TO.C,D31*%
X195262500Y-66487500D03*
X195262500Y-63687500D03*
%TD*%
D19*
%TO.C,U2*%
X44498500Y-68900000D03*
X44498500Y-70800000D03*
X42623500Y-69850000D03*
%TD*%
D20*
%TO.C,U3*%
X71267225Y-52196320D03*
X71267225Y-53466320D03*
X71267225Y-54736320D03*
X71267225Y-56006320D03*
X64067225Y-56006320D03*
X64067225Y-54736320D03*
X64067225Y-53466320D03*
X64067225Y-52196320D03*
%TD*%
D21*
%TO.C,C16*%
X48613000Y-73533000D03*
X47653000Y-73533000D03*
%TD*%
D22*
%TO.C,C15*%
X49902992Y-68745464D03*
X49224170Y-68066642D03*
%TD*%
D23*
%TO.C,C11*%
X54187411Y-82464589D03*
X53508589Y-83143411D03*
%TD*%
D12*
%TO.C,D23*%
X152400000Y-47437500D03*
X152400000Y-44637500D03*
%TD*%
D24*
%TO.C,J1*%
X39612499Y-42764539D03*
X40412499Y-42764539D03*
D25*
X41612499Y-42764539D03*
X42612499Y-42764539D03*
X43112499Y-42764539D03*
X44112499Y-42764539D03*
D24*
X45312499Y-42764539D03*
X46112499Y-42764539D03*
X46112499Y-42764539D03*
X45312499Y-42764539D03*
D25*
X44612499Y-42764539D03*
X43612499Y-42764539D03*
X42112499Y-42764539D03*
X41112499Y-42764539D03*
D24*
X40412499Y-42764539D03*
X39612499Y-42764539D03*
%TD*%
D21*
%TO.C,C8*%
X44549000Y-73152000D03*
X43589000Y-73152000D03*
%TD*%
D13*
%TO.C,C14*%
X63726084Y-71374000D03*
X64686084Y-71374000D03*
%TD*%
D26*
%TO.C,R5*%
X45720000Y-45972000D03*
X45720000Y-46992000D03*
%TD*%
D22*
%TO.C,C17*%
X56600411Y-68030411D03*
X55921589Y-67351589D03*
%TD*%
D12*
%TO.C,D24*%
X157162500Y-66487500D03*
X157162500Y-63687500D03*
%TD*%
D22*
%TO.C,C1*%
X50197263Y-71520150D03*
X49518441Y-70841328D03*
%TD*%
%TO.C,C2*%
X50631411Y-68030411D03*
X49952589Y-67351589D03*
%TD*%
D12*
%TO.C,D20*%
X133350000Y-47437500D03*
X133350000Y-44637500D03*
%TD*%
%TO.C,D45*%
X271462500Y-104587500D03*
X271462500Y-101787500D03*
%TD*%
%TO.C,D40*%
X228600000Y-104587500D03*
X228600000Y-101787500D03*
%TD*%
%TO.C,D27*%
X171450000Y-47437500D03*
X171450000Y-44637500D03*
%TD*%
D27*
%TO.C,U1*%
X54857586Y-74074047D03*
X56660708Y-74074047D03*
X55759147Y-73172486D03*
X55759147Y-74975608D03*
D28*
X56351349Y-69804890D03*
X56634192Y-70087733D03*
X56917034Y-70370575D03*
X57199877Y-70653418D03*
X57482720Y-70936261D03*
X57765562Y-71219103D03*
X58048405Y-71501946D03*
X58331248Y-71784789D03*
X58614091Y-72067632D03*
X58896933Y-72350474D03*
X59179776Y-72633317D03*
X59462619Y-72916160D03*
X59745461Y-73199002D03*
X60028304Y-73481845D03*
D29*
X60028304Y-74666249D03*
X59745461Y-74949092D03*
X59462619Y-75231934D03*
X59179776Y-75514777D03*
X58896933Y-75797620D03*
X58614091Y-76080462D03*
X58331248Y-76363305D03*
X58048405Y-76646148D03*
X57765562Y-76928991D03*
X57482720Y-77211833D03*
X57199877Y-77494676D03*
X56917034Y-77777519D03*
X56634192Y-78060361D03*
X56351349Y-78343204D03*
D28*
X55166945Y-78343204D03*
X54884102Y-78060361D03*
X54601260Y-77777519D03*
X54318417Y-77494676D03*
X54035574Y-77211833D03*
X53752732Y-76928991D03*
X53469889Y-76646148D03*
X53187046Y-76363305D03*
X52904203Y-76080462D03*
X52621361Y-75797620D03*
X52338518Y-75514777D03*
X52055675Y-75231934D03*
X51772833Y-74949092D03*
X51489990Y-74666249D03*
D29*
X51489990Y-73481845D03*
X51772833Y-73199002D03*
X52055675Y-72916160D03*
X52338518Y-72633317D03*
X52621361Y-72350474D03*
X52904203Y-72067632D03*
X53187046Y-71784789D03*
X53469889Y-71501946D03*
X53752732Y-71219103D03*
X54035574Y-70936261D03*
X54318417Y-70653418D03*
X54601260Y-70370575D03*
X54884102Y-70087733D03*
X55166945Y-69804890D03*
%TD*%
D12*
%TO.C,D33*%
X190500000Y-104587500D03*
X190500000Y-101787500D03*
%TD*%
%TO.C,D4*%
X40386000Y-85537500D03*
X40386000Y-82737500D03*
%TD*%
%TO.C,D16*%
X114300000Y-47437500D03*
X114300000Y-44637500D03*
%TD*%
D30*
%TO.C,C12*%
X62230000Y-52168320D03*
X62230000Y-51208320D03*
%TD*%
D12*
%TO.C,D3*%
X36830000Y-59814000D03*
X36830000Y-62614000D03*
%TD*%
%TO.C,D8*%
X71437500Y-85537500D03*
X71437500Y-82737500D03*
%TD*%
D31*
%TO.C,R7*%
X58688924Y-83894005D03*
X57967676Y-83172757D03*
%TD*%
D12*
%TO.C,D15*%
X109537500Y-85537500D03*
X109537500Y-82737500D03*
%TD*%
D23*
%TO.C,C13*%
X51647411Y-80432589D03*
X50968589Y-81111411D03*
%TD*%
D12*
%TO.C,D22*%
X147637500Y-85537500D03*
X147637500Y-82737500D03*
%TD*%
%TO.C,D10*%
X80962500Y-66487500D03*
X80962500Y-63687500D03*
%TD*%
%TO.C,D26*%
X152400000Y-104587500D03*
X152400000Y-101787500D03*
%TD*%
%TO.C,D32*%
X204787500Y-85537500D03*
X204787500Y-82737500D03*
%TD*%
%TO.C,D37*%
X228600000Y-47437500D03*
X228600000Y-44637500D03*
%TD*%
D21*
%TO.C,C4*%
X38044000Y-55626000D03*
X37084000Y-55626000D03*
%TD*%
D23*
%TO.C,C6*%
X60029411Y-87417589D03*
X59350589Y-88096411D03*
%TD*%
D12*
%TO.C,D19*%
X114300000Y-104587500D03*
X114300000Y-101787500D03*
%TD*%
D18*
%TO.C,R6*%
X72317425Y-50494520D03*
X71297425Y-50494520D03*
%TD*%
D12*
%TO.C,D9*%
X76200000Y-47437500D03*
X76200000Y-44637500D03*
%TD*%
D21*
%TO.C,C10*%
X48613000Y-74676000D03*
X47653000Y-74676000D03*
%TD*%
D12*
%TO.C,D17*%
X119062500Y-66487500D03*
X119062500Y-63687500D03*
%TD*%
%TO.C,D7*%
X61912500Y-66487500D03*
X61912500Y-63687500D03*
%TD*%
%TO.C,D2*%
X22225000Y-41462500D03*
X22225000Y-44262500D03*
%TD*%
D32*
%TO.C,F1*%
X37973000Y-51305000D03*
X37973000Y-54105000D03*
%TD*%
D23*
%TO.C,C3*%
X54187411Y-81067589D03*
X53508589Y-81746411D03*
%TD*%
D12*
%TO.C,D6*%
X61912500Y-41462500D03*
X61912500Y-44262500D03*
%TD*%
D17*
%TO.C,R1*%
X46533637Y-65075637D03*
X47700363Y-66242363D03*
%TD*%
D12*
%TO.C,D25*%
X166687500Y-85537500D03*
X166687500Y-82737500D03*
%TD*%
D11*
%TO.C,SW46*%
X84112500Y-55875000D03*
X77812500Y-55875000D03*
X84112500Y-52075000D03*
X77812500Y-52075000D03*
%TD*%
D26*
%TO.C,R4*%
X40894000Y-45972000D03*
X40894000Y-46992000D03*
%TD*%
D12*
%TO.C,D36*%
X223837500Y-85537500D03*
X223837500Y-82737500D03*
%TD*%
D33*
%TO.C,Y1*%
X57354223Y-84600142D03*
X58909858Y-86155777D03*
X57707777Y-87357858D03*
X56152142Y-85802223D03*
%TD*%
D34*
%TO.C,U4*%
X44257000Y-48762500D03*
X43307000Y-48762500D03*
X42357000Y-48762500D03*
X42357000Y-46487500D03*
X43307000Y-46487500D03*
X44257000Y-46487500D03*
%TD*%
D12*
%TO.C,D18*%
X128587500Y-85537500D03*
X128587500Y-82737500D03*
%TD*%
%TO.C,D41*%
X239712500Y-53787500D03*
X239712500Y-50987500D03*
%TD*%
%TO.C,D35*%
X214312500Y-66487500D03*
X214312500Y-63687500D03*
%TD*%
%TO.C,D38*%
X233362500Y-66487500D03*
X233362500Y-63687500D03*
%TD*%
D22*
%TO.C,C9*%
X49488411Y-72221411D03*
X48809589Y-71542589D03*
%TD*%
D12*
%TO.C,D13*%
X95250000Y-47437500D03*
X95250000Y-44637500D03*
%TD*%
M02*
