M48
; DRILL file {KiCad (6.0.7)} date Wed Jan 25 01:57:22 2023
; FORMAT={-:-/ absolute / inch / decimal}
; #@! TF.CreationDate,2023-01-25T01:57:22+01:00
; #@! TF.GenerationSoftware,Kicad,Pcbnew,(6.0.7)
; #@! TF.FileFunction,NonPlated,1,2,NPTH
FMAT,2
INCH
; #@! TA.AperFunction,NonPlated,NPTH,ComponentDrill
T1C0.0256
; #@! TA.AperFunction,NonPlated,NPTH,ComponentDrill
T2C0.0689
; #@! TA.AperFunction,NonPlated,NPTH,ComponentDrill
T3C0.1181
; #@! TA.AperFunction,NonPlated,NPTH,ComponentDrill
T4C0.1200
; #@! TA.AperFunction,NonPlated,NPTH,ComponentDrill
T5C0.1570
%
G90
G05
T1
X1.5737Y-1.6268
X1.8013Y-1.6268
T2
X0.893Y-2.5609
X0.9875Y-1.8125
X0.9875Y-4.0625
X1.0825Y-2.5625
X1.2675Y-3.315
X1.293Y-2.5609
X1.3875Y-1.8125
X1.3875Y-4.0625
X1.4825Y-2.5625
X1.6675Y-3.315
X1.925Y-1.8125
X2.1125Y-2.5625
X2.325Y-1.8125
X2.4875Y-3.3125
X2.5125Y-2.5625
X2.675Y-1.8125
X2.675Y-4.0625
X2.8625Y-2.5625
X2.8875Y-3.3125
X3.075Y-1.8125
X3.075Y-4.0625
X3.2375Y-3.3125
X3.2625Y-2.5625
X3.425Y-1.8125
X3.6125Y-2.5625
X3.6375Y-3.3125
X3.825Y-1.8125
X3.9875Y-3.3125
X4.0125Y-2.5625
X4.175Y-1.8125
X4.175Y-4.0625
X4.3625Y-2.5625
X4.3875Y-3.3125
X4.575Y-1.8125
X4.575Y-4.0625
X4.7375Y-3.3125
X4.7625Y-2.5625
X4.925Y-1.8125
X5.1125Y-2.5625
X5.1375Y-3.3125
X5.325Y-1.8125
X5.4875Y-3.3125
X5.5125Y-2.5625
X5.675Y-1.8125
X5.675Y-4.0625
X5.8625Y-2.5625
X5.8875Y-3.3125
X6.075Y-1.8125
X6.075Y-4.0625
X6.2375Y-3.3125
X6.2625Y-2.5625
X6.425Y-1.8125
X6.6125Y-2.5625
X6.6375Y-3.3125
X6.825Y-1.8125
X6.9875Y-3.3125
X7.0125Y-2.5625
X7.175Y-1.8125
X7.175Y-4.0625
X7.3625Y-2.5625
X7.3875Y-3.3125
X7.575Y-1.8125
X7.575Y-4.0625
X7.7375Y-3.3125
X7.7625Y-2.5625
X7.925Y-1.8125
X8.1125Y-2.5625
X8.1375Y-3.3125
X8.325Y-1.8125
X8.4875Y-3.3125
X8.5125Y-2.5625
X8.675Y-1.8125
X8.675Y-4.0625
X8.8625Y-2.5625
X8.8875Y-3.3125
X9.075Y-1.8125
X9.075Y-4.0625
X9.2375Y-3.3125
X9.2625Y-2.5625
X9.425Y-1.8125
X9.6125Y-1.8125
X9.6375Y-3.3125
X9.825Y-1.8125
X9.8925Y-3.31
X10.0125Y-1.8125
X10.0825Y-2.5622
X10.2725Y-3.3125
X10.2925Y-3.31
X10.3625Y-1.8125
X10.3625Y-4.0625
X10.4825Y-2.5622
X10.55Y-1.8125
X10.6725Y-3.3125
X10.7625Y-1.8125
X10.7625Y-4.0625
X10.95Y-1.8125
T3
X0.943Y-2.4609
X1.0375Y-3.9625
X1.0875Y-2.0125
X1.1825Y-2.7625
X1.193Y-2.3609
X1.2875Y-3.8625
X1.3175Y-3.215
X1.3375Y-1.9125
X1.4325Y-2.6625
X1.5675Y-3.115
X2.025Y-2.0125
X2.1625Y-2.4625
X2.275Y-1.9125
X2.4125Y-2.3625
X2.5375Y-3.2125
X2.725Y-1.7125
X2.725Y-3.9625
X2.7875Y-3.1125
X2.9125Y-2.4625
X2.975Y-1.6125
X2.975Y-3.8625
X3.1625Y-2.3625
X3.2875Y-3.2125
X3.475Y-1.7125
X3.5375Y-3.1125
X3.6625Y-2.4625
X3.725Y-1.6125
X3.9125Y-2.3625
X4.0375Y-3.2125
X4.225Y-1.7125
X4.225Y-3.9625
X4.2875Y-3.1125
X4.4125Y-2.4625
X4.475Y-1.6125
X4.475Y-3.8625
X4.6625Y-2.3625
X4.7875Y-3.2125
X4.975Y-1.7125
X5.0375Y-3.1125
X5.1625Y-2.4625
X5.225Y-1.6125
X5.4125Y-2.3625
X5.5375Y-3.2125
X5.725Y-1.7125
X5.725Y-3.9625
X5.7875Y-3.1125
X5.9125Y-2.4625
X5.975Y-1.6125
X5.975Y-3.8625
X6.1625Y-2.3625
X6.2875Y-3.2125
X6.475Y-1.7125
X6.5375Y-3.1125
X6.6625Y-2.4625
X6.725Y-1.6125
X6.9125Y-2.3625
X7.0375Y-3.2125
X7.225Y-1.7125
X7.225Y-3.9625
X7.2875Y-3.1125
X7.4125Y-2.4625
X7.475Y-1.6125
X7.475Y-3.8625
X7.6625Y-2.3625
X7.7875Y-3.2125
X7.975Y-1.7125
X8.0375Y-3.1125
X8.1625Y-2.4625
X8.225Y-1.6125
X8.4125Y-2.3625
X8.5375Y-3.2125
X8.725Y-1.7125
X8.725Y-3.9625
X8.7875Y-3.1125
X8.9125Y-2.4625
X8.975Y-1.6125
X8.975Y-3.8625
X9.1625Y-2.3625
X9.3375Y-3.5125
X9.475Y-1.7125
X9.5875Y-3.4125
X9.7125Y-2.0125
X9.725Y-1.6125
X9.9425Y-3.21
X9.9625Y-1.9125
X10.1325Y-2.4622
X10.1925Y-3.11
X10.3725Y-3.5125
X10.3825Y-2.3622
X10.4125Y-1.7125
X10.4125Y-3.9625
X10.6225Y-3.4125
X10.65Y-2.0125
X10.6625Y-1.6125
X10.6625Y-3.8625
X10.9Y-1.9125
T4
X0.9975Y-3.04
X1.9375Y-3.04
X3.625Y-4.3375
X3.625Y-4.3375
X5.125Y-4.3375
X6.625Y-4.3375
X8.125Y-4.3375
X8.125Y-4.3375
X9.6225Y-3.035
X9.8125Y-2.2872
X10.5625Y-3.035
X10.7525Y-2.2872
T5
X0.9975Y-3.64
X1.093Y-2.5609
X1.1875Y-1.8125
X1.1875Y-4.0625
X1.2825Y-2.5625
X1.4675Y-3.315
X1.9375Y-3.64
X2.125Y-1.8125
X2.3125Y-2.5625
X2.6875Y-3.3125
X2.875Y-1.8125
X2.875Y-4.0625
X3.0625Y-2.5625
X3.4375Y-3.3125
X3.625Y-1.8125
X3.625Y-3.7375
X3.625Y-3.7375
X3.8125Y-2.5625
X4.1875Y-3.3125
X4.375Y-1.8125
X4.375Y-4.0625
X4.5625Y-2.5625
X4.9375Y-3.3125
X5.125Y-1.8125
X5.125Y-3.7375
X5.3125Y-2.5625
X5.6875Y-3.3125
X5.875Y-1.8125
X5.875Y-4.0625
X6.0625Y-2.5625
X6.4375Y-3.3125
X6.625Y-1.8125
X6.625Y-3.7375
X6.8125Y-2.5625
X7.1875Y-3.3125
X7.375Y-1.8125
X7.375Y-4.0625
X7.5625Y-2.5625
X7.9375Y-3.3125
X8.125Y-1.8125
X8.125Y-3.7375
X8.125Y-3.7375
X8.3125Y-2.5625
X8.6875Y-3.3125
X8.875Y-1.8125
X8.875Y-4.0625
X9.0625Y-2.5625
X9.4375Y-3.3125
X9.6225Y-3.635
X9.625Y-1.8125
X9.8125Y-1.8125
X9.8125Y-2.8872
X10.0925Y-3.31
X10.2825Y-2.5622
X10.4725Y-3.3125
X10.5625Y-1.8125
X10.5625Y-3.635
X10.5625Y-4.0625
X10.75Y-1.8125
X10.7525Y-2.8872
T0
M30
