M48
; DRILL file {KiCad (6.0.7)} date Wed Jan 25 01:57:22 2023
; FORMAT={-:-/ absolute / inch / decimal}
; #@! TF.CreationDate,2023-01-25T01:57:22+01:00
; #@! TF.GenerationSoftware,Kicad,Pcbnew,(6.0.7)
; #@! TF.FileFunction,Plated,1,2,PTH
FMAT,2
INCH
; #@! TA.AperFunction,Plated,PTH,ViaDrill
T1C0.0118
; #@! TA.AperFunction,Plated,PTH,ComponentDrill
T2C0.0138
; #@! TA.AperFunction,Plated,PTH,ComponentDrill
T3C0.0236
; #@! TA.AperFunction,Plated,PTH,ComponentDrill
T4C0.0394
%
G90
G05
T1
X0.815Y-2.375
X0.815Y-2.55
X0.91Y-3.875
X1.19Y-3.125
X1.19Y-3.3
X1.46Y-2.19
X1.465Y-2.003
X1.5Y-1.755
X1.655Y-2.32
X1.7272Y-2.1013
X1.8Y-1.895
X1.88Y-1.755
X2.035Y-2.375
X2.035Y-2.55
X2.405Y-2.003
X2.41Y-3.125
X2.6Y-1.8
X2.6Y-3.8739
X2.785Y-2.375
X2.785Y-2.55
X3.16Y-3.125
X3.16Y-3.3
X3.345Y-1.8
X3.535Y-2.375
X3.535Y-2.55
X3.91Y-3.125
X4.095Y-3.875
X4.1Y-1.8
X4.285Y-2.375
X4.285Y-2.55
X4.66Y-3.125
X4.66Y-3.3
X4.85Y-1.8
X5.035Y-2.3711
X5.035Y-2.5461
X5.41Y-3.125
X5.6Y-1.8
X5.6Y-3.875
X5.785Y-2.368
X5.785Y-2.543
X6.16Y-3.125
X6.16Y-3.3
X6.35Y-1.8
X6.535Y-2.37
X6.535Y-2.545
X6.91Y-3.125
X7.095Y-1.8
X7.1Y-3.875
X7.285Y-2.37
X7.285Y-2.545
X7.66Y-3.125
X7.66Y-3.3
X7.845Y-1.8
X8.035Y-2.37
X8.035Y-2.545
X8.41Y-3.125
X8.595Y-1.8
X8.6Y-3.875
X8.785Y-2.37
X8.785Y-2.545
X9.345Y-1.625
X9.72Y-3.328
X9.72Y-3.503
X9.815Y-3.128
X9.815Y-3.303
X10.005Y-2.365
X10.005Y-2.54
X10.095Y-1.815
X10.095Y-1.99
X10.28Y-1.625
X10.28Y-1.8
X10.285Y-3.878
X10.755Y-3.328
X10.755Y-3.503
X11.03Y-1.818
T2
X2.164Y-2.9
X2.1995Y-2.8645
X2.1995Y-2.9355
X2.235Y-2.829
X2.235Y-2.9
X2.235Y-2.971
X2.2705Y-2.8645
X2.2705Y-2.9355
X2.306Y-2.9
T4
X2.2338Y-3.614
X2.3338Y-3.614
X2.4338Y-3.614
X2.5338Y-3.614
X2.6338Y-3.614
X3.431Y-2.0392
X3.431Y-2.1392
T3
G00X1.5174Y-1.4712
M15
G01X1.5174Y-1.4949
M16
G05
G00X1.5174Y-1.626
M15
G01X1.5174Y-1.6693
M16
G05
G00X1.8576Y-1.4712
M15
G01X1.8576Y-1.4949
M16
G05
G00X1.8576Y-1.626
M15
G01X1.8576Y-1.6693
M16
G05
T0
M30
