%TF.GenerationSoftware,KiCad,Pcbnew,(6.0.7)*%
%TF.CreationDate,2023-02-03T16:02:02+01:00*%
%TF.ProjectId,kira plate,6b697261-2070-46c6-9174-652e6b696361,rev?*%
%TF.SameCoordinates,Original*%
%TF.FileFunction,Profile,NP*%
%FSLAX46Y46*%
G04 Gerber Fmt 4.6, Leading zero omitted, Abs format (unit mm)*
G04 Created by KiCad (PCBNEW (6.0.7)) date 2023-02-03 16:02:02*
%MOMM*%
%LPD*%
G01*
G04 APERTURE LIST*
%TA.AperFunction,Profile*%
%ADD10C,0.200000*%
%TD*%
G04 APERTURE END LIST*
D10*
X276583865Y-58082866D02*
X269583865Y-58082866D01*
X237189615Y-72082866D02*
X237189615Y-58082866D01*
X103839615Y-58082866D02*
X89839615Y-58082866D01*
X51739615Y-72082866D02*
X65739615Y-72082866D01*
X180327115Y-110182866D02*
X194327115Y-110182866D01*
X275289615Y-53032866D02*
X280052115Y-53032866D01*
X237477115Y-39032866D02*
X237477115Y-53032866D01*
X113364615Y-91132866D02*
X113364615Y-77132866D01*
X21870365Y-77132866D02*
X21870365Y-92132866D01*
X194327115Y-110182866D02*
X194327115Y-96182866D01*
X70789615Y-72082866D02*
X84789615Y-72082866D01*
X99077115Y-53032866D02*
X99077115Y-39032866D01*
X85077115Y-53032866D02*
X99077115Y-53032866D01*
X141939615Y-58082866D02*
X127939615Y-58082866D01*
X261289615Y-39032866D02*
X261289615Y-53032866D01*
X258908365Y-77132866D02*
X249383365Y-77132866D01*
X37164615Y-96182866D02*
X23164615Y-96182866D01*
X45746365Y-92132866D02*
X52746365Y-92132866D01*
X80027115Y-53032866D02*
X80027115Y-39032866D01*
X17476634Y-115835227D02*
X17462500Y-111760000D01*
X156514615Y-91132866D02*
X170514615Y-91132866D01*
X276583865Y-73082866D02*
X276583865Y-58082866D01*
X126677115Y-110182866D02*
X133677115Y-110182866D01*
X99364615Y-91132866D02*
X113364615Y-91132866D01*
X30308365Y-91132866D02*
X44308365Y-91132866D01*
X281037661Y-32437741D02*
X281051795Y-36512968D01*
X66027115Y-53032866D02*
X80027115Y-53032866D01*
X254145865Y-72082866D02*
X268145865Y-72082866D01*
X268145865Y-58082866D02*
X254145865Y-58082866D01*
X257746500Y-107950000D02*
X237553500Y-107950000D01*
X202877115Y-95182866D02*
X202877115Y-110182866D01*
X118127115Y-39032866D02*
X104127115Y-39032866D01*
X235267500Y-111760000D02*
G75*
G03*
X236410500Y-110617000I0J1143000D01*
G01*
X194327115Y-96182866D02*
X180327115Y-96182866D01*
X218139615Y-72082866D02*
X218139615Y-58082866D01*
X156227115Y-39032866D02*
X142227115Y-39032866D01*
X280052115Y-39032866D02*
X275289615Y-39032866D01*
X272908365Y-77132866D02*
X271821365Y-77132866D01*
X88577115Y-95182866D02*
X88577115Y-110182866D01*
X142227115Y-96182866D02*
X142227115Y-110182866D01*
X146989615Y-72082866D02*
X160989615Y-72082866D01*
X194614615Y-77132866D02*
X194614615Y-91132866D01*
X245707865Y-58082866D02*
X245707865Y-73082866D01*
X266052115Y-53032866D02*
X275289615Y-53032866D01*
X118127115Y-53032866D02*
X118127115Y-39032866D01*
X127939615Y-58082866D02*
X127939615Y-72082866D01*
X23164615Y-110182866D02*
X37164615Y-110182866D01*
X161277115Y-53032866D02*
X175277115Y-53032866D01*
X213377115Y-39032866D02*
X199377115Y-39032866D01*
X65739615Y-72082866D02*
X65739615Y-58082866D01*
X237477115Y-53032866D02*
X242239615Y-53032866D01*
X268145865Y-72082866D02*
X268145865Y-58082866D01*
X194614615Y-91132866D02*
X208614615Y-91132866D01*
X256239615Y-39032866D02*
X251477115Y-39032866D01*
X185089615Y-58082866D02*
X185089615Y-72082866D01*
X160989615Y-58082866D02*
X146989615Y-58082866D01*
X20638145Y-116618716D02*
X19368145Y-116618716D01*
X85077115Y-39032866D02*
X85077115Y-53032866D01*
X126677115Y-95182866D02*
X126677115Y-110182866D01*
X175277115Y-39032866D02*
X161277115Y-39032866D01*
X170514615Y-77132866D02*
X156514615Y-77132866D01*
X95577115Y-110182866D02*
X95577115Y-95182866D01*
X275985134Y-115835227D02*
X275971000Y-111760000D01*
X132414615Y-77132866D02*
X118414615Y-77132866D01*
X232427115Y-53032866D02*
X232427115Y-39032866D01*
X271821365Y-91132866D02*
X272908365Y-91132866D01*
X208614615Y-91132866D02*
X208614615Y-77132866D01*
X279146645Y-116618744D02*
G75*
G03*
X281038156Y-115835227I-45J2675044D01*
G01*
X22529656Y-115835227D02*
X22542500Y-111760000D01*
X258889500Y-110617000D02*
G75*
G03*
X260032500Y-111760000I1143000J0D01*
G01*
X39545865Y-72082866D02*
X39545865Y-58082866D01*
X281038156Y-115835227D02*
X281051000Y-111760000D01*
X21002500Y-114051613D02*
G75*
G03*
X21002500Y-114051613I-1000000J0D01*
G01*
X272908365Y-91132866D02*
X272908365Y-77132866D01*
X118414615Y-91132866D02*
X132414615Y-91132866D01*
X61264615Y-91132866D02*
X75264615Y-91132866D01*
X275289615Y-96182866D02*
X261289615Y-96182866D01*
X180327115Y-39032866D02*
X180327115Y-53032866D01*
X175564615Y-91132866D02*
X189564615Y-91132866D01*
X132414615Y-91132866D02*
X132414615Y-77132866D01*
X45746365Y-77132866D02*
X45746365Y-92132866D01*
X194327115Y-53032866D02*
X194327115Y-39032866D01*
X51739615Y-58082866D02*
X51739615Y-72082866D01*
X113364615Y-77132866D02*
X99364615Y-77132866D01*
X80027115Y-96182866D02*
X66027115Y-96182866D01*
X142227115Y-53032866D02*
X156227115Y-53032866D01*
X20638145Y-116618744D02*
G75*
G03*
X22529656Y-115835227I-45J2675044D01*
G01*
X264821365Y-92132866D02*
X271821365Y-92132866D01*
X213664615Y-91132866D02*
X227664615Y-91132866D01*
X61264615Y-77132866D02*
X61264615Y-91132866D01*
X65739615Y-58082866D02*
X51739615Y-58082866D01*
X80314615Y-77132866D02*
X80314615Y-91132866D01*
X232427115Y-110182866D02*
X232427115Y-96182866D01*
X260032500Y-111760000D02*
X275971000Y-111760000D01*
X251477115Y-53032866D02*
X256239615Y-53032866D01*
X232714615Y-91132866D02*
X240945365Y-91132866D01*
X236410500Y-109093000D02*
X236410500Y-110617000D01*
X89839615Y-58082866D02*
X89839615Y-72082866D01*
X20783365Y-72082866D02*
X25545865Y-72082866D01*
X252707865Y-58082866D02*
X245707865Y-58082866D01*
X166039615Y-58082866D02*
X166039615Y-72082866D01*
X22542500Y-36512500D02*
X275971795Y-36512968D01*
X170514615Y-91132866D02*
X170514615Y-77132866D01*
X137464615Y-77132866D02*
X137464615Y-91132866D01*
X280052115Y-53032866D02*
X280052115Y-39032866D01*
X232427115Y-39032866D02*
X218427115Y-39032866D01*
X52746365Y-77132866D02*
X45746365Y-77132866D01*
X199089615Y-58082866D02*
X185089615Y-58082866D01*
X213664615Y-77132866D02*
X213664615Y-91132866D01*
X123177115Y-39032866D02*
X123177115Y-53032866D01*
X84789615Y-72082866D02*
X84789615Y-58082866D01*
X142227115Y-110182866D02*
X156227115Y-110182866D01*
X22528371Y-32437268D02*
G75*
G03*
X20636855Y-31653784I-1891471J-1891432D01*
G01*
X258889500Y-109093000D02*
X258889500Y-110617000D01*
X180039615Y-58082866D02*
X166039615Y-58082866D01*
X251477115Y-39032866D02*
X242239615Y-39032866D01*
X17476629Y-115835232D02*
G75*
G03*
X19368145Y-116618716I1891471J1891432D01*
G01*
X208614615Y-77132866D02*
X194614615Y-77132866D01*
X281051000Y-111760000D02*
G75*
G03*
X282575000Y-110236000I-65200J1589200D01*
G01*
X277876150Y-31654252D02*
X279146150Y-31654252D01*
X237553500Y-107950000D02*
G75*
G03*
X236410500Y-109093000I0J-1143000D01*
G01*
X21002500Y-34220887D02*
G75*
G03*
X21002500Y-34220887I-1000000J0D01*
G01*
X64308223Y-111760000D02*
X235267500Y-111760000D01*
X240945365Y-91132866D02*
X240945365Y-92132866D01*
X258889500Y-109093000D02*
G75*
G03*
X257746500Y-107950000I-1143000J0D01*
G01*
X218427115Y-96182866D02*
X218427115Y-110182866D01*
X156227115Y-96182866D02*
X142227115Y-96182866D01*
X63165200Y-110617000D02*
G75*
G03*
X64308223Y-111760000I1143000J0D01*
G01*
X108889615Y-58082866D02*
X108889615Y-72082866D01*
X127939615Y-72082866D02*
X141939615Y-72082866D01*
X133677115Y-95182866D02*
X126677115Y-95182866D01*
X60977115Y-39032866D02*
X46977115Y-39032866D01*
X218139615Y-58082866D02*
X204139615Y-58082866D01*
X161277115Y-39032866D02*
X161277115Y-53032866D01*
X94314615Y-91132866D02*
X94314615Y-77132866D01*
X66027115Y-110182866D02*
X80027115Y-110182866D01*
X232714615Y-77132866D02*
X232714615Y-91132866D01*
X25545865Y-72082866D02*
X34783365Y-72082866D01*
X279511795Y-34221355D02*
G75*
G03*
X279511795Y-34221355I-1000000J0D01*
G01*
X34783365Y-58082866D02*
X25545865Y-58082866D01*
X199377115Y-39032866D02*
X199377115Y-53032866D01*
X63165200Y-109093000D02*
G75*
G03*
X62022223Y-107950000I-1143000J0D01*
G01*
X223189615Y-58082866D02*
X223189615Y-72082866D01*
X99364615Y-77132866D02*
X99364615Y-91132866D01*
X89839615Y-72082866D02*
X103839615Y-72082866D01*
X249383365Y-77132866D02*
X249383365Y-91132866D01*
X180327115Y-96182866D02*
X180327115Y-110182866D01*
X271821365Y-77132866D02*
X264821365Y-77132866D01*
X185089615Y-72082866D02*
X199089615Y-72082866D01*
X240945365Y-77132866D02*
X232714615Y-77132866D01*
X218427115Y-39032866D02*
X218427115Y-53032866D01*
X46977115Y-39032866D02*
X46977115Y-53032866D01*
X75264615Y-77132866D02*
X61264615Y-77132866D01*
X80027115Y-110182866D02*
X80027115Y-96182866D01*
X122889615Y-58082866D02*
X108889615Y-58082866D01*
X99077115Y-39032866D02*
X85077115Y-39032866D01*
X25545865Y-58082866D02*
X20783365Y-58082866D01*
X279146645Y-116618716D02*
X277876645Y-116618716D01*
X175564615Y-77132866D02*
X175564615Y-91132866D01*
X40686223Y-109093000D02*
X40686223Y-110617000D01*
X189564615Y-77132866D02*
X175564615Y-77132866D01*
X84789615Y-58082866D02*
X70789615Y-58082866D01*
X23164615Y-96182866D02*
X23164615Y-110182866D01*
X264821365Y-77132866D02*
X263383365Y-77132866D01*
X242239615Y-39032866D02*
X237477115Y-39032866D01*
X275289615Y-110182866D02*
X275289615Y-96182866D01*
X281037675Y-32437727D02*
G75*
G03*
X279146150Y-31654252I-1891475J-1891473D01*
G01*
X156514615Y-77132866D02*
X156514615Y-91132866D01*
X213377115Y-53032866D02*
X213377115Y-39032866D01*
X156227115Y-110182866D02*
X156227115Y-96182866D01*
X39543223Y-111760023D02*
G75*
G03*
X40686223Y-110617000I-23J1143023D01*
G01*
X164777115Y-95182866D02*
X164777115Y-110182866D01*
X17475344Y-32437273D02*
X17462500Y-36512500D01*
X218427115Y-53032866D02*
X232427115Y-53032866D01*
X88577115Y-110182866D02*
X95577115Y-110182866D01*
X39543223Y-111760000D02*
X22542500Y-111760000D01*
X269583865Y-73082866D02*
X276583865Y-73082866D01*
X271821365Y-92132866D02*
X271821365Y-91132866D01*
X60977115Y-53032866D02*
X60977115Y-39032866D01*
X20783365Y-58082866D02*
X20783365Y-72082866D01*
X282575734Y-38100468D02*
G75*
G03*
X281051795Y-36512968I-1588234J568D01*
G01*
X104127115Y-39032866D02*
X104127115Y-53032866D01*
X275289615Y-39032866D02*
X266052115Y-39032866D01*
X146989615Y-58082866D02*
X146989615Y-72082866D01*
X204139615Y-58082866D02*
X204139615Y-72082866D01*
X223189615Y-72082866D02*
X237189615Y-72082866D01*
X171777115Y-95182866D02*
X164777115Y-95182866D01*
X204139615Y-72082866D02*
X218139615Y-72082866D01*
X232427115Y-96182866D02*
X218427115Y-96182866D01*
X199089615Y-72082866D02*
X199089615Y-58082866D01*
X252707865Y-73082866D02*
X252707865Y-58082866D01*
X75264615Y-91132866D02*
X75264615Y-77132866D01*
X17467615Y-36517615D02*
G75*
G03*
X15880115Y-38105118I-5115J-1582385D01*
G01*
X151464615Y-77132866D02*
X137464615Y-77132866D01*
X46977115Y-53032866D02*
X60977115Y-53032866D01*
X209877115Y-110182866D02*
X209877115Y-95182866D01*
X137464615Y-91132866D02*
X151464615Y-91132866D01*
X19366855Y-31653756D02*
G75*
G03*
X17475344Y-32437273I45J-2675044D01*
G01*
X37164615Y-53032866D02*
X37164615Y-39032866D01*
X44308365Y-77132866D02*
X30308365Y-77132866D01*
X166039615Y-72082866D02*
X180039615Y-72082866D01*
X118127115Y-96182866D02*
X104127115Y-96182866D01*
X137177115Y-39032866D02*
X123177115Y-39032866D01*
X62022223Y-107950000D02*
X41829223Y-107950000D01*
X104127115Y-110182866D02*
X118127115Y-110182866D01*
X94314615Y-77132866D02*
X80314615Y-77132866D01*
X261289615Y-96182866D02*
X261289615Y-110182866D01*
X247945365Y-77132866D02*
X246714615Y-77132866D01*
X275984639Y-32437741D02*
X275971795Y-36512968D01*
X30308365Y-77132866D02*
X30308365Y-91132866D01*
X263383365Y-77132866D02*
X258908365Y-77132866D01*
X246714615Y-77132866D02*
X240945365Y-77132866D01*
X261289615Y-110182866D02*
X275289615Y-110182866D01*
X23164615Y-53032866D02*
X37164615Y-53032866D01*
X202877115Y-110182866D02*
X209877115Y-110182866D01*
X282575795Y-38100468D02*
X282575000Y-110236000D01*
X256239615Y-53032866D02*
X256239615Y-39032866D01*
X15875000Y-110236000D02*
X15880115Y-38105118D01*
X21870365Y-92132866D02*
X28870365Y-92132866D01*
X15875046Y-110235998D02*
G75*
G03*
X17462500Y-111760000I1588054J65398D01*
G01*
X194327115Y-39032866D02*
X180327115Y-39032866D01*
X277876150Y-31654230D02*
G75*
G03*
X275984639Y-32437741I50J-2675070D01*
G01*
X160989615Y-72082866D02*
X160989615Y-58082866D01*
X19366855Y-31653784D02*
X20636855Y-31653784D01*
X209877115Y-95182866D02*
X202877115Y-95182866D01*
X199377115Y-53032866D02*
X213377115Y-53032866D01*
X63165223Y-109093000D02*
X63165223Y-110617000D01*
X70789615Y-58082866D02*
X70789615Y-72082866D01*
X104127115Y-53032866D02*
X118127115Y-53032866D01*
X261289615Y-53032866D02*
X266052115Y-53032866D01*
X242239615Y-53032866D02*
X251477115Y-53032866D01*
X123177115Y-53032866D02*
X137177115Y-53032866D01*
X258908365Y-91132866D02*
X263383365Y-91132866D01*
X141939615Y-72082866D02*
X141939615Y-58082866D01*
X66027115Y-96182866D02*
X66027115Y-110182866D01*
X23164615Y-39032866D02*
X23164615Y-53032866D01*
X142227115Y-39032866D02*
X142227115Y-53032866D01*
X44308365Y-91132866D02*
X44308365Y-77132866D01*
X180039615Y-72082866D02*
X180039615Y-58082866D01*
X103839615Y-72082866D02*
X103839615Y-58082866D01*
X122889615Y-72082866D02*
X122889615Y-58082866D01*
X80314615Y-91132866D02*
X94314615Y-91132866D01*
X279511000Y-114051613D02*
G75*
G03*
X279511000Y-114051613I-1000000J0D01*
G01*
X264821365Y-91132866D02*
X264821365Y-92132866D01*
X156227115Y-53032866D02*
X156227115Y-39032866D01*
X263383365Y-91132866D02*
X264821365Y-91132866D01*
X52746365Y-92132866D02*
X52746365Y-77132866D01*
X28870365Y-77132866D02*
X21870365Y-77132866D01*
X171777115Y-110182866D02*
X171777115Y-95182866D01*
X175277115Y-53032866D02*
X175277115Y-39032866D01*
X37164615Y-110182866D02*
X37164615Y-96182866D01*
X269583865Y-58082866D02*
X269583865Y-73082866D01*
X118127115Y-110182866D02*
X118127115Y-96182866D01*
X249383365Y-91132866D02*
X258908365Y-91132866D01*
X37164615Y-39032866D02*
X23164615Y-39032866D01*
X80027115Y-39032866D02*
X66027115Y-39032866D01*
X104127115Y-96182866D02*
X104127115Y-110182866D01*
X275985129Y-115835232D02*
G75*
G03*
X277876645Y-116618716I1891471J1891432D01*
G01*
X164777115Y-110182866D02*
X171777115Y-110182866D01*
X237189615Y-58082866D02*
X223189615Y-58082866D01*
X227664615Y-91132866D02*
X227664615Y-77132866D01*
X227664615Y-77132866D02*
X213664615Y-77132866D01*
X180327115Y-53032866D02*
X194327115Y-53032866D01*
X137177115Y-53032866D02*
X137177115Y-39032866D01*
X133677115Y-110182866D02*
X133677115Y-95182866D01*
X28870365Y-92132866D02*
X28870365Y-77132866D01*
X266052115Y-39032866D02*
X261289615Y-39032866D01*
X39545865Y-58082866D02*
X34783365Y-58082866D01*
X218427115Y-110182866D02*
X232427115Y-110182866D01*
X22528366Y-32437273D02*
X22542500Y-36512500D01*
X189564615Y-91132866D02*
X189564615Y-77132866D01*
X41829223Y-107950023D02*
G75*
G03*
X40686223Y-109093000I-23J-1142977D01*
G01*
X66027115Y-39032866D02*
X66027115Y-53032866D01*
X254145865Y-58082866D02*
X254145865Y-72082866D01*
X118414615Y-77132866D02*
X118414615Y-91132866D01*
X245707865Y-73082866D02*
X252707865Y-73082866D01*
X240945365Y-92132866D02*
X247945365Y-92132866D01*
X151464615Y-91132866D02*
X151464615Y-77132866D01*
X108889615Y-72082866D02*
X122889615Y-72082866D01*
X247945365Y-92132866D02*
X247945365Y-77132866D01*
X95577115Y-95182866D02*
X88577115Y-95182866D01*
X34783365Y-72082866D02*
X39545865Y-72082866D01*
M02*
