%TF.GenerationSoftware,KiCad,Pcbnew,(6.0.7)*%
%TF.CreationDate,2023-02-03T16:02:02+01:00*%
%TF.ProjectId,kira plate,6b697261-2070-46c6-9174-652e6b696361,rev?*%
%TF.SameCoordinates,Original*%
%TF.FileFunction,Legend,Bot*%
%TF.FilePolarity,Positive*%
%FSLAX46Y46*%
G04 Gerber Fmt 4.6, Leading zero omitted, Abs format (unit mm)*
G04 Created by KiCad (PCBNEW (6.0.7)) date 2023-02-03 16:02:02*
%MOMM*%
%LPD*%
G01*
G04 APERTURE LIST*
%ADD10C,0.150000*%
G04 APERTURE END LIST*
D10*
X277264880Y-107806547D02*
X277979166Y-107806547D01*
X278122023Y-107854166D01*
X278217261Y-107949404D01*
X278264880Y-108092261D01*
X278264880Y-108187500D01*
X278264880Y-106854166D02*
X278264880Y-107330357D01*
X277264880Y-107330357D01*
X278169642Y-105949404D02*
X278217261Y-105997023D01*
X278264880Y-106139880D01*
X278264880Y-106235119D01*
X278217261Y-106377976D01*
X278122023Y-106473214D01*
X278026785Y-106520833D01*
X277836309Y-106568452D01*
X277693452Y-106568452D01*
X277502976Y-106520833D01*
X277407738Y-106473214D01*
X277312500Y-106377976D01*
X277264880Y-106235119D01*
X277264880Y-106139880D01*
X277312500Y-105997023D01*
X277360119Y-105949404D01*
X277264880Y-105235119D02*
X277979166Y-105235119D01*
X278122023Y-105282738D01*
X278217261Y-105377976D01*
X278264880Y-105520833D01*
X278264880Y-105616071D01*
X278264880Y-104282738D02*
X278264880Y-104758928D01*
X277264880Y-104758928D01*
X278169642Y-103377976D02*
X278217261Y-103425595D01*
X278264880Y-103568452D01*
X278264880Y-103663690D01*
X278217261Y-103806547D01*
X278122023Y-103901785D01*
X278026785Y-103949404D01*
X277836309Y-103997023D01*
X277693452Y-103997023D01*
X277502976Y-103949404D01*
X277407738Y-103901785D01*
X277312500Y-103806547D01*
X277264880Y-103663690D01*
X277264880Y-103568452D01*
X277312500Y-103425595D01*
X277360119Y-103377976D01*
X277264880Y-102663690D02*
X277979166Y-102663690D01*
X278122023Y-102711309D01*
X278217261Y-102806547D01*
X278264880Y-102949404D01*
X278264880Y-103044642D01*
X278264880Y-101711309D02*
X278264880Y-102187500D01*
X277264880Y-102187500D01*
X278169642Y-100806547D02*
X278217261Y-100854166D01*
X278264880Y-100997023D01*
X278264880Y-101092261D01*
X278217261Y-101235119D01*
X278122023Y-101330357D01*
X278026785Y-101377976D01*
X277836309Y-101425595D01*
X277693452Y-101425595D01*
X277502976Y-101377976D01*
X277407738Y-101330357D01*
X277312500Y-101235119D01*
X277264880Y-101092261D01*
X277264880Y-100997023D01*
X277312500Y-100854166D01*
X277360119Y-100806547D01*
X277264880Y-100092261D02*
X277979166Y-100092261D01*
X278122023Y-100139880D01*
X278217261Y-100235119D01*
X278264880Y-100377976D01*
X278264880Y-100473214D01*
X278264880Y-99139880D02*
X278264880Y-99616071D01*
X277264880Y-99616071D01*
X278169642Y-98235119D02*
X278217261Y-98282738D01*
X278264880Y-98425595D01*
X278264880Y-98520833D01*
X278217261Y-98663690D01*
X278122023Y-98758928D01*
X278026785Y-98806547D01*
X277836309Y-98854166D01*
X277693452Y-98854166D01*
X277502976Y-98806547D01*
X277407738Y-98758928D01*
X277312500Y-98663690D01*
X277264880Y-98520833D01*
X277264880Y-98425595D01*
X277312500Y-98282738D01*
X277360119Y-98235119D01*
M02*
