%TF.GenerationSoftware,KiCad,Pcbnew,(6.0.7)*%
%TF.CreationDate,2023-02-03T15:59:56+01:00*%
%TF.ProjectId,kira,6b697261-2e6b-4696-9361-645f70636258,rev?*%
%TF.SameCoordinates,Original*%
%TF.FileFunction,Legend,Bot*%
%TF.FilePolarity,Positive*%
%FSLAX46Y46*%
G04 Gerber Fmt 4.6, Leading zero omitted, Abs format (unit mm)*
G04 Created by KiCad (PCBNEW (6.0.7)) date 2023-02-03 15:59:56*
%MOMM*%
%LPD*%
G01*
G04 APERTURE LIST*
G04 Aperture macros list*
%AMRoundRect*
0 Rectangle with rounded corners*
0 $1 Rounding radius*
0 $2 $3 $4 $5 $6 $7 $8 $9 X,Y pos of 4 corners*
0 Add a 4 corners polygon primitive as box body*
4,1,4,$2,$3,$4,$5,$6,$7,$8,$9,$2,$3,0*
0 Add four circle primitives for the rounded corners*
1,1,$1+$1,$2,$3*
1,1,$1+$1,$4,$5*
1,1,$1+$1,$6,$7*
1,1,$1+$1,$8,$9*
0 Add four rect primitives between the rounded corners*
20,1,$1+$1,$2,$3,$4,$5,0*
20,1,$1+$1,$4,$5,$6,$7,0*
20,1,$1+$1,$6,$7,$8,$9,0*
20,1,$1+$1,$8,$9,$2,$3,0*%
%AMRotRect*
0 Rectangle, with rotation*
0 The origin of the aperture is its center*
0 $1 length*
0 $2 width*
0 $3 Rotation angle, in degrees counterclockwise*
0 Add horizontal line*
21,1,$1,$2,0,0,$3*%
G04 Aperture macros list end*
%ADD10C,0.150000*%
%ADD11C,0.800000*%
%ADD12C,0.300000*%
%ADD13C,0.120000*%
%ADD14C,3.987800*%
%ADD15C,3.000000*%
%ADD16C,1.750000*%
%ADD17R,2.550000X2.500000*%
%ADD18C,3.048000*%
%ADD19R,1.000000X1.700000*%
%ADD20R,1.100000X1.100000*%
%ADD21RoundRect,0.140000X-0.140000X-0.170000X0.140000X-0.170000X0.140000X0.170000X-0.140000X0.170000X0*%
%ADD22RoundRect,0.140000X0.021213X-0.219203X0.219203X-0.021213X-0.021213X0.219203X-0.219203X0.021213X0*%
%ADD23RoundRect,0.200000X-0.335876X-0.053033X-0.053033X-0.335876X0.335876X0.053033X0.053033X0.335876X0*%
%ADD24RoundRect,0.135000X0.135000X0.185000X-0.135000X0.185000X-0.135000X-0.185000X0.135000X-0.185000X0*%
%ADD25RoundRect,0.150000X0.587500X0.150000X-0.587500X0.150000X-0.587500X-0.150000X0.587500X-0.150000X0*%
%ADD26RoundRect,0.150000X0.650000X0.150000X-0.650000X0.150000X-0.650000X-0.150000X0.650000X-0.150000X0*%
%ADD27RoundRect,0.140000X0.140000X0.170000X-0.140000X0.170000X-0.140000X-0.170000X0.140000X-0.170000X0*%
%ADD28RoundRect,0.140000X0.219203X0.021213X0.021213X0.219203X-0.219203X-0.021213X-0.021213X-0.219203X0*%
%ADD29RoundRect,0.140000X-0.021213X0.219203X-0.219203X0.021213X0.021213X-0.219203X0.219203X-0.021213X0*%
%ADD30C,0.650000*%
%ADD31R,0.600000X1.450000*%
%ADD32R,0.300000X1.450000*%
%ADD33O,1.000000X2.100000*%
%ADD34O,1.000000X1.600000*%
%ADD35RoundRect,0.135000X-0.185000X0.135000X-0.185000X-0.135000X0.185000X-0.135000X0.185000X0.135000X0*%
%ADD36RoundRect,0.050000X0.238649X0.309359X-0.309359X-0.238649X-0.238649X-0.309359X0.309359X0.238649X0*%
%ADD37RoundRect,0.050000X-0.238649X0.309359X-0.309359X0.238649X0.238649X-0.309359X0.309359X-0.238649X0*%
%ADD38RoundRect,0.144000X0.000000X2.059095X-2.059095X0.000000X0.000000X-2.059095X2.059095X0.000000X0*%
%ADD39R,1.700000X1.700000*%
%ADD40O,1.700000X1.700000*%
%ADD41RoundRect,0.140000X0.170000X-0.140000X0.170000X0.140000X-0.170000X0.140000X-0.170000X-0.140000X0*%
%ADD42RoundRect,0.135000X0.226274X0.035355X0.035355X0.226274X-0.226274X-0.035355X-0.035355X-0.226274X0*%
%ADD43RoundRect,0.250000X-0.625000X0.375000X-0.625000X-0.375000X0.625000X-0.375000X0.625000X0.375000X0*%
%ADD44R,1.700000X1.000000*%
%ADD45RotRect,1.400000X1.200000X315.000000*%
%ADD46RoundRect,0.150000X0.150000X-0.512500X0.150000X0.512500X-0.150000X0.512500X-0.150000X-0.512500X0*%
G04 APERTURE END LIST*
D10*
X82076002Y-50165335D02*
X81933145Y-50212954D01*
X81885526Y-50260573D01*
X81837907Y-50355811D01*
X81837907Y-50498668D01*
X81885526Y-50593906D01*
X81933145Y-50641525D01*
X82028383Y-50689144D01*
X82409335Y-50689144D01*
X82409335Y-49689144D01*
X82076002Y-49689144D01*
X81980764Y-49736764D01*
X81933145Y-49784383D01*
X81885526Y-49879621D01*
X81885526Y-49974859D01*
X81933145Y-50070097D01*
X81980764Y-50117716D01*
X82076002Y-50165335D01*
X82409335Y-50165335D01*
X81266478Y-50689144D02*
X81361716Y-50641525D01*
X81409335Y-50593906D01*
X81456955Y-50498668D01*
X81456955Y-50212954D01*
X81409335Y-50117716D01*
X81361716Y-50070097D01*
X81266478Y-50022478D01*
X81123621Y-50022478D01*
X81028383Y-50070097D01*
X80980764Y-50117716D01*
X80933145Y-50212954D01*
X80933145Y-50498668D01*
X80980764Y-50593906D01*
X81028383Y-50641525D01*
X81123621Y-50689144D01*
X81266478Y-50689144D01*
X80361716Y-50689144D02*
X80456955Y-50641525D01*
X80504574Y-50593906D01*
X80552193Y-50498668D01*
X80552193Y-50212954D01*
X80504574Y-50117716D01*
X80456955Y-50070097D01*
X80361716Y-50022478D01*
X80218859Y-50022478D01*
X80123621Y-50070097D01*
X80076002Y-50117716D01*
X80028383Y-50212954D01*
X80028383Y-50498668D01*
X80076002Y-50593906D01*
X80123621Y-50641525D01*
X80218859Y-50689144D01*
X80361716Y-50689144D01*
X79742669Y-50022478D02*
X79361716Y-50022478D01*
X79599812Y-49689144D02*
X79599812Y-50546287D01*
X79552193Y-50641525D01*
X79456955Y-50689144D01*
X79361716Y-50689144D01*
X201967857Y-110144642D02*
X202110714Y-110216071D01*
X202396428Y-110216071D01*
X202539285Y-110144642D01*
X202610714Y-110073214D01*
X202682142Y-109930357D01*
X202682142Y-109501785D01*
X202610714Y-109358928D01*
X202539285Y-109287500D01*
X202396428Y-109216071D01*
X202110714Y-109216071D01*
X201967857Y-109287500D01*
X201110714Y-110216071D02*
X201253571Y-110144642D01*
X201325000Y-110073214D01*
X201396428Y-109930357D01*
X201396428Y-109501785D01*
X201325000Y-109358928D01*
X201253571Y-109287500D01*
X201110714Y-109216071D01*
X200896428Y-109216071D01*
X200753571Y-109287500D01*
X200682142Y-109358928D01*
X200610714Y-109501785D01*
X200610714Y-109930357D01*
X200682142Y-110073214D01*
X200753571Y-110144642D01*
X200896428Y-110216071D01*
X201110714Y-110216071D01*
X199967857Y-109216071D02*
X199967857Y-110216071D01*
X199967857Y-109358928D02*
X199896428Y-109287500D01*
X199753571Y-109216071D01*
X199539285Y-109216071D01*
X199396428Y-109287500D01*
X199325000Y-109430357D01*
X199325000Y-110216071D01*
X197967857Y-110144642D02*
X198110714Y-110216071D01*
X198396428Y-110216071D01*
X198539285Y-110144642D01*
X198610714Y-110073214D01*
X198682142Y-109930357D01*
X198682142Y-109501785D01*
X198610714Y-109358928D01*
X198539285Y-109287500D01*
X198396428Y-109216071D01*
X198110714Y-109216071D01*
X197967857Y-109287500D01*
X196753571Y-110144642D02*
X196896428Y-110216071D01*
X197182142Y-110216071D01*
X197325000Y-110144642D01*
X197396428Y-110001785D01*
X197396428Y-109430357D01*
X197325000Y-109287500D01*
X197182142Y-109216071D01*
X196896428Y-109216071D01*
X196753571Y-109287500D01*
X196682142Y-109430357D01*
X196682142Y-109573214D01*
X197396428Y-109716071D01*
X196039285Y-109216071D02*
X196039285Y-110716071D01*
X196039285Y-109287500D02*
X195896428Y-109216071D01*
X195610714Y-109216071D01*
X195467857Y-109287500D01*
X195396428Y-109358928D01*
X195325000Y-109501785D01*
X195325000Y-109930357D01*
X195396428Y-110073214D01*
X195467857Y-110144642D01*
X195610714Y-110216071D01*
X195896428Y-110216071D01*
X196039285Y-110144642D01*
X194896428Y-109216071D02*
X194325000Y-109216071D01*
X194682142Y-108716071D02*
X194682142Y-110001785D01*
X194610714Y-110144642D01*
X194467857Y-110216071D01*
X194325000Y-110216071D01*
X192682142Y-110216071D02*
X192682142Y-108716071D01*
X192682142Y-109287500D02*
X192539285Y-109216071D01*
X192253571Y-109216071D01*
X192110714Y-109287500D01*
X192039285Y-109358928D01*
X191967857Y-109501785D01*
X191967857Y-109930357D01*
X192039285Y-110073214D01*
X192110714Y-110144642D01*
X192253571Y-110216071D01*
X192539285Y-110216071D01*
X192682142Y-110144642D01*
X191467857Y-109216071D02*
X191110714Y-110216071D01*
X190753571Y-109216071D02*
X191110714Y-110216071D01*
X191253571Y-110573214D01*
X191325000Y-110644642D01*
X191467857Y-110716071D01*
X189110714Y-110144642D02*
X188967857Y-110216071D01*
X188682142Y-110216071D01*
X188539285Y-110144642D01*
X188467857Y-110001785D01*
X188467857Y-109930357D01*
X188539285Y-109787500D01*
X188682142Y-109716071D01*
X188896428Y-109716071D01*
X189039285Y-109644642D01*
X189110714Y-109501785D01*
X189110714Y-109430357D01*
X189039285Y-109287500D01*
X188896428Y-109216071D01*
X188682142Y-109216071D01*
X188539285Y-109287500D01*
X187825000Y-110216071D02*
X187825000Y-108716071D01*
X187182142Y-110216071D02*
X187182142Y-109430357D01*
X187253571Y-109287500D01*
X187396428Y-109216071D01*
X187610714Y-109216071D01*
X187753571Y-109287500D01*
X187825000Y-109358928D01*
X186610714Y-109216071D02*
X186325000Y-110216071D01*
X186039285Y-109501785D01*
X185753571Y-110216071D01*
X185467857Y-109216071D01*
X184896428Y-110216071D02*
X184896428Y-109216071D01*
X184896428Y-108716071D02*
X184967857Y-108787500D01*
X184896428Y-108858928D01*
X184825000Y-108787500D01*
X184896428Y-108716071D01*
X184896428Y-108858928D01*
X183967857Y-110216071D02*
X184110714Y-110144642D01*
X184182142Y-110001785D01*
X184182142Y-108716071D01*
X183182142Y-110216071D02*
X183325000Y-110144642D01*
X183396428Y-110001785D01*
X183396428Y-108716071D01*
X182610714Y-110216071D02*
X182610714Y-109216071D01*
X182610714Y-108716071D02*
X182682142Y-108787500D01*
X182610714Y-108858928D01*
X182539285Y-108787500D01*
X182610714Y-108716071D01*
X182610714Y-108858928D01*
X181253571Y-110216071D02*
X181253571Y-109430357D01*
X181325000Y-109287500D01*
X181467857Y-109216071D01*
X181753571Y-109216071D01*
X181896428Y-109287500D01*
X181253571Y-110144642D02*
X181396428Y-110216071D01*
X181753571Y-110216071D01*
X181896428Y-110144642D01*
X181967857Y-110001785D01*
X181967857Y-109858928D01*
X181896428Y-109716071D01*
X181753571Y-109644642D01*
X181396428Y-109644642D01*
X181253571Y-109573214D01*
X180539285Y-110216071D02*
X180539285Y-109216071D01*
X180539285Y-109358928D02*
X180467857Y-109287500D01*
X180325000Y-109216071D01*
X180110714Y-109216071D01*
X179967857Y-109287500D01*
X179896428Y-109430357D01*
X179896428Y-110216071D01*
X179896428Y-109430357D02*
X179825000Y-109287500D01*
X179682142Y-109216071D01*
X179467857Y-109216071D01*
X179325000Y-109287500D01*
X179253571Y-109430357D01*
X179253571Y-110216071D01*
X178610714Y-109216071D02*
X177539285Y-109216071D01*
X178182142Y-108573214D02*
X178610714Y-110501785D01*
X177682142Y-109858928D02*
X178753571Y-109858928D01*
X178110714Y-110501785D02*
X177682142Y-108573214D01*
X176753571Y-108716071D02*
X176610714Y-108716071D01*
X176467857Y-108787500D01*
X176396428Y-108858928D01*
X176325000Y-109001785D01*
X176253571Y-109287500D01*
X176253571Y-109644642D01*
X176325000Y-109930357D01*
X176396428Y-110073214D01*
X176467857Y-110144642D01*
X176610714Y-110216071D01*
X176753571Y-110216071D01*
X176896428Y-110144642D01*
X176967857Y-110073214D01*
X177039285Y-109930357D01*
X177110714Y-109644642D01*
X177110714Y-109287500D01*
X177039285Y-109001785D01*
X176967857Y-108858928D01*
X176896428Y-108787500D01*
X176753571Y-108716071D01*
X174967857Y-109216071D02*
X174967857Y-110216071D01*
X175325000Y-108644642D02*
X175682142Y-109716071D01*
X174753571Y-109716071D01*
X174253571Y-108858928D02*
X174182142Y-108787500D01*
X174039285Y-108716071D01*
X173682142Y-108716071D01*
X173539285Y-108787500D01*
X173467857Y-108858928D01*
X173396428Y-109001785D01*
X173396428Y-109144642D01*
X173467857Y-109358928D01*
X174325000Y-110216071D01*
X173396428Y-110216071D01*
X172467857Y-108716071D02*
X172325000Y-108716071D01*
X172182142Y-108787500D01*
X172110714Y-108858928D01*
X172039285Y-109001785D01*
X171967857Y-109287500D01*
X171967857Y-109644642D01*
X172039285Y-109930357D01*
X172110714Y-110073214D01*
X172182142Y-110144642D01*
X172325000Y-110216071D01*
X172467857Y-110216071D01*
X172610714Y-110144642D01*
X172682142Y-110073214D01*
X172753571Y-109930357D01*
X172825000Y-109644642D01*
X172825000Y-109287500D01*
X172753571Y-109001785D01*
X172682142Y-108858928D01*
X172610714Y-108787500D01*
X172467857Y-108716071D01*
X123196428Y-110216071D02*
X123196428Y-108716071D01*
X123196428Y-110144642D02*
X123339285Y-110216071D01*
X123625000Y-110216071D01*
X123767857Y-110144642D01*
X123839285Y-110073214D01*
X123910714Y-109930357D01*
X123910714Y-109501785D01*
X123839285Y-109358928D01*
X123767857Y-109287500D01*
X123625000Y-109216071D01*
X123339285Y-109216071D01*
X123196428Y-109287500D01*
X121910714Y-110144642D02*
X122053571Y-110216071D01*
X122339285Y-110216071D01*
X122482142Y-110144642D01*
X122553571Y-110001785D01*
X122553571Y-109430357D01*
X122482142Y-109287500D01*
X122339285Y-109216071D01*
X122053571Y-109216071D01*
X121910714Y-109287500D01*
X121839285Y-109430357D01*
X121839285Y-109573214D01*
X122553571Y-109716071D01*
X121267857Y-110144642D02*
X121125000Y-110216071D01*
X120839285Y-110216071D01*
X120696428Y-110144642D01*
X120625000Y-110001785D01*
X120625000Y-109930357D01*
X120696428Y-109787500D01*
X120839285Y-109716071D01*
X121053571Y-109716071D01*
X121196428Y-109644642D01*
X121267857Y-109501785D01*
X121267857Y-109430357D01*
X121196428Y-109287500D01*
X121053571Y-109216071D01*
X120839285Y-109216071D01*
X120696428Y-109287500D01*
X119982142Y-110216071D02*
X119982142Y-109216071D01*
X119982142Y-108716071D02*
X120053571Y-108787500D01*
X119982142Y-108858928D01*
X119910714Y-108787500D01*
X119982142Y-108716071D01*
X119982142Y-108858928D01*
X118625000Y-109216071D02*
X118625000Y-110430357D01*
X118696428Y-110573214D01*
X118767857Y-110644642D01*
X118910714Y-110716071D01*
X119125000Y-110716071D01*
X119267857Y-110644642D01*
X118625000Y-110144642D02*
X118767857Y-110216071D01*
X119053571Y-110216071D01*
X119196428Y-110144642D01*
X119267857Y-110073214D01*
X119339285Y-109930357D01*
X119339285Y-109501785D01*
X119267857Y-109358928D01*
X119196428Y-109287500D01*
X119053571Y-109216071D01*
X118767857Y-109216071D01*
X118625000Y-109287500D01*
X117910714Y-109216071D02*
X117910714Y-110216071D01*
X117910714Y-109358928D02*
X117839285Y-109287500D01*
X117696428Y-109216071D01*
X117482142Y-109216071D01*
X117339285Y-109287500D01*
X117267857Y-109430357D01*
X117267857Y-110216071D01*
X115410714Y-110216071D02*
X115410714Y-108716071D01*
X115410714Y-109287500D02*
X115267857Y-109216071D01*
X114982142Y-109216071D01*
X114839285Y-109287500D01*
X114767857Y-109358928D01*
X114696428Y-109501785D01*
X114696428Y-109930357D01*
X114767857Y-110073214D01*
X114839285Y-110144642D01*
X114982142Y-110216071D01*
X115267857Y-110216071D01*
X115410714Y-110144642D01*
X114196428Y-109216071D02*
X113839285Y-110216071D01*
X113482142Y-109216071D02*
X113839285Y-110216071D01*
X113982142Y-110573214D01*
X114053571Y-110644642D01*
X114196428Y-110716071D01*
X110910714Y-110073214D02*
X110982142Y-110144642D01*
X111196428Y-110216071D01*
X111339285Y-110216071D01*
X111553571Y-110144642D01*
X111696428Y-110001785D01*
X111767857Y-109858928D01*
X111839285Y-109573214D01*
X111839285Y-109358928D01*
X111767857Y-109073214D01*
X111696428Y-108930357D01*
X111553571Y-108787500D01*
X111339285Y-108716071D01*
X111196428Y-108716071D01*
X110982142Y-108787500D01*
X110910714Y-108858928D01*
X109625000Y-110216071D02*
X109625000Y-109430357D01*
X109696428Y-109287500D01*
X109839285Y-109216071D01*
X110125000Y-109216071D01*
X110267857Y-109287500D01*
X109625000Y-110144642D02*
X109767857Y-110216071D01*
X110125000Y-110216071D01*
X110267857Y-110144642D01*
X110339285Y-110001785D01*
X110339285Y-109858928D01*
X110267857Y-109716071D01*
X110125000Y-109644642D01*
X109767857Y-109644642D01*
X109625000Y-109573214D01*
X108696428Y-110216071D02*
X108839285Y-110144642D01*
X108910714Y-110001785D01*
X108910714Y-108716071D01*
X108267857Y-109216071D02*
X107910714Y-110216071D01*
X107553571Y-109216071D01*
X106982142Y-110216071D02*
X106982142Y-109216071D01*
X106982142Y-108716071D02*
X107053571Y-108787500D01*
X106982142Y-108858928D01*
X106910714Y-108787500D01*
X106982142Y-108716071D01*
X106982142Y-108858928D01*
X106267857Y-109216071D02*
X106267857Y-110216071D01*
X106267857Y-109358928D02*
X106196428Y-109287500D01*
X106053571Y-109216071D01*
X105839285Y-109216071D01*
X105696428Y-109287500D01*
X105625000Y-109430357D01*
X105625000Y-110216071D01*
X104982142Y-109216071D02*
X103910714Y-109216071D01*
X104553571Y-108573214D02*
X104982142Y-110501785D01*
X104053571Y-109858928D02*
X105125000Y-109858928D01*
X104482142Y-110501785D02*
X104053571Y-108573214D01*
X103125000Y-108716071D02*
X102982142Y-108716071D01*
X102839285Y-108787500D01*
X102767857Y-108858928D01*
X102696428Y-109001785D01*
X102625000Y-109287500D01*
X102625000Y-109644642D01*
X102696428Y-109930357D01*
X102767857Y-110073214D01*
X102839285Y-110144642D01*
X102982142Y-110216071D01*
X103125000Y-110216071D01*
X103267857Y-110144642D01*
X103339285Y-110073214D01*
X103410714Y-109930357D01*
X103482142Y-109644642D01*
X103482142Y-109287500D01*
X103410714Y-109001785D01*
X103339285Y-108858928D01*
X103267857Y-108787500D01*
X103125000Y-108716071D01*
X101267857Y-108716071D02*
X101982142Y-108716071D01*
X102053571Y-109430357D01*
X101982142Y-109358928D01*
X101839285Y-109287500D01*
X101482142Y-109287500D01*
X101339285Y-109358928D01*
X101267857Y-109430357D01*
X101196428Y-109573214D01*
X101196428Y-109930357D01*
X101267857Y-110073214D01*
X101339285Y-110144642D01*
X101482142Y-110216071D01*
X101839285Y-110216071D01*
X101982142Y-110144642D01*
X102053571Y-110073214D01*
X99910714Y-108716071D02*
X100196428Y-108716071D01*
X100339285Y-108787500D01*
X100410714Y-108858928D01*
X100553571Y-109073214D01*
X100625000Y-109358928D01*
X100625000Y-109930357D01*
X100553571Y-110073214D01*
X100482142Y-110144642D01*
X100339285Y-110216071D01*
X100053571Y-110216071D01*
X99910714Y-110144642D01*
X99839285Y-110073214D01*
X99767857Y-109930357D01*
X99767857Y-109573214D01*
X99839285Y-109430357D01*
X99910714Y-109358928D01*
X100053571Y-109287500D01*
X100339285Y-109287500D01*
X100482142Y-109358928D01*
X100553571Y-109430357D01*
X100625000Y-109573214D01*
X99267857Y-108716071D02*
X98339285Y-108716071D01*
X98839285Y-109287500D01*
X98625000Y-109287500D01*
X98482142Y-109358928D01*
X98410714Y-109430357D01*
X98339285Y-109573214D01*
X98339285Y-109930357D01*
X98410714Y-110073214D01*
X98482142Y-110144642D01*
X98625000Y-110216071D01*
X99053571Y-110216071D01*
X99196428Y-110144642D01*
X99267857Y-110073214D01*
D11*
X159061830Y-76417857D02*
X158124330Y-68917857D01*
X154776116Y-76417857D02*
X157454687Y-72132142D01*
X153838616Y-68917857D02*
X158660044Y-73203571D01*
X151561830Y-76417857D02*
X150624330Y-68917857D01*
X143704687Y-76417857D02*
X145758258Y-72846428D01*
X147990401Y-76417857D02*
X147052901Y-68917857D01*
X144195758Y-68917857D01*
X143526116Y-69275000D01*
X143213616Y-69632142D01*
X142945758Y-70346428D01*
X143079687Y-71417857D01*
X143526116Y-72132142D01*
X143927901Y-72489285D01*
X144686830Y-72846428D01*
X147543973Y-72846428D01*
X140579687Y-74275000D02*
X137008258Y-74275000D01*
X141561830Y-76417857D02*
X138124330Y-68917857D01*
X136561830Y-76417857D01*
D12*
X134494732Y-72382142D02*
X134030446Y-74382142D01*
X133066160Y-72382142D01*
X130601875Y-74382142D02*
X132316160Y-74382142D01*
X131459017Y-74382142D02*
X131084017Y-71382142D01*
X131423303Y-71810714D01*
X131744732Y-72096428D01*
X132048303Y-72239285D01*
X129280446Y-74096428D02*
X129155446Y-74239285D01*
X129316160Y-74382142D01*
X129441160Y-74239285D01*
X129280446Y-74096428D01*
X129316160Y-74382142D01*
X126941160Y-71382142D02*
X126655446Y-71382142D01*
X126387589Y-71525000D01*
X126262589Y-71667857D01*
X126155446Y-71953571D01*
X126084017Y-72525000D01*
X126173303Y-73239285D01*
X126387589Y-73810714D01*
X126566160Y-74096428D01*
X126726875Y-74239285D01*
X127030446Y-74382142D01*
X127316160Y-74382142D01*
X127584017Y-74239285D01*
X127709017Y-74096428D01*
X127816160Y-73810714D01*
X127887589Y-73239285D01*
X127798303Y-72525000D01*
X127584017Y-71953571D01*
X127405446Y-71667857D01*
X127244732Y-71525000D01*
X126941160Y-71382142D01*
D10*
X38179952Y-39076380D02*
X38179952Y-39790666D01*
X38132333Y-39933523D01*
X38037095Y-40028761D01*
X37894238Y-40076380D01*
X37799000Y-40076380D01*
X39132333Y-40076380D02*
X38656142Y-40076380D01*
X38656142Y-39076380D01*
X40037095Y-39981142D02*
X39989476Y-40028761D01*
X39846619Y-40076380D01*
X39751380Y-40076380D01*
X39608523Y-40028761D01*
X39513285Y-39933523D01*
X39465666Y-39838285D01*
X39418047Y-39647809D01*
X39418047Y-39504952D01*
X39465666Y-39314476D01*
X39513285Y-39219238D01*
X39608523Y-39124000D01*
X39751380Y-39076380D01*
X39846619Y-39076380D01*
X39989476Y-39124000D01*
X40037095Y-39171619D01*
X40751380Y-39076380D02*
X40751380Y-39790666D01*
X40703761Y-39933523D01*
X40608523Y-40028761D01*
X40465666Y-40076380D01*
X40370428Y-40076380D01*
X41703761Y-40076380D02*
X41227571Y-40076380D01*
X41227571Y-39076380D01*
X42608523Y-39981142D02*
X42560904Y-40028761D01*
X42418047Y-40076380D01*
X42322809Y-40076380D01*
X42179952Y-40028761D01*
X42084714Y-39933523D01*
X42037095Y-39838285D01*
X41989476Y-39647809D01*
X41989476Y-39504952D01*
X42037095Y-39314476D01*
X42084714Y-39219238D01*
X42179952Y-39124000D01*
X42322809Y-39076380D01*
X42418047Y-39076380D01*
X42560904Y-39124000D01*
X42608523Y-39171619D01*
X43322809Y-39076380D02*
X43322809Y-39790666D01*
X43275190Y-39933523D01*
X43179952Y-40028761D01*
X43037095Y-40076380D01*
X42941857Y-40076380D01*
X44275190Y-40076380D02*
X43799000Y-40076380D01*
X43799000Y-39076380D01*
X45179952Y-39981142D02*
X45132333Y-40028761D01*
X44989476Y-40076380D01*
X44894238Y-40076380D01*
X44751380Y-40028761D01*
X44656142Y-39933523D01*
X44608523Y-39838285D01*
X44560904Y-39647809D01*
X44560904Y-39504952D01*
X44608523Y-39314476D01*
X44656142Y-39219238D01*
X44751380Y-39124000D01*
X44894238Y-39076380D01*
X44989476Y-39076380D01*
X45132333Y-39124000D01*
X45179952Y-39171619D01*
X45894238Y-39076380D02*
X45894238Y-39790666D01*
X45846619Y-39933523D01*
X45751380Y-40028761D01*
X45608523Y-40076380D01*
X45513285Y-40076380D01*
X46846619Y-40076380D02*
X46370428Y-40076380D01*
X46370428Y-39076380D01*
X47751380Y-39981142D02*
X47703761Y-40028761D01*
X47560904Y-40076380D01*
X47465666Y-40076380D01*
X47322809Y-40028761D01*
X47227571Y-39933523D01*
X47179952Y-39838285D01*
X47132333Y-39647809D01*
X47132333Y-39504952D01*
X47179952Y-39314476D01*
X47227571Y-39219238D01*
X47322809Y-39124000D01*
X47465666Y-39076380D01*
X47560904Y-39076380D01*
X47703761Y-39124000D01*
X47751380Y-39171619D01*
X42640095Y-95448380D02*
X42973428Y-94972190D01*
X43211523Y-95448380D02*
X43211523Y-94448380D01*
X42830571Y-94448380D01*
X42735333Y-94496000D01*
X42687714Y-94543619D01*
X42640095Y-94638857D01*
X42640095Y-94781714D01*
X42687714Y-94876952D01*
X42735333Y-94924571D01*
X42830571Y-94972190D01*
X43211523Y-94972190D01*
X41830571Y-95400761D02*
X41925809Y-95448380D01*
X42116285Y-95448380D01*
X42211523Y-95400761D01*
X42259142Y-95305523D01*
X42259142Y-94924571D01*
X42211523Y-94829333D01*
X42116285Y-94781714D01*
X41925809Y-94781714D01*
X41830571Y-94829333D01*
X41782952Y-94924571D01*
X41782952Y-95019809D01*
X42259142Y-95115047D01*
X41402000Y-95400761D02*
X41306761Y-95448380D01*
X41116285Y-95448380D01*
X41021047Y-95400761D01*
X40973428Y-95305523D01*
X40973428Y-95257904D01*
X41021047Y-95162666D01*
X41116285Y-95115047D01*
X41259142Y-95115047D01*
X41354380Y-95067428D01*
X41402000Y-94972190D01*
X41402000Y-94924571D01*
X41354380Y-94829333D01*
X41259142Y-94781714D01*
X41116285Y-94781714D01*
X41021047Y-94829333D01*
X40163904Y-95400761D02*
X40259142Y-95448380D01*
X40449619Y-95448380D01*
X40544857Y-95400761D01*
X40592476Y-95305523D01*
X40592476Y-94924571D01*
X40544857Y-94829333D01*
X40449619Y-94781714D01*
X40259142Y-94781714D01*
X40163904Y-94829333D01*
X40116285Y-94924571D01*
X40116285Y-95019809D01*
X40592476Y-95115047D01*
X39830571Y-94781714D02*
X39449619Y-94781714D01*
X39687714Y-94448380D02*
X39687714Y-95305523D01*
X39640095Y-95400761D01*
X39544857Y-95448380D01*
X39449619Y-95448380D01*
X144129761Y-25385119D02*
X144177380Y-25337500D01*
X144272619Y-25289880D01*
X144510714Y-25289880D01*
X144605952Y-25337500D01*
X144653571Y-25385119D01*
X144701190Y-25480357D01*
X144701190Y-25575595D01*
X144653571Y-25718452D01*
X144082142Y-26289880D01*
X144701190Y-26289880D01*
X145558333Y-25289880D02*
X145367857Y-25289880D01*
X145272619Y-25337500D01*
X145225000Y-25385119D01*
X145129761Y-25527976D01*
X145082142Y-25718452D01*
X145082142Y-26099404D01*
X145129761Y-26194642D01*
X145177380Y-26242261D01*
X145272619Y-26289880D01*
X145463095Y-26289880D01*
X145558333Y-26242261D01*
X145605952Y-26194642D01*
X145653571Y-26099404D01*
X145653571Y-25861309D01*
X145605952Y-25766071D01*
X145558333Y-25718452D01*
X145463095Y-25670833D01*
X145272619Y-25670833D01*
X145177380Y-25718452D01*
X145129761Y-25766071D01*
X145082142Y-25861309D01*
X145986904Y-25289880D02*
X146605952Y-25289880D01*
X146272619Y-25670833D01*
X146415476Y-25670833D01*
X146510714Y-25718452D01*
X146558333Y-25766071D01*
X146605952Y-25861309D01*
X146605952Y-26099404D01*
X146558333Y-26194642D01*
X146510714Y-26242261D01*
X146415476Y-26289880D01*
X146129761Y-26289880D01*
X146034523Y-26242261D01*
X145986904Y-26194642D01*
X147034523Y-26194642D02*
X147082142Y-26242261D01*
X147034523Y-26289880D01*
X146986904Y-26242261D01*
X147034523Y-26194642D01*
X147034523Y-26289880D01*
X147986904Y-25289880D02*
X147510714Y-25289880D01*
X147463095Y-25766071D01*
X147510714Y-25718452D01*
X147605952Y-25670833D01*
X147844047Y-25670833D01*
X147939285Y-25718452D01*
X147986904Y-25766071D01*
X148034523Y-25861309D01*
X148034523Y-26099404D01*
X147986904Y-26194642D01*
X147939285Y-26242261D01*
X147844047Y-26289880D01*
X147605952Y-26289880D01*
X147510714Y-26242261D01*
X147463095Y-26194642D01*
X148415476Y-25385119D02*
X148463095Y-25337500D01*
X148558333Y-25289880D01*
X148796428Y-25289880D01*
X148891666Y-25337500D01*
X148939285Y-25385119D01*
X148986904Y-25480357D01*
X148986904Y-25575595D01*
X148939285Y-25718452D01*
X148367857Y-26289880D01*
X148986904Y-26289880D01*
X149891666Y-25289880D02*
X149415476Y-25289880D01*
X149367857Y-25766071D01*
X149415476Y-25718452D01*
X149510714Y-25670833D01*
X149748809Y-25670833D01*
X149844047Y-25718452D01*
X149891666Y-25766071D01*
X149939285Y-25861309D01*
X149939285Y-26099404D01*
X149891666Y-26194642D01*
X149844047Y-26242261D01*
X149748809Y-26289880D01*
X149510714Y-26289880D01*
X149415476Y-26242261D01*
X149367857Y-26194642D01*
X150558333Y-25289880D02*
X150653571Y-25289880D01*
X150748809Y-25337500D01*
X150796428Y-25385119D01*
X150844047Y-25480357D01*
X150891666Y-25670833D01*
X150891666Y-25908928D01*
X150844047Y-26099404D01*
X150796428Y-26194642D01*
X150748809Y-26242261D01*
X150653571Y-26289880D01*
X150558333Y-26289880D01*
X150463095Y-26242261D01*
X150415476Y-26194642D01*
X150367857Y-26099404D01*
X150320238Y-25908928D01*
X150320238Y-25670833D01*
X150367857Y-25480357D01*
X150415476Y-25385119D01*
X150463095Y-25337500D01*
X150558333Y-25289880D01*
X152082142Y-26289880D02*
X152082142Y-25623214D01*
X152082142Y-25718452D02*
X152129761Y-25670833D01*
X152225000Y-25623214D01*
X152367857Y-25623214D01*
X152463095Y-25670833D01*
X152510714Y-25766071D01*
X152510714Y-26289880D01*
X152510714Y-25766071D02*
X152558333Y-25670833D01*
X152653571Y-25623214D01*
X152796428Y-25623214D01*
X152891666Y-25670833D01*
X152939285Y-25766071D01*
X152939285Y-26289880D01*
X153415476Y-26289880D02*
X153415476Y-25623214D01*
X153415476Y-25718452D02*
X153463095Y-25670833D01*
X153558333Y-25623214D01*
X153701190Y-25623214D01*
X153796428Y-25670833D01*
X153844047Y-25766071D01*
X153844047Y-26289880D01*
X153844047Y-25766071D02*
X153891666Y-25670833D01*
X153986904Y-25623214D01*
X154129761Y-25623214D01*
X154225000Y-25670833D01*
X154272619Y-25766071D01*
X154272619Y-26289880D01*
X280987500Y-36012500D02*
X280987500Y-26401080D01*
X17462500Y-36012500D02*
X17462500Y-26401080D01*
X280987500Y-26987500D02*
X17462500Y-26987500D01*
X280987500Y-26987500D02*
X17462500Y-26987500D01*
X280987500Y-26987500D02*
X279860996Y-26401079D01*
X280987500Y-26987500D02*
X279860996Y-27573921D01*
X17462500Y-26987500D02*
X18589004Y-27573921D01*
X17462500Y-26987500D02*
X18589004Y-26401079D01*
D13*
%TO.C,SW47*%
X39102000Y-101776000D02*
X38652000Y-101326000D01*
X39102000Y-98376000D02*
X38652000Y-98826000D01*
X42402000Y-102826000D02*
X40402000Y-102826000D01*
X43702000Y-101776000D02*
X44152000Y-101326000D01*
X42402000Y-97326000D02*
X40402000Y-97326000D01*
X38652000Y-101326000D02*
X38652000Y-98826000D01*
X44152000Y-101326000D02*
X44152000Y-98826000D01*
X43702000Y-98376000D02*
X44152000Y-98826000D01*
%TO.C,D12*%
X77200000Y-105387500D02*
X77200000Y-101537500D01*
X77200000Y-105387500D02*
X75200000Y-105387500D01*
X75200000Y-105387500D02*
X75200000Y-101537500D01*
%TO.C,D43*%
X254587500Y-92687500D02*
X254587500Y-88837500D01*
X256587500Y-92687500D02*
X256587500Y-88837500D01*
X256587500Y-92687500D02*
X254587500Y-92687500D01*
%TO.C,D29*%
X186737500Y-86337500D02*
X186737500Y-82487500D01*
X184737500Y-86337500D02*
X184737500Y-82487500D01*
X186737500Y-86337500D02*
X184737500Y-86337500D01*
%TO.C,D34*%
X208550000Y-48237500D02*
X208550000Y-44387500D01*
X210550000Y-48237500D02*
X208550000Y-48237500D01*
X210550000Y-48237500D02*
X210550000Y-44387500D01*
%TO.C,D28*%
X177212500Y-67287500D02*
X177212500Y-63437500D01*
X175212500Y-67287500D02*
X175212500Y-63437500D01*
X177212500Y-67287500D02*
X175212500Y-67287500D01*
%TO.C,D44*%
X258175000Y-43475000D02*
X256175000Y-43475000D01*
X256175000Y-43475000D02*
X256175000Y-39625000D01*
X258175000Y-43475000D02*
X258175000Y-39625000D01*
%TO.C,D21*%
X139112500Y-67287500D02*
X139112500Y-63437500D01*
X139112500Y-67287500D02*
X137112500Y-67287500D01*
X137112500Y-67287500D02*
X137112500Y-63437500D01*
%TO.C,C7*%
X44215164Y-58272000D02*
X44430836Y-58272000D01*
X44215164Y-57552000D02*
X44430836Y-57552000D01*
%TO.C,D5*%
X32337500Y-105387500D02*
X32337500Y-101537500D01*
X34337500Y-105387500D02*
X34337500Y-101537500D01*
X34337500Y-105387500D02*
X32337500Y-105387500D01*
%TO.C,D30*%
X189500000Y-48237500D02*
X189500000Y-44387500D01*
X191500000Y-48237500D02*
X189500000Y-48237500D01*
X191500000Y-48237500D02*
X191500000Y-44387500D01*
%TO.C,C5*%
X55041190Y-83895693D02*
X55193693Y-83743190D01*
X55550307Y-84404810D02*
X55702810Y-84252307D01*
%TO.C,D42*%
X265287000Y-67287500D02*
X265287000Y-63437500D01*
X263287000Y-67287500D02*
X263287000Y-63437500D01*
X265287000Y-67287500D02*
X263287000Y-67287500D01*
%TO.C,D14*%
X101012500Y-67287500D02*
X101012500Y-63437500D01*
X99012500Y-67287500D02*
X99012500Y-63437500D01*
X101012500Y-67287500D02*
X99012500Y-67287500D01*
%TO.C,R2*%
X46175697Y-66264770D02*
X46511230Y-66600303D01*
X45436770Y-67003697D02*
X45772303Y-67339230D01*
%TO.C,D11*%
X89487500Y-86337500D02*
X89487500Y-82487500D01*
X91487500Y-86337500D02*
X89487500Y-86337500D01*
X91487500Y-86337500D02*
X91487500Y-82487500D01*
%TO.C,R3*%
X48667641Y-100204000D02*
X48360359Y-100204000D01*
X48667641Y-100964000D02*
X48360359Y-100964000D01*
%TO.C,D39*%
X231187500Y-92687500D02*
X229187500Y-92687500D01*
X229187500Y-92687500D02*
X229187500Y-88837500D01*
X231187500Y-92687500D02*
X231187500Y-88837500D01*
%TO.C,D31*%
X196262500Y-67287500D02*
X196262500Y-63437500D01*
X196262500Y-67287500D02*
X194262500Y-67287500D01*
X194262500Y-67287500D02*
X194262500Y-63437500D01*
%TO.C,U2*%
X42926000Y-54066000D02*
X44601000Y-54066000D01*
X42926000Y-54066000D02*
X42276000Y-54066000D01*
X42926000Y-57186000D02*
X42276000Y-57186000D01*
X42926000Y-57186000D02*
X43576000Y-57186000D01*
%TO.C,U3*%
X67667225Y-51376320D02*
X70392225Y-51376320D01*
X67667225Y-56826320D02*
X70392225Y-56826320D01*
X70392225Y-51636320D02*
X72067225Y-51636320D01*
X67667225Y-56826320D02*
X64942225Y-56826320D01*
X64942225Y-51376320D02*
X64942225Y-51636320D01*
X64942225Y-56826320D02*
X64942225Y-56566320D01*
X67667225Y-51376320D02*
X64942225Y-51376320D01*
X70392225Y-56826320D02*
X70392225Y-56566320D01*
X70392225Y-51376320D02*
X70392225Y-51636320D01*
%TO.C,C16*%
X48240836Y-73173000D02*
X48025164Y-73173000D01*
X48240836Y-73893000D02*
X48025164Y-73893000D01*
%TO.C,C15*%
X49894391Y-68227746D02*
X49741888Y-68075243D01*
X49385274Y-68736863D02*
X49232771Y-68584360D01*
%TO.C,C11*%
X54178810Y-82982307D02*
X54026307Y-83134810D01*
X53669693Y-82473190D02*
X53517190Y-82625693D01*
%TO.C,D23*%
X153400000Y-48237500D02*
X153400000Y-44387500D01*
X151400000Y-48237500D02*
X151400000Y-44387500D01*
X153400000Y-48237500D02*
X151400000Y-48237500D01*
%TO.C,J1*%
X38162499Y-36719539D02*
X38162499Y-34819539D01*
X38162499Y-40619539D02*
X38162499Y-38619539D01*
X47562499Y-36719539D02*
X47562499Y-34819539D01*
X38162499Y-34819539D02*
X47562499Y-34819539D01*
X47562499Y-40619539D02*
X47562499Y-38619539D01*
%TO.C,C8*%
X43541836Y-59288000D02*
X43326164Y-59288000D01*
X43541836Y-58568000D02*
X43326164Y-58568000D01*
%TO.C,C14*%
X64098248Y-71014000D02*
X64313920Y-71014000D01*
X64098248Y-71734000D02*
X64313920Y-71734000D01*
%TO.C,R5*%
X45340000Y-46328359D02*
X45340000Y-46635641D01*
X46100000Y-46328359D02*
X46100000Y-46635641D01*
%TO.C,C17*%
X56082693Y-68021810D02*
X55930190Y-67869307D01*
X56591810Y-67512693D02*
X56439307Y-67360190D01*
%TO.C,D24*%
X158162500Y-67287500D02*
X156162500Y-67287500D01*
X156162500Y-67287500D02*
X156162500Y-63437500D01*
X158162500Y-67287500D02*
X158162500Y-63437500D01*
%TO.C,C1*%
X50188662Y-71002432D02*
X50036159Y-70849929D01*
X49679545Y-71511549D02*
X49527042Y-71359046D01*
%TO.C,C2*%
X50113693Y-68021810D02*
X49961190Y-67869307D01*
X50622810Y-67512693D02*
X50470307Y-67360190D01*
%TO.C,D20*%
X132350000Y-48237500D02*
X132350000Y-44387500D01*
X134350000Y-48237500D02*
X132350000Y-48237500D01*
X134350000Y-48237500D02*
X134350000Y-44387500D01*
%TO.C,D45*%
X272462500Y-105387500D02*
X270462500Y-105387500D01*
X270462500Y-105387500D02*
X270462500Y-101537500D01*
X272462500Y-105387500D02*
X272462500Y-101537500D01*
%TO.C,D40*%
X229600000Y-105387500D02*
X227600000Y-105387500D01*
X227600000Y-105387500D02*
X227600000Y-101537500D01*
X229600000Y-105387500D02*
X229600000Y-101537500D01*
%TO.C,D27*%
X172450000Y-48237500D02*
X170450000Y-48237500D01*
X172450000Y-48237500D02*
X172450000Y-44387500D01*
X170450000Y-48237500D02*
X170450000Y-44387500D01*
%TO.C,U1*%
X60404839Y-74533666D02*
X60864458Y-74074047D01*
X56218766Y-78719739D02*
X55759147Y-79179358D01*
X60864458Y-74074047D02*
X60404839Y-73614428D01*
X51113455Y-73614428D02*
X50653836Y-74074047D01*
X55299528Y-69428355D02*
X55759147Y-68968736D01*
X50653836Y-74074047D02*
X51113455Y-74533666D01*
X55759147Y-79179358D02*
X55299528Y-78719739D01*
%TO.C,J2*%
X48607500Y-104542500D02*
X58827500Y-104542500D01*
X48607500Y-101882500D02*
X48607500Y-104542500D01*
X46007500Y-104542500D02*
X47337500Y-104542500D01*
X48607500Y-101882500D02*
X58827500Y-101882500D01*
X46007500Y-103212500D02*
X46007500Y-104542500D01*
X58827500Y-101882500D02*
X58827500Y-104542500D01*
%TO.C,D33*%
X189500000Y-105387500D02*
X189500000Y-101537500D01*
X191500000Y-105387500D02*
X191500000Y-101537500D01*
X191500000Y-105387500D02*
X189500000Y-105387500D01*
%TO.C,D4*%
X41386000Y-86337500D02*
X41386000Y-82487500D01*
X39386000Y-86337500D02*
X39386000Y-82487500D01*
X41386000Y-86337500D02*
X39386000Y-86337500D01*
%TO.C,D16*%
X113300000Y-48237500D02*
X113300000Y-44387500D01*
X115300000Y-48237500D02*
X115300000Y-44387500D01*
X115300000Y-48237500D02*
X113300000Y-48237500D01*
%TO.C,C12*%
X61870000Y-51796156D02*
X61870000Y-51580484D01*
X62590000Y-51796156D02*
X62590000Y-51580484D01*
%TO.C,D3*%
X37100000Y-56537500D02*
X39100000Y-56537500D01*
X37100000Y-56537500D02*
X37100000Y-60387500D01*
X39100000Y-56537500D02*
X39100000Y-60387500D01*
%TO.C,D8*%
X72437500Y-86337500D02*
X70437500Y-86337500D01*
X72437500Y-86337500D02*
X72437500Y-82487500D01*
X70437500Y-86337500D02*
X70437500Y-82487500D01*
%TO.C,R7*%
X58705641Y-83373321D02*
X58488360Y-83156040D01*
X58168240Y-83910722D02*
X57950959Y-83693441D01*
%TO.C,D15*%
X110537500Y-86337500D02*
X110537500Y-82487500D01*
X108537500Y-86337500D02*
X108537500Y-82487500D01*
X110537500Y-86337500D02*
X108537500Y-86337500D01*
%TO.C,C13*%
X51638810Y-80950307D02*
X51486307Y-81102810D01*
X51129693Y-80441190D02*
X50977190Y-80593693D01*
%TO.C,D22*%
X146637500Y-86337500D02*
X146637500Y-82487500D01*
X148637500Y-86337500D02*
X148637500Y-82487500D01*
X148637500Y-86337500D02*
X146637500Y-86337500D01*
%TO.C,D10*%
X81962500Y-67287500D02*
X81962500Y-63437500D01*
X79962500Y-67287500D02*
X79962500Y-63437500D01*
X81962500Y-67287500D02*
X79962500Y-67287500D01*
%TO.C,D26*%
X153400000Y-105387500D02*
X151400000Y-105387500D01*
X151400000Y-105387500D02*
X151400000Y-101537500D01*
X153400000Y-105387500D02*
X153400000Y-101537500D01*
%TO.C,D32*%
X205787500Y-86337500D02*
X205787500Y-82487500D01*
X203787500Y-86337500D02*
X203787500Y-82487500D01*
X205787500Y-86337500D02*
X203787500Y-86337500D01*
%TO.C,D37*%
X229600000Y-48237500D02*
X229600000Y-44387500D01*
X229600000Y-48237500D02*
X227600000Y-48237500D01*
X227600000Y-48237500D02*
X227600000Y-44387500D01*
%TO.C,C4*%
X38969836Y-55266000D02*
X38754164Y-55266000D01*
X38969836Y-55986000D02*
X38754164Y-55986000D01*
%TO.C,C6*%
X59511693Y-87426190D02*
X59359190Y-87578693D01*
X60020810Y-87935307D02*
X59868307Y-88087810D01*
%TO.C,D19*%
X113300000Y-105387500D02*
X113300000Y-101537500D01*
X115300000Y-105387500D02*
X115300000Y-101537500D01*
X115300000Y-105387500D02*
X113300000Y-105387500D01*
%TO.C,R6*%
X71961066Y-50114520D02*
X71653784Y-50114520D01*
X71961066Y-50874520D02*
X71653784Y-50874520D01*
%TO.C,D9*%
X77200000Y-48237500D02*
X75200000Y-48237500D01*
X77200000Y-48237500D02*
X77200000Y-44387500D01*
X75200000Y-48237500D02*
X75200000Y-44387500D01*
%TO.C,C10*%
X48240836Y-74316000D02*
X48025164Y-74316000D01*
X48240836Y-75036000D02*
X48025164Y-75036000D01*
%TO.C,D17*%
X118062500Y-67287500D02*
X118062500Y-63437500D01*
X120062500Y-67287500D02*
X118062500Y-67287500D01*
X120062500Y-67287500D02*
X120062500Y-63437500D01*
%TO.C,D7*%
X62912500Y-67287500D02*
X60912500Y-67287500D01*
X60912500Y-67287500D02*
X60912500Y-63437500D01*
X62912500Y-67287500D02*
X62912500Y-63437500D01*
%TO.C,G\u002A\u002A\u002A*%
G36*
X236804140Y-94707987D02*
G01*
X236829021Y-94708659D01*
X236904215Y-94709594D01*
X236970911Y-94708961D01*
X237017041Y-94706825D01*
X237044143Y-94706125D01*
X237120049Y-94713635D01*
X237213325Y-94731462D01*
X237315674Y-94757192D01*
X237418802Y-94788414D01*
X237514414Y-94822714D01*
X237594214Y-94857679D01*
X237649906Y-94890897D01*
X237683593Y-94910607D01*
X237738396Y-94934959D01*
X237800519Y-94957391D01*
X237895701Y-94988883D01*
X238010374Y-95031470D01*
X238095777Y-95070052D01*
X238153682Y-95105372D01*
X238161854Y-95111381D01*
X238205150Y-95138514D01*
X238240557Y-95154195D01*
X238263165Y-95162832D01*
X238308475Y-95185134D01*
X238360319Y-95214293D01*
X238441394Y-95262224D01*
X238514023Y-95303328D01*
X238566893Y-95330448D01*
X238604099Y-95345663D01*
X238629737Y-95351053D01*
X238643841Y-95353652D01*
X238690014Y-95371534D01*
X238750477Y-95402556D01*
X238817061Y-95442324D01*
X238881601Y-95486451D01*
X238901199Y-95500567D01*
X239014771Y-95573156D01*
X239157999Y-95652046D01*
X239329109Y-95736248D01*
X239408997Y-95774736D01*
X239489746Y-95815493D01*
X239559514Y-95852516D01*
X239608907Y-95880942D01*
X239650877Y-95905674D01*
X239688362Y-95924556D01*
X239707121Y-95929765D01*
X239707995Y-95929551D01*
X239729434Y-95936179D01*
X239770016Y-95955429D01*
X239821769Y-95983561D01*
X239882521Y-96021788D01*
X239925315Y-96059174D01*
X239951432Y-96098823D01*
X239953754Y-96103715D01*
X239981603Y-96152874D01*
X240007845Y-96172118D01*
X240039224Y-96162875D01*
X240082478Y-96126574D01*
X240103194Y-96108522D01*
X240133454Y-96086935D01*
X240174552Y-96062221D01*
X240230292Y-96032356D01*
X240304477Y-95995310D01*
X240400910Y-95949056D01*
X240523396Y-95891568D01*
X240600577Y-95855814D01*
X240734246Y-95795560D01*
X240845646Y-95748301D01*
X240939180Y-95712546D01*
X241019254Y-95686801D01*
X241090274Y-95669576D01*
X241156647Y-95659378D01*
X241222778Y-95654714D01*
X241266633Y-95649065D01*
X241338826Y-95632942D01*
X241428483Y-95608170D01*
X241528744Y-95576504D01*
X241549587Y-95569626D01*
X241639561Y-95541807D01*
X241725321Y-95517973D01*
X241798021Y-95500474D01*
X241848813Y-95491651D01*
X241850114Y-95491518D01*
X241914449Y-95480059D01*
X241991715Y-95459606D01*
X242065472Y-95434497D01*
X242139994Y-95408569D01*
X242227125Y-95383484D01*
X242303957Y-95366173D01*
X242346449Y-95359445D01*
X242435914Y-95348995D01*
X242531954Y-95341541D01*
X242626781Y-95337363D01*
X242712604Y-95336744D01*
X242781636Y-95339965D01*
X242826085Y-95347305D01*
X242828297Y-95348005D01*
X242907946Y-95364599D01*
X243009745Y-95373632D01*
X243124420Y-95375256D01*
X243242691Y-95369621D01*
X243355283Y-95356875D01*
X243452917Y-95337170D01*
X243532511Y-95317709D01*
X243668217Y-95290843D01*
X243806616Y-95270157D01*
X243939273Y-95256638D01*
X244057747Y-95251276D01*
X244153602Y-95255060D01*
X244165865Y-95256274D01*
X244220982Y-95260832D01*
X244292484Y-95265909D01*
X244368092Y-95270615D01*
X244394883Y-95272241D01*
X244466543Y-95277399D01*
X244527427Y-95282865D01*
X244566610Y-95287701D01*
X244573248Y-95288585D01*
X244618970Y-95289973D01*
X244682782Y-95287533D01*
X244753028Y-95281646D01*
X244769163Y-95279999D01*
X244838591Y-95274756D01*
X244898640Y-95272908D01*
X244937805Y-95274877D01*
X244965863Y-95278057D01*
X245022860Y-95281498D01*
X245085729Y-95282898D01*
X245178630Y-95288639D01*
X245335941Y-95324071D01*
X245493371Y-95391987D01*
X245524769Y-95406611D01*
X245616211Y-95435589D01*
X245729781Y-95457879D01*
X245858465Y-95472563D01*
X245995251Y-95478727D01*
X246133124Y-95475457D01*
X246154500Y-95474520D01*
X246289268Y-95482149D01*
X246440972Y-95510942D01*
X246604043Y-95559584D01*
X246772906Y-95626757D01*
X246810629Y-95644087D01*
X246874406Y-95675493D01*
X246925098Y-95703106D01*
X246954211Y-95722443D01*
X246982459Y-95744114D01*
X247023070Y-95767932D01*
X247023620Y-95768183D01*
X247054881Y-95786161D01*
X247101888Y-95817199D01*
X247154681Y-95854731D01*
X247164897Y-95862242D01*
X247219545Y-95902133D01*
X247290650Y-95953731D01*
X247370147Y-96011191D01*
X247449970Y-96068670D01*
X247478835Y-96089586D01*
X247550330Y-96142888D01*
X247612695Y-96191428D01*
X247660048Y-96230555D01*
X247686503Y-96255621D01*
X247690044Y-96259684D01*
X247720508Y-96288661D01*
X247743843Y-96301804D01*
X247748435Y-96300970D01*
X247779102Y-96290397D01*
X247834315Y-96268968D01*
X247910246Y-96238245D01*
X248003067Y-96199789D01*
X248108949Y-96155161D01*
X248224066Y-96105922D01*
X248287597Y-96078564D01*
X248446010Y-96010440D01*
X248578150Y-95953849D01*
X248686740Y-95907716D01*
X248774507Y-95870965D01*
X248844175Y-95842522D01*
X248898471Y-95821312D01*
X248940118Y-95806257D01*
X248971843Y-95796285D01*
X248996372Y-95790320D01*
X249016429Y-95787285D01*
X249034741Y-95786107D01*
X249063104Y-95783132D01*
X249108235Y-95773707D01*
X249169285Y-95756996D01*
X249249157Y-95732088D01*
X249350760Y-95698068D01*
X249476996Y-95654028D01*
X249630773Y-95599055D01*
X249647428Y-95593099D01*
X249726157Y-95566215D01*
X249795104Y-95544645D01*
X249847339Y-95530459D01*
X249875937Y-95525730D01*
X249887437Y-95524926D01*
X249922802Y-95516725D01*
X249977713Y-95499331D01*
X250053651Y-95472173D01*
X250152093Y-95434681D01*
X250274516Y-95386288D01*
X250422400Y-95326425D01*
X250597221Y-95254525D01*
X250800457Y-95170016D01*
X250844579Y-95151729D01*
X250943251Y-95111817D01*
X251032410Y-95077068D01*
X251106926Y-95049408D01*
X251161672Y-95030763D01*
X251191520Y-95023063D01*
X251195541Y-95022659D01*
X251241143Y-95018251D01*
X251309682Y-95011789D01*
X251392724Y-95004052D01*
X251481834Y-94995820D01*
X251568578Y-94987872D01*
X251644521Y-94980988D01*
X251701229Y-94975948D01*
X251717839Y-94974344D01*
X251786150Y-94965623D01*
X251847923Y-94955108D01*
X251873529Y-94951876D01*
X251938276Y-94953099D01*
X252002384Y-94963827D01*
X252036736Y-94972055D01*
X252080282Y-94979451D01*
X252103795Y-94979272D01*
X252113078Y-94976726D01*
X252154043Y-94979331D01*
X252207726Y-94993647D01*
X252262706Y-95016095D01*
X252307564Y-95043099D01*
X252335398Y-95065974D01*
X252377498Y-95107171D01*
X252416439Y-95156250D01*
X252456006Y-95218842D01*
X252499978Y-95300572D01*
X252552139Y-95407071D01*
X252656350Y-95625871D01*
X252650038Y-95811996D01*
X252647866Y-95863879D01*
X252628728Y-96076832D01*
X252593251Y-96266348D01*
X252540388Y-96436964D01*
X252469086Y-96593213D01*
X252450283Y-96630940D01*
X252434243Y-96670852D01*
X252430801Y-96692169D01*
X252431323Y-96693202D01*
X252437960Y-96699875D01*
X252453159Y-96706224D01*
X252481671Y-96713264D01*
X252528248Y-96722015D01*
X252597641Y-96733497D01*
X252694602Y-96748728D01*
X252713508Y-96751779D01*
X252771735Y-96762774D01*
X252813688Y-96773159D01*
X252831321Y-96781031D01*
X252836970Y-96784510D01*
X252868536Y-96793529D01*
X252921097Y-96804303D01*
X252987180Y-96815196D01*
X253012170Y-96818985D01*
X253090783Y-96831909D01*
X253163095Y-96845113D01*
X253216070Y-96856258D01*
X253242651Y-96861779D01*
X253288868Y-96867183D01*
X253316987Y-96864682D01*
X253319994Y-96864109D01*
X253348766Y-96868307D01*
X253399506Y-96881093D01*
X253465310Y-96900299D01*
X253539273Y-96923753D01*
X253614491Y-96949288D01*
X253684059Y-96974734D01*
X253741074Y-96997922D01*
X253742911Y-96998727D01*
X253796372Y-97020040D01*
X253871397Y-97047405D01*
X253959290Y-97077914D01*
X254051352Y-97108662D01*
X254138887Y-97136740D01*
X254213198Y-97159242D01*
X254265587Y-97173259D01*
X254307067Y-97183449D01*
X254384995Y-97205115D01*
X254453495Y-97226859D01*
X254492646Y-97240252D01*
X254568750Y-97265397D01*
X254640592Y-97288248D01*
X254685956Y-97303720D01*
X254764691Y-97334836D01*
X254835733Y-97367242D01*
X254883748Y-97390742D01*
X254942328Y-97417972D01*
X254986240Y-97436793D01*
X255059151Y-97466400D01*
X255130231Y-97497463D01*
X255189994Y-97525748D01*
X255232065Y-97548231D01*
X255250066Y-97561891D01*
X255266741Y-97575534D01*
X255301498Y-97590108D01*
X255311150Y-97593858D01*
X255350559Y-97613489D01*
X255408774Y-97645597D01*
X255479633Y-97686724D01*
X255556969Y-97733412D01*
X255572361Y-97742893D01*
X255686017Y-97813944D01*
X255774284Y-97871941D01*
X255839886Y-97919587D01*
X255885547Y-97959586D01*
X255913989Y-97994645D01*
X255927935Y-98027466D01*
X255930108Y-98060757D01*
X255923231Y-98097221D01*
X255903233Y-98145911D01*
X255867700Y-98180149D01*
X255817400Y-98190137D01*
X255750678Y-98175766D01*
X255665875Y-98136926D01*
X255561330Y-98073511D01*
X255542997Y-98061565D01*
X255487968Y-98027268D01*
X255443412Y-98001719D01*
X255417593Y-97989740D01*
X255414049Y-97988607D01*
X255381850Y-97970482D01*
X255344410Y-97940951D01*
X255335572Y-97933625D01*
X255292138Y-97904490D01*
X255232265Y-97870175D01*
X255166148Y-97836648D01*
X255147355Y-97827728D01*
X255077324Y-97794017D01*
X255013057Y-97762447D01*
X254966472Y-97738858D01*
X254946319Y-97728782D01*
X254906021Y-97711526D01*
X254882140Y-97705455D01*
X254881584Y-97705480D01*
X254858272Y-97698086D01*
X254815911Y-97678578D01*
X254763261Y-97650968D01*
X254735260Y-97636823D01*
X254676639Y-97610986D01*
X254604311Y-97581934D01*
X254524557Y-97551884D01*
X254443657Y-97523055D01*
X254367895Y-97497662D01*
X254303551Y-97477922D01*
X254256908Y-97466052D01*
X254234246Y-97464269D01*
X254232872Y-97464596D01*
X254217034Y-97462357D01*
X254183997Y-97453549D01*
X254131827Y-97437531D01*
X254058588Y-97413665D01*
X253962345Y-97381311D01*
X253841164Y-97339828D01*
X253693109Y-97288579D01*
X253516244Y-97226922D01*
X253452417Y-97204930D01*
X253357378Y-97174392D01*
X253275618Y-97152411D01*
X253196290Y-97136606D01*
X253108544Y-97124597D01*
X253001533Y-97114005D01*
X252939761Y-97104805D01*
X252862742Y-97087930D01*
X252788545Y-97067197D01*
X252783860Y-97065715D01*
X252715898Y-97046586D01*
X252652320Y-97032434D01*
X252606329Y-97026227D01*
X252593335Y-97025525D01*
X252520815Y-97016671D01*
X252440471Y-97000900D01*
X252365780Y-96981200D01*
X252310218Y-96960561D01*
X252282044Y-96950904D01*
X252241700Y-96957763D01*
X252213225Y-96995000D01*
X252196692Y-97062550D01*
X252194000Y-97080757D01*
X252182825Y-97132152D01*
X252170017Y-97168181D01*
X252164177Y-97181288D01*
X252149805Y-97225904D01*
X252136925Y-97279781D01*
X252133478Y-97296427D01*
X252120252Y-97349053D01*
X252101994Y-97404239D01*
X252076127Y-97468556D01*
X252040070Y-97548573D01*
X251991245Y-97650859D01*
X251941180Y-97751651D01*
X251891674Y-97846668D01*
X251846303Y-97929264D01*
X251807499Y-97995148D01*
X251777698Y-98040033D01*
X251759330Y-98059627D01*
X251756776Y-98061146D01*
X251736531Y-98084600D01*
X251714769Y-98123046D01*
X251699450Y-98151274D01*
X251665740Y-98203569D01*
X251626901Y-98256445D01*
X251599152Y-98292562D01*
X251563567Y-98341767D01*
X251539595Y-98378422D01*
X251537485Y-98381921D01*
X251517364Y-98409336D01*
X251483353Y-98448826D01*
X251433797Y-98502102D01*
X251367036Y-98570876D01*
X251281413Y-98656861D01*
X251175274Y-98761767D01*
X251046959Y-98887306D01*
X250921940Y-99009580D01*
X250817303Y-99112853D01*
X250733953Y-99196289D01*
X250670626Y-99261168D01*
X250626055Y-99308771D01*
X250598973Y-99340378D01*
X250596597Y-99343356D01*
X250559884Y-99382746D01*
X250508319Y-99430925D01*
X250452278Y-99478153D01*
X250447107Y-99482281D01*
X250390820Y-99530067D01*
X250339769Y-99577896D01*
X250304438Y-99615993D01*
X250303264Y-99617450D01*
X250267353Y-99657510D01*
X250217550Y-99707827D01*
X250164264Y-99757869D01*
X250154596Y-99766620D01*
X250109553Y-99808857D01*
X250075660Y-99842989D01*
X250059632Y-99862309D01*
X250055380Y-99867551D01*
X250030064Y-99891311D01*
X249987523Y-99928128D01*
X249933625Y-99973226D01*
X249874237Y-100021828D01*
X249815225Y-100069159D01*
X249762459Y-100110443D01*
X249721802Y-100140905D01*
X249699126Y-100155767D01*
X249691159Y-100161240D01*
X249664128Y-100187283D01*
X249631077Y-100225031D01*
X249621449Y-100236324D01*
X249562503Y-100284296D01*
X249500543Y-100300100D01*
X249436346Y-100283500D01*
X249429004Y-100279606D01*
X249385678Y-100243045D01*
X249363089Y-100190073D01*
X249358314Y-100114355D01*
X249358793Y-100105618D01*
X249379038Y-100030868D01*
X249425166Y-99973497D01*
X249493540Y-99938241D01*
X249501212Y-99935523D01*
X249543085Y-99913372D01*
X249599080Y-99877004D01*
X249661108Y-99832413D01*
X249721083Y-99785592D01*
X249770918Y-99742534D01*
X249802528Y-99709234D01*
X249808346Y-99702295D01*
X249838000Y-99672047D01*
X249882577Y-99630065D01*
X249934858Y-99583223D01*
X249949057Y-99570647D01*
X250006880Y-99516563D01*
X250059295Y-99463547D01*
X250096424Y-99421484D01*
X250120729Y-99393543D01*
X250173480Y-99342016D01*
X250228475Y-99296490D01*
X250265777Y-99266338D01*
X250326056Y-99210175D01*
X250378225Y-99153822D01*
X250413860Y-99112820D01*
X250455649Y-99068650D01*
X250487166Y-99039592D01*
X250507851Y-99021785D01*
X250549065Y-98982088D01*
X250592395Y-98936729D01*
X250617316Y-98910152D01*
X250674324Y-98852608D01*
X250727830Y-98802014D01*
X250755521Y-98776441D01*
X250800172Y-98732755D01*
X250832560Y-98698080D01*
X250850017Y-98678940D01*
X250889455Y-98638367D01*
X250941054Y-98586973D01*
X250998169Y-98531446D01*
X251066885Y-98465396D01*
X251139741Y-98395015D01*
X251194194Y-98341699D01*
X251233244Y-98302322D01*
X251259884Y-98273763D01*
X251277114Y-98252898D01*
X251287928Y-98236605D01*
X251295324Y-98221760D01*
X251304787Y-98204282D01*
X251334158Y-98161647D01*
X251371208Y-98116069D01*
X251390424Y-98093246D01*
X251430169Y-98040043D01*
X251459319Y-97993365D01*
X251460510Y-97991118D01*
X251492987Y-97938150D01*
X251529089Y-97889630D01*
X251559619Y-97849430D01*
X251610862Y-97767542D01*
X251665444Y-97665525D01*
X251719630Y-97550031D01*
X251723091Y-97542187D01*
X251751443Y-97480037D01*
X251777496Y-97426116D01*
X251795999Y-97391336D01*
X251808577Y-97364879D01*
X251827468Y-97311932D01*
X251844351Y-97251639D01*
X251864330Y-97171305D01*
X251886632Y-97088590D01*
X251913270Y-96996994D01*
X251947344Y-96885494D01*
X251960733Y-96844508D01*
X251983322Y-96789903D01*
X252008010Y-96753601D01*
X252040001Y-96726686D01*
X252056010Y-96714180D01*
X252102177Y-96662278D01*
X252145532Y-96592440D01*
X252170621Y-96544289D01*
X252204199Y-96479848D01*
X252231135Y-96428163D01*
X252260635Y-96368284D01*
X252287512Y-96305246D01*
X252303038Y-96257507D01*
X252304767Y-96231590D01*
X252303863Y-96221986D01*
X252308654Y-96186889D01*
X252320020Y-96138686D01*
X252333047Y-96090158D01*
X252350065Y-96017057D01*
X252360159Y-95951522D01*
X252365126Y-95880153D01*
X252366757Y-95789550D01*
X252366774Y-95755141D01*
X252364505Y-95685090D01*
X252357255Y-95631668D01*
X252342940Y-95583392D01*
X252319479Y-95528779D01*
X252291971Y-95474522D01*
X252251890Y-95406203D01*
X252210603Y-95345062D01*
X252173209Y-95298532D01*
X252144802Y-95274045D01*
X252144032Y-95273676D01*
X252108900Y-95264428D01*
X252051847Y-95256397D01*
X251983222Y-95250303D01*
X251913372Y-95246863D01*
X251852644Y-95246802D01*
X251811388Y-95250838D01*
X251775343Y-95256608D01*
X251713199Y-95262256D01*
X251646735Y-95264916D01*
X251587849Y-95267623D01*
X251502046Y-95275884D01*
X251422983Y-95287536D01*
X251358561Y-95297752D01*
X251296008Y-95304717D01*
X251251576Y-95306457D01*
X251224811Y-95308597D01*
X251180808Y-95319431D01*
X251118750Y-95340460D01*
X251034833Y-95372988D01*
X250925255Y-95418318D01*
X250743331Y-95494531D01*
X250562190Y-95569238D01*
X250399269Y-95635149D01*
X250256504Y-95691508D01*
X250135830Y-95737567D01*
X250039185Y-95772571D01*
X249968503Y-95795772D01*
X249925719Y-95806415D01*
X249913460Y-95808456D01*
X249847660Y-95823897D01*
X249763683Y-95848556D01*
X249671043Y-95879482D01*
X249579254Y-95913730D01*
X249546006Y-95926400D01*
X249472614Y-95952191D01*
X249389464Y-95979365D01*
X249303333Y-96005922D01*
X249220993Y-96029858D01*
X249149219Y-96049171D01*
X249094787Y-96061857D01*
X249064471Y-96065914D01*
X249060216Y-96065951D01*
X249023324Y-96073367D01*
X248968836Y-96090601D01*
X248906906Y-96114519D01*
X248904742Y-96115430D01*
X248856032Y-96135980D01*
X248782823Y-96166909D01*
X248690358Y-96206000D01*
X248583884Y-96251035D01*
X248468646Y-96299796D01*
X248349890Y-96350064D01*
X248348379Y-96350704D01*
X248158981Y-96430893D01*
X247997339Y-96499262D01*
X247861123Y-96556687D01*
X247748008Y-96604039D01*
X247655664Y-96642191D01*
X247581764Y-96672017D01*
X247523980Y-96694389D01*
X247479985Y-96710181D01*
X247447450Y-96720267D01*
X247424049Y-96725518D01*
X247407453Y-96726808D01*
X247395335Y-96725010D01*
X247385366Y-96720998D01*
X247375220Y-96715643D01*
X247328345Y-96678413D01*
X247304467Y-96624006D01*
X247310998Y-96558981D01*
X247322238Y-96533359D01*
X247369638Y-96482941D01*
X247446102Y-96447309D01*
X247454880Y-96436272D01*
X247442256Y-96413136D01*
X247409320Y-96383711D01*
X247360597Y-96352990D01*
X247340074Y-96340759D01*
X247289655Y-96305478D01*
X247239834Y-96265343D01*
X247214112Y-96243976D01*
X247167854Y-96210213D01*
X247131915Y-96189505D01*
X247123090Y-96185358D01*
X247080898Y-96159407D01*
X247036757Y-96125515D01*
X247017086Y-96109489D01*
X246962367Y-96069734D01*
X246905801Y-96033386D01*
X246880023Y-96017668D01*
X246822415Y-95979892D01*
X246775286Y-95945829D01*
X246756326Y-95932758D01*
X246700693Y-95904143D01*
X246619881Y-95871774D01*
X246511605Y-95834778D01*
X246373575Y-95792279D01*
X246346926Y-95786368D01*
X246284067Y-95777713D01*
X246201201Y-95770091D01*
X246105982Y-95764164D01*
X246006063Y-95760591D01*
X245935958Y-95758623D01*
X245844313Y-95754707D01*
X245765324Y-95749809D01*
X245705662Y-95744364D01*
X245671996Y-95738806D01*
X245631001Y-95727529D01*
X245570141Y-95711911D01*
X245504076Y-95695755D01*
X245440942Y-95678438D01*
X245379076Y-95657278D01*
X245335458Y-95637766D01*
X245276042Y-95609221D01*
X245161522Y-95576173D01*
X245045032Y-95566614D01*
X245012678Y-95566940D01*
X244960250Y-95564623D01*
X244925701Y-95559396D01*
X244911729Y-95557482D01*
X244867305Y-95557586D01*
X244804511Y-95561560D01*
X244732156Y-95568971D01*
X244690296Y-95573418D01*
X244619681Y-95578138D01*
X244562368Y-95578530D01*
X244527861Y-95574343D01*
X244484361Y-95565076D01*
X244431504Y-95561483D01*
X244431280Y-95561488D01*
X244373009Y-95560269D01*
X244294303Y-95555155D01*
X244206974Y-95547084D01*
X244122833Y-95536993D01*
X244074705Y-95534539D01*
X244006991Y-95536916D01*
X243936782Y-95543834D01*
X243870719Y-95551654D01*
X243798263Y-95558116D01*
X243741546Y-95561001D01*
X243720915Y-95561837D01*
X243667078Y-95568457D01*
X243628198Y-95579225D01*
X243613192Y-95585193D01*
X243562286Y-95600519D01*
X243494191Y-95617449D01*
X243418644Y-95633926D01*
X243345383Y-95647897D01*
X243284145Y-95657310D01*
X243244668Y-95660110D01*
X243222056Y-95659320D01*
X243168528Y-95658005D01*
X243098135Y-95656635D01*
X243020139Y-95655404D01*
X242969529Y-95653971D01*
X242885584Y-95648841D01*
X242810787Y-95641165D01*
X242756898Y-95631987D01*
X242726357Y-95626029D01*
X242660016Y-95620146D01*
X242604110Y-95623348D01*
X242558525Y-95629385D01*
X242491078Y-95634643D01*
X242420856Y-95637268D01*
X242362113Y-95640277D01*
X242297008Y-95650411D01*
X242223959Y-95669968D01*
X242132224Y-95701331D01*
X242075374Y-95720977D01*
X242001289Y-95743692D01*
X241938774Y-95759686D01*
X241897248Y-95766351D01*
X241881351Y-95767424D01*
X241849120Y-95772010D01*
X241807875Y-95781068D01*
X241753237Y-95795819D01*
X241680824Y-95817476D01*
X241586256Y-95847257D01*
X241465153Y-95886380D01*
X241442041Y-95893411D01*
X241359189Y-95913994D01*
X241265478Y-95932280D01*
X241177077Y-95944983D01*
X241132456Y-95950045D01*
X241085172Y-95956602D01*
X241042511Y-95965132D01*
X240998735Y-95977536D01*
X240948108Y-95995720D01*
X240884893Y-96021584D01*
X240803353Y-96057031D01*
X240697751Y-96103965D01*
X240596484Y-96149538D01*
X240507186Y-96190991D01*
X240440808Y-96223732D01*
X240393494Y-96249768D01*
X240361390Y-96271103D01*
X240340641Y-96289743D01*
X240324367Y-96304644D01*
X240279188Y-96337906D01*
X240218597Y-96377013D01*
X240151089Y-96416294D01*
X240136973Y-96424048D01*
X240073667Y-96458054D01*
X240030615Y-96478574D01*
X240000939Y-96487911D01*
X239977768Y-96488369D01*
X239954226Y-96482250D01*
X239917661Y-96464437D01*
X239895247Y-96442732D01*
X239893976Y-96440334D01*
X239871047Y-96414516D01*
X239834919Y-96385956D01*
X239790529Y-96349002D01*
X239751735Y-96305468D01*
X239740204Y-96291532D01*
X239697201Y-96252891D01*
X239646698Y-96219275D01*
X239630721Y-96210481D01*
X239566766Y-96174500D01*
X239507285Y-96140100D01*
X239492168Y-96131554D01*
X239440162Y-96104323D01*
X239370676Y-96069671D01*
X239291479Y-96031297D01*
X239210343Y-95992896D01*
X239135040Y-95958166D01*
X239073339Y-95930801D01*
X239033013Y-95914499D01*
X239025464Y-95911492D01*
X238983720Y-95888850D01*
X238939035Y-95857990D01*
X238928030Y-95849720D01*
X238884914Y-95822070D01*
X238850609Y-95806495D01*
X238842007Y-95803552D01*
X238803484Y-95783300D01*
X238760337Y-95753560D01*
X238758189Y-95751891D01*
X238705061Y-95714280D01*
X238645502Y-95677380D01*
X238587783Y-95645740D01*
X238540172Y-95623905D01*
X238510939Y-95616424D01*
X238495352Y-95613436D01*
X238456407Y-95597503D01*
X238408743Y-95572175D01*
X238379825Y-95555719D01*
X238322665Y-95525640D01*
X238276122Y-95504004D01*
X238269946Y-95501398D01*
X238232903Y-95481688D01*
X238213434Y-95464308D01*
X238212293Y-95462399D01*
X238189242Y-95445472D01*
X238150105Y-95428884D01*
X238146457Y-95427650D01*
X238093875Y-95403434D01*
X238043884Y-95371642D01*
X238035691Y-95366041D01*
X237993330Y-95343242D01*
X237929693Y-95313814D01*
X237851913Y-95280950D01*
X237767125Y-95247839D01*
X237744927Y-95239468D01*
X237655653Y-95204718D01*
X237571233Y-95170311D01*
X237500292Y-95139829D01*
X237451455Y-95116849D01*
X237423852Y-95103310D01*
X237320177Y-95061741D01*
X237207822Y-95028127D01*
X237098848Y-95005692D01*
X237005318Y-94997657D01*
X236941795Y-94997445D01*
X236844096Y-94995733D01*
X236751869Y-94992619D01*
X236671911Y-94988412D01*
X236611024Y-94983426D01*
X236576006Y-94977971D01*
X236555188Y-94975880D01*
X236500850Y-94986961D01*
X236434064Y-95014287D01*
X236361920Y-95053396D01*
X236291513Y-95099830D01*
X236229935Y-95149128D01*
X236184281Y-95196831D01*
X236161644Y-95238481D01*
X236151596Y-95259899D01*
X236131373Y-95293960D01*
X236123872Y-95308432D01*
X236108196Y-95358971D01*
X236100071Y-95416278D01*
X236099989Y-95429424D01*
X236106066Y-95488669D01*
X236120143Y-95566858D01*
X236140054Y-95654940D01*
X236163627Y-95743861D01*
X236188694Y-95824566D01*
X236213086Y-95888004D01*
X236214196Y-95890520D01*
X236232168Y-95948172D01*
X236241043Y-96007836D01*
X236244611Y-96026792D01*
X236261183Y-96077603D01*
X236289630Y-96151316D01*
X236328184Y-96244158D01*
X236375082Y-96352352D01*
X236428558Y-96472125D01*
X236486847Y-96599700D01*
X236548184Y-96731304D01*
X236610803Y-96863160D01*
X236672938Y-96991495D01*
X236732826Y-97112533D01*
X236788701Y-97222499D01*
X236838797Y-97317619D01*
X236881349Y-97394117D01*
X236914592Y-97448219D01*
X236942781Y-97488861D01*
X237022561Y-97594204D01*
X237111736Y-97701032D01*
X237203725Y-97801989D01*
X237291944Y-97889719D01*
X237369811Y-97956868D01*
X237414802Y-97995337D01*
X237475784Y-98057518D01*
X237523481Y-98117410D01*
X237553518Y-98159006D01*
X237592031Y-98205707D01*
X237622793Y-98235995D01*
X237645326Y-98258576D01*
X237682476Y-98303122D01*
X237727585Y-98361936D01*
X237775325Y-98428303D01*
X237818006Y-98488222D01*
X237866108Y-98552774D01*
X237907635Y-98605476D01*
X237936746Y-98638710D01*
X237941230Y-98643233D01*
X237978785Y-98682509D01*
X238027142Y-98734628D01*
X238077003Y-98789584D01*
X238099603Y-98814511D01*
X238186550Y-98904806D01*
X238267756Y-98980569D01*
X238338751Y-99037822D01*
X238395067Y-99072587D01*
X238416327Y-99083529D01*
X238448858Y-99111955D01*
X238467242Y-99156081D01*
X238470313Y-99167193D01*
X238486830Y-99219270D01*
X238505413Y-99257846D01*
X238533421Y-99298790D01*
X238544289Y-99318517D01*
X238562414Y-99372526D01*
X238578016Y-99442444D01*
X238589289Y-99517635D01*
X238594425Y-99587461D01*
X238591617Y-99641284D01*
X238589781Y-99659281D01*
X238591175Y-99713941D01*
X238599309Y-99772870D01*
X238605800Y-99818999D01*
X238610176Y-99892570D01*
X238609263Y-99965205D01*
X238608890Y-100021812D01*
X238615136Y-100094947D01*
X238627238Y-100153740D01*
X238633217Y-100175289D01*
X238644155Y-100239122D01*
X238645576Y-100294829D01*
X238644833Y-100310924D01*
X238646938Y-100366123D01*
X238653613Y-100437227D01*
X238663907Y-100512906D01*
X238668793Y-100545268D01*
X238678397Y-100620503D01*
X238684576Y-100686327D01*
X238686172Y-100731366D01*
X238686151Y-100732040D01*
X238688564Y-100781081D01*
X238696802Y-100847455D01*
X238709117Y-100916997D01*
X238709165Y-100917227D01*
X238721701Y-100987829D01*
X238730393Y-101056205D01*
X238733360Y-101107581D01*
X238733422Y-101122047D01*
X238737143Y-101170577D01*
X238744780Y-101203306D01*
X238747641Y-101210297D01*
X238760107Y-101249434D01*
X238776193Y-101307934D01*
X238793851Y-101377318D01*
X238811032Y-101449112D01*
X238825689Y-101514837D01*
X238835773Y-101566018D01*
X238839236Y-101594179D01*
X238840847Y-101612068D01*
X238850397Y-101657045D01*
X238865843Y-101710943D01*
X238886706Y-101780235D01*
X238911210Y-101870277D01*
X238935338Y-101966293D01*
X238956843Y-102058965D01*
X238973478Y-102138975D01*
X238982998Y-102197003D01*
X238991587Y-102239561D01*
X239009846Y-102305558D01*
X239034814Y-102384023D01*
X239063727Y-102465750D01*
X239118165Y-102613203D01*
X239161995Y-102735844D01*
X239195490Y-102835025D01*
X239219691Y-102914149D01*
X239235636Y-102976617D01*
X239244366Y-103025834D01*
X239246920Y-103065201D01*
X239246914Y-103068170D01*
X239250057Y-103114357D01*
X239261063Y-103163049D01*
X239282506Y-103222980D01*
X239316960Y-103302887D01*
X239346272Y-103368994D01*
X239409034Y-103520871D01*
X239454627Y-103649406D01*
X239483923Y-103757240D01*
X239497801Y-103847004D01*
X239504605Y-103903812D01*
X239517028Y-103966609D01*
X239531403Y-104011566D01*
X239532631Y-104014314D01*
X239548250Y-104059351D01*
X239565339Y-104122671D01*
X239580410Y-104191481D01*
X239589040Y-104232586D01*
X239614514Y-104318052D01*
X239647434Y-104382933D01*
X239656743Y-104399085D01*
X239680955Y-104446487D01*
X239715145Y-104517142D01*
X239757403Y-104606967D01*
X239805814Y-104711877D01*
X239858465Y-104827790D01*
X239913443Y-104950623D01*
X240136598Y-105452918D01*
X240198801Y-105496413D01*
X240221108Y-105513751D01*
X240271504Y-105561307D01*
X240316084Y-105612726D01*
X240340428Y-105641823D01*
X240408768Y-105708178D01*
X240494218Y-105777698D01*
X240588018Y-105843984D01*
X240681411Y-105900634D01*
X240765636Y-105941247D01*
X240776950Y-105946052D01*
X240827545Y-105973725D01*
X240865957Y-106003529D01*
X240868367Y-106005873D01*
X240900166Y-106028038D01*
X240948435Y-106054081D01*
X241004174Y-106080044D01*
X241058380Y-106101973D01*
X241102053Y-106115911D01*
X241126189Y-106117902D01*
X241136478Y-106117188D01*
X241172030Y-106121832D01*
X241221114Y-106132213D01*
X241247996Y-106138731D01*
X241380690Y-106169737D01*
X241489292Y-106192309D01*
X241579953Y-106207078D01*
X241658828Y-106214682D01*
X241732070Y-106215754D01*
X241805829Y-106210929D01*
X241886259Y-106200843D01*
X241904023Y-106198159D01*
X241946025Y-106190733D01*
X241989502Y-106180956D01*
X242039320Y-106167349D01*
X242100348Y-106148436D01*
X242177454Y-106122737D01*
X242275507Y-106088777D01*
X242399373Y-106045075D01*
X242541286Y-105995187D01*
X242656065Y-105955885D01*
X242746599Y-105926318D01*
X242816037Y-105905547D01*
X242867523Y-105892627D01*
X242904208Y-105886618D01*
X242929236Y-105886581D01*
X242954235Y-105887932D01*
X243001790Y-105882714D01*
X243062930Y-105867463D01*
X243141527Y-105840965D01*
X243241456Y-105802005D01*
X243366588Y-105749366D01*
X243456967Y-105709724D01*
X243528768Y-105676132D01*
X243579695Y-105649058D01*
X243614727Y-105625839D01*
X243638848Y-105603812D01*
X243643295Y-105599115D01*
X243690124Y-105560132D01*
X243742334Y-105528765D01*
X243782582Y-105506900D01*
X243839708Y-105470971D01*
X243897226Y-105430832D01*
X243908111Y-105422931D01*
X243972870Y-105379502D01*
X244049468Y-105332274D01*
X244123572Y-105290155D01*
X244180695Y-105257486D01*
X244258631Y-105205005D01*
X244313720Y-105156821D01*
X244334198Y-105134935D01*
X244369688Y-105097866D01*
X244393322Y-105074309D01*
X244403420Y-105056314D01*
X244400651Y-105022390D01*
X244394218Y-105003920D01*
X244393691Y-104945546D01*
X244416113Y-104887808D01*
X244457520Y-104843205D01*
X244465084Y-104837815D01*
X244518534Y-104791613D01*
X244583386Y-104725301D01*
X244654380Y-104645239D01*
X244726256Y-104557788D01*
X244793753Y-104469307D01*
X244851613Y-104386159D01*
X244894574Y-104314703D01*
X244907552Y-104288105D01*
X244935682Y-104217866D01*
X244956659Y-104149450D01*
X244966027Y-104110956D01*
X244991861Y-104007195D01*
X245012425Y-103929780D01*
X245029075Y-103874479D01*
X245043168Y-103837065D01*
X245056062Y-103813304D01*
X245069113Y-103798967D01*
X245116531Y-103776612D01*
X245171483Y-103778631D01*
X245223293Y-103803634D01*
X245264222Y-103847773D01*
X245286527Y-103907192D01*
X245287752Y-103921279D01*
X245284853Y-103976414D01*
X245274442Y-104050065D01*
X245258422Y-104133741D01*
X245238698Y-104218950D01*
X245217172Y-104297199D01*
X245195748Y-104359998D01*
X245176330Y-104398856D01*
X245173137Y-104403460D01*
X245152973Y-104438672D01*
X245130870Y-104483992D01*
X245128444Y-104489237D01*
X245098397Y-104541957D01*
X245064612Y-104586998D01*
X245045867Y-104609562D01*
X245038586Y-104628155D01*
X245055219Y-104628610D01*
X245094196Y-104611488D01*
X245153944Y-104577353D01*
X245232896Y-104526765D01*
X245284163Y-104492082D01*
X245338544Y-104452439D01*
X245384076Y-104413734D01*
X245427865Y-104369195D01*
X245477022Y-104312049D01*
X245538655Y-104235529D01*
X245549586Y-104221871D01*
X245612111Y-104147206D01*
X245675596Y-104076355D01*
X245733187Y-104016757D01*
X245778024Y-103975849D01*
X245827565Y-103934051D01*
X245871954Y-103893017D01*
X245900144Y-103862813D01*
X245900732Y-103862064D01*
X245921679Y-103842659D01*
X245958718Y-103818435D01*
X246015366Y-103787465D01*
X246095143Y-103747817D01*
X246201570Y-103697562D01*
X246251598Y-103674454D01*
X246351928Y-103629545D01*
X246434747Y-103595305D01*
X246508132Y-103568711D01*
X246580160Y-103546738D01*
X246658912Y-103526361D01*
X246749711Y-103505006D01*
X246818346Y-103491706D01*
X246874129Y-103486152D01*
X246926427Y-103488030D01*
X246984600Y-103497021D01*
X247058014Y-103512804D01*
X247128195Y-103527612D01*
X247197552Y-103540409D01*
X247250281Y-103548252D01*
X247265662Y-103550334D01*
X247318312Y-103561925D01*
X247356925Y-103576662D01*
X247391382Y-103586678D01*
X247426277Y-103569366D01*
X247455140Y-103552128D01*
X247518686Y-103532292D01*
X247591717Y-103523959D01*
X247660541Y-103529461D01*
X247662789Y-103529931D01*
X247723220Y-103539193D01*
X247784517Y-103544099D01*
X247788934Y-103544269D01*
X247851082Y-103551676D01*
X247911686Y-103565587D01*
X247943291Y-103572852D01*
X248004614Y-103582509D01*
X248081217Y-103591624D01*
X248163469Y-103598923D01*
X248232323Y-103604738D01*
X248301881Y-103612392D01*
X248354587Y-103620182D01*
X248382558Y-103627095D01*
X248383089Y-103627343D01*
X248421100Y-103637879D01*
X248469248Y-103643232D01*
X248524785Y-103649712D01*
X248581713Y-103663303D01*
X248620933Y-103674621D01*
X248717214Y-103694973D01*
X248824185Y-103710071D01*
X248927185Y-103717613D01*
X248968050Y-103720642D01*
X249041817Y-103732375D01*
X249104115Y-103749186D01*
X249116378Y-103753678D01*
X249246720Y-103803298D01*
X249350509Y-103847032D01*
X249432386Y-103887135D01*
X249496997Y-103925868D01*
X249548987Y-103965489D01*
X249579674Y-103991136D01*
X249624948Y-104022313D01*
X249666073Y-104037794D01*
X249714636Y-104042999D01*
X249781067Y-104046694D01*
X249879318Y-104060576D01*
X249952800Y-104084708D01*
X250005887Y-104120250D01*
X250024156Y-104139721D01*
X250056490Y-104195878D01*
X250064881Y-104252654D01*
X250047325Y-104301281D01*
X250032146Y-104318744D01*
X250002490Y-104339068D01*
X249962023Y-104349919D01*
X249905506Y-104351763D01*
X249827696Y-104345072D01*
X249723354Y-104330315D01*
X249706756Y-104327719D01*
X249621066Y-104313739D01*
X249559425Y-104301528D01*
X249514704Y-104288571D01*
X249479774Y-104272355D01*
X249447508Y-104250367D01*
X249410775Y-104220091D01*
X249354743Y-104179181D01*
X249268996Y-104129880D01*
X249171561Y-104083764D01*
X249071946Y-104044869D01*
X248979653Y-104017234D01*
X248904189Y-104004895D01*
X248860859Y-104001218D01*
X248791316Y-103992452D01*
X248712260Y-103980407D01*
X248632076Y-103966548D01*
X248559152Y-103952344D01*
X248501870Y-103939258D01*
X248468621Y-103928756D01*
X248450121Y-103922953D01*
X248419369Y-103924579D01*
X248407149Y-103926332D01*
X248368644Y-103921845D01*
X248318812Y-103909400D01*
X248307254Y-103906163D01*
X248246388Y-103894044D01*
X248170156Y-103883989D01*
X248092305Y-103877909D01*
X248071693Y-103876754D01*
X247994312Y-103869495D01*
X247923200Y-103858856D01*
X247871555Y-103846705D01*
X247852965Y-103841257D01*
X247783201Y-103827304D01*
X247715450Y-103821141D01*
X247665265Y-103820209D01*
X247562772Y-103816480D01*
X247491203Y-103810761D01*
X247451403Y-103803107D01*
X247448221Y-103802213D01*
X247413898Y-103804343D01*
X247370816Y-103818768D01*
X247317573Y-103833512D01*
X247250582Y-103833409D01*
X247238353Y-103831539D01*
X247190773Y-103825953D01*
X247158299Y-103824640D01*
X247158120Y-103824652D01*
X247129407Y-103821732D01*
X247079860Y-103812460D01*
X247020098Y-103798822D01*
X246957182Y-103784696D01*
X246894528Y-103776336D01*
X246834256Y-103777382D01*
X246765249Y-103788162D01*
X246676388Y-103809005D01*
X246651622Y-103815773D01*
X246570113Y-103842724D01*
X246477718Y-103878539D01*
X246381410Y-103919990D01*
X246288154Y-103963849D01*
X246204924Y-104006887D01*
X246138688Y-104045877D01*
X246096415Y-104077592D01*
X246076264Y-104096274D01*
X246025676Y-104139970D01*
X245973337Y-104182120D01*
X245966038Y-104188036D01*
X245924941Y-104226974D01*
X245871592Y-104283654D01*
X245812083Y-104351411D01*
X245752508Y-104423584D01*
X245719951Y-104463998D01*
X245660646Y-104534202D01*
X245605614Y-104592554D01*
X245548363Y-104644732D01*
X245482408Y-104696415D01*
X245401258Y-104753283D01*
X245298424Y-104821013D01*
X245279582Y-104833370D01*
X245226136Y-104870107D01*
X245185060Y-104900803D01*
X245164018Y-104919822D01*
X245160870Y-104922998D01*
X245133235Y-104942151D01*
X245083950Y-104971556D01*
X245018861Y-105007821D01*
X244943813Y-105047556D01*
X244872895Y-105085338D01*
X244755572Y-105153936D01*
X244660059Y-105218412D01*
X244589396Y-105276632D01*
X244546621Y-105326464D01*
X244520404Y-105357998D01*
X244459706Y-105408363D01*
X244371867Y-105466375D01*
X244259092Y-105530473D01*
X244244597Y-105538333D01*
X244181899Y-105574523D01*
X244127529Y-105609094D01*
X244091909Y-105635499D01*
X244081605Y-105644031D01*
X244032547Y-105677544D01*
X243978723Y-105706918D01*
X243964771Y-105713946D01*
X243909876Y-105749233D01*
X243865369Y-105788045D01*
X243847577Y-105804920D01*
X243809935Y-105832132D01*
X243754357Y-105865002D01*
X243676789Y-105905874D01*
X243573175Y-105957096D01*
X243480617Y-106000702D01*
X243316112Y-106071228D01*
X243169940Y-106124218D01*
X243044579Y-106158822D01*
X242942503Y-106174187D01*
X242916875Y-106176372D01*
X242845884Y-106186759D01*
X242783513Y-106200987D01*
X242769480Y-106205229D01*
X242730961Y-106220019D01*
X242713494Y-106236885D01*
X242708385Y-106263005D01*
X242708557Y-106279234D01*
X242728519Y-106342463D01*
X242776296Y-106403977D01*
X242848043Y-106461529D01*
X242939909Y-106512871D01*
X243048049Y-106555758D01*
X243168616Y-106587942D01*
X243297762Y-106607178D01*
X243304579Y-106607788D01*
X243362783Y-106612215D01*
X243406522Y-106614194D01*
X243426777Y-106613299D01*
X243437847Y-106613142D01*
X243473735Y-106618622D01*
X243523508Y-106629344D01*
X243556170Y-106635983D01*
X243612759Y-106642617D01*
X243654237Y-106641499D01*
X243699263Y-106638325D01*
X243751910Y-106642777D01*
X243759656Y-106643829D01*
X243811441Y-106642605D01*
X243881027Y-106632860D01*
X243957782Y-106616752D01*
X244031069Y-106596439D01*
X244090258Y-106574082D01*
X244091253Y-106573623D01*
X244139130Y-106557525D01*
X244181903Y-106552114D01*
X244212275Y-106551707D01*
X244258449Y-106545217D01*
X244316152Y-106531215D01*
X244387950Y-106508765D01*
X244476411Y-106476936D01*
X244584101Y-106434794D01*
X244713587Y-106381406D01*
X244867434Y-106315838D01*
X245048211Y-106237158D01*
X245076052Y-106224957D01*
X245261886Y-106143935D01*
X245420596Y-106075611D01*
X245554412Y-106019108D01*
X245665564Y-105973552D01*
X245756281Y-105938067D01*
X245828794Y-105911776D01*
X245885330Y-105893805D01*
X245928122Y-105883278D01*
X245959397Y-105879319D01*
X246006368Y-105871965D01*
X246058210Y-105854665D01*
X246090005Y-105841532D01*
X246164559Y-105816610D01*
X246256778Y-105790447D01*
X246357426Y-105765292D01*
X246457271Y-105743395D01*
X246547077Y-105727005D01*
X246617612Y-105718373D01*
X246618117Y-105718338D01*
X246697284Y-105710554D01*
X246779047Y-105698910D01*
X246845786Y-105685914D01*
X246888834Y-105676914D01*
X246954687Y-105667247D01*
X247006867Y-105664173D01*
X247016302Y-105664211D01*
X247078122Y-105658611D01*
X247139012Y-105645895D01*
X247143525Y-105644606D01*
X247171263Y-105638069D01*
X247204445Y-105633139D01*
X247247606Y-105629624D01*
X247305286Y-105627332D01*
X247382019Y-105626069D01*
X247482344Y-105625646D01*
X247610798Y-105625865D01*
X247685043Y-105624900D01*
X247761985Y-105621880D01*
X247823159Y-105617469D01*
X247849048Y-105615312D01*
X247920557Y-105612740D01*
X247983940Y-105614410D01*
X248015401Y-105615478D01*
X248084735Y-105612822D01*
X248153058Y-105605299D01*
X248194235Y-105600578D01*
X248246172Y-105599771D01*
X248279406Y-105605700D01*
X248281962Y-105606770D01*
X248316909Y-105613882D01*
X248372289Y-105618779D01*
X248437334Y-105620454D01*
X248494842Y-105622174D01*
X248577589Y-105633978D01*
X248659288Y-105659407D01*
X248748279Y-105701315D01*
X248852909Y-105762555D01*
X248867271Y-105771439D01*
X248941949Y-105815930D01*
X249018160Y-105859088D01*
X249081441Y-105892680D01*
X249130752Y-105917574D01*
X249203870Y-105954772D01*
X249286684Y-105997112D01*
X249369044Y-106039417D01*
X249372554Y-106041219D01*
X249448528Y-106078029D01*
X249519084Y-106108408D01*
X249576489Y-106129249D01*
X249613010Y-106137445D01*
X249642669Y-106140423D01*
X249702260Y-106151454D01*
X249764745Y-106167392D01*
X249803405Y-106178692D01*
X249872773Y-106198393D01*
X249930769Y-106214229D01*
X249960876Y-106222312D01*
X250023020Y-106239344D01*
X250099142Y-106260465D01*
X250179047Y-106282855D01*
X250238252Y-106298839D01*
X250311772Y-106316802D01*
X250372247Y-106329486D01*
X250410554Y-106334843D01*
X250418545Y-106335775D01*
X250460855Y-106345998D01*
X250526937Y-106365958D01*
X250611879Y-106393853D01*
X250710769Y-106427873D01*
X250818696Y-106466216D01*
X250930745Y-106507074D01*
X251042007Y-106548642D01*
X251147568Y-106589115D01*
X251242518Y-106626685D01*
X251321942Y-106659550D01*
X251380932Y-106685901D01*
X251414573Y-106703933D01*
X251442069Y-106720129D01*
X251506818Y-106748013D01*
X251572909Y-106766708D01*
X251627855Y-106778726D01*
X251705383Y-106798552D01*
X251779246Y-106819977D01*
X251791013Y-106823633D01*
X251887751Y-106850751D01*
X251983052Y-106870997D01*
X252093967Y-106888060D01*
X252104065Y-106889453D01*
X252171066Y-106899663D01*
X252257181Y-106913854D01*
X252351600Y-106930169D01*
X252443514Y-106946745D01*
X252522114Y-106961725D01*
X252620221Y-106981193D01*
X252786469Y-106891793D01*
X252842235Y-106861059D01*
X252913185Y-106818063D01*
X252962036Y-106781783D01*
X252993864Y-106748714D01*
X253009801Y-106729290D01*
X253054216Y-106681392D01*
X253101933Y-106635744D01*
X253122023Y-106616672D01*
X253173780Y-106558960D01*
X253216552Y-106500794D01*
X253231378Y-106475123D01*
X253264363Y-106403230D01*
X253293402Y-106321470D01*
X253315684Y-106239535D01*
X253328396Y-106167128D01*
X253328726Y-106113943D01*
X253326448Y-106056661D01*
X253334570Y-105999006D01*
X253337599Y-105985002D01*
X253342135Y-105926587D01*
X253338032Y-105866166D01*
X253335872Y-105849840D01*
X253333266Y-105785368D01*
X253338382Y-105728381D01*
X253340581Y-105713938D01*
X253341962Y-105652746D01*
X253334423Y-105591266D01*
X253331567Y-105576878D01*
X253323058Y-105508801D01*
X253321228Y-105445047D01*
X253318932Y-105403905D01*
X253306370Y-105336205D01*
X253285909Y-105267053D01*
X253270278Y-105218241D01*
X253250512Y-105095150D01*
X253259213Y-104965935D01*
X253260597Y-104943021D01*
X253254947Y-104883452D01*
X253240745Y-104811425D01*
X253220480Y-104738481D01*
X253196645Y-104676160D01*
X253186526Y-104645694D01*
X253175407Y-104587659D01*
X253169536Y-104523881D01*
X253165494Y-104468491D01*
X253155194Y-104385307D01*
X253141666Y-104308028D01*
X253131333Y-104246763D01*
X253124527Y-104175447D01*
X253124550Y-104118969D01*
X253125627Y-104103120D01*
X253122075Y-104020119D01*
X253106007Y-103933511D01*
X253080176Y-103852355D01*
X253047334Y-103785712D01*
X253010233Y-103742643D01*
X253004059Y-103736751D01*
X252979324Y-103703864D01*
X252944677Y-103650311D01*
X252903637Y-103582185D01*
X252859730Y-103505577D01*
X252816478Y-103426580D01*
X252777404Y-103351284D01*
X252746032Y-103285784D01*
X252742360Y-103277931D01*
X252713604Y-103224753D01*
X252674140Y-103160003D01*
X252631371Y-103095941D01*
X252620323Y-103080089D01*
X252580564Y-103020727D01*
X252547550Y-102968067D01*
X252527520Y-102931963D01*
X252514392Y-102893721D01*
X252513711Y-102831119D01*
X252538411Y-102779706D01*
X252584742Y-102745571D01*
X252648957Y-102734803D01*
X252680020Y-102740428D01*
X252720402Y-102761984D01*
X252763453Y-102802292D01*
X252811634Y-102864208D01*
X252867410Y-102950587D01*
X252933245Y-103064286D01*
X252940843Y-103077884D01*
X253012183Y-103205209D01*
X253069840Y-103307254D01*
X253115662Y-103387088D01*
X253151494Y-103447780D01*
X253179186Y-103492401D01*
X253200584Y-103524021D01*
X253217536Y-103545710D01*
X253231889Y-103560537D01*
X253262192Y-103595952D01*
X253303364Y-103667682D01*
X253341195Y-103758288D01*
X253373251Y-103859752D01*
X253397101Y-103964056D01*
X253410310Y-104063183D01*
X253410448Y-104149115D01*
X253408656Y-104175681D01*
X253409074Y-104224045D01*
X253414395Y-104254167D01*
X253415693Y-104257269D01*
X253424867Y-104291570D01*
X253434946Y-104344534D01*
X253444481Y-104406016D01*
X253452020Y-104465877D01*
X253456111Y-104513975D01*
X253455306Y-104540169D01*
X253455194Y-104540543D01*
X253457495Y-104568820D01*
X253471310Y-104608125D01*
X253476266Y-104619256D01*
X253504851Y-104705475D01*
X253526479Y-104807960D01*
X253538767Y-104912764D01*
X253539328Y-105005943D01*
X253538742Y-105014367D01*
X253538115Y-105092739D01*
X253548883Y-105167258D01*
X253573262Y-105254141D01*
X253591874Y-105319594D01*
X253608134Y-105401955D01*
X253612785Y-105467914D01*
X253612461Y-105492969D01*
X253615540Y-105554071D01*
X253622815Y-105602395D01*
X253625087Y-105613313D01*
X253629623Y-105668163D01*
X253626971Y-105726618D01*
X253625634Y-105738479D01*
X253622305Y-105800137D01*
X253624548Y-105855160D01*
X253631620Y-105894927D01*
X253642784Y-105910817D01*
X253649366Y-105910243D01*
X253681375Y-105903156D01*
X253726950Y-105890439D01*
X253783098Y-105878177D01*
X253876055Y-105869871D01*
X253971220Y-105872041D01*
X254052114Y-105884964D01*
X254062443Y-105887573D01*
X254104632Y-105894647D01*
X254130602Y-105893401D01*
X254153361Y-105894782D01*
X254196941Y-105906217D01*
X254251738Y-105925251D01*
X254263834Y-105929701D01*
X254375534Y-105956929D01*
X254507726Y-105968153D01*
X254528893Y-105968704D01*
X254656664Y-105979119D01*
X254754333Y-106001206D01*
X254822305Y-106035101D01*
X254860987Y-106080929D01*
X254871452Y-106109071D01*
X254873793Y-106166783D01*
X254848566Y-106213510D01*
X254798705Y-106246857D01*
X254727145Y-106264432D01*
X254636818Y-106263840D01*
X254587963Y-106259752D01*
X254512206Y-106256492D01*
X254448537Y-106257016D01*
X254420429Y-106256537D01*
X254355349Y-106249108D01*
X254277151Y-106234993D01*
X254197140Y-106216035D01*
X254190029Y-106214124D01*
X254081865Y-106186220D01*
X253997213Y-106167688D01*
X253928926Y-106157850D01*
X253869858Y-106156028D01*
X253812860Y-106161545D01*
X253750786Y-106173725D01*
X253628611Y-106201599D01*
X253601848Y-106271594D01*
X253597531Y-106283431D01*
X253577927Y-106349541D01*
X253564563Y-106413291D01*
X253543421Y-106491586D01*
X253496720Y-106589795D01*
X253429684Y-106691744D01*
X253346351Y-106790454D01*
X253326317Y-106811798D01*
X253279360Y-106864026D01*
X253241903Y-106908699D01*
X253220648Y-106937948D01*
X253216987Y-106943589D01*
X253183531Y-106977014D01*
X253138915Y-107005603D01*
X253134842Y-107007606D01*
X253078958Y-107039259D01*
X253026458Y-107074704D01*
X252999640Y-107092137D01*
X252945326Y-107122251D01*
X252876472Y-107157036D01*
X252801775Y-107191955D01*
X252736058Y-107221180D01*
X252681206Y-107243862D01*
X252640754Y-107256496D01*
X252606453Y-107260856D01*
X252570056Y-107258717D01*
X252523314Y-107251852D01*
X252469818Y-107243092D01*
X252409138Y-107232464D01*
X252366217Y-107224160D01*
X252305282Y-107212365D01*
X252222183Y-107198187D01*
X252131427Y-107184002D01*
X252045645Y-107171783D01*
X251977471Y-107163500D01*
X251959523Y-107161099D01*
X251896357Y-107148397D01*
X251820040Y-107128917D01*
X251743297Y-107105795D01*
X251720151Y-107098341D01*
X251635602Y-107073044D01*
X251551401Y-107050278D01*
X251482773Y-107034225D01*
X251425392Y-107019247D01*
X251354587Y-106993397D01*
X251298982Y-106965268D01*
X251285501Y-106957517D01*
X251234685Y-106933259D01*
X251160540Y-106901592D01*
X251068424Y-106864487D01*
X250963697Y-106823916D01*
X250851719Y-106781845D01*
X250737849Y-106740246D01*
X250627447Y-106701089D01*
X250525870Y-106666343D01*
X250438481Y-106637979D01*
X250370638Y-106617965D01*
X250327699Y-106608274D01*
X250302472Y-106604446D01*
X250239084Y-106592053D01*
X250187460Y-106578548D01*
X250160757Y-106570575D01*
X250100931Y-106554884D01*
X250037716Y-106540237D01*
X250019362Y-106536245D01*
X249953312Y-106520674D01*
X249879028Y-106501124D01*
X249788907Y-106475527D01*
X249675346Y-106441821D01*
X249631590Y-106430198D01*
X249574735Y-106419272D01*
X249534265Y-106416388D01*
X249522615Y-106415664D01*
X249478917Y-106403935D01*
X249420169Y-106380921D01*
X249355731Y-106350096D01*
X249332007Y-106337754D01*
X249247857Y-106294676D01*
X249155721Y-106248295D01*
X249071654Y-106206717D01*
X249021215Y-106182005D01*
X248959526Y-106151163D01*
X248909051Y-106124502D01*
X248860078Y-106096623D01*
X248802891Y-106062129D01*
X248727776Y-106015621D01*
X248639274Y-105964904D01*
X248550549Y-105926983D01*
X248465633Y-105907386D01*
X248374819Y-105903018D01*
X248325602Y-105902809D01*
X248272315Y-105899409D01*
X248238853Y-105893395D01*
X248232283Y-105891525D01*
X248190449Y-105888368D01*
X248139852Y-105892992D01*
X248127477Y-105894802D01*
X248072397Y-105899393D01*
X248000908Y-105902129D01*
X247925254Y-105902469D01*
X247893772Y-105902247D01*
X247829605Y-105903249D01*
X247780751Y-105906000D01*
X247755882Y-105910109D01*
X247754308Y-105910718D01*
X247725339Y-105914482D01*
X247674855Y-105915803D01*
X247612739Y-105914387D01*
X247570838Y-105912600D01*
X247443528Y-105908639D01*
X247341557Y-105908372D01*
X247259364Y-105912002D01*
X247191393Y-105919728D01*
X247132085Y-105931752D01*
X247080262Y-105942940D01*
X247014246Y-105952944D01*
X246963191Y-105956064D01*
X246959741Y-105955988D01*
X246896973Y-105959859D01*
X246835714Y-105970737D01*
X246824107Y-105973516D01*
X246770657Y-105983641D01*
X246700586Y-105994441D01*
X246625940Y-106004008D01*
X246576455Y-106010868D01*
X246486314Y-106027194D01*
X246386056Y-106048742D01*
X246284152Y-106073419D01*
X246189076Y-106099135D01*
X246109302Y-106123800D01*
X246053301Y-106145322D01*
X246052983Y-106145470D01*
X246004063Y-106163405D01*
X245959354Y-106172640D01*
X245935539Y-106175102D01*
X245906242Y-106180390D01*
X245871661Y-106189475D01*
X245828733Y-106203553D01*
X245774392Y-106223825D01*
X245705572Y-106251487D01*
X245619211Y-106287739D01*
X245512241Y-106333776D01*
X245381598Y-106390799D01*
X245224219Y-106460004D01*
X245178632Y-106480064D01*
X244978902Y-106567101D01*
X244806234Y-106640748D01*
X244658711Y-106701742D01*
X244534418Y-106750823D01*
X244431438Y-106788730D01*
X244347855Y-106816201D01*
X244281753Y-106833973D01*
X244231216Y-106842786D01*
X244185892Y-106849781D01*
X244119039Y-106863651D01*
X244050634Y-106880683D01*
X243976450Y-106899662D01*
X243895424Y-106917319D01*
X243826299Y-106929171D01*
X243775566Y-106934132D01*
X243749723Y-106931111D01*
X243734661Y-106927275D01*
X243694219Y-106923720D01*
X243640324Y-106922613D01*
X243598697Y-106921686D01*
X243518209Y-106915819D01*
X243443315Y-106906241D01*
X243394846Y-106899276D01*
X243340063Y-106894226D01*
X243304039Y-106894286D01*
X243287943Y-106895440D01*
X243226178Y-106891380D01*
X243145729Y-106878164D01*
X243055271Y-106857671D01*
X242963475Y-106831773D01*
X242879010Y-106802347D01*
X242777975Y-106758616D01*
X242683565Y-106704468D01*
X242609867Y-106642232D01*
X242550453Y-106566302D01*
X242498894Y-106471079D01*
X242471541Y-106416015D01*
X242440855Y-106367048D01*
X242417213Y-106347441D01*
X242402154Y-106348056D01*
X242359923Y-106357988D01*
X242300616Y-106376609D01*
X242232004Y-106401644D01*
X242093567Y-106447056D01*
X241886463Y-106485899D01*
X241669952Y-106493488D01*
X241443964Y-106469827D01*
X241415956Y-106465030D01*
X241253580Y-106435685D01*
X241119094Y-106408098D01*
X241008494Y-106381068D01*
X240917777Y-106353399D01*
X240842937Y-106323890D01*
X240779971Y-106291344D01*
X240724875Y-106254562D01*
X240682034Y-106225236D01*
X240634643Y-106198756D01*
X240601266Y-106186862D01*
X240597315Y-106186272D01*
X240556421Y-106171347D01*
X240513030Y-106144856D01*
X240504316Y-106138195D01*
X240418161Y-106072842D01*
X240354223Y-106025503D01*
X240309437Y-105994022D01*
X240280745Y-105976238D01*
X240265081Y-105969991D01*
X240255420Y-105963817D01*
X240233354Y-105935016D01*
X240209225Y-105891092D01*
X240195707Y-105865398D01*
X240164089Y-105818114D01*
X240134450Y-105787344D01*
X240105602Y-105761816D01*
X240080374Y-105727981D01*
X240078435Y-105724376D01*
X240052029Y-105692265D01*
X240013952Y-105659828D01*
X239988585Y-105634664D01*
X239948415Y-105579459D01*
X239899777Y-105500796D01*
X239844595Y-105402480D01*
X239784796Y-105288311D01*
X239722305Y-105162095D01*
X239659045Y-105027632D01*
X239596945Y-104888728D01*
X239537927Y-104749185D01*
X239483918Y-104612805D01*
X239423977Y-104453830D01*
X239367044Y-104298470D01*
X239322748Y-104171895D01*
X239290875Y-104073476D01*
X239271216Y-104002585D01*
X239263559Y-103958593D01*
X239262358Y-103940399D01*
X239258307Y-103904564D01*
X239250793Y-103867568D01*
X239238150Y-103824642D01*
X239218717Y-103771018D01*
X239190829Y-103701927D01*
X239152824Y-103612598D01*
X239103039Y-103498265D01*
X239060441Y-103400355D01*
X239025458Y-103317635D01*
X239000389Y-103254097D01*
X238983368Y-103204238D01*
X238972532Y-103162556D01*
X238966018Y-103123549D01*
X238961962Y-103081716D01*
X238960998Y-103069835D01*
X238955281Y-103020095D01*
X238945881Y-102970566D01*
X238931006Y-102915181D01*
X238908870Y-102847871D01*
X238877684Y-102762568D01*
X238835657Y-102653205D01*
X238803812Y-102568584D01*
X238764046Y-102454260D01*
X238730615Y-102347956D01*
X238705779Y-102256972D01*
X238691800Y-102188607D01*
X238667378Y-102052264D01*
X238631918Y-101903249D01*
X238590842Y-101765783D01*
X238588830Y-101759776D01*
X238570019Y-101696847D01*
X238557268Y-101641971D01*
X238553239Y-101606433D01*
X238553135Y-101600648D01*
X238547573Y-101562486D01*
X238535091Y-101501960D01*
X238517229Y-101426127D01*
X238495529Y-101342048D01*
X238490276Y-101322221D01*
X238469135Y-101235532D01*
X238452404Y-101155830D01*
X238441670Y-101091240D01*
X238438516Y-101049884D01*
X238438541Y-101049282D01*
X238436064Y-100997693D01*
X238426937Y-100929431D01*
X238413103Y-100859104D01*
X238411700Y-100853013D01*
X238399004Y-100788017D01*
X238391571Y-100731211D01*
X238390971Y-100694285D01*
X238391550Y-100688874D01*
X238391378Y-100646666D01*
X238387082Y-100585927D01*
X238379849Y-100516887D01*
X238370869Y-100449775D01*
X238361329Y-100394821D01*
X238352417Y-100362257D01*
X238347930Y-100332665D01*
X238352519Y-100290117D01*
X238354656Y-100274351D01*
X238352398Y-100222164D01*
X238340888Y-100165813D01*
X238330905Y-100116747D01*
X238324019Y-100045118D01*
X238323352Y-99972874D01*
X238323717Y-99910348D01*
X238319208Y-99832405D01*
X238310449Y-99768256D01*
X238305310Y-99737118D01*
X238300303Y-99669614D01*
X238303155Y-99612635D01*
X238305216Y-99597724D01*
X238307794Y-99552190D01*
X238303899Y-99523357D01*
X238300998Y-99513571D01*
X238296332Y-99474920D01*
X238295003Y-99424106D01*
X238296131Y-99346351D01*
X238234721Y-99314156D01*
X238219782Y-99306067D01*
X238184562Y-99284535D01*
X238167913Y-99270388D01*
X238155228Y-99256948D01*
X238123252Y-99229131D01*
X238079643Y-99193920D01*
X238030068Y-99151488D01*
X237968843Y-99092826D01*
X237914075Y-99034598D01*
X237865223Y-98980119D01*
X237812436Y-98923443D01*
X237769127Y-98879080D01*
X237742168Y-98849863D01*
X237697241Y-98795588D01*
X237645995Y-98729368D01*
X237595086Y-98659593D01*
X237552528Y-98600870D01*
X237506867Y-98541220D01*
X237468779Y-98494947D01*
X237443675Y-98468864D01*
X237442402Y-98467801D01*
X237412889Y-98436885D01*
X237374424Y-98388829D01*
X237334985Y-98333568D01*
X237319127Y-98311048D01*
X237247185Y-98225502D01*
X237167224Y-98150462D01*
X237094953Y-98091050D01*
X237015538Y-98022409D01*
X236949663Y-97959425D01*
X236891287Y-97895348D01*
X236834369Y-97823426D01*
X236772870Y-97736908D01*
X236700750Y-97629039D01*
X236669925Y-97581488D01*
X236639663Y-97532783D01*
X236609921Y-97482082D01*
X236578935Y-97425925D01*
X236544938Y-97360846D01*
X236506165Y-97283382D01*
X236460848Y-97190071D01*
X236407222Y-97077450D01*
X236343521Y-96942056D01*
X236267978Y-96780424D01*
X236237534Y-96715108D01*
X236167548Y-96564411D01*
X236110025Y-96439491D01*
X236063812Y-96337665D01*
X236027760Y-96256250D01*
X236000718Y-96192561D01*
X235981534Y-96143915D01*
X235969060Y-96107630D01*
X235962143Y-96081022D01*
X235959632Y-96061407D01*
X235959316Y-96055430D01*
X235951453Y-96001194D01*
X235937716Y-95956431D01*
X235931728Y-95942102D01*
X235915135Y-95892692D01*
X235899976Y-95836553D01*
X235897609Y-95826656D01*
X235882656Y-95767907D01*
X235862988Y-95694419D01*
X235842213Y-95619738D01*
X235819064Y-95511476D01*
X235813893Y-95372111D01*
X235838778Y-95242963D01*
X235893542Y-95125723D01*
X235953215Y-95030857D01*
X236655528Y-94703363D01*
X236804140Y-94707987D01*
G37*
G36*
X241954471Y-102957428D02*
G01*
X242009860Y-102960803D01*
X242058971Y-102969195D01*
X242108746Y-102984820D01*
X242166124Y-103009897D01*
X242238047Y-103046639D01*
X242331455Y-103097266D01*
X242377036Y-103122288D01*
X242484318Y-103182232D01*
X242568305Y-103231980D01*
X242633148Y-103275148D01*
X242682999Y-103315353D01*
X242722009Y-103356208D01*
X242754331Y-103401331D01*
X242784116Y-103454338D01*
X242815515Y-103518843D01*
X242824037Y-103537388D01*
X242845629Y-103584378D01*
X242866298Y-103635933D01*
X242876828Y-103676362D01*
X242879598Y-103715048D01*
X242876987Y-103761377D01*
X242866877Y-103831343D01*
X242838774Y-103925374D01*
X242797849Y-104002161D01*
X242792851Y-104007324D01*
X242747380Y-104054297D01*
X242741987Y-104058157D01*
X242697539Y-104105908D01*
X242663902Y-104177757D01*
X242651077Y-104211594D01*
X242626907Y-104264665D01*
X242605196Y-104301164D01*
X242597319Y-104310253D01*
X242553098Y-104348553D01*
X242490506Y-104392013D01*
X242418791Y-104434981D01*
X242347196Y-104471807D01*
X242284972Y-104496841D01*
X242258264Y-104505541D01*
X242224661Y-104518946D01*
X242214766Y-104529684D01*
X242223295Y-104541588D01*
X242228542Y-104546751D01*
X242252985Y-104577906D01*
X242280437Y-104620021D01*
X242282038Y-104622722D01*
X242302498Y-104664593D01*
X242304548Y-104699984D01*
X242289435Y-104746401D01*
X242267368Y-104791004D01*
X242216478Y-104867424D01*
X242152665Y-104944517D01*
X242084642Y-105012098D01*
X242021121Y-105059987D01*
X241990529Y-105077735D01*
X241928939Y-105112437D01*
X241855493Y-105153026D01*
X241780204Y-105193933D01*
X241749420Y-105210554D01*
X241688640Y-105244324D01*
X241650134Y-105268409D01*
X241629054Y-105286648D01*
X241620554Y-105302881D01*
X241619785Y-105320943D01*
X241616323Y-105355124D01*
X241599864Y-105399572D01*
X241567972Y-105438412D01*
X241517180Y-105459622D01*
X241450676Y-105452935D01*
X241403861Y-105446365D01*
X241334249Y-105462168D01*
X241327129Y-105465372D01*
X241296089Y-105474859D01*
X241262284Y-105474382D01*
X241216699Y-105462807D01*
X241150321Y-105438997D01*
X241130053Y-105431048D01*
X241072565Y-105405562D01*
X241029882Y-105382259D01*
X241010047Y-105365363D01*
X240990662Y-105344529D01*
X240954154Y-105324641D01*
X240949271Y-105322796D01*
X240896636Y-105297041D01*
X240830465Y-105257720D01*
X240760952Y-105211564D01*
X240698291Y-105165301D01*
X240652679Y-105125658D01*
X240649950Y-105122836D01*
X240612729Y-105073854D01*
X240569016Y-104998099D01*
X240517478Y-104893279D01*
X240496679Y-104847715D01*
X240460900Y-104761042D01*
X240440941Y-104694539D01*
X240435995Y-104642815D01*
X240445254Y-104600483D01*
X240467913Y-104562156D01*
X240497851Y-104522926D01*
X240443798Y-104520588D01*
X240443595Y-104520579D01*
X240389195Y-104512349D01*
X240334277Y-104495927D01*
X240317663Y-104488702D01*
X240293402Y-104473212D01*
X240272535Y-104448798D01*
X240249697Y-104408403D01*
X240244696Y-104397889D01*
X240742325Y-104397889D01*
X240757036Y-104397623D01*
X240764375Y-104392901D01*
X240762304Y-104383152D01*
X240759307Y-104382392D01*
X240742565Y-104392357D01*
X240742325Y-104397889D01*
X240244696Y-104397889D01*
X240219523Y-104344967D01*
X240198151Y-104296992D01*
X240177465Y-104241858D01*
X240164246Y-104188383D01*
X240155868Y-104125125D01*
X240149707Y-104040642D01*
X240147250Y-103999532D01*
X240146094Y-103976872D01*
X240430167Y-103976872D01*
X240440089Y-104063556D01*
X240449675Y-104137705D01*
X240457805Y-104186969D01*
X240465181Y-104215477D01*
X240472498Y-104227353D01*
X240473318Y-104227857D01*
X240497709Y-104225367D01*
X240527116Y-104200256D01*
X240554918Y-104160008D01*
X240574494Y-104112103D01*
X240585215Y-104080501D01*
X240624228Y-104021872D01*
X240678987Y-103990747D01*
X240746530Y-103988275D01*
X240823889Y-104015603D01*
X240825241Y-104016317D01*
X240889202Y-104064518D01*
X240941792Y-104130652D01*
X240978783Y-104206144D01*
X240994279Y-104274980D01*
X240995954Y-104282419D01*
X240989077Y-104350900D01*
X240983379Y-104392964D01*
X240991696Y-104437046D01*
X240992882Y-104439797D01*
X240999821Y-104483527D01*
X240993746Y-104533264D01*
X240989450Y-104547327D01*
X240976837Y-104573890D01*
X240955094Y-104596890D01*
X240917523Y-104622381D01*
X240857424Y-104656412D01*
X240737205Y-104722275D01*
X240788386Y-104822280D01*
X240803729Y-104851310D01*
X240836774Y-104903047D01*
X240875008Y-104942483D01*
X240929831Y-104982536D01*
X240976132Y-105011626D01*
X241027967Y-105040311D01*
X241065468Y-105056748D01*
X241081504Y-105063026D01*
X241127706Y-105088270D01*
X241175719Y-105121563D01*
X241196812Y-105137180D01*
X241244935Y-105167583D01*
X241283593Y-105185645D01*
X241297196Y-105189695D01*
X241316792Y-105191374D01*
X241321055Y-105175648D01*
X241314467Y-105135202D01*
X241310441Y-105119602D01*
X241293414Y-105070251D01*
X241266579Y-105001748D01*
X241232682Y-104920966D01*
X241194466Y-104834778D01*
X241086591Y-104598026D01*
X241094958Y-104475661D01*
X241095156Y-104472800D01*
X241100768Y-104405674D01*
X241107395Y-104345897D01*
X241113643Y-104306105D01*
X241114103Y-104303863D01*
X241116328Y-104253947D01*
X241108575Y-104200330D01*
X241104481Y-104180282D01*
X241098862Y-104120262D01*
X241099588Y-104057658D01*
X241101171Y-104036319D01*
X241106364Y-103960866D01*
X241110756Y-103890245D01*
X241112798Y-103863081D01*
X241119771Y-103806359D01*
X241128336Y-103764896D01*
X241135207Y-103730965D01*
X241136068Y-103687544D01*
X241135086Y-103678913D01*
X241143414Y-103617706D01*
X241174648Y-103567726D01*
X241221780Y-103534233D01*
X241277801Y-103522486D01*
X241335703Y-103537744D01*
X241355075Y-103549039D01*
X241377192Y-103569187D01*
X241391893Y-103600075D01*
X241405722Y-103652418D01*
X241410979Y-103681538D01*
X241415653Y-103762085D01*
X241409261Y-103841821D01*
X241402102Y-103890571D01*
X241397872Y-103934839D01*
X241398740Y-103957187D01*
X241400052Y-103963684D01*
X241399201Y-103996564D01*
X241393288Y-104043316D01*
X241390129Y-104072869D01*
X241389664Y-104140650D01*
X241395866Y-104207871D01*
X241400250Y-104244521D01*
X241402733Y-104308896D01*
X241398638Y-104359773D01*
X241393963Y-104389157D01*
X241387297Y-104451163D01*
X241383091Y-104516402D01*
X241382220Y-104552083D01*
X241384284Y-104587814D01*
X241391908Y-104623034D01*
X241407397Y-104665152D01*
X241433054Y-104721583D01*
X241471185Y-104799737D01*
X241563077Y-104985992D01*
X241716490Y-104909159D01*
X241804849Y-104862440D01*
X241874240Y-104820383D01*
X241919875Y-104785933D01*
X241939612Y-104760715D01*
X241931303Y-104746357D01*
X241918978Y-104744079D01*
X241878355Y-104743190D01*
X241826137Y-104746624D01*
X241794357Y-104748960D01*
X241735974Y-104744663D01*
X241687860Y-104724400D01*
X241645232Y-104684303D01*
X241603306Y-104620500D01*
X241557300Y-104529124D01*
X241535426Y-104480437D01*
X241507410Y-104412108D01*
X241487223Y-104355380D01*
X241478193Y-104319095D01*
X241477886Y-104314912D01*
X241479943Y-104299918D01*
X241758903Y-104299918D01*
X241799170Y-104378851D01*
X241813120Y-104404347D01*
X241840278Y-104442591D01*
X241860786Y-104455253D01*
X241864199Y-104454787D01*
X241875276Y-104449742D01*
X241872484Y-104436498D01*
X241853121Y-104409729D01*
X241814480Y-104364117D01*
X241758903Y-104299918D01*
X241479943Y-104299918D01*
X241485211Y-104261511D01*
X241508535Y-104192208D01*
X241543871Y-104115746D01*
X241587231Y-104040861D01*
X241634627Y-103976293D01*
X241656915Y-103951907D01*
X241728987Y-103894660D01*
X241802213Y-103865806D01*
X241872759Y-103865606D01*
X241936792Y-103894318D01*
X241990480Y-103952202D01*
X242023642Y-104015778D01*
X242051602Y-104095417D01*
X242065159Y-104168380D01*
X242080698Y-104195175D01*
X242120160Y-104220773D01*
X242131992Y-104225817D01*
X242166503Y-104234120D01*
X242203379Y-104228375D01*
X242255504Y-104207302D01*
X242264562Y-104203063D01*
X242343492Y-104152549D01*
X242392845Y-104091616D01*
X242411558Y-104021528D01*
X242412603Y-104007416D01*
X242425970Y-103961380D01*
X242458583Y-103920071D01*
X242516157Y-103875508D01*
X242541455Y-103853874D01*
X242576973Y-103795411D01*
X242589520Y-103725273D01*
X242578327Y-103651964D01*
X242542620Y-103583989D01*
X242511873Y-103552417D01*
X242453112Y-103505425D01*
X242376429Y-103452133D01*
X242288224Y-103396548D01*
X242194900Y-103342674D01*
X242102856Y-103294514D01*
X242018494Y-103256074D01*
X242001777Y-103250778D01*
X241938940Y-103243023D01*
X241853451Y-103243725D01*
X241751628Y-103252424D01*
X241639783Y-103268663D01*
X241524229Y-103291982D01*
X241460343Y-103305770D01*
X241380198Y-103320463D01*
X241311475Y-103330285D01*
X241264287Y-103333617D01*
X241246599Y-103334043D01*
X241198655Y-103340124D01*
X241135995Y-103354160D01*
X241054724Y-103377215D01*
X240950944Y-103410350D01*
X240820760Y-103454630D01*
X240791778Y-103465966D01*
X240724169Y-103499355D01*
X240666630Y-103535864D01*
X240634230Y-103564788D01*
X240589964Y-103614632D01*
X240548952Y-103670101D01*
X240517998Y-103721814D01*
X240503901Y-103760385D01*
X240501859Y-103767666D01*
X240486584Y-103799493D01*
X240461849Y-103841174D01*
X240433686Y-103903651D01*
X240430167Y-103976872D01*
X240146094Y-103976872D01*
X240143386Y-103923771D01*
X240143145Y-103869056D01*
X240147816Y-103827300D01*
X240158690Y-103790411D01*
X240177058Y-103750301D01*
X240204207Y-103698879D01*
X240235994Y-103639272D01*
X240269595Y-103575938D01*
X240295326Y-103527103D01*
X240319505Y-103482118D01*
X240344353Y-103442050D01*
X240371739Y-103408660D01*
X240406207Y-103378599D01*
X240452300Y-103348525D01*
X240514560Y-103315089D01*
X240597528Y-103274945D01*
X240705748Y-103224747D01*
X240829682Y-103169124D01*
X240951241Y-103118826D01*
X241052775Y-103082660D01*
X241138630Y-103059270D01*
X241213150Y-103047303D01*
X241280677Y-103045402D01*
X241315209Y-103042930D01*
X241374529Y-103033968D01*
X241448959Y-103019926D01*
X241529983Y-103002279D01*
X241709036Y-102969303D01*
X241891784Y-102956850D01*
X241954471Y-102957428D01*
G37*
G36*
X239887634Y-100428055D02*
G01*
X239926233Y-100434506D01*
X239983541Y-100447108D01*
X240048659Y-100463499D01*
X240054026Y-100464932D01*
X240124861Y-100483250D01*
X240191922Y-100499680D01*
X240241353Y-100510819D01*
X240326352Y-100529404D01*
X240443951Y-100561042D01*
X240535388Y-100594759D01*
X240604723Y-100631909D01*
X240638303Y-100654929D01*
X240673522Y-100681596D01*
X240689734Y-100697449D01*
X240704936Y-100711893D01*
X240733239Y-100704652D01*
X240767742Y-100670686D01*
X240801423Y-100637699D01*
X240851813Y-100621397D01*
X240913442Y-100634778D01*
X240924235Y-100639869D01*
X240966774Y-100679890D01*
X240989855Y-100739226D01*
X240990009Y-100809946D01*
X240986734Y-100823998D01*
X240961002Y-100883429D01*
X240916434Y-100955465D01*
X240857805Y-101033591D01*
X240789886Y-101111289D01*
X240717452Y-101182044D01*
X240713792Y-101185313D01*
X240661265Y-101233686D01*
X240613665Y-101279895D01*
X240580893Y-101314349D01*
X240574383Y-101321559D01*
X240541935Y-101350842D01*
X240516923Y-101363916D01*
X240508162Y-101365114D01*
X240480414Y-101372586D01*
X240462656Y-101375888D01*
X240423071Y-101363498D01*
X240383241Y-101332708D01*
X240353310Y-101290102D01*
X240352335Y-101287987D01*
X240335005Y-101227511D01*
X240342718Y-101170774D01*
X240377312Y-101112682D01*
X240440628Y-101048138D01*
X240445311Y-101043947D01*
X240487851Y-101002370D01*
X240517556Y-100967084D01*
X240528244Y-100945339D01*
X240511683Y-100912480D01*
X240463227Y-100878810D01*
X240383873Y-100847011D01*
X240274531Y-100817541D01*
X240227209Y-100806609D01*
X240155977Y-100789441D01*
X240098010Y-100774623D01*
X240062629Y-100764488D01*
X240028631Y-100754137D01*
X239963647Y-100738466D01*
X239900617Y-100727429D01*
X239849323Y-100722595D01*
X239819549Y-100725532D01*
X239806716Y-100729141D01*
X239762841Y-100725030D01*
X239715131Y-100705492D01*
X239677950Y-100675592D01*
X239661176Y-100641747D01*
X239656473Y-100585024D01*
X239672377Y-100528893D01*
X239690843Y-100508617D01*
X239733740Y-100480108D01*
X239787825Y-100453475D01*
X239841651Y-100434194D01*
X239883774Y-100427743D01*
X239887634Y-100428055D01*
G37*
G36*
X243879813Y-100356626D02*
G01*
X243992006Y-100386640D01*
X244036902Y-100403147D01*
X244105274Y-100436545D01*
X244144742Y-100469703D01*
X244146170Y-100471623D01*
X244179116Y-100500631D01*
X244218967Y-100502621D01*
X244225026Y-100501376D01*
X244289124Y-100489718D01*
X244364734Y-100477904D01*
X244440942Y-100467443D01*
X244506838Y-100459846D01*
X244551511Y-100456619D01*
X244579060Y-100455813D01*
X244637957Y-100453228D01*
X244701441Y-100449714D01*
X244744165Y-100447661D01*
X244791597Y-100446995D01*
X244818137Y-100448740D01*
X244819781Y-100449058D01*
X244848664Y-100450223D01*
X244899058Y-100449190D01*
X244961153Y-100446138D01*
X245031422Y-100443180D01*
X245103360Y-100442553D01*
X245158658Y-100444536D01*
X245194097Y-100445043D01*
X245262896Y-100439177D01*
X245330689Y-100426952D01*
X245339414Y-100424872D01*
X245440447Y-100407994D01*
X245519302Y-100410957D01*
X245580014Y-100434475D01*
X245626621Y-100479260D01*
X245637131Y-100498121D01*
X245645764Y-100552172D01*
X245632776Y-100607100D01*
X245600386Y-100648572D01*
X245581377Y-100662752D01*
X245568102Y-100673845D01*
X245564148Y-100675256D01*
X245536813Y-100680026D01*
X245492548Y-100685743D01*
X245450509Y-100691351D01*
X245381290Y-100702220D01*
X245311610Y-100714566D01*
X245259254Y-100722285D01*
X245179499Y-100728303D01*
X245110441Y-100727639D01*
X245075293Y-100725975D01*
X245003398Y-100727335D01*
X244942125Y-100733865D01*
X244927043Y-100736256D01*
X244860863Y-100741469D01*
X244800641Y-100739649D01*
X244773271Y-100737445D01*
X244697171Y-100736340D01*
X244601460Y-100739537D01*
X244494679Y-100746675D01*
X244385369Y-100757387D01*
X244346299Y-100764048D01*
X244258540Y-100787876D01*
X244149713Y-100825832D01*
X244024287Y-100876301D01*
X243886732Y-100937667D01*
X243862471Y-100945966D01*
X243802510Y-100945838D01*
X243748129Y-100921072D01*
X243710573Y-100875627D01*
X243701308Y-100847823D01*
X243703745Y-100788460D01*
X243733693Y-100735127D01*
X243787910Y-100695380D01*
X243816234Y-100680166D01*
X243837752Y-100657686D01*
X243826814Y-100638769D01*
X243783408Y-100623194D01*
X243754535Y-100613246D01*
X243703428Y-100578760D01*
X243667647Y-100532338D01*
X243655548Y-100483133D01*
X243657109Y-100465899D01*
X243678308Y-100404344D01*
X243722681Y-100365560D01*
X243789944Y-100349626D01*
X243879813Y-100356626D01*
G37*
G36*
X239230643Y-100738461D02*
G01*
X239249468Y-100747390D01*
X239273031Y-100765388D01*
X239297678Y-100795121D01*
X239327986Y-100842383D01*
X239368532Y-100912967D01*
X239376141Y-100926525D01*
X239422644Y-101008235D01*
X239458107Y-101066938D01*
X239486395Y-101107707D01*
X239511376Y-101135611D01*
X239536914Y-101155720D01*
X239566875Y-101173105D01*
X239621348Y-101209049D01*
X239678235Y-101267757D01*
X239715160Y-101333409D01*
X239728735Y-101399479D01*
X239715572Y-101459442D01*
X239714726Y-101461095D01*
X239674380Y-101508431D01*
X239620754Y-101529423D01*
X239560980Y-101523100D01*
X239502197Y-101488492D01*
X239486127Y-101475243D01*
X239442897Y-101442602D01*
X239393690Y-101407955D01*
X239363019Y-101383230D01*
X239305982Y-101322706D01*
X239245076Y-101243842D01*
X239185469Y-101154078D01*
X239132323Y-101060854D01*
X239090802Y-100971609D01*
X239083212Y-100952248D01*
X239064849Y-100895673D01*
X239060267Y-100853767D01*
X239067861Y-100815594D01*
X239076466Y-100794833D01*
X239115515Y-100749130D01*
X239169337Y-100729188D01*
X239230643Y-100738461D01*
G37*
G36*
X248592462Y-99890269D02*
G01*
X248629478Y-99908122D01*
X248658056Y-99937263D01*
X248685179Y-99987208D01*
X248695362Y-100010509D01*
X248710779Y-100065362D01*
X248710250Y-100121871D01*
X248694386Y-100193791D01*
X248693523Y-100197619D01*
X248690323Y-100234397D01*
X248689579Y-100291173D01*
X248691480Y-100357354D01*
X248695217Y-100403847D01*
X248718528Y-100533015D01*
X248762291Y-100681078D01*
X248827241Y-100850701D01*
X248853060Y-100915472D01*
X248885263Y-101014544D01*
X248905202Y-101111326D01*
X248916662Y-101221515D01*
X248920094Y-101309205D01*
X248916258Y-101398033D01*
X248904060Y-101463207D01*
X248883979Y-101500645D01*
X248877514Y-101508344D01*
X248853974Y-101547476D01*
X248819659Y-101614496D01*
X248775441Y-101707651D01*
X248722196Y-101825187D01*
X248711439Y-101849306D01*
X248674459Y-101930714D01*
X248645700Y-101990304D01*
X248621610Y-102034743D01*
X248598641Y-102070696D01*
X248573240Y-102104830D01*
X248558685Y-102124446D01*
X248525053Y-102177317D01*
X248502354Y-102223369D01*
X248473797Y-102286809D01*
X248422996Y-102373448D01*
X248350809Y-102478136D01*
X248323393Y-102515964D01*
X248283595Y-102571239D01*
X248252577Y-102614730D01*
X248249670Y-102618797D01*
X248204150Y-102668234D01*
X248156250Y-102689205D01*
X248098343Y-102685195D01*
X248062079Y-102670874D01*
X248023185Y-102631255D01*
X248006226Y-102574608D01*
X248011338Y-102505432D01*
X248038652Y-102428229D01*
X248088303Y-102347502D01*
X248090788Y-102344184D01*
X248143299Y-102269516D01*
X248192266Y-102192123D01*
X248232045Y-102121397D01*
X248256994Y-102066734D01*
X248261696Y-102055711D01*
X248285563Y-102013829D01*
X248317430Y-101968485D01*
X248328035Y-101954406D01*
X248377432Y-101877675D01*
X248422159Y-101792347D01*
X248453474Y-101714725D01*
X248454644Y-101711153D01*
X248474372Y-101662617D01*
X248499756Y-101612040D01*
X248510488Y-101592811D01*
X248556270Y-101505871D01*
X248594249Y-101425807D01*
X248622202Y-101357919D01*
X248637905Y-101307510D01*
X248639133Y-101279878D01*
X248633919Y-101263040D01*
X248626107Y-101217999D01*
X248620743Y-101162418D01*
X248612105Y-101102890D01*
X248585649Y-101003878D01*
X248541997Y-100878561D01*
X248510469Y-100793827D01*
X248468945Y-100674466D01*
X248438914Y-100572090D01*
X248419233Y-100478731D01*
X248408761Y-100386425D01*
X248406353Y-100287201D01*
X248410866Y-100173093D01*
X248421159Y-100036133D01*
X248422868Y-100020028D01*
X248442658Y-99946878D01*
X248478771Y-99899802D01*
X248529332Y-99880400D01*
X248592462Y-99890269D01*
G37*
G36*
X246168385Y-100562729D02*
G01*
X246208284Y-100569401D01*
X246241082Y-100588922D01*
X246279267Y-100628540D01*
X246293085Y-100646704D01*
X246320768Y-100709342D01*
X246325779Y-100774455D01*
X246306591Y-100830739D01*
X246291242Y-100854489D01*
X246260202Y-100903830D01*
X246226917Y-100957836D01*
X246202623Y-100995297D01*
X246174343Y-101032977D01*
X246155298Y-101051314D01*
X246149775Y-101054987D01*
X246123386Y-101078871D01*
X246084255Y-101118633D01*
X246038651Y-101168008D01*
X246038126Y-101168591D01*
X245979255Y-101228713D01*
X245920060Y-101280108D01*
X245870531Y-101314094D01*
X245846149Y-101327025D01*
X245802686Y-101348754D01*
X245775133Y-101360739D01*
X245756225Y-101368030D01*
X245713915Y-101385931D01*
X245661682Y-101409031D01*
X245653059Y-101412775D01*
X245562732Y-101437692D01*
X245469541Y-101441245D01*
X245383178Y-101424055D01*
X245313332Y-101386741D01*
X245311678Y-101385402D01*
X245278308Y-101354730D01*
X245263478Y-101325844D01*
X245258885Y-101282915D01*
X245258677Y-101266609D01*
X245270981Y-101202708D01*
X245305513Y-101162538D01*
X245362551Y-101145901D01*
X245442374Y-101152596D01*
X245471671Y-101157375D01*
X245538327Y-101157943D01*
X245603194Y-101141041D01*
X245671262Y-101104253D01*
X245747521Y-101045157D01*
X245836965Y-100961335D01*
X245887477Y-100910243D01*
X245936565Y-100856231D01*
X245971664Y-100809431D01*
X245998726Y-100761662D01*
X246023707Y-100704746D01*
X246034877Y-100677758D01*
X246064084Y-100617640D01*
X246092060Y-100581959D01*
X246124128Y-100565383D01*
X246165605Y-100562584D01*
X246168385Y-100562729D01*
G37*
G36*
X240591183Y-102233016D02*
G01*
X240642695Y-102254640D01*
X240676481Y-102292347D01*
X240676719Y-102292861D01*
X240691220Y-102345244D01*
X240682876Y-102396919D01*
X240649660Y-102453181D01*
X240589544Y-102519327D01*
X240582962Y-102525804D01*
X240529569Y-102579547D01*
X240479701Y-102631540D01*
X240443386Y-102671351D01*
X240428147Y-102688606D01*
X240399111Y-102719437D01*
X240382525Y-102734088D01*
X240374351Y-102743502D01*
X240354723Y-102775578D01*
X240330422Y-102821464D01*
X240312680Y-102855428D01*
X240290950Y-102892376D01*
X240277695Y-102908957D01*
X240267882Y-102921408D01*
X240248425Y-102956610D01*
X240225070Y-103005589D01*
X240205360Y-103047514D01*
X240185372Y-103085255D01*
X240173501Y-103101728D01*
X240165427Y-103114484D01*
X240147740Y-103152275D01*
X240123729Y-103208718D01*
X240096196Y-103277454D01*
X240074062Y-103333180D01*
X240043864Y-103406219D01*
X240017313Y-103467247D01*
X239998361Y-103506990D01*
X239990454Y-103522598D01*
X239956559Y-103608247D01*
X239928632Y-103708856D01*
X239907646Y-103816857D01*
X239894579Y-103924679D01*
X239890407Y-104024755D01*
X239896106Y-104109514D01*
X239912653Y-104171388D01*
X239914288Y-104174942D01*
X239941062Y-104255912D01*
X239944087Y-104325782D01*
X239923092Y-104379177D01*
X239898110Y-104403950D01*
X239842925Y-104425146D01*
X239840864Y-104425473D01*
X239804632Y-104431640D01*
X239787086Y-104435389D01*
X239785577Y-104435119D01*
X239767478Y-104422317D01*
X239737142Y-104396177D01*
X239705796Y-104360744D01*
X239662305Y-104288932D01*
X239627340Y-104204753D01*
X239606627Y-104120308D01*
X239605394Y-104110556D01*
X239602375Y-104039473D01*
X239605456Y-103949843D01*
X239613718Y-103852993D01*
X239626241Y-103760252D01*
X239642108Y-103682947D01*
X239671402Y-103572396D01*
X239694837Y-103487576D01*
X239713224Y-103426312D01*
X239727894Y-103384475D01*
X239740167Y-103357933D01*
X239751373Y-103342556D01*
X239758003Y-103333803D01*
X239778347Y-103296571D01*
X239803889Y-103240951D01*
X239830644Y-103175351D01*
X239839667Y-103152339D01*
X239871317Y-103077093D01*
X239903459Y-103007360D01*
X239930358Y-102955768D01*
X239937289Y-102943753D01*
X239969155Y-102886614D01*
X240007177Y-102816388D01*
X240044570Y-102745566D01*
X240055979Y-102724355D01*
X240117143Y-102626552D01*
X240191263Y-102527478D01*
X240272789Y-102433213D01*
X240356167Y-102349834D01*
X240435846Y-102283420D01*
X240506275Y-102240050D01*
X240534515Y-102231340D01*
X240591183Y-102233016D01*
G37*
%TO.C,D2*%
X21225000Y-40662500D02*
X21225000Y-44512500D01*
X23225000Y-40662500D02*
X23225000Y-44512500D01*
X21225000Y-40662500D02*
X23225000Y-40662500D01*
%TO.C,F1*%
X38460000Y-52102936D02*
X38460000Y-53307064D01*
X40280000Y-52102936D02*
X40280000Y-53307064D01*
%TO.C,C3*%
X54178810Y-81585307D02*
X54026307Y-81737810D01*
X53669693Y-81076190D02*
X53517190Y-81228693D01*
%TO.C,D6*%
X62912500Y-40662500D02*
X62912500Y-44512500D01*
X60912500Y-40662500D02*
X60912500Y-44512500D01*
X60912500Y-40662500D02*
X62912500Y-40662500D01*
%TO.C,R1*%
X46579770Y-65860697D02*
X46915303Y-66196230D01*
X47318697Y-65121770D02*
X47654230Y-65457303D01*
%TO.C,D25*%
X167687500Y-86337500D02*
X167687500Y-82487500D01*
X167687500Y-86337500D02*
X165687500Y-86337500D01*
X165687500Y-86337500D02*
X165687500Y-82487500D01*
%TO.C,SW46*%
X79262500Y-56275000D02*
X79712500Y-56725000D01*
X82662500Y-51675000D02*
X82212500Y-51225000D01*
X78212500Y-54975000D02*
X78212500Y-52975000D01*
X83712500Y-54975000D02*
X83712500Y-52975000D01*
X79262500Y-51675000D02*
X79712500Y-51225000D01*
X82662500Y-56275000D02*
X82212500Y-56725000D01*
X79712500Y-56725000D02*
X82212500Y-56725000D01*
X79712500Y-51225000D02*
X82212500Y-51225000D01*
%TO.C,R4*%
X41274000Y-46328359D02*
X41274000Y-46635641D01*
X40514000Y-46328359D02*
X40514000Y-46635641D01*
%TO.C,D36*%
X222837500Y-86337500D02*
X222837500Y-82487500D01*
X224837500Y-86337500D02*
X222837500Y-86337500D01*
X224837500Y-86337500D02*
X224837500Y-82487500D01*
%TO.C,Y1*%
X54950060Y-85731513D02*
X57283513Y-83398060D01*
X57283513Y-83398060D02*
X60111940Y-86226487D01*
%TO.C,U4*%
X44867000Y-47625000D02*
X44867000Y-46825000D01*
X44867000Y-47625000D02*
X44867000Y-49425000D01*
X41747000Y-47625000D02*
X41747000Y-46825000D01*
X41747000Y-47625000D02*
X41747000Y-48425000D01*
%TO.C,D18*%
X129587500Y-86337500D02*
X129587500Y-82487500D01*
X127587500Y-86337500D02*
X127587500Y-82487500D01*
X129587500Y-86337500D02*
X127587500Y-86337500D01*
%TO.C,D41*%
X238712500Y-54587500D02*
X238712500Y-50737500D01*
X240712500Y-54587500D02*
X240712500Y-50737500D01*
X240712500Y-54587500D02*
X238712500Y-54587500D01*
%TO.C,D35*%
X215312500Y-67287500D02*
X213312500Y-67287500D01*
X213312500Y-67287500D02*
X213312500Y-63437500D01*
X215312500Y-67287500D02*
X215312500Y-63437500D01*
%TO.C,D38*%
X234362500Y-67287500D02*
X232362500Y-67287500D01*
X232362500Y-67287500D02*
X232362500Y-63437500D01*
X234362500Y-67287500D02*
X234362500Y-63437500D01*
%TO.C,C9*%
X48970693Y-72212810D02*
X48818190Y-72060307D01*
X49479810Y-71703693D02*
X49327307Y-71551190D01*
%TO.C,D13*%
X96250000Y-48237500D02*
X96250000Y-44387500D01*
X94250000Y-48237500D02*
X94250000Y-44387500D01*
X96250000Y-48237500D02*
X94250000Y-48237500D01*
%TD*%
%LPC*%
D14*
%TO.C,SW23*%
X211137500Y-65087500D03*
D15*
X213677500Y-60007500D03*
D16*
X206057500Y-65087500D03*
X216217500Y-65087500D03*
D15*
X207327500Y-62547500D03*
D17*
X204052500Y-62547500D03*
X216979500Y-60007500D03*
%TD*%
D15*
%TO.C,SW42*%
X221615000Y-100647500D03*
D16*
X220345000Y-103187500D03*
X230505000Y-103187500D03*
D15*
X227965000Y-98107500D03*
D14*
X225425000Y-103187500D03*
D17*
X218340000Y-100647500D03*
X231267000Y-98107500D03*
%TD*%
D16*
%TO.C,SW43*%
X273367500Y-103187500D03*
D15*
X270827500Y-98107500D03*
D14*
X268287500Y-103187500D03*
D16*
X263207500Y-103187500D03*
D15*
X264477500Y-100647500D03*
D17*
X261202500Y-100647500D03*
X274129500Y-98107500D03*
%TD*%
D14*
%TO.C,SW13(1.5)1*%
X268287500Y-46037500D03*
D16*
X263207500Y-46037500D03*
X273367500Y-46037500D03*
D15*
X264477500Y-43497500D03*
X270827500Y-40957500D03*
D17*
X261202500Y-43497500D03*
X274129500Y-40957500D03*
%TD*%
D15*
%TO.C,SW37(1.75)1*%
X263413152Y-89169151D03*
D14*
X265953152Y-84089151D03*
D16*
X260873152Y-84089151D03*
D15*
X269763152Y-86629151D03*
D16*
X271033152Y-84089151D03*
D17*
X273038152Y-86629151D03*
X260111152Y-89169151D03*
%TD*%
D14*
%TO.C,SW25*%
X249237500Y-73335550D03*
D16*
X256095500Y-65080550D03*
D14*
X273113500Y-73335550D03*
X261175500Y-65080550D03*
D15*
X257365500Y-62540550D03*
D18*
X273113500Y-58095550D03*
D15*
X263715500Y-60000550D03*
D18*
X249237500Y-58095550D03*
D16*
X266255500Y-65080550D03*
D17*
X254090500Y-62540550D03*
X267017500Y-60000550D03*
%TD*%
D15*
%TO.C,SW21*%
X175577500Y-60007500D03*
X169227500Y-62547500D03*
D16*
X178117500Y-65087500D03*
D14*
X173037500Y-65087500D03*
D16*
X167957500Y-65087500D03*
D17*
X165952500Y-62547500D03*
X178879500Y-60007500D03*
%TD*%
D15*
%TO.C,SW15*%
X54927500Y-62547500D03*
D14*
X58737500Y-65087500D03*
D15*
X61277500Y-60007500D03*
D16*
X53657500Y-65087500D03*
X63817500Y-65087500D03*
D17*
X51652500Y-62547500D03*
X64579500Y-60007500D03*
%TD*%
D16*
%TO.C,SW7*%
X154305000Y-46037500D03*
D14*
X149225000Y-46037500D03*
D15*
X145415000Y-43497500D03*
X151765000Y-40957500D03*
D16*
X144145000Y-46037500D03*
D17*
X142140000Y-43497500D03*
X155067000Y-40957500D03*
%TD*%
D16*
%TO.C,SW34*%
X206692500Y-84137500D03*
D14*
X201612500Y-84137500D03*
D16*
X196532500Y-84137500D03*
D15*
X204152500Y-79057500D03*
X197802500Y-81597500D03*
D17*
X194527500Y-81597500D03*
X207454500Y-79057500D03*
%TD*%
D15*
%TO.C,SW9*%
X183515000Y-43497500D03*
D16*
X182245000Y-46037500D03*
D14*
X187325000Y-46037500D03*
D16*
X192405000Y-46037500D03*
D15*
X189865000Y-40957500D03*
D17*
X180240000Y-43497500D03*
X193167000Y-40957500D03*
%TD*%
D15*
%TO.C,SW30*%
X121602500Y-81597500D03*
D14*
X125412500Y-84137500D03*
D16*
X120332500Y-84137500D03*
D15*
X127952500Y-79057500D03*
D16*
X130492500Y-84137500D03*
D17*
X118327500Y-81597500D03*
X131254500Y-79057500D03*
%TD*%
D15*
%TO.C,SW19*%
X137477500Y-60007500D03*
X131127500Y-62547500D03*
D14*
X134937500Y-65087500D03*
D16*
X140017500Y-65087500D03*
X129857500Y-65087500D03*
D17*
X127852500Y-62547500D03*
X140779500Y-60007500D03*
%TD*%
D16*
%TO.C,SW14(1.25)1*%
X32873860Y-65088197D03*
D15*
X23983860Y-62548197D03*
D14*
X27793860Y-65088197D03*
D15*
X30333860Y-60008197D03*
D16*
X22713860Y-65088197D03*
D17*
X20708860Y-62548197D03*
X33635860Y-60008197D03*
%TD*%
D15*
%TO.C,SW44*%
X113665000Y-98107500D03*
D14*
X111125000Y-103187500D03*
D18*
X130175000Y-110172500D03*
D14*
X130175000Y-94932500D03*
D16*
X106045000Y-103187500D03*
D14*
X92075000Y-94932500D03*
D18*
X92075000Y-110172500D03*
D15*
X107315000Y-100647500D03*
D16*
X116205000Y-103187500D03*
D17*
X104040000Y-100647500D03*
X116967000Y-98107500D03*
%TD*%
D16*
%TO.C,SW45*%
X182245000Y-103187500D03*
D18*
X168275000Y-110172500D03*
X206375000Y-110172500D03*
D15*
X189865000Y-98107500D03*
D14*
X168275000Y-94932500D03*
X187325000Y-103187500D03*
X206375000Y-94932500D03*
D16*
X192405000Y-103187500D03*
D15*
X183515000Y-100647500D03*
D17*
X180240000Y-100647500D03*
X193167000Y-98107500D03*
%TD*%
D14*
%TO.C,SW33*%
X182562500Y-84137500D03*
D15*
X178752500Y-81597500D03*
D16*
X187642500Y-84137500D03*
D15*
X185102500Y-79057500D03*
D16*
X177482500Y-84137500D03*
D17*
X175477500Y-81597500D03*
X188404500Y-79057500D03*
%TD*%
D15*
%TO.C,SW32*%
X159702500Y-81597500D03*
X166052500Y-79057500D03*
D16*
X168592500Y-84137500D03*
X158432500Y-84137500D03*
D14*
X163512500Y-84137500D03*
D17*
X156427500Y-81597500D03*
X169354500Y-79057500D03*
%TD*%
D15*
%TO.C,SW36*%
X243522500Y-86677500D03*
D16*
X244792500Y-84137500D03*
D14*
X239712500Y-84137500D03*
D15*
X237172500Y-89217500D03*
D16*
X234632500Y-84137500D03*
D17*
X246797500Y-86677500D03*
X233870500Y-89217500D03*
%TD*%
D15*
%TO.C,SW4*%
X88265000Y-43497500D03*
D16*
X97155000Y-46037500D03*
D15*
X94615000Y-40957500D03*
D14*
X92075000Y-46037500D03*
D16*
X86995000Y-46037500D03*
D17*
X84990000Y-43497500D03*
X97917000Y-40957500D03*
%TD*%
D15*
%TO.C,SW5*%
X113665000Y-40957500D03*
D16*
X106045000Y-46037500D03*
D15*
X107315000Y-43497500D03*
D14*
X111125000Y-46037500D03*
D16*
X116205000Y-46037500D03*
D17*
X104040000Y-43497500D03*
X116967000Y-40957500D03*
%TD*%
D15*
%TO.C,SW16*%
X80327500Y-60007500D03*
X73977500Y-62547500D03*
D14*
X77787500Y-65087500D03*
D16*
X82867500Y-65087500D03*
X72707500Y-65087500D03*
D17*
X70702500Y-62547500D03*
X83629500Y-60007500D03*
%TD*%
D18*
%TO.C,SW37(2.75)1*%
X244443100Y-77144624D03*
D14*
X244443100Y-92384624D03*
D16*
X251301100Y-84129624D03*
D14*
X268319100Y-92384624D03*
D16*
X261461100Y-84129624D03*
D15*
X258921100Y-79049624D03*
D14*
X256381100Y-84129624D03*
D15*
X252571100Y-81589624D03*
D18*
X268319100Y-77144624D03*
D17*
X249296100Y-81589624D03*
X262223100Y-79049624D03*
%TD*%
D16*
%TO.C,SW17*%
X91757500Y-65087500D03*
X101917500Y-65087500D03*
D15*
X93027500Y-62547500D03*
D14*
X96837500Y-65087500D03*
D15*
X99377500Y-60007500D03*
D17*
X89752500Y-62547500D03*
X102679500Y-60007500D03*
%TD*%
D16*
%TO.C,SW18*%
X110807500Y-65087500D03*
D15*
X118427500Y-60007500D03*
D16*
X120967500Y-65087500D03*
D14*
X115887500Y-65087500D03*
D15*
X112077500Y-62547500D03*
D17*
X108802500Y-62547500D03*
X121729500Y-60007500D03*
%TD*%
D15*
%TO.C,SW35*%
X216852500Y-81597500D03*
D16*
X225742500Y-84137500D03*
X215582500Y-84137500D03*
D15*
X223202500Y-79057500D03*
D14*
X220662500Y-84137500D03*
D17*
X213577500Y-81597500D03*
X226504500Y-79057500D03*
%TD*%
D14*
%TO.C,SW39*%
X30168281Y-103182316D03*
D16*
X25088281Y-103182316D03*
X35248281Y-103182316D03*
D15*
X26358281Y-100642316D03*
X32708281Y-98102316D03*
D17*
X23083281Y-100642316D03*
X36010281Y-98102316D03*
%TD*%
D16*
%TO.C,SW40*%
X78105000Y-103187500D03*
X67945000Y-103187500D03*
D14*
X73025000Y-103187500D03*
D15*
X75565000Y-98107500D03*
X69215000Y-100647500D03*
D17*
X65940000Y-100647500D03*
X78867000Y-98107500D03*
%TD*%
D15*
%TO.C,SW31*%
X140652500Y-81597500D03*
D14*
X144462500Y-84137500D03*
D16*
X139382500Y-84137500D03*
X149542500Y-84137500D03*
D15*
X147002500Y-79057500D03*
D17*
X137377500Y-81597500D03*
X150304500Y-79057500D03*
%TD*%
D14*
%TO.C,SW8*%
X168275000Y-46037500D03*
D15*
X164465000Y-43497500D03*
D16*
X173355000Y-46037500D03*
D15*
X170815000Y-40957500D03*
D16*
X163195000Y-46037500D03*
D17*
X161190000Y-43497500D03*
X174117000Y-40957500D03*
%TD*%
D16*
%TO.C,SW12*%
X278130000Y-46037500D03*
D15*
X276860000Y-48577500D03*
D16*
X267970000Y-46037500D03*
D14*
X273050000Y-46037500D03*
D15*
X270510000Y-51117500D03*
D17*
X280135000Y-48577500D03*
X267208000Y-51117500D03*
%TD*%
D14*
%TO.C,SW41*%
X149225000Y-103187500D03*
D18*
X206375000Y-110172500D03*
D14*
X92075000Y-94932500D03*
D16*
X144145000Y-103187500D03*
D15*
X145415000Y-100647500D03*
X151765000Y-98107500D03*
D18*
X92075000Y-110172500D03*
D16*
X154305000Y-103187500D03*
D14*
X206375000Y-94932500D03*
D17*
X142140000Y-100647500D03*
X155067000Y-98107500D03*
%TD*%
D16*
%TO.C,SW11*%
X220345000Y-46037500D03*
D14*
X225425000Y-46037500D03*
D15*
X221615000Y-43497500D03*
D16*
X230505000Y-46037500D03*
D15*
X227965000Y-40957500D03*
D17*
X218340000Y-43497500D03*
X231267000Y-40957500D03*
%TD*%
D16*
%TO.C,SW28*%
X92392500Y-84137500D03*
D15*
X89852500Y-79057500D03*
X83502500Y-81597500D03*
D14*
X87312500Y-84137500D03*
D16*
X82232500Y-84137500D03*
D17*
X80227500Y-81597500D03*
X93154500Y-79057500D03*
%TD*%
D16*
%TO.C,SW3*%
X67945000Y-46037500D03*
X78105000Y-46037500D03*
D15*
X75565000Y-40957500D03*
D14*
X73025000Y-46037500D03*
D15*
X69215000Y-43497500D03*
D17*
X65940000Y-43497500D03*
X78867000Y-40957500D03*
%TD*%
D16*
%TO.C,SW1*%
X25082500Y-46037500D03*
D15*
X33972500Y-48577500D03*
D14*
X30162500Y-46037500D03*
D16*
X35242500Y-46037500D03*
D15*
X27622500Y-51117500D03*
D17*
X37247500Y-48577500D03*
X24320500Y-51117500D03*
%TD*%
D16*
%TO.C,SW10*%
X201295000Y-46037500D03*
D15*
X208915000Y-40957500D03*
D16*
X211455000Y-46037500D03*
D15*
X202565000Y-43497500D03*
D14*
X206375000Y-46037500D03*
D17*
X199290000Y-43497500D03*
X212217000Y-40957500D03*
%TD*%
D15*
%TO.C,SW13*%
X247015000Y-40957500D03*
X240665000Y-43497500D03*
D16*
X249555000Y-46037500D03*
X239395000Y-46037500D03*
D14*
X244475000Y-46037500D03*
D17*
X237390000Y-43497500D03*
X250317000Y-40957500D03*
%TD*%
D16*
%TO.C,SW27*%
X73342500Y-84137500D03*
D14*
X68262500Y-84137500D03*
D16*
X63182500Y-84137500D03*
D15*
X70802500Y-79057500D03*
X64452500Y-81597500D03*
D17*
X61177500Y-81597500D03*
X74104500Y-79057500D03*
%TD*%
D15*
%TO.C,SW22*%
X188277500Y-62547500D03*
D16*
X187007500Y-65087500D03*
D14*
X192087500Y-65087500D03*
D16*
X197167500Y-65087500D03*
D15*
X194627500Y-60007500D03*
D17*
X185002500Y-62547500D03*
X197929500Y-60007500D03*
%TD*%
D16*
%TO.C,SW6*%
X135255000Y-46037500D03*
D15*
X132715000Y-40957500D03*
D16*
X125095000Y-46037500D03*
D15*
X126365000Y-43497500D03*
D14*
X130175000Y-46037500D03*
D17*
X123090000Y-43497500D03*
X136017000Y-40957500D03*
%TD*%
D16*
%TO.C,SW24*%
X225107500Y-65087500D03*
D15*
X226377500Y-62547500D03*
D16*
X235267500Y-65087500D03*
D15*
X232727500Y-60007500D03*
D14*
X230187500Y-65087500D03*
D17*
X223102500Y-62547500D03*
X236029500Y-60007500D03*
%TD*%
D14*
%TO.C,SW29*%
X106362500Y-84137500D03*
D15*
X108902500Y-79057500D03*
D16*
X111442500Y-84137500D03*
X101282500Y-84137500D03*
D15*
X102552500Y-81597500D03*
D17*
X99277500Y-81597500D03*
X112204500Y-79057500D03*
%TD*%
D16*
%TO.C,SW20*%
X148907500Y-65087500D03*
D15*
X150177500Y-62547500D03*
D16*
X159067500Y-65087500D03*
D15*
X156527500Y-60007500D03*
D14*
X153987500Y-65087500D03*
D17*
X146902500Y-62547500D03*
X159829500Y-60007500D03*
%TD*%
D15*
%TO.C,SW14*%
X29998117Y-70146067D03*
D16*
X37618117Y-65066067D03*
D14*
X32538117Y-65066067D03*
D15*
X36348117Y-67606067D03*
D16*
X27458117Y-65066067D03*
D17*
X39623117Y-67606067D03*
X26696117Y-70146067D03*
%TD*%
D15*
%TO.C,SW2*%
X57785000Y-48577500D03*
D16*
X48895000Y-46037500D03*
X59055000Y-46037500D03*
D14*
X53975000Y-46037500D03*
D15*
X51435000Y-51117500D03*
D17*
X61060000Y-48577500D03*
X48133000Y-51117500D03*
%TD*%
D15*
%TO.C,SW12(1.5)1*%
X246697500Y-51117500D03*
D16*
X244157500Y-46037500D03*
X254317500Y-46037500D03*
D15*
X253047500Y-48577500D03*
D14*
X249237500Y-46037500D03*
D17*
X256322500Y-48577500D03*
X243395500Y-51117500D03*
%TD*%
D15*
%TO.C,SW26*%
X39860255Y-79025102D03*
D18*
X25382255Y-77120102D03*
D14*
X25382255Y-92360102D03*
X37320255Y-84105102D03*
D18*
X49258255Y-77120102D03*
D15*
X33510255Y-81565102D03*
D16*
X42400255Y-84105102D03*
D14*
X49258255Y-92360102D03*
D16*
X32240255Y-84105102D03*
D17*
X30235255Y-81565102D03*
X43162255Y-79025102D03*
%TD*%
D19*
%TO.C,SW47*%
X43302000Y-96926000D03*
X43302000Y-103226000D03*
X39502000Y-96926000D03*
X39502000Y-103226000D03*
%TD*%
D20*
%TO.C,D12*%
X76200000Y-104587500D03*
X76200000Y-101787500D03*
%TD*%
%TO.C,D43*%
X255587500Y-91887500D03*
X255587500Y-89087500D03*
%TD*%
%TO.C,D29*%
X185737500Y-85537500D03*
X185737500Y-82737500D03*
%TD*%
%TO.C,D34*%
X209550000Y-47437500D03*
X209550000Y-44637500D03*
%TD*%
%TO.C,D28*%
X176212500Y-66487500D03*
X176212500Y-63687500D03*
%TD*%
%TO.C,D44*%
X257175000Y-42675000D03*
X257175000Y-39875000D03*
%TD*%
%TO.C,D21*%
X138112500Y-66487500D03*
X138112500Y-63687500D03*
%TD*%
D21*
%TO.C,C7*%
X43843000Y-57912000D03*
X44803000Y-57912000D03*
%TD*%
D20*
%TO.C,D5*%
X33337500Y-104587500D03*
X33337500Y-101787500D03*
%TD*%
%TO.C,D30*%
X190500000Y-47437500D03*
X190500000Y-44637500D03*
%TD*%
D22*
%TO.C,C5*%
X55032589Y-84413411D03*
X55711411Y-83734589D03*
%TD*%
D20*
%TO.C,D42*%
X264287000Y-66487500D03*
X264287000Y-63687500D03*
%TD*%
%TO.C,D14*%
X100012500Y-66487500D03*
X100012500Y-63687500D03*
%TD*%
D23*
%TO.C,R2*%
X45390637Y-66218637D03*
X46557363Y-67385363D03*
%TD*%
D20*
%TO.C,D11*%
X90487500Y-85537500D03*
X90487500Y-82737500D03*
%TD*%
D24*
%TO.C,R3*%
X49024000Y-100584000D03*
X48004000Y-100584000D03*
%TD*%
D20*
%TO.C,D39*%
X230187500Y-91887500D03*
X230187500Y-89087500D03*
%TD*%
%TO.C,D31*%
X195262500Y-66487500D03*
X195262500Y-63687500D03*
%TD*%
D25*
%TO.C,U2*%
X43863500Y-54676000D03*
X43863500Y-56576000D03*
X41988500Y-55626000D03*
%TD*%
D26*
%TO.C,U3*%
X71267225Y-52196320D03*
X71267225Y-53466320D03*
X71267225Y-54736320D03*
X71267225Y-56006320D03*
X64067225Y-56006320D03*
X64067225Y-54736320D03*
X64067225Y-53466320D03*
X64067225Y-52196320D03*
%TD*%
D27*
%TO.C,C16*%
X48613000Y-73533000D03*
X47653000Y-73533000D03*
%TD*%
D28*
%TO.C,C15*%
X49902992Y-68745464D03*
X49224170Y-68066642D03*
%TD*%
D29*
%TO.C,C11*%
X54187411Y-82464589D03*
X53508589Y-83143411D03*
%TD*%
D20*
%TO.C,D23*%
X152400000Y-47437500D03*
X152400000Y-44637500D03*
%TD*%
D30*
%TO.C,J1*%
X45752499Y-41319539D03*
X39972499Y-41319539D03*
D31*
X39612499Y-42764539D03*
X40412499Y-42764539D03*
D32*
X41612499Y-42764539D03*
X42612499Y-42764539D03*
X43112499Y-42764539D03*
X44112499Y-42764539D03*
D31*
X45312499Y-42764539D03*
X46112499Y-42764539D03*
X46112499Y-42764539D03*
X45312499Y-42764539D03*
D32*
X44612499Y-42764539D03*
X43612499Y-42764539D03*
X42112499Y-42764539D03*
X41112499Y-42764539D03*
D31*
X40412499Y-42764539D03*
X39612499Y-42764539D03*
D33*
X47182499Y-41849539D03*
D34*
X47182499Y-37669539D03*
X38542499Y-37669539D03*
D33*
X38542499Y-41849539D03*
%TD*%
D27*
%TO.C,C8*%
X43914000Y-58928000D03*
X42954000Y-58928000D03*
%TD*%
D21*
%TO.C,C14*%
X63726084Y-71374000D03*
X64686084Y-71374000D03*
%TD*%
D35*
%TO.C,R5*%
X45720000Y-45972000D03*
X45720000Y-46992000D03*
%TD*%
D28*
%TO.C,C17*%
X56600411Y-68030411D03*
X55921589Y-67351589D03*
%TD*%
D20*
%TO.C,D24*%
X157162500Y-66487500D03*
X157162500Y-63687500D03*
%TD*%
D28*
%TO.C,C1*%
X50197263Y-71520150D03*
X49518441Y-70841328D03*
%TD*%
%TO.C,C2*%
X50631411Y-68030411D03*
X49952589Y-67351589D03*
%TD*%
D20*
%TO.C,D20*%
X133350000Y-47437500D03*
X133350000Y-44637500D03*
%TD*%
%TO.C,D45*%
X271462500Y-104587500D03*
X271462500Y-101787500D03*
%TD*%
%TO.C,D40*%
X228600000Y-104587500D03*
X228600000Y-101787500D03*
%TD*%
%TO.C,D27*%
X171450000Y-47437500D03*
X171450000Y-44637500D03*
%TD*%
D36*
%TO.C,U1*%
X56351349Y-69804890D03*
X56634192Y-70087733D03*
X56917034Y-70370575D03*
X57199877Y-70653418D03*
X57482720Y-70936261D03*
X57765562Y-71219103D03*
X58048405Y-71501946D03*
X58331248Y-71784789D03*
X58614091Y-72067632D03*
X58896933Y-72350474D03*
X59179776Y-72633317D03*
X59462619Y-72916160D03*
X59745461Y-73199002D03*
X60028304Y-73481845D03*
D37*
X60028304Y-74666249D03*
X59745461Y-74949092D03*
X59462619Y-75231934D03*
X59179776Y-75514777D03*
X58896933Y-75797620D03*
X58614091Y-76080462D03*
X58331248Y-76363305D03*
X58048405Y-76646148D03*
X57765562Y-76928991D03*
X57482720Y-77211833D03*
X57199877Y-77494676D03*
X56917034Y-77777519D03*
X56634192Y-78060361D03*
X56351349Y-78343204D03*
D36*
X55166945Y-78343204D03*
X54884102Y-78060361D03*
X54601260Y-77777519D03*
X54318417Y-77494676D03*
X54035574Y-77211833D03*
X53752732Y-76928991D03*
X53469889Y-76646148D03*
X53187046Y-76363305D03*
X52904203Y-76080462D03*
X52621361Y-75797620D03*
X52338518Y-75514777D03*
X52055675Y-75231934D03*
X51772833Y-74949092D03*
X51489990Y-74666249D03*
D37*
X51489990Y-73481845D03*
X51772833Y-73199002D03*
X52055675Y-72916160D03*
X52338518Y-72633317D03*
X52621361Y-72350474D03*
X52904203Y-72067632D03*
X53187046Y-71784789D03*
X53469889Y-71501946D03*
X53752732Y-71219103D03*
X54035574Y-70936261D03*
X54318417Y-70653418D03*
X54601260Y-70370575D03*
X54884102Y-70087733D03*
X55166945Y-69804890D03*
D38*
X55759147Y-74074047D03*
%TD*%
D39*
%TO.C,J2*%
X47337500Y-103212500D03*
D40*
X49877500Y-103212500D03*
X52417500Y-103212500D03*
X54957500Y-103212500D03*
X57497500Y-103212500D03*
%TD*%
D20*
%TO.C,D33*%
X190500000Y-104587500D03*
X190500000Y-101787500D03*
%TD*%
%TO.C,D4*%
X40386000Y-85537500D03*
X40386000Y-82737500D03*
%TD*%
%TO.C,D16*%
X114300000Y-47437500D03*
X114300000Y-44637500D03*
%TD*%
D41*
%TO.C,C12*%
X62230000Y-52168320D03*
X62230000Y-51208320D03*
%TD*%
D20*
%TO.C,D3*%
X38100000Y-57337500D03*
X38100000Y-60137500D03*
%TD*%
%TO.C,D8*%
X71437500Y-85537500D03*
X71437500Y-82737500D03*
%TD*%
D42*
%TO.C,R7*%
X58688924Y-83894005D03*
X57967676Y-83172757D03*
%TD*%
D20*
%TO.C,D15*%
X109537500Y-85537500D03*
X109537500Y-82737500D03*
%TD*%
D29*
%TO.C,C13*%
X51647411Y-80432589D03*
X50968589Y-81111411D03*
%TD*%
D20*
%TO.C,D22*%
X147637500Y-85537500D03*
X147637500Y-82737500D03*
%TD*%
%TO.C,D10*%
X80962500Y-66487500D03*
X80962500Y-63687500D03*
%TD*%
%TO.C,D26*%
X152400000Y-104587500D03*
X152400000Y-101787500D03*
%TD*%
%TO.C,D32*%
X204787500Y-85537500D03*
X204787500Y-82737500D03*
%TD*%
%TO.C,D37*%
X228600000Y-47437500D03*
X228600000Y-44637500D03*
%TD*%
D27*
%TO.C,C4*%
X39342000Y-55626000D03*
X38382000Y-55626000D03*
%TD*%
D29*
%TO.C,C6*%
X60029411Y-87417589D03*
X59350589Y-88096411D03*
%TD*%
D20*
%TO.C,D19*%
X114300000Y-104587500D03*
X114300000Y-101787500D03*
%TD*%
D24*
%TO.C,R6*%
X72317425Y-50494520D03*
X71297425Y-50494520D03*
%TD*%
D20*
%TO.C,D9*%
X76200000Y-47437500D03*
X76200000Y-44637500D03*
%TD*%
D27*
%TO.C,C10*%
X48613000Y-74676000D03*
X47653000Y-74676000D03*
%TD*%
D20*
%TO.C,D17*%
X119062500Y-66487500D03*
X119062500Y-63687500D03*
%TD*%
%TO.C,D7*%
X61912500Y-66487500D03*
X61912500Y-63687500D03*
%TD*%
%TO.C,D2*%
X22225000Y-41462500D03*
X22225000Y-44262500D03*
%TD*%
D43*
%TO.C,F1*%
X39370000Y-51305000D03*
X39370000Y-54105000D03*
%TD*%
D29*
%TO.C,C3*%
X54187411Y-81067589D03*
X53508589Y-81746411D03*
%TD*%
D20*
%TO.C,D6*%
X61912500Y-41462500D03*
X61912500Y-44262500D03*
%TD*%
D23*
%TO.C,R1*%
X46533637Y-65075637D03*
X47700363Y-66242363D03*
%TD*%
D20*
%TO.C,D25*%
X166687500Y-85537500D03*
X166687500Y-82737500D03*
%TD*%
D44*
%TO.C,SW46*%
X84112500Y-55875000D03*
X77812500Y-55875000D03*
X84112500Y-52075000D03*
X77812500Y-52075000D03*
%TD*%
D35*
%TO.C,R4*%
X40894000Y-45972000D03*
X40894000Y-46992000D03*
%TD*%
D20*
%TO.C,D36*%
X223837500Y-85537500D03*
X223837500Y-82737500D03*
%TD*%
D45*
%TO.C,Y1*%
X57354223Y-84600142D03*
X58909858Y-86155777D03*
X57707777Y-87357858D03*
X56152142Y-85802223D03*
%TD*%
D46*
%TO.C,U4*%
X44257000Y-48762500D03*
X43307000Y-48762500D03*
X42357000Y-48762500D03*
X42357000Y-46487500D03*
X43307000Y-46487500D03*
X44257000Y-46487500D03*
%TD*%
D20*
%TO.C,D18*%
X128587500Y-85537500D03*
X128587500Y-82737500D03*
%TD*%
%TO.C,D41*%
X239712500Y-53787500D03*
X239712500Y-50987500D03*
%TD*%
%TO.C,D35*%
X214312500Y-66487500D03*
X214312500Y-63687500D03*
%TD*%
%TO.C,D38*%
X233362500Y-66487500D03*
X233362500Y-63687500D03*
%TD*%
D28*
%TO.C,C9*%
X49488411Y-72221411D03*
X48809589Y-71542589D03*
%TD*%
D20*
%TO.C,D13*%
X95250000Y-47437500D03*
X95250000Y-44637500D03*
%TD*%
M02*
