M48
; DRILL file {KiCad (6.0.11)} date Mon Mar 20 14:32:51 2023
; FORMAT={-:-/ absolute / inch / decimal}
; #@! TF.CreationDate,2023-03-20T14:32:51+01:00
; #@! TF.GenerationSoftware,Kicad,Pcbnew,(6.0.11)
; #@! TF.FileFunction,Plated,1,2,PTH
FMAT,2
INCH
; #@! TA.AperFunction,Plated,PTH,ViaDrill
T1C0.0118
; #@! TA.AperFunction,Plated,PTH,ComponentDrill
T2C0.0138
; #@! TA.AperFunction,Plated,PTH,ComponentDrill
T3C0.0236
; #@! TA.AperFunction,Plated,PTH,ComponentDrill
T4C0.0394
%
G90
G05
T1
X0.815Y-2.375
X0.815Y-2.55
X0.91Y-3.875
X1.19Y-3.125
X1.19Y-3.3
X1.4139Y-2.19
X1.45Y-2.2979
X1.465Y-1.835
X1.5Y-1.755
X1.55Y-1.9649
X1.565Y-2.745
X1.5684Y-3.9401
X1.5815Y-1.88
X1.63Y-2.11
X1.646Y-3.38
X1.68Y-2.88
X1.79Y-2.4
X1.8Y-1.895
X1.835Y-2.895
X1.88Y-1.755
X1.8921Y-2.7862
X1.92Y-2.64
X1.9815Y-3.2165
X1.9883Y-2.7317
X2.0Y-2.865
X2.0114Y-2.71
X2.035Y-2.375
X2.035Y-2.55
X2.0694Y-3.38
X2.08Y-3.245
X2.1048Y-2.8892
X2.14Y-3.35
X2.1517Y-3.1751
X2.155Y-2.055
X2.155Y-3.22
X2.1883Y-3.9623
X2.225Y-2.63
X2.2395Y-2.989
X2.314Y-2.408
X2.405Y-2.003
X2.41Y-2.982
X2.41Y-3.125
X2.52Y-1.99
X2.5828Y-2.81
X2.6Y-1.8
X2.6Y-3.8739
X2.745Y-2.205
X2.785Y-2.375
X2.785Y-2.55
X2.94Y-2.905
X3.16Y-3.125
X3.16Y-3.3
X3.31Y-2.2614
X3.345Y-1.8
X3.535Y-2.375
X3.535Y-2.55
X3.675Y-2.89
X3.91Y-3.125
X4.095Y-3.875
X4.1Y-1.8
X4.285Y-2.375
X4.285Y-2.55
X4.41Y-2.875
X4.66Y-3.125
X4.66Y-3.3
X4.85Y-1.8
X5.035Y-2.3711
X5.035Y-2.5461
X5.14Y-2.8551
X5.41Y-3.125
X5.6Y-1.8
X5.6Y-3.875
X5.785Y-2.368
X5.785Y-2.543
X5.875Y-2.84
X6.16Y-3.125
X6.16Y-3.3
X6.35Y-1.8
X6.535Y-2.37
X6.535Y-2.545
X6.624Y-2.838
X6.91Y-3.125
X7.095Y-1.8
X7.1Y-3.875
X7.285Y-2.37
X7.285Y-2.545
X7.35Y-2.815
X7.66Y-3.125
X7.66Y-3.3
X7.845Y-1.8
X8.035Y-2.37
X8.035Y-2.545
X8.0773Y-2.7921
X8.41Y-3.125
X8.595Y-1.8
X8.6Y-3.875
X8.785Y-2.37
X8.785Y-2.545
X9.1747Y-2.7833
X9.345Y-1.625
X9.72Y-3.328
X9.72Y-3.503
X9.815Y-3.303
X10.005Y-2.365
X10.005Y-2.54
X10.095Y-1.815
X10.095Y-1.99
X10.175Y-2.765
X10.28Y-1.625
X10.28Y-1.8
X10.285Y-3.878
X10.755Y-3.328
X10.755Y-3.503
X10.905Y-2.74
X11.03Y-1.818
T2
X2.1243Y-2.9163
X2.1597Y-2.8808
X2.1597Y-2.9518
X2.1952Y-2.8453
X2.1952Y-2.9163
X2.1952Y-2.9873
X2.2307Y-2.8808
X2.2307Y-2.9518
X2.2662Y-2.9163
T4
X1.9875Y-4.0635
X2.0875Y-4.0635
X2.1875Y-4.0635
X2.2875Y-4.0635
X2.3875Y-4.0635
T3
G00X1.5174Y-1.4712
M15
G01X1.5174Y-1.4949
M16
G05
G00X1.5174Y-1.626
M15
G01X1.5174Y-1.6693
M16
G05
G00X1.8576Y-1.4712
M15
G01X1.8576Y-1.4949
M16
G05
G00X1.8576Y-1.626
M15
G01X1.8576Y-1.6693
M16
G05
T0
M30
