M48
; DRILL file {KiCad (6.0.7)} date Fri Feb  3 15:59:56 2023
; FORMAT={-:-/ absolute / inch / decimal}
; #@! TF.CreationDate,2023-02-03T15:59:56+01:00
; #@! TF.GenerationSoftware,Kicad,Pcbnew,(6.0.7)
; #@! TF.FileFunction,NonPlated,1,2,NPTH
FMAT,2
INCH
; #@! TA.AperFunction,NonPlated,NPTH,ComponentDrill
T1C0.0256
; #@! TA.AperFunction,NonPlated,NPTH,ComponentDrill
T2C0.0689
; #@! TA.AperFunction,NonPlated,NPTH,ComponentDrill
T3C0.1181
; #@! TA.AperFunction,NonPlated,NPTH,ComponentDrill
T4C0.1200
; #@! TA.AperFunction,NonPlated,NPTH,ComponentDrill
T5C0.1570
%
G90
G05
T1
X1.5737Y-1.6268
X1.8013Y-1.6268
T2
X0.8942Y-2.5625
X0.9875Y-1.8125
X0.9877Y-4.0623
X1.081Y-2.5617
X1.2693Y-3.3112
X1.2942Y-2.5625
X1.3875Y-1.8125
X1.3877Y-4.0623
X1.481Y-2.5617
X1.6693Y-3.3112
X1.925Y-1.8125
X2.1125Y-2.5625
X2.325Y-1.8125
X2.4875Y-3.3125
X2.5125Y-2.5625
X2.675Y-1.8125
X2.675Y-4.0625
X2.8625Y-2.5625
X2.8875Y-3.3125
X3.075Y-1.8125
X3.075Y-4.0625
X3.2375Y-3.3125
X3.2625Y-2.5625
X3.425Y-1.8125
X3.6125Y-2.5625
X3.6375Y-3.3125
X3.825Y-1.8125
X3.9875Y-3.3125
X4.0125Y-2.5625
X4.175Y-1.8125
X4.175Y-4.0625
X4.3625Y-2.5625
X4.3875Y-3.3125
X4.575Y-1.8125
X4.575Y-4.0625
X4.7375Y-3.3125
X4.7625Y-2.5625
X4.925Y-1.8125
X5.1125Y-2.5625
X5.1375Y-3.3125
X5.325Y-1.8125
X5.4875Y-3.3125
X5.5125Y-2.5625
X5.675Y-1.8125
X5.675Y-4.0625
X5.8625Y-2.5625
X5.8875Y-3.3125
X6.075Y-1.8125
X6.075Y-4.0625
X6.2375Y-3.3125
X6.2625Y-2.5625
X6.425Y-1.8125
X6.6125Y-2.5625
X6.6375Y-3.3125
X6.825Y-1.8125
X6.9875Y-3.3125
X7.0125Y-2.5625
X7.175Y-1.8125
X7.175Y-4.0625
X7.3625Y-2.5625
X7.3875Y-3.3125
X7.575Y-1.8125
X7.575Y-4.0625
X7.7375Y-3.3125
X7.7625Y-2.5625
X7.925Y-1.8125
X8.1125Y-2.5625
X8.1375Y-3.3125
X8.325Y-1.8125
X8.4875Y-3.3125
X8.5125Y-2.5625
X8.675Y-1.8125
X8.675Y-4.0625
X8.8625Y-2.5625
X8.8875Y-3.3125
X9.075Y-1.8125
X9.075Y-4.0625
X9.2375Y-3.3125
X9.2625Y-2.5625
X9.425Y-1.8125
X9.6125Y-1.8125
X9.6375Y-3.3125
X9.825Y-1.8125
X9.8937Y-3.3122
X10.0125Y-1.8125
X10.0825Y-2.5622
X10.2706Y-3.3106
X10.2937Y-3.3122
X10.3625Y-1.8125
X10.3625Y-4.0625
X10.4825Y-2.5622
X10.55Y-1.8125
X10.6706Y-3.3106
X10.7625Y-1.8125
X10.7625Y-4.0625
X10.95Y-1.8125
T3
X0.9442Y-2.4625
X1.0377Y-3.9623
X1.0875Y-2.0125
X1.181Y-2.7617
X1.1942Y-2.3625
X1.2877Y-3.8623
X1.3193Y-3.2112
X1.3375Y-1.9125
X1.431Y-2.6617
X1.5693Y-3.1112
X2.025Y-2.0125
X2.1625Y-2.4625
X2.275Y-1.9125
X2.4125Y-2.3625
X2.5375Y-3.2125
X2.725Y-1.7125
X2.725Y-3.9625
X2.7875Y-3.1125
X2.9125Y-2.4625
X2.975Y-1.6125
X2.975Y-3.8625
X3.1625Y-2.3625
X3.2875Y-3.2125
X3.475Y-1.7125
X3.5375Y-3.1125
X3.6625Y-2.4625
X3.725Y-1.6125
X3.9125Y-2.3625
X4.0375Y-3.2125
X4.225Y-1.7125
X4.225Y-3.9625
X4.2875Y-3.1125
X4.4125Y-2.4625
X4.475Y-1.6125
X4.475Y-3.8625
X4.6625Y-2.3625
X4.7875Y-3.2125
X4.975Y-1.7125
X5.0375Y-3.1125
X5.1625Y-2.4625
X5.225Y-1.6125
X5.4125Y-2.3625
X5.5375Y-3.2125
X5.725Y-1.7125
X5.725Y-3.9625
X5.7875Y-3.1125
X5.9125Y-2.4625
X5.975Y-1.6125
X5.975Y-3.8625
X6.1625Y-2.3625
X6.2875Y-3.2125
X6.475Y-1.7125
X6.5375Y-3.1125
X6.6625Y-2.4625
X6.725Y-1.6125
X6.9125Y-2.3625
X7.0375Y-3.2125
X7.225Y-1.7125
X7.225Y-3.9625
X7.2875Y-3.1125
X7.4125Y-2.4625
X7.475Y-1.6125
X7.475Y-3.8625
X7.6625Y-2.3625
X7.7875Y-3.2125
X7.975Y-1.7125
X8.0375Y-3.1125
X8.1625Y-2.4625
X8.225Y-1.6125
X8.4125Y-2.3625
X8.5375Y-3.2125
X8.725Y-1.7125
X8.725Y-3.9625
X8.7875Y-3.1125
X8.9125Y-2.4625
X8.975Y-1.6125
X8.975Y-3.8625
X9.1625Y-2.3625
X9.3375Y-3.5125
X9.475Y-1.7125
X9.5875Y-3.4125
X9.7125Y-2.0125
X9.725Y-1.6125
X9.9437Y-3.2122
X9.9625Y-1.9125
X10.1325Y-2.4622
X10.1937Y-3.1122
X10.3706Y-3.5106
X10.3825Y-2.3622
X10.4125Y-1.7125
X10.4125Y-3.9625
X10.6206Y-3.4106
X10.65Y-2.0125
X10.6625Y-1.6125
X10.6625Y-3.8625
X10.9Y-1.9125
T4
X0.9993Y-3.0362
X1.9393Y-3.0362
X3.625Y-4.3375
X3.625Y-4.3375
X5.125Y-4.3375
X6.625Y-4.3375
X8.125Y-4.3375
X8.125Y-4.3375
X9.6237Y-3.0372
X9.8125Y-2.2872
X10.5637Y-3.0372
X10.7525Y-2.2872
T5
X0.9993Y-3.6362
X1.0942Y-2.5625
X1.1875Y-1.8125
X1.1877Y-4.0623
X1.281Y-2.5617
X1.4693Y-3.3112
X1.9393Y-3.6362
X2.125Y-1.8125
X2.3125Y-2.5625
X2.6875Y-3.3125
X2.875Y-1.8125
X2.875Y-4.0625
X3.0625Y-2.5625
X3.4375Y-3.3125
X3.625Y-1.8125
X3.625Y-3.7375
X3.625Y-3.7375
X3.8125Y-2.5625
X4.1875Y-3.3125
X4.375Y-1.8125
X4.375Y-4.0625
X4.5625Y-2.5625
X4.9375Y-3.3125
X5.125Y-1.8125
X5.125Y-3.7375
X5.3125Y-2.5625
X5.6875Y-3.3125
X5.875Y-1.8125
X5.875Y-4.0625
X6.0625Y-2.5625
X6.4375Y-3.3125
X6.625Y-1.8125
X6.625Y-3.7375
X6.8125Y-2.5625
X7.1875Y-3.3125
X7.375Y-1.8125
X7.375Y-4.0625
X7.5625Y-2.5625
X7.9375Y-3.3125
X8.125Y-1.8125
X8.125Y-3.7375
X8.125Y-3.7375
X8.3125Y-2.5625
X8.6875Y-3.3125
X8.875Y-1.8125
X8.875Y-4.0625
X9.0625Y-2.5625
X9.4375Y-3.3125
X9.6237Y-3.6372
X9.625Y-1.8125
X9.8125Y-1.8125
X9.8125Y-2.8872
X10.0937Y-3.3122
X10.2825Y-2.5622
X10.4706Y-3.3106
X10.5625Y-1.8125
X10.5625Y-4.0625
X10.5637Y-3.6372
X10.75Y-1.8125
X10.7525Y-2.8872
T0
M30
